<svg xmlns="http://www.w3.org/2000/svg" xmlns:xlink="http://www.w3.org/1999/xlink" width="231" height="231" viewBox="0 0 231 231">
  <defs>
    <radialGradient id="radial-gradient" cx="0.5" cy="0.5" r="0.5" gradientUnits="objectBoundingBox">
      <stop offset="0" stop-color="#80d6fa"/>
      <stop offset="0" stop-color="#78d1f7" stop-opacity="0.565"/>
      <stop offset="0.236" stop-color="#76d0f6" stop-opacity="0.765"/>
      <stop offset="0.498" stop-color="#6ac9f1" stop-opacity="0.443"/>
      <stop offset="0.798" stop-color="#5dc1ec" stop-opacity="0.502"/>
      <stop offset="1" stop-color="#54bce8" stop-opacity="0"/>
    </radialGradient>
  </defs>
  <g id="Grupo_108567" data-name="Grupo 108567" transform="translate(-911.5 -105)">
    <circle id="Elipse_5707" data-name="Elipse 5707" cx="115.5" cy="115.5" r="115.5" transform="translate(911.5 105)" opacity="0.564" fill="url(#radial-gradient)"/>
    <g id="Grupo_108381" data-name="Grupo 108381" transform="translate(-3259.91 300.84)">
      <g id="Layer_5" data-name="Layer 5" transform="translate(4238.427 -175.603)">
        <g id="Grupo_107785" data-name="Grupo 107785" transform="translate(0 0)">
          <path id="Trazado_164078" data-name="Trazado 164078" d="M4901.342,167.012l-6.144-2.36-4.372-4.9-1.455-4.648V88.608l2.344-6.1,5.3-4.494,5.375-1.3.124-31.227s1.438-7.14,1.819-8.006,4.6-8.2,4.6-8.2l5.844-5.707,6.94-3.9,7.375-1.933,19.112.2,7.939,2.556,6.943,4.589,6.2,7.438,3.73,9.72V76.7l5.744.973,4.443,2.911,3.419,5.512.654,4.143v65.329l-2.892,6.244-5.156,4.03-4.435,1.171Z" transform="translate(-4889.372 -17.745)" fill="none" stroke="#54bce8" stroke-miterlimit="10" stroke-width="2"/>
          <path id="Trazado_164079" data-name="Trazado 164079" d="M5255.8,887.791c.169-.989,1.6-19.358,1.6-19.358l-3.6-2.129a45.021,45.021,0,0,1-3.282-4.222c-.316-.748-1.254-5.512-1.254-5.512l.952-4.836,1.972-3.277,5.215-3.751,4.57-.847,6.834,1.991,4.24,4.477,1.637,3.876-.379,5.458-2.107,4.461-2.9,2.838s-2.871,1.479-2.827,1.5,1.429,19.329,1.429,19.329Z" transform="translate(-5213.405 -761.547)" fill="none" stroke="#54bce8" stroke-miterlimit="10" stroke-width="2"/>
          <path id="Trazado_164080" data-name="Trazado 164080" d="M5212.236,210.292h-41.109V179.81l1.675-5.017,3.5-4.594,5.433-3.221,3.48-.857,13.612.171,6.368,2.451,4.118,3.98,2.925,4.947v32.621Z" transform="translate(-5143.054 -151.337)" fill="none" stroke="#54bce8" stroke-miterlimit="10" stroke-width="2"/>
        </g>
      </g>
      <g id="Grupo_107786" data-name="Grupo 107786" transform="translate(4238.427 -175.72)">
        <path id="Trazado_164081" data-name="Trazado 164081" d="M4974.8,699.748l3.4-5.979,6.188.778,2.892-6.244-9.079,5.466,3.4-8.617,5.674,3.151-5.674-3.151,5.674-14.568-2.85-14.786,2.85-32.824-5.838-2.2,1.765-7.453-6,1.858-4.182-5.741,5.744.973-1.562,4.769,4.239,5.6,5.184-1.941-5.184,1.941,2.988,35.026-2.825,29.354-3.4,8.617-20.4,5.979-11.75-3.964-22.79,3.727-9.7-3.3-12.215,3.537-3.274-6.309-7.241-.953,2.021-6.633-3.476-24.23,3.476,24.23,5.22,7.587-2.869,3.949,2.869-3.949,15.49,2.772,32.494-.427,32.148-2.015-14.625-6.556-17.524,8.571-13.2-9.972-19.295,10.4-8.646-11.017-12.063.658,5.22,7.587,6.843-8.245-13.2-6.63,2.283-13.135-4.617-19.565,5.6-9.833-5.6-14.687,8.676-2.854,4.346-9.046-5.375,1.3,1.029,7.743-6.332-3.249-2.344,6.1,8.676-2.854-3.073,17.541-.985,29.4,10.922,19.765,27.941.619,30.723,1.4,18.029-2.061-18.029,2.061,23.7-16.629-3-13.163-7.6-17.383,4.758-19.266-12.888,2.8,4.466-14.133h-14.465l2.664,1.557,11.8-1.557s4.182,5.786,4.182,5.741-8.648,8.392-8.648,8.392l-7.334-12.575-22.893,1.406,1.474-2.964-1.474,2.964,20.229-2.964H4939.8l-24.188,2.964-13.218-2.955,15.052-.008-1.834,2.964-17.563,6.09,18.583-1.339-1.02-4.752s1,4.776,1.02,4.752,11.171-6.245,11.171-6.245l10.523,1.494-2.954,9.21-7.569-10.7-11.171,6.245,18.741,4.459,25.847-10.617,7.334,12.575-12.191-1.948-20.991-.01-19.226,6.039.485-10.5-18.583,1.339,18.1,9.159-21.171,8.383,16.373,9.846,4.8-18.229-4.8,18.229-17.358,19.551s17.924-2.555,17.912-3.193-.554-16.358-.554-16.358l.554,16.358-6.99,22.958,6.99-22.958,7.016,12.937-14.005,10.021,14.005-10.021,13.936,10.64-1.082-9.087-12.854-1.553,12.854,1.553h12.094l-11.013,9.087,11.013-9.087,19.71,10.488,2.392-11.862-22.1,1.374,22.1-1.374,16.866-1.741-16.866,1.741,18.316-17.929-13.194-.027-5.123,17.956,5.123-17.956,5.593-17.356-8.13-16.47-7.334-12.575-4.856,10.627,7.17,14.786,5.021-12.838,8.13,16.47-13.151-3.632,7.558,20.988-5.123,17.956L4955.3,662.233l15.786-4.838-15.786,4.838-11.439,14.492,11.439-14.492-12.868-4.837,12.868,4.837-7.139-9.177s7.1,9.134,7.139,9.177,8.228-25.826,8.228-25.826l-15.367,16.649,2.776-5.839-1.927-7.956,14.517-2.854-28.161-14.8,8.64,12.7,12.351-12.692-12.351,12.692-6.07-1.519-2.57-11.183-2,12.031-17.225-5.992,9.819,14.131-14.618,4.1,15.138,5.138-14.584,11.22,21.47-4.869-14.454,17.806" transform="translate(-4889.372 -550.364)" fill="none" stroke="#54bce8" stroke-miterlimit="10" stroke-width="1"/>
        <path id="Trazado_164082" data-name="Trazado 164082" d="M5020.06,75.65l3.107-6.533-3.107-10.835,2.589-10.182L5022,36.418l7.347-4.937,3.1-8.966,7.959-.125,6.355-5.7,9.946,4.372,9.166-4.17,6.518,5.457,8.957,2.4,3.442,9.714,5.893,6.734-3.947,16.1,3.824,9.228-4.5,9.375-9.84-3.217,2.622-7.8-2.622-12.129,3.848-6.031-3.848-3.7-.753-6.935-6.29-1.993-5.46-5.537-7.147,2.914-6.05-2.692-4.8,3.55-7.451.891-3.611,11.746-1.844,11.378,2.4,12.575-5.323,6.765-6.721-6.566.466-8.584-3.573-2.251,3.573,2.251-.984-12.433-2.589-4.872L5022,36.418l7.347-4.937-2.744-3.259,2.744,3.259,11.06-9.09-1.019-3.77,1.019,3.77,16.3-1.331.28-4.489-.28,4.489,15.683,1.287,1.422-2.9-1.422,2.9,12.4,12.111,2.163-2.986-2.163,2.986,1.946,22.839,3.947-.517v9.489l-4.5,9.375.555-18.346-7.9,7.586,7.379,10.8-7.379-10.8h0l1.226-18.16-4.6-10.635-11.75-7.53-13.2.222-12.253,4.44.634,4.148-.634-4.148-6.489,7.39,2.933,4.305-2.933-4.305,1.034,15.734-1.343,9.489,3.741,3.087-5.323,6.765,1.582-9.851-8.3,3.285.466-8.584,7.836,5.3,1.3-9.555-9.2,4.325,8.211-19.992-9.129,7.49,10.164,8.244-1.034-15.734-2.429-9.128-6.7,16.618,6.7-16.618,8.918,1.738,2.142-10.829,10.112,6.388,6.093-7.767,7.1,7.545,8.676-6.211,3.074,13.741,9.325-1.63-4.724,12.265,6.67,10.574-.555,18.346" transform="translate(-5007.097 -16.828)" fill="none" stroke="#54bce8" stroke-miterlimit="10" stroke-width="1"/>
      </g>
      <g id="Layer_8" data-name="Layer 8" transform="translate(4237.767 -175.402)" opacity="0.33">
        <path id="Trazado_164124" data-name="Trazado 164124" d="M4883.411,688.583l8.706,5.563,15.469,2.533,32.5-.523,31.708-1.007,3.881-9,2.643-28.35-2.864-36.634-4.214-5.656-8.65-5.656-52.9,2.883-13.2-2.883-13.085,12.93,5.655,14.483-1,28.589-2.218,13.64-2.439,9.093-.666-24.951.666-18.076V622.778l2.328-8.1,5.9-3.615,4.857-1.22h66.093l10.208.932,4.442,2.911,3.419,5.512.672,4.175v65.317l-3.548,6.875-4.518,3.379-4.465,1.168h-73.412l-6.21-2.329-4.325-4.879Z" transform="translate(-4882.745 -551.054)" fill="#54bce8"/>
        <path id="Trazado_164125" data-name="Trazado 164125" d="M5138.2,184l-3.63-9.851,1.343-9.489,1.9-11.429,1.456-4.752,1.817-5.931,12.537-5.452,13.2-.222,11.748,7.537,4.6,10.628-1.226,18.16-2.6,7.807-.3,2.994.3-22.955v-9.759l-2.83-4.822-4.267-4.582-6.321-1.907-6.21.311-7.416-.5-3.452.852-5.46,3.226-1.3,2.185-2.815,2.427-1.066,10.348Z" transform="translate(-5109.479 -125.206)" fill="#54bce8"/>
        <path id="Trazado_164126" data-name="Trazado 164126" d="M5091.5,78.784l-.22-9.093-5.865-32.355-3.45-9.142-10-2.972-5.464-5.454-9.152,4.123L5047.258,20.1l-6.543,5.123-11.2,9.093-6.241,16.663,1.14,11.947-.666,9.093-2.994,6.543.111-31.938,1.553-7.1,4.769-8.428,5.889-5.7,7.444-3.852,6.739-1.444,10.313-.111,8.931-.22,7.939,2.556,7.527,5.87,5.434,6.654,3.881,9.226Z" transform="translate(-5007.003 -19.768)" fill="#54bce8"/>
        <path id="Trazado_164127" data-name="Trazado 164127" d="M5238.086,872.567s-1.275,2.273-1.5,1.719,1.553-19.961,1.553-19.961l-1-1-5.193-5.613-2.453-8.129,2.04-4.39,5.661-5.988,4.658-2.329,6.721.756,4.036,2.365,3.038,3.089,3.218,5.035-.407,5.944-3.743,7.1-3.238,2.795-1.234,1.762,1.234,15.4.354,2.363-15.248.8,1.553-1.663,11.921-.166-1.391-19.283,2.827-1.5,3.221-2.836,2.218-5.434-.05-4.487-1.613-3.83-5.027-5-6.07-1.519-4.571.847-5.215,3.751-2.191,4.388.521,9.236,3.282,4.222,3.524,2.257Z" transform="translate(-5194.948 -746.459)" fill="#54bce8"/>
      </g>
      <g id="Layer_10" data-name="Layer 10" transform="translate(4237.767 -175.603)" opacity="0.15">
        <path id="Trazado_164128" data-name="Trazado 164128" d="M4968.8,167.009l-39.017-8.08-37.665,2.11-9.372-30.514L4896.5,76.741l12.321-53.168,41.366-3.071,16.842,21.75L4963.7,76.519l7.019,30.784,4.958,45.733-5.212,13.973,7.319-4.547,3.548-6.21.666-18.408-.666-46.775-.665-5.633-3.327-4.813-4.769-3.105-5.517-.817-.028-34.447-3.349-9.759-5.966-6.654-7.527-5.338-8.309-2.757-8.561.421-10.181-.421-6.871,1.976-7.444,3.852L4898.16,37.706,4896.5,76.741l-6.01,1.22-4.747,4.547-2.328,7.164v66.47l6.432,8.539,28.056,2.107Z" transform="translate(-4882.745 -17.745)" fill="#54bce8"/>
        <path id="Trazado_164129" data-name="Trazado 164129" d="M5042.646,609.848l-35.486,3.105-22.623-.222-17.521,6.1L4966,610.868l5.456-1.02,56.356.067Z" transform="translate(-4957.701 -550.852)" fill="#54bce8"/>
      </g>
    </g>
    <circle id="Elipse_5708" data-name="Elipse 5708" cx="55.5" cy="55.5" r="55.5" transform="translate(971.5 165)" opacity="0.564" fill="url(#radial-gradient)"/>
  </g>
</svg>
