<svg xmlns="http://www.w3.org/2000/svg" width="473.063" height="290.363" viewBox="0 0 473.063 290.363">
  <g id="Grupo_108547" data-name="Grupo 108547" transform="translate(-879.969 -2313.061)">
    <g id="cloud" transform="translate(650.621 1320.871)">
      <g id="Grupo_107253" data-name="Grupo 107253" transform="translate(397.642 998.201)">
        <path id="Trazado_150908" data-name="Trazado 150908" d="M516.047,1068.061a1.039,1.039,0,0,1-1.039-1.038,1.116,1.116,0,0,1,1.039-1.124.973.973,0,0,1,1.038.957v.167A1.039,1.039,0,0,1,516.047,1068.061Z" transform="translate(-515.008 -1065.899)" fill="#2e97e6"/>
        <path id="Trazado_150909" data-name="Trazado 150909" d="M516.047,1170.571a1.039,1.039,0,0,1-1.039-1.039v-.336a1.038,1.038,0,1,1,2.077,0v.336A1.039,1.039,0,0,1,516.047,1170.571Zm0-8.778a1.039,1.039,0,0,1-1.039-1.039v-.336a1.038,1.038,0,1,1,2.077,0v.336A1.039,1.039,0,0,1,516.047,1161.793Zm0-8.778a1.039,1.039,0,0,1-1.039-1.038v-.341a1.038,1.038,0,0,1,2.077,0v.341A1.039,1.039,0,0,1,516.047,1153.016Zm0-8.781a1.039,1.039,0,0,1-1.039-1.039v-.336a1.038,1.038,0,1,1,2.077,0v.336A1.039,1.039,0,0,1,516.047,1144.234Zm0-8.778a1.039,1.039,0,0,1-1.039-1.038v-.337a1.038,1.038,0,0,1,2.077,0v.337A1.039,1.039,0,0,1,516.047,1135.457Zm0-8.777a1.039,1.039,0,0,1-1.039-1.039v-.336a1.038,1.038,0,1,1,2.077,0v.336A1.039,1.039,0,0,1,516.047,1126.68Zm0-8.782a1.039,1.039,0,0,1-1.039-1.038v-.337a1.038,1.038,0,0,1,2.077,0v.337A1.039,1.039,0,0,1,516.047,1117.9Zm0-8.777a1.039,1.039,0,0,1-1.039-1.038v-.337a1.038,1.038,0,0,1,2.077,0v.337A1.039,1.039,0,0,1,516.047,1109.12Zm0-8.777a1.039,1.039,0,0,1-1.039-1.039v-.336a1.038,1.038,0,1,1,2.077,0v.336A1.039,1.039,0,0,1,516.047,1100.343Zm0-8.777a1.039,1.039,0,0,1-1.039-1.038v-.341a1.038,1.038,0,0,1,2.077,0v.341A1.039,1.039,0,0,1,516.047,1091.566Zm0-8.781a1.039,1.039,0,0,1-1.039-1.039v-.336a1.038,1.038,0,1,1,2.077,0v.336A1.039,1.039,0,0,1,516.047,1082.785Z" transform="translate(-515.008 -1071.845)" fill="#2e97e6"/>
        <path id="Trazado_150910" data-name="Trazado 150910" d="M516.047,1246.579a1.039,1.039,0,0,1-1.039-1.038,1.112,1.112,0,0,1,1.039-1.12.97.97,0,0,1,1.038.953v.167A1.039,1.039,0,0,1,516.047,1246.579Z" transform="translate(-515.008 -1139.246)" fill="#2e97e6"/>
      </g>
      <g id="Grupo_107254" data-name="Grupo 107254" transform="translate(495.203 998.557)">
        <path id="Trazado_150911" data-name="Trazado 150911" d="M681.646,1068.663a1.039,1.039,0,0,1-1.039-1.038,1.112,1.112,0,0,1,1.039-1.12.97.97,0,0,1,1.038.953v.167A1.039,1.039,0,0,1,681.646,1068.663Z" transform="translate(-680.607 -1066.505)" fill="#2e97e6"/>
        <path id="Trazado_150912" data-name="Trazado 150912" d="M681.646,1171.17a1.04,1.04,0,0,1-1.039-1.039v-.336a1.038,1.038,0,1,1,2.077,0v.336A1.039,1.039,0,0,1,681.646,1171.17Zm0-8.778a1.04,1.04,0,0,1-1.039-1.039v-.336a1.038,1.038,0,1,1,2.077,0v.336A1.039,1.039,0,0,1,681.646,1162.392Zm0-8.778a1.039,1.039,0,0,1-1.039-1.038v-.341a1.038,1.038,0,0,1,2.077,0v.341A1.039,1.039,0,0,1,681.646,1153.615Zm0-8.781a1.04,1.04,0,0,1-1.039-1.039v-.336a1.038,1.038,0,1,1,2.077,0v.336A1.039,1.039,0,0,1,681.646,1144.833Zm0-8.778a1.039,1.039,0,0,1-1.039-1.038v-.337a1.038,1.038,0,0,1,2.077,0v.337A1.039,1.039,0,0,1,681.646,1136.056Zm0-8.777a1.04,1.04,0,0,1-1.039-1.039v-.336a1.038,1.038,0,1,1,2.077,0v.336A1.039,1.039,0,0,1,681.646,1127.279Zm0-8.782a1.039,1.039,0,0,1-1.039-1.038v-.337a1.038,1.038,0,0,1,2.077,0v.337A1.039,1.039,0,0,1,681.646,1118.5Zm0-8.778a1.039,1.039,0,0,1-1.039-1.038v-.337a1.038,1.038,0,0,1,2.077,0v.337A1.039,1.039,0,0,1,681.646,1109.719Zm0-8.777a1.04,1.04,0,0,1-1.039-1.039v-.336a1.038,1.038,0,1,1,2.077,0v.336A1.039,1.039,0,0,1,681.646,1100.942Zm0-8.778a1.039,1.039,0,0,1-1.039-1.038v-.341a1.038,1.038,0,0,1,2.077,0v.341A1.039,1.039,0,0,1,681.646,1092.165Zm0-8.781a1.04,1.04,0,0,1-1.039-1.039v-.336a1.038,1.038,0,1,1,2.077,0v.336A1.039,1.039,0,0,1,681.646,1083.384Z" transform="translate(-680.607 -1072.448)" fill="#2e97e6"/>
        <path id="Trazado_150913" data-name="Trazado 150913" d="M681.646,1247.178a1.039,1.039,0,0,1-1.039-1.038,1.112,1.112,0,0,1,1.039-1.12.973.973,0,0,1,1.038.957v.163A1.039,1.039,0,0,1,681.646,1247.178Z" transform="translate(-680.607 -1139.85)" fill="#2e97e6"/>
      </g>
      <g id="Grupo_107255" data-name="Grupo 107255" transform="translate(430.162 992.547)">
        <path id="Trazado_150914" data-name="Trazado 150914" d="M571.245,1058.464a1.039,1.039,0,0,1-1.038-1.039,1.115,1.115,0,0,1,1.038-1.124.97.97,0,0,1,1.039.953v.17A1.04,1.04,0,0,1,571.245,1058.464Z" transform="translate(-570.207 -1056.302)" fill="#2e97e6"/>
        <path id="Trazado_150915" data-name="Trazado 150915" d="M571.245,1160.966a1.039,1.039,0,0,1-1.038-1.038v-.337a1.038,1.038,0,0,1,2.077,0v.337A1.039,1.039,0,0,1,571.245,1160.966Zm0-8.777a1.039,1.039,0,0,1-1.038-1.039v-.336a1.038,1.038,0,1,1,2.077,0v.336A1.04,1.04,0,0,1,571.245,1152.189Zm0-8.778a1.039,1.039,0,0,1-1.038-1.038v-.341a1.038,1.038,0,0,1,2.077,0v.341A1.039,1.039,0,0,1,571.245,1143.411Zm0-8.781a1.039,1.039,0,0,1-1.038-1.039v-.336a1.038,1.038,0,1,1,2.077,0v.336A1.04,1.04,0,0,1,571.245,1134.63Zm0-8.778a1.039,1.039,0,0,1-1.038-1.039v-.336a1.038,1.038,0,0,1,2.077,0v.336A1.04,1.04,0,0,1,571.245,1125.853Zm0-8.778a1.039,1.039,0,0,1-1.038-1.038v-.337a1.038,1.038,0,0,1,2.077,0v.337A1.039,1.039,0,0,1,571.245,1117.075Zm0-8.781a1.039,1.039,0,0,1-1.038-1.039v-.336a1.038,1.038,0,1,1,2.077,0v.336A1.04,1.04,0,0,1,571.245,1108.294Zm0-8.778a1.039,1.039,0,0,1-1.038-1.038v-.337a1.038,1.038,0,0,1,2.077,0v.337A1.039,1.039,0,0,1,571.245,1099.516Zm0-8.777a1.039,1.039,0,0,1-1.038-1.039v-.336a1.038,1.038,0,1,1,2.077,0v.336A1.04,1.04,0,0,1,571.245,1090.739Zm0-8.778a1.039,1.039,0,0,1-1.038-1.039v-.34a1.038,1.038,0,0,1,2.077,0v.34A1.04,1.04,0,0,1,571.245,1081.962Zm0-8.782a1.038,1.038,0,0,1-1.038-1.038v-.336a1.038,1.038,0,1,1,2.077,0v.336A1.039,1.039,0,0,1,571.245,1073.18Z" transform="translate(-570.207 -1062.245)" fill="#2e97e6"/>
        <path id="Trazado_150916" data-name="Trazado 150916" d="M571.245,1236.982a1.039,1.039,0,0,1-1.038-1.039,1.111,1.111,0,0,1,1.038-1.119.97.97,0,0,1,1.039.953v.166A1.04,1.04,0,0,1,571.245,1236.982Z" transform="translate(-570.207 -1129.649)" fill="#2e97e6"/>
      </g>
      <g id="Grupo_107256" data-name="Grupo 107256" transform="translate(462.681 992.19)">
        <path id="Trazado_150917" data-name="Trazado 150917" d="M626.444,1057.858a1.039,1.039,0,0,1-1.039-1.039,1.116,1.116,0,0,1,1.039-1.124.973.973,0,0,1,1.038.957v.166A1.039,1.039,0,0,1,626.444,1057.858Z" transform="translate(-625.405 -1055.696)" fill="#2e97e6"/>
        <path id="Trazado_150918" data-name="Trazado 150918" d="M626.444,1160.367a1.039,1.039,0,0,1-1.039-1.038v-.337a1.038,1.038,0,0,1,2.077,0v.337A1.039,1.039,0,0,1,626.444,1160.367Zm0-8.777a1.039,1.039,0,0,1-1.039-1.039v-.336a1.038,1.038,0,1,1,2.077,0v.336A1.039,1.039,0,0,1,626.444,1151.59Zm0-8.778a1.039,1.039,0,0,1-1.039-1.038v-.341a1.038,1.038,0,0,1,2.077,0v.341A1.039,1.039,0,0,1,626.444,1142.813Zm0-8.781a1.04,1.04,0,0,1-1.039-1.039v-.336a1.038,1.038,0,1,1,2.077,0v.336A1.039,1.039,0,0,1,626.444,1134.031Zm0-8.778a1.039,1.039,0,0,1-1.039-1.039v-.336a1.038,1.038,0,0,1,2.077,0v.336A1.039,1.039,0,0,1,626.444,1125.254Zm0-8.778a1.039,1.039,0,0,1-1.039-1.038v-.336a1.038,1.038,0,1,1,2.077,0v.336A1.038,1.038,0,0,1,626.444,1116.476Zm0-8.781a1.04,1.04,0,0,1-1.039-1.039v-.336a1.038,1.038,0,1,1,2.077,0v.336A1.039,1.039,0,0,1,626.444,1107.7Zm0-8.778a1.039,1.039,0,0,1-1.039-1.038v-.337a1.038,1.038,0,0,1,2.077,0v.337A1.039,1.039,0,0,1,626.444,1098.917Zm0-8.777a1.039,1.039,0,0,1-1.039-1.039v-.336a1.038,1.038,0,1,1,2.077,0v.336A1.039,1.039,0,0,1,626.444,1090.14Zm0-8.778a1.039,1.039,0,0,1-1.039-1.039v-.341a1.038,1.038,0,0,1,2.077,0v.341A1.039,1.039,0,0,1,626.444,1081.363Zm0-8.782a1.039,1.039,0,0,1-1.039-1.038v-.336a1.038,1.038,0,1,1,2.077,0v.336A1.039,1.039,0,0,1,626.444,1072.581Z" transform="translate(-625.405 -1061.642)" fill="#2e97e6"/>
        <path id="Trazado_150919" data-name="Trazado 150919" d="M626.444,1236.38a1.04,1.04,0,0,1-1.039-1.039,1.115,1.115,0,0,1,1.039-1.123.973.973,0,0,1,1.038.957v.166A1.039,1.039,0,0,1,626.444,1236.38Z" transform="translate(-625.405 -1129.043)" fill="#2e97e6"/>
      </g>
      <path id="Trazado_150920" data-name="Trazado 150920" d="M691.769,1374.969c-88.555-70.786,17.176-189.689-57.821-234.043-73.385-45.16-137.091,31.769-264.507,23.386-84.172-5.537-106.719,38.976-97.35,84.743,9.38,45.823,25.052,81.531,15.505,123.489Z" transform="translate(-16.749 -92.646)" fill="#ffde95"/>
      <g id="Grupo_107260" data-name="Grupo 107260" transform="translate(283.515 1109.812)">
        <g id="Grupo_107257" data-name="Grupo 107257" transform="translate(270.336 104.267)">
          <path id="Trazado_150921" data-name="Trazado 150921" d="M794.525,1436.179a28.573,28.573,0,0,0-8.365,7.306l2.484,1.921a25.78,25.78,0,0,0-4.478,9.036l-3.026-.811a28.663,28.663,0,0,0-.753,11.08l.694-.085,2.42-.311a25.508,25.508,0,0,0,3.231,9.549l-2.722,1.572a28.36,28.36,0,0,0,7.316,8.359l1.921-2.484a25.561,25.561,0,0,0,9.025,4.484l-.811,3.026a28.727,28.727,0,0,0,11.09.748l-.006-.01-.107-.9-.282-2.2a25.453,25.453,0,0,0,9.538-3.226l1.572,2.723a28.429,28.429,0,0,0,8.369-7.322l-2.484-1.921a25.5,25.5,0,0,0,4.473-9.02l3.026.811a28.724,28.724,0,0,0,.747-11.09l-3.114.4a25.457,25.457,0,0,0-3.225-9.539l2.722-1.572a28.413,28.413,0,0,0-7.322-8.369l-1.921,2.484a25.513,25.513,0,0,0-9.019-4.474l.811-3.026a28.555,28.555,0,0,0-11.091-.748l0,.027.262,2.05.132,1.037a25.5,25.5,0,0,0-9.539,3.226Zm7.427,12.861a13.893,13.893,0,1,1-5.092,18.976A13.887,13.887,0,0,1,801.952,1449.04Z" transform="translate(-780.155 -1432.328)" fill="#e01650"/>
        </g>
        <g id="Grupo_107258" data-name="Grupo 107258" transform="translate(0 0)">
          <path id="Trazado_150922" data-name="Trazado 150922" d="M335.659,1259.2a28.571,28.571,0,0,0-8.365,7.306l2.484,1.921a25.783,25.783,0,0,0-4.478,9.036l-3.026-.81a28.673,28.673,0,0,0-.754,11.079l.694-.084,2.42-.311a25.523,25.523,0,0,0,3.231,9.549l-2.722,1.572a28.361,28.361,0,0,0,7.316,8.359l1.921-2.484a25.56,25.56,0,0,0,9.026,4.483l-.811,3.026a28.728,28.728,0,0,0,11.09.747l-.006-.01-.108-.9-.282-2.2a25.447,25.447,0,0,0,9.539-3.225l1.572,2.723a28.429,28.429,0,0,0,8.369-7.322l-2.484-1.921a25.5,25.5,0,0,0,4.473-9.02l3.026.811a28.737,28.737,0,0,0,.748-11.09l-3.114.395a25.459,25.459,0,0,0-3.226-9.538l2.723-1.572a28.432,28.432,0,0,0-7.322-8.369l-1.921,2.484a25.513,25.513,0,0,0-9.02-4.473l.811-3.026a28.541,28.541,0,0,0-11.09-.748l0,.027.262,2.049.132,1.038a25.5,25.5,0,0,0-9.539,3.225Zm7.427,12.861a13.893,13.893,0,1,1-5.091,18.976A13.886,13.886,0,0,1,343.086,1272.059Z" transform="translate(-321.29 -1255.347)" fill="#b734fd"/>
        </g>
        <g id="Grupo_107259" data-name="Grupo 107259" transform="translate(320.403 82.745)">
          <path id="Trazado_150923" data-name="Trazado 150923" d="M877.679,1395.8a15.891,15.891,0,0,0-5.707,2.353l.965,1.455a14.335,14.335,0,0,0-3.97,3.957l-1.448-.967a15.954,15.954,0,0,0-2.374,5.7l.381.08,1.329.268a14.177,14.177,0,0,0,0,5.6l-1.714.342a15.761,15.761,0,0,0,2.359,5.705l1.455-.965a14.19,14.19,0,0,0,3.951,3.971l-.967,1.448a15.955,15.955,0,0,0,5.7,2.372v-.006l.1-.493.245-1.209a14.157,14.157,0,0,0,5.6,0l.342,1.714a15.792,15.792,0,0,0,5.712-2.361l-.965-1.454a14.2,14.2,0,0,0,3.964-3.95l1.448.967a15.975,15.975,0,0,0,2.372-5.7l-1.71-.348a14.146,14.146,0,0,0,0-5.6l1.714-.342a15.8,15.8,0,0,0-2.361-5.712l-1.455.965a14.17,14.17,0,0,0-3.95-3.964l.967-1.448a15.858,15.858,0,0,0-5.7-2.372l0,.014-.228,1.125-.116.57a14.166,14.166,0,0,0-5.6,0Zm1.614,8.095a7.722,7.722,0,1,1-6.066,9.08A7.718,7.718,0,0,1,879.293,1403.892Z" transform="translate(-865.138 -1395.797)" fill="#8f52f5" stroke="#135bcc" stroke-miterlimit="10" stroke-width="0.745"/>
        </g>
      </g>
      <g id="Grupo_107277" data-name="Grupo 107277" transform="translate(316.848 1049.33)">
        <path id="Trazado_150924" data-name="Trazado 150924" d="M489.346,1227.781v-10.6a8.711,8.711,0,0,0-8.711-8.713H387.89a8.713,8.713,0,0,0-8.713,8.713v187.308H619.083V1227.781Z" transform="translate(-378.406 -1175.605)" fill="#3d095a"/>
        <path id="Trazado_150925" data-name="Trazado 150925" d="M392.818,1253.095v169.39H615.055V1252.262Z" transform="translate(-384.011 -1193.597)" fill="#fff"/>
        <path id="Trazado_150926" data-name="Trazado 150926" d="M410.295,1253.095v169.39H634.437V1252.262Z" transform="translate(-391.191 -1193.597)" fill="#e01650"/>
        <path id="Trazado_150927" data-name="Trazado 150927" d="M645.755,1241.25h-221a8.377,8.377,0,0,0-8.528,7.266V1417.96h241.2V1252.815C657.481,1246.729,651.952,1241.25,645.755,1241.25Z" transform="translate(-393.627 -1189.073)" fill="#fff"/>
        <g id="Grupo_107262" data-name="Grupo 107262" transform="translate(69.722 19.557)">
          <g id="Grupo_107261" data-name="Grupo 107261">
            <rect id="Rectángulo_36127" data-name="Rectángulo 36127" width="142.455" height="108.263" transform="translate(0 0.399) rotate(-0.16)" fill="#ebf3ff"/>
            <rect id="Rectángulo_36128" data-name="Rectángulo 36128" width="135.169" height="99.527" transform="matrix(1, -0.003, 0.003, 1, 3.581, 3.922)" fill="#ff5082"/>
            <path id="Trazado_150928" data-name="Trazado 150928" d="M522.1,1315.914l86.864-.243-47.494-45.563Z" transform="translate(-506.85 -1220.486)" fill="#e3eeff"/>
            <path id="Trazado_150929" data-name="Trazado 150929" d="M589.146,1321.267l72.985-.2-39.6-37.657Z" transform="translate(-534.395 -1225.95)" fill="#e3eeff"/>
            <circle id="Elipse_4608" data-name="Elipse 4608" cx="10.059" cy="10.059" r="10.059" transform="translate(71.692 29.426)" fill="#e3eeff"/>
          </g>
        </g>
        <g id="Grupo_107265" data-name="Grupo 107265" transform="translate(99.019 0)">
          <g id="Grupo_107263" data-name="Grupo 107263">
            <path id="Trazado_151020" data-name="Trazado 151020" d="M0,0H132.068V114.852H0Z" transform="translate(0 0.423) rotate(-0.184)" fill="#ff93b2"/>
            <rect id="Rectángulo_36130" data-name="Rectángulo 36130" width="124.568" height="105.584" transform="matrix(1, -0.003, 0.003, 1, 3.686, 4.161)" fill="#fff"/>
          </g>
          <g id="Grupo_107264" data-name="Grupo 107264" transform="translate(15.922 18.736)">
            <rect id="Rectángulo_36131" data-name="Rectángulo 36131" width="49.611" height="4.359" transform="translate(0)" fill="#ff93b2"/>
            <rect id="Rectángulo_36132" data-name="Rectángulo 36132" width="100.935" height="4.359" transform="translate(0 11.77)" fill="#ff93b2"/>
            <rect id="Rectángulo_36133" data-name="Rectángulo 36133" width="100.935" height="4.359" transform="translate(0 23.754)" fill="#ff93b2"/>
          </g>
        </g>
        <path id="Trazado_150930" data-name="Trazado 150930" d="M660.336,1252.841v165.133H420.675V1248.5a8.388,8.388,0,0,1,8.5-7.24H648.7A11.921,11.921,0,0,1,660.336,1252.841Z" transform="translate(-395.456 -1189.075)" fill="#500c75"/>
        <rect id="Rectángulo_36134" data-name="Rectángulo 36134" width="24.178" height="2.269" transform="translate(0 226.618)" fill="#fff"/>
        <path id="Trazado_150931" data-name="Trazado 150931" d="M378.742,1376.006l8.422,5.259h13.618l2.712,2.629v-2.5H643v-5.39Z" transform="translate(-378.228 -1244.438)" opacity="0.5" style="mix-blend-mode: darken;isolation: isolate"/>
        <g id="Grupo_107267" data-name="Grupo 107267" transform="translate(0.73 105.84)">
          <g id="Grupo_107266" data-name="Grupo 107266">
            <rect id="Rectángulo_36135" data-name="Rectángulo 36135" width="266.708" height="28.133" fill="#bc1445"/>
            <path id="Trazado_151021" data-name="Trazado 151021" d="M0,0H242.7V28.133H0Z" transform="translate(24.009)" fill="#e01650"/>
          </g>
        </g>
        <g id="Grupo_107276" data-name="Grupo 107276" transform="translate(50.419 105.665)">
          <path id="Trazado_150932" data-name="Trazado 150932" d="M523.477,1332.336v28.123h19.687l-13.8-28.123Z" transform="translate(-488.113 -1332.162)" fill="#0e0e0e"/>
          <g id="Grupo_107272" data-name="Grupo 107272" transform="translate(28.233)">
            <g id="Grupo_107269" data-name="Grupo 107269" transform="translate(2.504 0.185)">
              <path id="Trazado_150933" data-name="Trazado 150933" d="M520.851,1332.353h-5.228v28.114h5.228c1.714,0,3.265-1.545,4.38-4.139a24.987,24.987,0,0,0,1.823-9.949C527.054,1338.655,524.279,1332.353,520.851,1332.353Zm-.49,14.026c0-2.347.762-4.263,1.741-4.572.979.309,1.741,2.225,1.741,4.572,0,2.411-.762,4.325-1.741,4.634C521.123,1350.7,520.361,1348.789,520.361,1346.379Z" transform="translate(-515.623 -1332.353)" fill="#951339"/>
              <g id="Grupo_107268" data-name="Grupo 107268">
                <path id="Trazado_150934" data-name="Trazado 150934" d="M517.9,1332.353h-2.278v28.114H517.9c1.794,0,3.416-1.545,4.583-4.139a24.038,24.038,0,0,0,1.907-9.949C524.391,1338.655,521.487,1332.353,517.9,1332.353Zm1.48,18.66c-1.025-.309-1.822-2.224-1.822-4.634,0-2.347.8-4.263,1.822-4.572,1.025.309,2.5,2.225,2.5,4.572C521.885,1348.789,520.406,1350.7,519.381,1351.013Z" transform="translate(-515.623 -1332.353)" fill="#3f9ee6"/>
              </g>
            </g>
            <g id="Grupo_107271" data-name="Grupo 107271">
              <path id="Trazado_150935" data-name="Trazado 150935" d="M516.6,1332.353h-5.228v28.114H516.6c1.714,0,3.264-1.545,4.38-4.139a25,25,0,0,0,1.823-9.949C522.8,1338.655,520.028,1332.353,516.6,1332.353Zm-.49,14.026c0-2.347.762-4.263,1.741-4.572.979.309,1.741,2.225,1.741,4.572,0,2.411-.762,4.325-1.741,4.634C516.872,1350.7,516.11,1348.789,516.11,1346.379Z" transform="translate(-511.372 -1332.168)" fill="#bc1445"/>
              <g id="Grupo_107270" data-name="Grupo 107270" transform="translate(0 0.185)">
                <path id="Trazado_150936" data-name="Trazado 150936" d="M513.649,1332.353h-2.277v28.114h2.277c1.794,0,3.416-1.545,4.583-4.139a24.038,24.038,0,0,0,1.907-9.949C520.14,1338.655,517.236,1332.353,513.649,1332.353Zm2.164,18.66c-1.025-.309-1.822-2.224-1.822-4.634,0-2.347.8-4.263,1.822-4.572,1.024.309,1.821,2.225,1.821,4.572C517.634,1348.789,516.837,1350.7,515.813,1351.013Z" transform="translate(-511.372 -1332.353)" fill="#ff93b2"/>
              </g>
              <path id="Trazado_150937" data-name="Trazado 150937" d="M520.143,1360.521h-.032a.183.183,0,0,1,.015-.366,3.961,3.961,0,0,0,2.622-1.263c1.471-1.423,3.225-4.653,3.225-11.967,0-13.314-5.827-14.509-5.885-14.52a.184.184,0,0,1-.148-.212.18.18,0,0,1,.212-.148c.253.043,6.188,1.224,6.188,14.881,0,7.46-1.822,10.777-3.351,12.244A4.32,4.32,0,0,1,520.143,1360.521Z" transform="translate(-514.89 -1332.04)" fill="#12263f"/>
            </g>
          </g>
          <g id="Grupo_107273" data-name="Grupo 107273" transform="translate(6.787 9.954)">
            <path id="Trazado_150938" data-name="Trazado 150938" d="M500.859,1357.728c-.247.062-.431.124-.679.185.062.062.062.062,0,.062a24.114,24.114,0,0,0-17.3,23.047v23.486H474.97v-23.486a31.987,31.987,0,0,1,24.962-31.141,5.067,5.067,0,0,1,.926-.246C503.146,1349.14,503.331,1357.358,500.859,1357.728Z" transform="translate(-474.97 -1349.213)" fill="#fff"/>
            <path id="Trazado_150939" data-name="Trazado 150939" d="M534.8,1348.935v7.865a24.281,24.281,0,0,1,20.615,18.76,2.627,2.627,0,0,1,.124.617,14.425,14.425,0,0,1,.247,1.607,23.989,23.989,0,0,1,.185,2.966v23.486h7.847v-23.486A32.081,32.081,0,0,0,534.8,1348.935Z" transform="translate(-499.553 -1348.935)" fill="#fff"/>
            <path id="Trazado_150940" data-name="Trazado 150940" d="M504.624,1359.292c-18.546,3.253-20.933,23.444-20.933,23.444V1408.4h2.782v-23.486a24.192,24.192,0,0,1,17.963-23.283c.788-.256,1.278-2.562,1.278-2.562S505.227,1359.176,504.624,1359.292Z" transform="translate(-478.553 -1353.098)" fill="#e8e8e8"/>
            <path id="Trazado_150941" data-name="Trazado 150941" d="M534.8,1359.448v1.672a24.281,24.281,0,0,1,20.615,18.76C554.976,1374.11,550.192,1361.5,534.8,1359.448Z" transform="translate(-499.553 -1353.254)" fill="#e6e6e6"/>
            <path id="Trazado_150942" data-name="Trazado 150942" d="M518.267,1357.728c-.247.062-.431.124-.679.185a8.321,8.321,0,0,0,1.314-3.964c.124-2.411-.695-4.04-1.562-4.068a5.066,5.066,0,0,1,.926-.246C520.554,1349.14,520.74,1357.358,518.267,1357.728Z" transform="translate(-492.379 -1349.213)" fill="#e6e6e6"/>
          </g>
          <g id="Grupo_107275" data-name="Grupo 107275" transform="translate(0 58.793)">
            <rect id="Rectángulo_36137" data-name="Rectángulo 36137" width="77.916" height="64.282" transform="translate(0 0.052)" fill="#ffb206"/>
            <g id="Grupo_107274" data-name="Grupo 107274" transform="translate(28.888 15.723)">
              <path id="Trazado_150943" data-name="Trazado 150943" d="M512.485,1468.19a9.729,9.729,0,0,0,5.683,8.857v16.4a4.01,4.01,0,0,0,3.153,3.93h.184a2.083,2.083,0,0,0,.619.063,4,4,0,0,0,3.954-3.993v-16.4a9.8,9.8,0,0,0,5.686-8.857,9.645,9.645,0,0,0-9.64-9.668,2.982,2.982,0,0,0-.742.063A9.582,9.582,0,0,0,512.485,1468.19Z" transform="translate(-512.485 -1458.522)" fill="#7f17b7"/>
              <path id="Trazado_150944" data-name="Trazado 150944" d="M512.485,1468.234a9.729,9.729,0,0,0,5.683,8.857v16.4a4.009,4.009,0,0,0,3.153,3.93h.184a4.008,4.008,0,0,0,3.151-3.93v-16.4a9.8,9.8,0,0,0,5.686-8.857,8.953,8.953,0,1,0-17.857,0Z" transform="translate(-512.485 -1458.565)" fill="#29063c"/>
            </g>
            <path id="Trazado_150945" data-name="Trazado 150945" d="M553.736,1495.613H578.46v-63.691H571.6S573.423,1478.917,553.736,1495.613Z" transform="translate(-500.545 -1431.87)" fill="#e3a009"/>
            <rect id="Rectángulo_36138" data-name="Rectángulo 36138" width="6.363" height="63.627" transform="translate(2.56)" fill="#ffde95"/>
          </g>
        </g>
      </g>
      <g id="Grupo_107280" data-name="Grupo 107280" transform="translate(360.957 992.546)">
        <g id="Grupo_107278" data-name="Grupo 107278">
          <rect id="Rectángulo_36139" data-name="Rectángulo 36139" width="167.805" height="47.433" rx="23.716" transform="translate(0 45.979)" fill="#d2b7ff"/>
          <circle id="Elipse_4609" data-name="Elipse 4609" cx="37.085" cy="37.085" r="37.085" transform="translate(67.793)" fill="#d2b7ff"/>
          <circle id="Elipse_4610" data-name="Elipse 4610" cx="25.003" cy="25.003" r="25.003" transform="translate(21.677 25.225) rotate(-21.899)" fill="#d2b7ff"/>
        </g>
        <g id="Grupo_107279" data-name="Grupo 107279" transform="translate(67.743 35.225)">
          <path id="Trazado_150946" data-name="Trazado 150946" d="M596.125,971.632l-1.555,1.738,11.208.157-1.4-11.121-2.1,2.348a22.038,22.038,0,0,0-34.554,17.9l9.125-.016a12.956,12.956,0,0,1,3.26-8.269A13.094,13.094,0,0,1,596.125,971.632Z" transform="translate(-567.726 -960.916)" fill="#8f52f5"/>
          <path id="Trazado_150947" data-name="Trazado 150947" d="M609.211,1011.981a22.048,22.048,0,0,0,5.557-14.394l-9.125.016a12.958,12.958,0,0,1-3.26,8.269,13.092,13.092,0,0,1-16.012,2.736l1.554-1.737-11.208-.157,1.4,11.122,2.1-2.348A22.211,22.211,0,0,0,609.211,1011.981Z" transform="translate(-571.42 -975.982)" fill="#8f52f5"/>
        </g>
      </g>
      <g id="Grupo_107287" data-name="Grupo 107287" transform="translate(454.897 1114.124)">
        <path id="Trazado_150948" data-name="Trazado 150948" d="M713.469,1313.9s4.363,4.143,2.969,12c6.532,5.464,7.245,15.2,6.295,19.716,11.268,10.215,8.494,24.809.633,29.1-7.494,4.091-18.458.221-22.962-9.343-7.173-11.985-14.174-34.365-2.89-46.124C695.142,1310.968,710.223,1309.625,713.469,1313.9Z" transform="translate(-644.808 -1282.742)" fill="#12263f"/>
        <g id="Grupo_107283" data-name="Grupo 107283" transform="translate(29.63 19.171)">
          <path id="Trazado_150949" data-name="Trazado 150949" d="M690.6,1326.583l-11.133-11.313.01-19.577-3.677-.485s-3.01,17.8-3,21.589c.008,3.359,11.281,17.96,11.281,17.96Z" transform="translate(-666.725 -1295.208)" fill="#ffa599"/>
          <path id="Trazado_150950" data-name="Trazado 150950" d="M713.37,1358.6l-6.145,16.873h-16.3s-1.065-10.431-1.288-15.981a21.811,21.811,0,0,1,.025-2.973c.545-4.014,7.16-9.465,7.16-9.465a.692.692,0,0,0,.148-.025c1.313-.149,10.258-1.139,13.528,1.61C713.99,1351.613,713.37,1358.6,713.37,1358.6Z" transform="translate(-673.626 -1316.378)" fill="#ffb206"/>
          <path id="Trazado_150951" data-name="Trazado 150951" d="M718.106,1430.641H703.6c.361,2.954,1.9,6.162,2.56,8.8,5.908,16.186,8.789,37.856,15.026,52.132,0,0,2.683,1.391,4.465,0-1.218-10.743-1.132-17.406-4.63-35.2C719.8,1451.2,720.286,1438.825,718.106,1430.641Z" transform="translate(-679.376 -1350.852)" fill="#ffa599"/>
          <path id="Trazado_150952" data-name="Trazado 150952" d="M682.81,1430.641c-1.881,17.949-5.34,56.72-5.721,60.721l4.611.024c3.024-10.273,6.882-19.49,7.222-32.522,2.352-7.171,6.268-19.231,9.205-28.222Z" transform="translate(-668.486 -1350.852)" fill="#ffa599"/>
          <path id="Trazado_150953" data-name="Trazado 150953" d="M710.062,1436.717l-10.955.9-2.659.22-11.76.976c-.51,4.982-1.079,10.9-1.635,16.981,3.539,1.466,8.479,3.587,8.9,3.776l5.76-17.635c1.686,5.494,3.748,12.677,5.3,18.283a43.648,43.648,0,0,1,9.227-3.231C711.672,1450.5,710.96,1443.031,710.062,1436.717Z" transform="translate(-670.936 -1353.348)" fill="#e87c5d"/>
          <path id="Trazado_150954" data-name="Trazado 150954" d="M722.413,1330.846l10.792-8.276-3.445-18.224,3.932-1.21s8.507,17.2,8.5,20.989c-.009,3.359-15.607,16.651-15.607,16.651C724.028,1341.983,720.218,1336.34,722.413,1330.846Z" transform="translate(-686.838 -1298.465)" fill="#ffa599"/>
          <path id="Trazado_150955" data-name="Trazado 150955" d="M702.467,1346.022s-4.586,3.137-2.873,5.482c1.475,2.02,5.114-.282,5.114-.282s.611,3.124,3.058,2.707c3.4-.58,4.112-5.588,2.688-7.222S704.128,1345.179,702.467,1346.022Z" transform="translate(-677.574 -1315.839)" fill="#fff"/>
          <path id="Trazado_150956" data-name="Trazado 150956" d="M712.2,1344.895c0,1.363-2.267,3.321-5.43,3.163-2.008-.1-3.137-1.239-2.808-2.651l.347-1.809.966-5.154,7.365.2Z" transform="translate(-679.502 -1312.972)" fill="#ffa599"/>
          <path id="Trazado_150957" data-name="Trazado 150957" d="M712.417,1339.609c-1.016,2.124-3.025,3.753-7.829,3.99l.966-5.154,6.838.2Z" transform="translate(-679.784 -1312.972)" fill="#e87c5d"/>
          <path id="Trazado_150958" data-name="Trazado 150958" d="M713.943,1323.918c-1.266,4.165-6.128,6.668-10.976,4.985a7.9,7.9,0,0,1-1.479-10.547c-1.212-6.854,6.379-10.122,11.241-7.317C716.9,1313.444,716.618,1318.987,713.943,1323.918Z" transform="translate(-677.94 -1301.3)" fill="#ffa599"/>
          <path id="Trazado_150959" data-name="Trazado 150959" d="M716.758,1436.991a56.945,56.945,0,0,1-15.163,2.751c-10.828.619-23.258-1.174-24.373-3.131,2.214-20.243,8.639-41.1,8.639-41.1H702.14c2.874,2.255,5.476,6.194,7.161,10.406A189.473,189.473,0,0,1,716.758,1436.991Z" transform="translate(-668.541 -1336.42)" fill="#ffb206"/>
          <g id="Grupo_107281" data-name="Grupo 107281" transform="translate(0 140.507)">
            <path id="Trazado_150960" data-name="Trazado 150960" d="M662.867,1538.373c0-.058,2.74-.06,5.671-.047,3.372.011,7.571.047,7.571.047a15.287,15.287,0,0,0-.3-4.644l-5.283-.027a35.88,35.88,0,0,0-4.031,1.029c-.168.052-.35.089-.536.133C661.858,1535.815,662.867,1538.493,662.867,1538.373Z" transform="translate(-662.597 -1533.702)" fill="#fdfeff"/>
            <path id="Trazado_150961" data-name="Trazado 150961" d="M662.867,1539.09c0-.058,2.74-.06,5.671-.047a2.6,2.6,0,0,0,.139-.844,2.959,2.959,0,0,0-2.179-2.751c-.17.047-.35.089-.536.133C661.858,1536.533,662.867,1539.211,662.867,1539.09Z" transform="translate(-662.597 -1534.42)" fill="#d9ecff"/>
            <rect id="Rectángulo_36140" data-name="Rectángulo 36140" width="13.693" height="0.832" transform="translate(13.693 4.675) rotate(180)" fill="#d9ecff"/>
          </g>
          <g id="Grupo_107282" data-name="Grupo 107282" transform="translate(41.322 140.695)">
            <path id="Trazado_150962" data-name="Trazado 150962" d="M732.894,1538.693c.078,0,1.421-.016,3.085-.031,2.709-.026,6.27-.047,6.6.031.943-2.281-1.013-3.451-2.815-4.1-.768-.272-1.51-.449-1.985-.574l-4.589.026A15.257,15.257,0,0,0,732.894,1538.693Z" transform="translate(-732.713 -1534.022)" fill="#fdfeff"/>
            <rect id="Rectángulo_36141" data-name="Rectángulo 36141" width="10.139" height="0.832" transform="translate(0 3.842)" fill="#d9ecff"/>
          </g>
          <path id="Trazado_150963" data-name="Trazado 150963" d="M737.995,1539.042c2.709-.026,6.27-.047,6.6.031.943-2.281-1.013-3.451-2.816-4.1a3.745,3.745,0,0,0-3.224,1.063A2.589,2.589,0,0,0,737.995,1539.042Z" transform="translate(-693.407 -1393.708)" fill="#d9ecff"/>
          <path id="Trazado_150964" data-name="Trazado 150964" d="M699.92,1397.289a21.425,21.425,0,0,1-8.449-1.688.372.372,0,0,1,.324-.669,20.647,20.647,0,0,0,15.957-.006.372.372,0,0,1,.3.681A20.124,20.124,0,0,1,699.92,1397.289Z" transform="translate(-674.308 -1336.165)" fill="#fff"/>
          <path id="Trazado_150965" data-name="Trazado 150965" d="M693.069,1316.345c5.067,6.057,11.719-6.018,16.188-2.224,0,0,.4,9.054,3.44,6.01.949-1.134,2.017-6.485-.514-8.264.06-2.926-4.809-5.815-10.51-4.443a7.26,7.26,0,0,0-5.4,5.309C694.019,1312.122,691.907,1314.286,693.069,1316.345Z" transform="translate(-674.916 -1300.083)" fill="#12263f"/>
        </g>
        <g id="Grupo_107284" data-name="Grupo 107284" transform="translate(0 0)">
          <path id="Trazado_151022" data-name="Trazado 151022" d="M0,0H101.227V10.278H0Z" transform="matrix(0.984, 0.18, -0.18, 0.984, 1.846, 0.801)" fill="#ffb206"/>
          <path id="Trazado_151023" data-name="Trazado 151023" d="M0,0H101.227V.684H0Z" transform="translate(1.882 0.607) rotate(10.348)" fill="#be860a"/>
          <path id="Trazado_150966" data-name="Trazado 150966" d="M797.4,1263.311a27,27,0,1,0,21.715,31.4A27.011,27.011,0,0,0,797.4,1263.311Zm12.223,28.814c-.024.268-.073.561-.121.829a17.218,17.218,0,0,1-33.987-.659,16.93,16.93,0,0,1,.1-5.538A17.225,17.225,0,0,1,809.652,1292,.214.214,0,0,1,809.626,1292.125Z" transform="translate(-675.207 -1262.748)" fill="#ffb206"/>
          <rect id="Rectángulo_36144" data-name="Rectángulo 36144" width="9.5" height="19.934" transform="matrix(0.984, 0.18, -0.18, 0.984, 8.25, 5.611)" fill="#ffb206"/>
          <rect id="Rectángulo_36145" data-name="Rectángulo 36145" width="9.5" height="15.106" transform="translate(26.048 10.444) rotate(10.348)" fill="#ffb206"/>
          <path id="Trazado_150967" data-name="Trazado 150967" d="M816.286,1297.69a17.225,17.225,0,0,0-34.036-5.246,16.929,16.929,0,0,0-.1,5.538,16.25,16.25,0,0,1-.439-3.806,17.469,17.469,0,0,1,34.938,0A16.706,16.706,0,0,1,816.286,1297.69Z" transform="translate(-681.842 -1268.436)" fill="#be860a"/>
          <path id="Trazado_150968" data-name="Trazado 150968" d="M794.3,1262.693c-20.173-.819-26.816,17.449-26.888,17.655l.967.154c.282-.8,6.466-17.746,25.921-16.846Z" transform="translate(-675.967 -1262.667)" fill="#be860a"/>
        </g>
        <g id="Grupo_107285" data-name="Grupo 107285" transform="translate(38.611 15.165)">
          <path id="Trazado_150969" data-name="Trazado 150969" d="M681.243,1293.342s1.441-.348,1.838-2.817.456-1.9.456-1.9-1.359-.7-2.078,2.151c-2.133-.143-3.842.871-3.725,2.249C677.807,1293.873,680.981,1293.726,681.243,1293.342Z" transform="translate(-677.729 -1288.467)" fill="#ffa599"/>
          <path id="Trazado_150970" data-name="Trazado 150970" d="M677.944,1292.234l-.207-.13a4.007,4.007,0,0,1,3.631-1.511c.412-1.618,1.191-2.378,2.2-2.144l-.055.237c-1.123-.261-1.671.976-1.932,2.061l-.024.1-.1,0A3.887,3.887,0,0,0,677.944,1292.234Z" transform="translate(-677.732 -1288.408)" fill="#ff7e59"/>
        </g>
        <g id="Grupo_107286" data-name="Grupo 107286" transform="translate(69.672 20.645)">
          <path id="Trazado_150971" data-name="Trazado 150971" d="M733.625,1303.179s-2.124-.709-2.965-5.132c1.365-.971,1.9,1.6,1.9,1.6a9.841,9.841,0,0,1,3.888.583c.837.379,1.036.84,1.5,2.022C739.16,1304.793,733.625,1303.179,733.625,1303.179Z" transform="translate(-730.538 -1297.758)" fill="#ffa599"/>
          <path id="Trazado_150972" data-name="Trazado 150972" d="M737.848,1302.316a.123.123,0,0,1-.114-.078s-.156-.4-.464-1.084c-.884-1.732-4.744-1.442-4.783-1.439l-.1.008-.028-.1a8.582,8.582,0,0,0-.539-1.311.607.607,0,0,0-.364-.33,1.261,1.261,0,0,0-.826.12.122.122,0,0,1-.115-.216,1.487,1.487,0,0,1,1.014-.137.851.851,0,0,1,.509.454,9.321,9.321,0,0,1,.526,1.259c.637-.038,4.036-.157,4.925,1.583.313.7.471,1.1.472,1.1a.121.121,0,0,1-.069.158A.114.114,0,0,1,737.848,1302.316Z" transform="translate(-730.452 -1297.709)" fill="#ff7e59"/>
        </g>
        <circle id="Elipse_4611" data-name="Elipse 4611" cx="1.682" cy="1.682" r="1.682" transform="translate(65.047 39.176)" fill="#ffa599"/>
      </g>
      <path id="Trazado_150973" data-name="Trazado 150973" d="M700.229,1545.51H231.53a2.182,2.182,0,0,1-2.182-2.182h0a2.182,2.182,0,0,1,2.182-2.182h468.7a2.182,2.182,0,0,1,2.182,2.182h0A2.182,2.182,0,0,1,700.229,1545.51Z" transform="translate(0 -262.958)"/>
    </g>
  </g>
</svg>
