<svg xmlns="http://www.w3.org/2000/svg" width="150" height="91" viewBox="0 0 150 91">
  <g id="Grupo_108571" data-name="Grupo 108571" transform="translate(-220 -4287)">
    <path id="Trazado_150366" data-name="Trazado 150366" d="M25.929,0h117A7.071,7.071,0,0,1,150,7.071h0A25.929,25.929,0,0,1,124.071,33h-117A7.071,7.071,0,0,1,0,25.929,25.929,25.929,0,0,1,25.929,0Z" transform="translate(220 4316)" fill="#ffb206" opacity="0.999"/>
    <g id="configuraciones" transform="translate(249.95 4287)">
      <path id="Trazado_150367" data-name="Trazado 150367" d="M95,46.528V58.042l-3.674.619-.021.021a22.927,22.927,0,0,0-17.5-8.053,24.3,24.3,0,0,0-2.8.171v-.021A18.519,18.519,0,1,0,50.865,70.731l.085.021a21.878,21.878,0,0,0-.192,2.905,23.022,23.022,0,0,0,8.4,17.794l-.363.449L58.3,94.827H46.785L45.354,86.3A34.315,34.315,0,0,1,33.733,81.54l-7.092,4.977-8.2-8.2,4.977-7.092A35.882,35.882,0,0,1,18.652,59.6l-8.5-1.431V46.656l8.523-1.431A34.315,34.315,0,0,1,23.437,33.6L18.46,26.512l8.2-8.2,7.092,4.977a35.882,35.882,0,0,1,11.621-4.764L46.806,10H58.32l1.431,8.523a34.314,34.314,0,0,1,11.621,4.764l7.092-5.105,8.2,8.2-4.956,7.071a35.882,35.882,0,0,1,4.764,11.621Z" transform="translate(-7.942 -7.864)" fill="#e01650"/>
      <path id="Trazado_150368" data-name="Trazado 150368" d="M240.973,208.232a23.039,23.039,0,1,1-40.523,15,21.645,21.645,0,0,1,.192-2.905A23.038,23.038,0,0,1,220.7,200.37a20.3,20.3,0,0,1,2.8-.171A22.9,22.9,0,0,1,240.973,208.232Z" transform="translate(-157.591 -157.434)" fill="#d2b7ff"/>
      <path id="Trazado_150369" data-name="Trazado 150369" d="M87.376,52.293a2.135,2.135,0,0,0,1.773-2.115V38.664A2.133,2.133,0,0,0,87.4,36.55l-7.113-1.2a38.08,38.08,0,0,0-3.973-9.677l4.187-5.96a2.136,2.136,0,0,0-.235-2.734L72.06,8.8A2.114,2.114,0,0,0,69.3,8.587L63.366,12.86a37.194,37.194,0,0,0-9.677-3.952l-1.2-7.135A2.135,2.135,0,0,0,50.378,0H38.864a2.152,2.152,0,0,0-2.115,1.773l-1.2,7.135a38.08,38.08,0,0,0-9.677,3.973L19.938,8.673a2.136,2.136,0,0,0-2.734.235L9,17.111a2.136,2.136,0,0,0-.235,2.734l4.165,5.939A38,38,0,0,0,8.958,35.46l-7.135,1.2A2.135,2.135,0,0,0,.05,38.771V50.285A2.152,2.152,0,0,0,1.823,52.4l7.135,1.2a38.08,38.08,0,0,0,3.973,9.677l-4.187,5.96a2.136,2.136,0,0,0,.235,2.734l8.2,8.2a2.136,2.136,0,0,0,2.734.235l5.939-4.165a38,38,0,0,0,9.677,3.973l1.2,7.113a2.117,2.117,0,0,0,2.115,1.752H50.356a2.133,2.133,0,0,0,2.115-1.752l.021-.171A25.153,25.153,0,0,0,87.1,52.357ZM40.68,84.784l-1.132-6.729a2.143,2.143,0,0,0-1.666-1.73A32.633,32.633,0,0,1,26.966,71.86a2.166,2.166,0,0,0-2.392.043l-5.618,3.952-5.661-5.661,3.952-5.618A2.17,2.17,0,0,0,17.31,62.2a33.762,33.762,0,0,1-4.486-10.937,2.143,2.143,0,0,0-1.73-1.666l-6.75-1.111v-7.9l6.75-1.132a2.116,2.116,0,0,0,1.73-1.666,32.632,32.632,0,0,1,4.465-10.916,2.166,2.166,0,0,0-.043-2.392l-3.952-5.618L18.955,13.2l5.618,3.952a2.17,2.17,0,0,0,2.371.064,33.762,33.762,0,0,1,10.937-4.486A2.143,2.143,0,0,0,39.547,11l1.132-6.75h7.9L49.716,11a2.116,2.116,0,0,0,1.666,1.73A32.632,32.632,0,0,1,62.3,17.2a2.162,2.162,0,0,0,2.414-.064l5.618-4.037,5.639,5.639-3.952,5.618a2.17,2.17,0,0,0-.064,2.371A33.762,33.762,0,0,1,76.439,37.66a2.118,2.118,0,0,0,1.709,1.666l6.729,1.132v7.9l-.726.128a25.106,25.106,0,0,0-18.285-7.882c-.32,0-.619,0-.94.021a20.649,20.649,0,0,0-40.95,3.781A20.686,20.686,0,0,0,40.744,64.7c-.021.363-.021.726-.021,1.089a24.965,24.965,0,0,0,7.989,18.371l-.107.619Zm.6-24.331a16.387,16.387,0,0,1,3.354-32.427,16.473,16.473,0,0,1,11.151,4.358A16.176,16.176,0,0,1,60.7,41.142a25.348,25.348,0,0,0-12.561,6.772A25.61,25.61,0,0,0,41.278,60.453ZM65.886,86.706A20.954,20.954,0,0,1,44.973,65.772a22.339,22.339,0,0,1,.171-2.649,20.8,20.8,0,0,1,18.2-18.093h.021a19.042,19.042,0,0,1,2.521-.15,20.894,20.894,0,0,1,15.872,7.306h0a20.905,20.905,0,0,1-15.872,34.52Z" transform="translate(0 0)"/>
      <path id="Trazado_150370" data-name="Trazado 150370" d="M268.738,281.051l-14.846,9.89-5.469-8.181a2.142,2.142,0,0,0-3.567,2.371l6.643,9.976a2.129,2.129,0,0,0,1.773.961,2,2,0,0,0,1.175-.363l16.619-11.087a2.158,2.158,0,0,0,.6-2.969A2.064,2.064,0,0,0,268.738,281.051Z" transform="translate(-192.235 -220.726)"/>
    </g>
  </g>
</svg>
