<svg xmlns="http://www.w3.org/2000/svg" width="190" height="76" viewBox="0 0 190 76">
  <g id="Grupo_107132" data-name="Grupo 107132" transform="translate(-390 -4768)">
    <path id="Rectángulo_33724" data-name="Rectángulo 33724" d="M25.929,0h157A7.071,7.071,0,0,1,190,7.071v0A25.929,25.929,0,0,1,164.071,33h-157A7.071,7.071,0,0,1,0,25.929v0A25.929,25.929,0,0,1,25.929,0Z" transform="translate(390 4790)" fill="#e01650" opacity="0.999"/>
    <g id="calculadora" transform="translate(409 4768)">
      <path id="Trazado_150371" data-name="Trazado 150371" d="M61.067,8H109.2a5.067,5.067,0,0,1,5.067,5.067V76.4a5.067,5.067,0,0,1-5.067,5.067H61.067A5.067,5.067,0,0,1,56,76.4V13.067A5.067,5.067,0,0,1,61.067,8Z" transform="translate(-6.733 -6.733)" fill="#ffb206"/>
      <path id="Trazado_150372" data-name="Trazado 150372" d="M88,40h48.133V55.2H88Z" transform="translate(-33.667 -33.667)" fill="#d2b7ff"/>
      <g id="Grupo_107073" data-name="Grupo 107073" transform="translate(56.591 15.2)">
        <path id="Trazado_150390" data-name="Trazado 150390" d="M5.287,0a5.13,5.13,0,0,1,5.287,4.957A5.13,5.13,0,0,1,5.287,9.913,5.13,5.13,0,0,1,0,4.957,5.13,5.13,0,0,1,5.287,0Z" transform="translate(16.522 11.565)" fill="#ffde95"/>
        <path id="Trazado_150391" data-name="Trazado 150391" d="M5.287,0a5.13,5.13,0,0,1,5.287,4.957A5.13,5.13,0,0,1,5.287,9.913,5.13,5.13,0,0,1,0,4.957,5.13,5.13,0,0,1,5.287,0Z" transform="translate(33.043 11.565)" fill="#ffde95"/>
        <ellipse id="Elipse_4590" data-name="Elipse 4590" cx="5.287" cy="4.957" rx="5.287" ry="4.957" transform="translate(0 11.565)" fill="#b734fd"/>
        <path id="Trazado_150393" data-name="Trazado 150393" d="M5.287,0a5.13,5.13,0,0,1,5.287,4.957A5.13,5.13,0,0,1,5.287,9.913,5.13,5.13,0,0,1,0,4.957,5.13,5.13,0,0,1,5.287,0Z" transform="translate(16.522 26.765)" fill="#ffde95"/>
        <path id="Trazado_150394" data-name="Trazado 150394" d="M5.287,0a5.13,5.13,0,0,1,5.287,4.957A5.13,5.13,0,0,1,5.287,9.913,5.13,5.13,0,0,1,0,4.957,5.13,5.13,0,0,1,5.287,0Z" transform="translate(33.043 26.765)" fill="#ffde95"/>
        <path id="Trazado_150392" data-name="Trazado 150392" d="M5.287,0a5.13,5.13,0,0,1,5.287,4.957A5.13,5.13,0,0,1,5.287,9.913,5.13,5.13,0,0,1,0,4.957,5.13,5.13,0,0,1,5.287,0Z" transform="translate(0 26.765)" fill="#ffde95"/>
        <path id="Trazado_150396" data-name="Trazado 150396" d="M5.287,0a5.13,5.13,0,0,1,5.287,4.957A5.13,5.13,0,0,1,5.287,9.913,5.13,5.13,0,0,1,0,4.957,5.13,5.13,0,0,1,5.287,0Z" transform="translate(16.522 41.965)" fill="#ffde95"/>
        <path id="Trazado_150395" data-name="Trazado 150395" d="M5.287,0a5.13,5.13,0,0,1,5.287,4.957A5.13,5.13,0,0,1,5.287,9.913,5.13,5.13,0,0,1,0,4.957,5.13,5.13,0,0,1,5.287,0Z" transform="translate(0 41.965)" fill="#ffde95"/>
        <path id="Trazado_150373" data-name="Trazado 150373" d="M312,360h10.133v12.667H312Z" transform="translate(-278.791 -318.2)" fill="#e01650"/>
        <g id="Grupo_107071" data-name="Grupo 107071" transform="translate(34.475)">
          <path id="SVGCleanerId_0" d="M320,96h2.533v2.533H320Z" transform="translate(-320 -96)" fill="#2d75bb"/>
        </g>
        <g id="Grupo_107072" data-name="Grupo 107072" transform="translate(39.542)">
          <path id="SVGCleanerId_1" d="M352,96h2.533v2.533H352Z" transform="translate(-352 -96)" fill="#2d75bb"/>
        </g>
      </g>
      <g id="Grupo_107074" data-name="Grupo 107074" transform="translate(58.133 10.133)">
        <path id="Trazado_150374" data-name="Trazado 150374" d="M128,64h2.533v7.6H128Z" transform="translate(-125.467 -64)" fill="#7d8d9c"/>
        <path id="Trazado_150375" data-name="Trazado 150375" d="M112,80h7.6v2.533H112Z" transform="translate(-112 -77.467)" fill="#7d8d9c"/>
      </g>
      <path id="Trazado_150376" data-name="Trazado 150376" d="M338.533,410.533h-1.267a1.267,1.267,0,1,1,0-2.533h1.267a1.267,1.267,0,1,1,0,2.533Z" transform="translate(-242.4 -343.4)" fill="#cfdfe8"/>
      <path id="Trazado_150377" data-name="Trazado 150377" d="M152,8h27.867v5.067H152Z" transform="translate(-87.533 -6.733)" fill="#ffde95"/>
      <path id="Trazado_150378" data-name="Trazado 150378" d="M48,6.333V69.667A6.341,6.341,0,0,0,54.333,76h48.133a6.341,6.341,0,0,0,6.333-6.333V6.333A6.341,6.341,0,0,0,102.467,0H54.333A6.341,6.341,0,0,0,48,6.333Zm17.733-3.8H91.067V5.067H65.733ZM101.2,7.6V20.267H55.6V7.6Zm-38-2.533H54.333a1.267,1.267,0,0,0-1.267,1.267v15.2A1.267,1.267,0,0,0,54.333,22.8h48.133a1.267,1.267,0,0,0,1.267-1.267V6.333a1.267,1.267,0,0,0-1.267-1.267H93.6V2.533h8.867a3.8,3.8,0,0,1,3.8,3.8V69.667a3.8,3.8,0,0,1-3.8,3.8H54.333a3.8,3.8,0,0,1-3.8-3.8V6.333a3.8,3.8,0,0,1,3.8-3.8H63.2Z"/>
      <path id="Trazado_150379" data-name="Trazado 150379" d="M206.333,172.667A6.333,6.333,0,1,0,200,166.333,6.333,6.333,0,0,0,206.333,172.667Zm0-10.133a3.8,3.8,0,1,1-3.8,3.8A3.8,3.8,0,0,1,206.333,162.533Z" transform="translate(-127.933 -134.667)"/>
      <path id="Trazado_150380" data-name="Trazado 150380" d="M310.333,172.667A6.333,6.333,0,1,0,304,166.333,6.333,6.333,0,0,0,310.333,172.667Zm0-10.133a3.8,3.8,0,1,1-3.8,3.8A3.8,3.8,0,0,1,310.333,162.533Z" transform="translate(-215.467 -134.667)"/>
      <path id="Trazado_150381" data-name="Trazado 150381" d="M102.333,172.667A6.333,6.333,0,1,0,96,166.333,6.333,6.333,0,0,0,102.333,172.667Zm0-10.133a3.8,3.8,0,1,1-3.8,3.8A3.8,3.8,0,0,1,102.333,162.533Z" transform="translate(-40.4 -134.667)"/>
      <path id="Trazado_150382" data-name="Trazado 150382" d="M206.333,268.667A6.333,6.333,0,1,0,200,262.333,6.333,6.333,0,0,0,206.333,268.667Zm0-10.133a3.8,3.8,0,1,1-3.8,3.8A3.8,3.8,0,0,1,206.333,258.533Z" transform="translate(-127.933 -215.467)"/>
      <path id="Trazado_150383" data-name="Trazado 150383" d="M310.333,268.667A6.333,6.333,0,1,0,304,262.333,6.333,6.333,0,0,0,310.333,268.667Zm0-10.133a3.8,3.8,0,1,1-3.8,3.8A3.8,3.8,0,0,1,310.333,258.533Z" transform="translate(-215.467 -215.467)"/>
      <path id="Trazado_150384" data-name="Trazado 150384" d="M102.333,268.667A6.333,6.333,0,1,0,96,262.333,6.333,6.333,0,0,0,102.333,268.667Zm0-10.133a3.8,3.8,0,1,1-3.8,3.8A3.8,3.8,0,0,1,102.333,258.533Z" transform="translate(-40.4 -215.467)"/>
      <path id="Trazado_150385" data-name="Trazado 150385" d="M206.333,364.667A6.333,6.333,0,1,0,200,358.333,6.333,6.333,0,0,0,206.333,364.667Zm0-10.133a3.8,3.8,0,1,1-3.8,3.8A3.8,3.8,0,0,1,206.333,354.533Z" transform="translate(-127.933 -296.267)"/>
      <path id="Trazado_150386" data-name="Trazado 150386" d="M102.333,364.667A6.333,6.333,0,1,0,96,358.333,6.333,6.333,0,0,0,102.333,364.667Zm0-10.133a3.8,3.8,0,1,1-3.8,3.8A3.8,3.8,0,0,1,102.333,354.533Z" transform="translate(-40.4 -296.267)"/>
      <path id="Trazado_150387" data-name="Trazado 150387" d="M305.267,367.2H315.4a1.267,1.267,0,0,0,1.267-1.267V353.267A1.267,1.267,0,0,0,315.4,352H305.267A1.267,1.267,0,0,0,304,353.267v12.667A1.267,1.267,0,0,0,305.267,367.2Zm1.267-12.667h7.6v10.133h-7.6Z" transform="translate(-215.467 -296.267)"/>
      <path id="SVGCleanerId_0_1_" d="M320,96h2.533v2.533H320Z" transform="translate(-228.933 -80.8)"/>
      <path id="SVGCleanerId_1_1_" d="M352,96h2.533v2.533H352Z" transform="translate(-255.867 -80.8)"/>
      <path id="Trazado_150388" data-name="Trazado 150388" d="M114.533,71.6h2.533V69.067H119.6V66.533h-2.533V64h-2.533v2.533H112v2.533h2.533Z" transform="translate(-53.867 -53.867)"/>
      <path id="Trazado_150389" data-name="Trazado 150389" d="M338.533,408h-1.267a1.267,1.267,0,1,0,0,2.533h1.267a1.267,1.267,0,1,0,0-2.533Z" transform="translate(-242.4 -343.4)"/>
    </g>
  </g>
</svg>
