<svg xmlns="http://www.w3.org/2000/svg" width="190" height="76" viewBox="0 0 190 76">
  <g id="Grupo_108548" data-name="Grupo 108548" transform="translate(-1125 -342.137)">
    <g id="Grupo_108547" data-name="Grupo 108547">
      <path id="Rectángulo_36024" data-name="Rectángulo 36024" d="M25.929,0h157A7.071,7.071,0,0,1,190,7.071v0A25.929,25.929,0,0,1,164.071,33h-157A7.071,7.071,0,0,1,0,25.929v0A25.929,25.929,0,0,1,25.929,0Z" transform="translate(1125 362)" fill="#e01650" opacity="0.999"/>
      <path id="Trazado_150412" data-name="Trazado 150412" d="M0,0H67V68H0Z" transform="translate(1188 347)" fill="#ffde95"/>
    </g>
    <g id="aprobado" transform="translate(1182 342.137)">
      <g id="Grupo_107079" data-name="Grupo 107079" transform="translate(1.113 1.113)">
        <g id="Grupo_107077" data-name="Grupo 107077" transform="translate(12.295 11.821)">
          <path id="Trazado_150403" data-name="Trazado 150403" d="M139.06,96.727a4.335,4.335,0,0,0-1.958-5.811l-6.714-3.326a4.335,4.335,0,0,0-5.811,1.958l-13.287,26.808-6.47-10.821a4.334,4.334,0,0,0-5.946-1.5l-6.431,3.843a4.337,4.337,0,0,0-1.5,5.947l12.75,21.327a4.337,4.337,0,0,0,3.89,2.11l9.038-.356a4.329,4.329,0,0,0,3.712-2.406Z" transform="translate(-90.33 -87.137)" fill="#e01650"/>
          <g id="Grupo_107076" data-name="Grupo 107076">
            <path id="Trazado_150404" data-name="Trazado 150404" d="M234.23,120.877l15.528-31.329a4.315,4.315,0,0,1,1.459-1.665l-.591-.293a4.335,4.335,0,0,0-5.811,1.958l-13.287,26.808Z" transform="translate(-210.568 -87.137)" fill="#e01650"/>
            <path id="Trazado_150405" data-name="Trazado 150405" d="M108.638,228.59l-12.75-21.327a4.337,4.337,0,0,1,1.5-5.946l6.173-3.689a4.331,4.331,0,0,0-4.685-.154l-6.431,3.843a4.336,4.336,0,0,0-1.5,5.946l12.75,21.327a4.337,4.337,0,0,0,3.89,2.11l3.663-.144a4.343,4.343,0,0,1-2.609-1.965Z" transform="translate(-90.33 -180.573)" fill="#e01650"/>
          </g>
        </g>
        <path id="Trazado_150406" data-name="Trazado 150406" d="M68.38,7.5H20.393A12.893,12.893,0,0,0,7.5,20.393V68.38A12.893,12.893,0,0,0,20.393,81.273H68.38A12.893,12.893,0,0,0,81.273,68.38V20.393A12.893,12.893,0,0,0,68.38,7.5Zm6.956,60.88a6.963,6.963,0,0,1-6.956,6.956H20.393a6.963,6.963,0,0,1-6.956-6.956V20.393a6.963,6.963,0,0,1,6.956-6.956H68.38a6.963,6.963,0,0,1,6.956,6.956Z" transform="translate(-7.5 -7.5)" fill="#8f52f5"/>
        <g id="Grupo_107078" data-name="Grupo 107078" transform="translate(0 0.001)">
          <path id="Trazado_150407" data-name="Trazado 150407" d="M10.763,68.385V20.4A12.893,12.893,0,0,1,23.657,7.505H20.393A12.893,12.893,0,0,0,7.5,20.4V68.385A12.893,12.893,0,0,0,20.393,81.278h3.263A12.894,12.894,0,0,1,10.763,68.385Z" transform="translate(-7.5 -7.505)" fill="#8f52f5"/>
          <path id="Trazado_150408" data-name="Trazado 150408" d="M417.632,109.4H420.9a6.963,6.963,0,0,0,6.956-6.956V54.46A6.963,6.963,0,0,0,420.9,47.5h-3.263a6.963,6.963,0,0,1,6.956,6.956v47.987A6.963,6.963,0,0,1,417.632,109.4Z" transform="translate(-356.752 -41.567)" fill="#8f52f5"/>
        </g>
      </g>
      <g id="Grupo_107081" data-name="Grupo 107081" transform="translate(0 0)">
        <g id="Grupo_107080" data-name="Grupo 107080" transform="translate(12.297 11.823)">
          <path id="Trazado_150409" data-name="Trazado 150409" d="M101.037,132a5.444,5.444,0,0,1-4.673-2.655l-12.75-21.326a5.456,5.456,0,0,1,1.88-7.473l2.067-1.235a1.113,1.113,0,0,1,1.143,1.911l-2.066,1.235a3.226,3.226,0,0,0-1.112,4.419l12.75,21.327a3.22,3.22,0,0,0,2.89,1.568l9.039-.356a3.213,3.213,0,0,0,2.757-1.787l18.726-37.775a3.22,3.22,0,0,0-1.455-4.32l-6.714-3.326a3.228,3.228,0,0,0-4.32,1.456l-13.286,26.807a1.113,1.113,0,0,1-1.953.077L97.487,99.73a3.227,3.227,0,0,0-4.42-1.112l-.539.323a1.113,1.113,0,1,1-1.144-1.91l.54-.324a5.456,5.456,0,0,1,7.474,1.88l5.423,9.07L117.2,82.678a5.458,5.458,0,0,1,7.3-2.461l6.713,3.326a5.447,5.447,0,0,1,2.461,7.3L114.955,128.62a5.438,5.438,0,0,1-4.665,3.024l-9.039.356C101.18,132,101.108,132,101.037,132Z" transform="translate(-82.843 -79.65)"/>
        </g>
        <path id="Trazado_150410" data-name="Trazado 150410" d="M61.993,76H14.007A14.023,14.023,0,0,1,0,61.993V14.007A14.023,14.023,0,0,1,14.007,0H61.993A14.023,14.023,0,0,1,76,14.007V61.993A14.023,14.023,0,0,1,61.993,76ZM14.007,2.227A11.794,11.794,0,0,0,2.227,14.007V61.993A11.794,11.794,0,0,0,14.007,73.773H61.993A11.794,11.794,0,0,0,73.773,61.993V14.007A11.794,11.794,0,0,0,61.993,2.227Z" transform="translate(0 0)"/>
        <path id="Trazado_150411" data-name="Trazado 150411" d="M93.824,104.123H48.066a8.079,8.079,0,0,1-8.071-8.069V48.069A8.08,8.08,0,0,1,48.066,40H96.05a8.08,8.08,0,0,1,8.071,8.071V96.053A8.067,8.067,0,0,1,98.6,103.71,1.113,1.113,0,0,1,97.9,101.6a5.843,5.843,0,0,0,4-5.545V48.069a5.851,5.851,0,0,0-5.844-5.844H48.066a5.851,5.851,0,0,0-5.844,5.844V96.053a5.85,5.85,0,0,0,5.844,5.843H93.824a1.113,1.113,0,1,1,0,2.227Z" transform="translate(-34.058 -34.061)"/>
      </g>
    </g>
  </g>
</svg>
