<svg xmlns="http://www.w3.org/2000/svg" width="77.674" height="77.633" viewBox="0 0 77.674 77.633">
  <g id="security" transform="translate(-1 -1.033)">
    <path id="Trazado_150111" data-name="Trazado 150111" d="M63.6,58v5.011H21V58H63.6Z" transform="translate(5.056 14.402)" fill="#969faa"/>
    <path id="Trazado_150112" data-name="Trazado 150112" d="M54.528,54l3.758,5.011H42V54Z" transform="translate(10.365 13.391)" fill="#aab2bd"/>
    <path id="Trazado_150113" data-name="Trazado 150113" d="M69.124,14H19.011A5.011,5.011,0,0,0,14,19.011V44.068a15.034,15.034,0,1,1,30.068,0,14.78,14.78,0,0,1-.864,5.011A15.014,15.014,0,0,1,29.034,59.1h40.09a5.011,5.011,0,0,0,5.011-5.011V19.011A5.011,5.011,0,0,0,69.124,14Z" transform="translate(3.287 3.278)" fill="#ccd1d9"/>
    <path id="Trazado_150114" data-name="Trazado 150114" d="M44.023,55.011v5.011H34V50H44.023Z" transform="translate(8.343 12.379)" fill="#aab2bd"/>
    <path id="Trazado_150115" data-name="Trazado 150115" d="M37.287,54v5.011H21L24.758,54Z" transform="translate(5.056 13.391)" fill="#aab2bd"/>
    <path id="Trazado_150116" data-name="Trazado 150116" d="M66.86,48.068H19.253A1.253,1.253,0,0,1,18,46.815V19.253A1.253,1.253,0,0,1,19.253,18H66.86a1.253,1.253,0,0,1,1.253,1.253V46.815A1.253,1.253,0,0,1,66.86,48.068Z" transform="translate(4.298 4.289)" fill="#d2b7ff"/>
    <path id="Trazado_150117" data-name="Trazado 150117" d="M60.023,34v8.77a1.256,1.256,0,0,1-1.253,1.253H50V34Z" transform="translate(12.388 8.334)" fill="#ffb206"/>
    <path id="Trazado_150118" data-name="Trazado 150118" d="M65.883,7.011A14.29,14.29,0,0,1,60.5,5.946a14.157,14.157,0,0,1-4.573-3.057,3.025,3.025,0,0,0-4.285,0,14.157,14.157,0,0,1-4.573,3.057,14.29,14.29,0,0,1-5.387,1.065A1.679,1.679,0,0,0,40,8.69V14.9a20.037,20.037,0,0,0,.113,2.13,21.105,21.105,0,0,0,1.14,5.011,20.617,20.617,0,0,0,2.531,4.861,20.948,20.948,0,0,0,10,7.667A20.949,20.949,0,0,0,67.562,14.9V8.69a1.679,1.679,0,0,0-1.679-1.679Z" transform="translate(9.86 0.244)" fill="#8f52f5"/>
    <path id="Trazado_150119" data-name="Trazado 150119" d="M44.068,41.034a14.78,14.78,0,0,1-.864,5.011,15.023,15.023,0,1,1,.864-5.011Z" transform="translate(3.287 6.312)" fill="#ffb206"/>
    <path id="Trazado_150120" data-name="Trazado 150120" d="M24.5,49.465,9.554,65.15a4.361,4.361,0,1,1-6.164-6.164L19.076,44.04A15.013,15.013,0,0,0,24.5,49.465Z" transform="translate(0.253 10.873)" fill="#500c75"/>
    <path id="Trazado_150121" data-name="Trazado 150121" d="M23.011,31.353A9.836,9.836,0,0,1,28.023,30a10.047,10.047,0,1,1-5.011,1.353Z" transform="translate(4.298 7.323)" fill="#d2b7ff"/>
    <path id="Trazado_150122" data-name="Trazado 150122" d="M37.011,45h2.506v2.506H37.011Z" transform="translate(9.104 11.115)"/>
    <path id="Trazado_150123" data-name="Trazado 150123" d="M41.011,45H43.5v2.506H41.011Z" transform="translate(10.115 11.115)"/>
    <path id="Trazado_150124" data-name="Trazado 150124" d="M75.739,6a12.746,12.746,0,0,1-9.074-3.758,4.381,4.381,0,0,0-6.049,0A12.748,12.748,0,0,1,51.542,6a2.939,2.939,0,0,0-2.935,2.935v6.2c0,.3.023.589.035.883H22.3a6.271,6.271,0,0,0-6.264,6.264V47.346a16.163,16.163,0,0,0,1.751,7.308L2.79,68.938a5.616,5.616,0,1,0,7.927,7.948l14.295-15a16.172,16.172,0,0,0,7.309,1.751h8.77v2.506h-11.9L24.8,71.985v6.681H69.9V71.985L65.52,66.138h-11.9V63.632H72.41a6.271,6.271,0,0,0,6.264-6.264V8.938A2.939,2.939,0,0,0,75.739,6ZM63.212,35.994l.428.157.428-.157a22.034,22.034,0,0,0,7.088-4.23v9.317H61.135V51.1H48.152a16.255,16.255,0,0,0-24.6-17.46v-10.1H50.273A22.244,22.244,0,0,0,63.212,35.994Zm7.945,7.593V51.1H63.641V43.587Zm-52.618-21.3A3.763,3.763,0,0,1,22.3,18.531H48.871a22.155,22.155,0,0,0,.556,2.506H23.551a2.508,2.508,0,0,0-2.506,2.506V35.621a16.381,16.381,0,0,0-2.506,3.086ZM8.9,75.168a3.111,3.111,0,1,1-4.387-4.406L19.117,56.845a16.381,16.381,0,0,0,3.706,3.706Zm9.644-27.822A13.781,13.781,0,1,1,32.32,61.127,13.8,13.8,0,0,1,18.539,47.346Zm11.9,21.3H41.09v2.506H28.562ZM27.309,76.16V73.655H67.4V76.16Zm36.958-7.517,1.879,2.506H53.618V68.644ZM51.113,71.149H43.6V63.632h7.517ZM76.169,57.368a3.763,3.763,0,0,1-3.758,3.758H40.96A16.37,16.37,0,0,0,47.35,53.61H71.158A2.508,2.508,0,0,0,73.663,51.1V29.162a22.385,22.385,0,0,0,2.506-3.83Zm0-42.226A19.749,19.749,0,0,1,64.894,32.933v-14.4H62.388v14.4A19.751,19.751,0,0,1,51.113,15.142v-6.2a.429.429,0,0,1,.43-.43A15.234,15.234,0,0,0,62.388,4.016v7h2.506v-7A15.234,15.234,0,0,0,75.739,8.508a.429.429,0,0,1,.43.43v6.2Z" transform="translate(0 0)"/>
    <path id="Trazado_150125" data-name="Trazado 150125" d="M50,11h2.506v2.506H50Z" transform="translate(12.388 2.52)"/>
    <path id="Trazado_150126" data-name="Trazado 150126" d="M28.275,29A11.275,11.275,0,1,0,39.551,40.275,11.287,11.287,0,0,0,28.275,29Zm0,20.045A8.761,8.761,0,0,1,22.011,34.15V37.77a3.763,3.763,0,0,0,3.758,3.758h3.758V39.023H25.77a1.253,1.253,0,0,1-1.253-1.253V32.364a8.765,8.765,0,1,1,3.758,16.681Z" transform="translate(4.045 7.07)"/>
    <path id="Trazado_150127" data-name="Trazado 150127" d="M21,21h2.506v2.506H21Z" transform="translate(5.056 5.048)"/>
    <path id="Trazado_150128" data-name="Trazado 150128" d="M42.539,24.758A3.763,3.763,0,0,0,38.781,21H25v2.506H38.781a1.253,1.253,0,0,1,1.253,1.253v3.758h2.506Z" transform="translate(6.068 5.048)"/>
    <path id="Trazado_150129" data-name="Trazado 150129" d="M28.758,33H25v2.506h3.758a1.253,1.253,0,0,1,1.253,1.253v3.758h2.506V36.758A3.763,3.763,0,0,0,28.758,33Z" transform="translate(6.068 8.082)"/>
    <path id="Trazado_150130" data-name="Trazado 150130" d="M53,37h2.506v2.506H53Z" transform="translate(13.146 9.093)"/>
    <path id="Trazado_150131" data-name="Trazado 150131" d="M46.011,36.758a1.253,1.253,0,0,1-1.253,1.253H41v2.506h3.758a3.763,3.763,0,0,0,3.758-3.758V33H46.011Z" transform="translate(10.113 8.082)"/>
    <path id="Trazado_150132" data-name="Trazado 150132" d="M44.011,36.517V34.011H42.758a1.253,1.253,0,0,1-1.253-1.253V29H39v3.758a3.763,3.763,0,0,0,3.758,3.758Z" transform="translate(9.607 7.07)"/>
    <path id="Trazado_150133" data-name="Trazado 150133" d="M43,29h5.011v2.506H43Z" transform="translate(10.618 7.07)"/>
    <path id="Trazado_150134" data-name="Trazado 150134" d="M23,41h7.517v2.506H23Z" transform="translate(5.562 10.104)"/>
  </g>
</svg>
