<svg xmlns="http://www.w3.org/2000/svg" width="78.361" height="80" viewBox="0 0 78.361 80">
  <g id="security-protech-lock-computer-laptop" transform="translate(-2.614 -1.999)">
    <path id="Trazado_151044" data-name="Trazado 151044" d="M76.633,68.333H6.287A2.667,2.667,0,0,1,3.714,64.96L10.794,39H72.126l7.08,25.96a2.667,2.667,0,0,1-2.573,3.373Z" transform="translate(0.335 12.333)" fill="#d2b7ff"/>
    <path id="Trazado_151046" data-name="Trazado 151046" d="M67.666,9a2.675,2.675,0,0,1,2.667,2.667V49H9V11.667A2.675,2.675,0,0,1,11.667,9Z" transform="translate(2.129 2.333)" fill="#ff93b2"/>
    <path id="Trazado_151048" data-name="Trazado 151048" d="M45.666,53,47,58.333H23L24.333,53Z" transform="translate(6.795 16.999)" fill="#a7f"/>
    <path id="Trazado_151072" data-name="Trazado 151072" d="M2,0H27.333a2,2,0,0,1,2,2V19.333a2,2,0,0,1-2,2H2a2,2,0,0,1-2-2V2A2,2,0,0,1,2,0Z" transform="translate(27.128 19.333)" fill="#ffb206"/>
    <path id="Trazado_151051" data-name="Trazado 151051" d="M36,11h5.333v5.333H36Z" transform="translate(11.128 3)" fill="#ffde95"/>
    <path id="Trazado_151052" data-name="Trazado 151052" d="M45.333,13.67H40a5.333,5.333,0,0,0-10.667,0V19H24V13.67A10.985,10.985,0,0,1,24.333,11a10.667,10.667,0,0,1,20.68.067,10.442,10.442,0,0,1,.32,2.6Z" transform="translate(7.128 0.33)" fill="#be860a"/>
    <path id="Trazado_151053" data-name="Trazado 151053" d="M38.667,12.333v5.333H28V12.333a5.333,5.333,0,1,1,10.667,0Z" transform="translate(8.461 1.667)" fill="#ff93b2"/>
    <path id="Trazado_151054" data-name="Trazado 151054" d="M80.834,76.946,73.794,51.16V14a4.012,4.012,0,0,0-4-4H53.088A11.971,11.971,0,0,0,30.5,10H13.8a4.012,4.012,0,0,0-4,4V51.16L2.755,76.946A4,4,0,0,0,6.622,82H76.968a4,4,0,0,0,3.867-5.053ZM32.462,14a9.333,9.333,0,0,1,18.56-1.333H48.328A6.667,6.667,0,0,0,35.128,14v4H32.462Zm18.666,1.333V18H48.461V15.333ZM45.795,14v4h-8V14a4,4,0,1,1,8,0Zm8,6.667A1.333,1.333,0,0,1,55.128,22V38a1.333,1.333,0,0,1-1.333,1.333h-24A1.333,1.333,0,0,1,28.462,38V22a1.333,1.333,0,0,1,1.333-1.333ZM12.462,14A1.333,1.333,0,0,1,13.8,12.667h16.08A11.016,11.016,0,0,0,29.795,14v4a4.012,4.012,0,0,0-4,4V38a4.012,4.012,0,0,0,4,4h24a4.012,4.012,0,0,0,4-4V22a4.012,4.012,0,0,0-4-4V14a11.015,11.015,0,0,0-.08-1.333h16.08A1.333,1.333,0,0,1,71.128,14V50H12.462ZM78.034,78.813a1.32,1.32,0,0,1-1.067.52H6.622a1.32,1.32,0,0,1-1.067-.52,1.333,1.333,0,0,1-.227-1.16l6.813-24.986H71.448l6.813,24.986A1.333,1.333,0,0,1,78.034,78.813Z" transform="translate(0)"/>
    <path id="Trazado_151055" data-name="Trazado 151055" d="M47.293,53.009A1.333,1.333,0,0,0,46,52H24.667a1.333,1.333,0,0,0-1.293,1.009L22.04,58.343A1.333,1.333,0,0,0,23.333,60h24a1.333,1.333,0,0,0,1.293-1.657ZM25.041,57.333l.667-2.667h19.25l.667,2.667Z" transform="translate(6.462 16.666)"/>
    <path id="Trazado_151056" data-name="Trazado 151056" d="M27,34H40.333v2.667H27Z" transform="translate(8.128 10.666)"/>
    <path id="Trazado_151057" data-name="Trazado 151057" d="M12,42h5.333v2.667H12Z" transform="translate(3.128 13.333)"/>
    <path id="Trazado_151058" data-name="Trazado 151058" d="M18,42h5.333v2.667H18Z" transform="translate(5.128 13.333)"/>
    <path id="Trazado_151059" data-name="Trazado 151059" d="M24,42h5.333v2.667H24Z" transform="translate(7.128 13.333)"/>
    <path id="Trazado_151060" data-name="Trazado 151060" d="M36,42h5.333v2.667H36Z" transform="translate(11.128 13.333)"/>
    <path id="Trazado_151061" data-name="Trazado 151061" d="M42,42h5.333v2.667H42Z" transform="translate(13.128 13.333)"/>
    <path id="Trazado_151062" data-name="Trazado 151062" d="M48,42h5.333v2.667H48Z" transform="translate(15.128 13.333)"/>
    <path id="Trazado_151063" data-name="Trazado 151063" d="M30,42h5.333v2.667H30Z" transform="translate(9.128 13.333)"/>
    <path id="Trazado_151064" data-name="Trazado 151064" d="M12,46h5.333v2.667H12Z" transform="translate(3.128 14.666)"/>
    <path id="Trazado_151065" data-name="Trazado 151065" d="M18,46h5.333v2.667H18Z" transform="translate(5.128 14.666)"/>
    <path id="Trazado_151066" data-name="Trazado 151066" d="M24,46h5.333v2.667H24Z" transform="translate(7.128 14.666)"/>
    <path id="Trazado_151067" data-name="Trazado 151067" d="M36,46h5.333v2.667H36Z" transform="translate(11.128 14.666)"/>
    <path id="Trazado_151068" data-name="Trazado 151068" d="M42,46h5.333v2.667H42Z" transform="translate(13.128 14.666)"/>
    <path id="Trazado_151069" data-name="Trazado 151069" d="M48,46h5.333v2.667H48Z" transform="translate(15.128 14.666)"/>
    <path id="Trazado_151070" data-name="Trazado 151070" d="M30,46h5.333v2.667H30Z" transform="translate(9.128 14.666)"/>
    <path id="Trazado_151071" data-name="Trazado 151071" d="M32.569,29.9a1.333,1.333,0,0,0,.942-.39l9.333-9.333-1.885-1.885-8.391,8.391-4.391-4.391-1.885,1.885,5.333,5.333a1.333,1.333,0,0,0,.943.391Z" transform="translate(7.893 5.431)"/>
  </g>
</svg>
