<svg xmlns="http://www.w3.org/2000/svg" xmlns:xlink="http://www.w3.org/1999/xlink" width="169" height="169" viewBox="0 0 169 169">
  <defs>
    <filter id="Elipse_4553" x="0" y="0" width="169" height="169" filterUnits="userSpaceOnUse">
      <feOffset dx="3" dy="3" input="SourceAlpha"/>
      <feGaussianBlur stdDeviation="3" result="blur"/>
      <feFlood flood-opacity="0.231"/>
      <feComposite operator="in" in2="blur"/>
      <feComposite in="SourceGraphic"/>
    </filter>
  </defs>
  <g id="Grupo_107129" data-name="Grupo 107129" transform="translate(-456 -1169)">
    <g id="Grupo_107127" data-name="Grupo 107127">
      <g transform="matrix(1, 0, 0, 1, 456, 1169)" filter="url(#Elipse_4553)">
        <g id="Elipse_4553-2" data-name="Elipse 4553" transform="translate(6 6)" fill="#fff" stroke="#e01650" stroke-width="6">
          <circle cx="75.5" cy="75.5" r="75.5" stroke="none"/>
          <circle cx="75.5" cy="75.5" r="72.5" fill="none"/>
        </g>
      </g>
    </g>
    <g id="proceso-de-datos" transform="translate(495.498 1209.5)">
      <path id="Trazado_150211" data-name="Trazado 150211" d="M73.021,39.1l-.039,10.271c-.013,4.994-10.994,9.006-24.542,8.968C34.982,58.3,24.066,54.262,23.95,49.32v-.09l.039-10.31c0,4.981,10.955,9.058,24.49,9.1,13.484.039,24.452-3.948,24.542-8.916Z" transform="translate(6.663 11.009)" fill="#d2b7ff"/>
      <path id="Trazado_150212" data-name="Trazado 150212" d="M72.988,47.032l-.026,10.323c-.013,4.994-11.006,9.006-24.542,8.968s-24.5-4.116-24.49-9.11l.026-10.232c.116,4.942,11.032,8.981,24.49,9.019C61.995,56.038,72.975,52.025,72.988,47.032Z" transform="translate(6.657 13.349)" fill="#b734fd"/>
      <path id="Trazado_150213" data-name="Trazado 150213" d="M24.006,30.92c0,4.981,10.968,9.058,24.49,9.1,13.548.039,24.529-3.974,24.542-8.968l-.026,10.323v.052c-.09,4.968-11.058,8.955-24.542,8.916-13.535-.039-24.49-4.116-24.49-9.1V41.23l.013-3.755Z" transform="translate(6.672 8.686)" fill="#b734fd"/>
      <path id="Trazado_150214" data-name="Trazado 150214" d="M48.542,23.97c13.548.039,24.5,4.116,24.49,9.1S62.039,42.073,48.49,42.035C34.968,42,24,37.918,24,32.938v-.013c.013-3.187,4.477-5.961,11.239-7.548a58.294,58.294,0,0,1,13.3-1.406Z" transform="translate(6.677 6.669)" fill="#d2b7ff"/>
      <path id="Trazado_150215" data-name="Trazado 150215" d="M63.548,31.906c0,2.155-7.51,3.871-16.774,3.845S30,33.957,30,31.8s7.523-3.858,16.787-3.832S63.548,29.764,63.548,31.906Z" transform="translate(8.419 7.83)" fill="#8f52f5"/>
      <path id="Trazado_150216" data-name="Trazado 150216" d="M22.194,8A14.194,14.194,0,1,1,8,22.194,14.186,14.186,0,0,1,22.194,8Zm6.452,14.194a6.452,6.452,0,1,0-6.452,6.452A6.454,6.454,0,0,0,28.645,22.194Z" transform="translate(2.032 2.032)" fill="#ffde95"/>
      <path id="Trazado_150217" data-name="Trazado 150217" d="M23.935,38.129A14.194,14.194,0,1,0,9.742,23.935,14.186,14.186,0,0,0,23.935,38.129Zm17.69-6.374C34.865,33.342,30.4,36.116,30.387,39.3v.013l-.013,6.555H20.065l-.748-3.161a18.906,18.906,0,0,1-5.394-2.232l-2.761,1.7L5.69,36.71l1.7-2.761a18.906,18.906,0,0,1-2.232-5.394L2,27.806V20.065l3.161-.748a18.906,18.906,0,0,1,2.232-5.394l-1.7-2.761L11.161,5.69l2.761,1.7a18.906,18.906,0,0,1,5.394-2.232L20.065,2h7.742l.748,3.161a18.906,18.906,0,0,1,5.394,2.232l2.761-1.7,5.471,5.471-1.7,2.761a18.906,18.906,0,0,1,2.232,5.394l3.161.748v7.742l-3.161.748A19.455,19.455,0,0,1,41.626,31.755Z" transform="translate(0.29 0.29)" fill="#ffb206"/>
      <path id="Trazado_150218" data-name="Trazado 150218" d="M20.742,13a7.742,7.742,0,1,0,7.742,7.742A7.75,7.75,0,0,0,20.742,13Zm0,12.9A5.161,5.161,0,1,1,25.9,20.742,5.166,5.166,0,0,1,20.742,25.9Z" transform="translate(3.484 3.484)"/>
      <path id="Trazado_150219" data-name="Trazado 150219" d="M50.68,40.475l.4,2.551q1.322-.205,2.6-.465l-.514-2.529C52.35,40.2,51.52,40.343,50.68,40.475Z" transform="translate(14.423 11.332)"/>
      <path id="Trazado_150220" data-name="Trazado 150220" d="M46.785,40.87l.191,2.573q1.32-.1,2.617-.244l-.288-2.564C48.474,40.728,47.631,40.807,46.785,40.87Z" transform="translate(13.292 11.507)"/>
      <path id="Trazado_150221" data-name="Trazado 150221" d="M54.5,39.753l.648,2.5q1.316-.341,2.554-.746l-.8-2.453Q55.739,39.431,54.5,39.753Z" transform="translate(15.532 11.047)"/>
      <path id="Trazado_150222" data-name="Trazado 150222" d="M46.833,56.87l.191,2.573q1.32-.1,2.617-.244l-.288-2.564C48.522,56.728,47.679,56.807,46.833,56.87Z" transform="translate(13.306 16.152)"/>
      <path id="Trazado_150223" data-name="Trazado 150223" d="M50.728,56.475l.4,2.551q1.322-.205,2.6-.465l-.514-2.529Q51.989,56.278,50.728,56.475Z" transform="translate(14.437 15.977)"/>
      <path id="Trazado_150224" data-name="Trazado 150224" d="M54.548,55.753l.648,2.5q1.316-.341,2.554-.746l-.8-2.453Q55.787,55.431,54.548,55.753Z" transform="translate(15.546 15.693)"/>
      <path id="Trazado_150225" data-name="Trazado 150225" d="M32,47.819q-1.239-.314-2.4-.686l-.786,2.458q1.241.4,2.557.729Z" transform="translate(8.073 13.393)"/>
      <path id="Trazado_150226" data-name="Trazado 150226" d="M39.63,48.889c-.845-.058-1.688-.13-2.52-.219l-.275,2.565q1.3.139,2.621.228Z" transform="translate(10.404 13.84)"/>
      <path id="Trazado_150227" data-name="Trazado 150227" d="M35.775,48.518c-.841-.125-1.671-.268-2.484-.428l-.5,2.532c.85.168,1.72.317,2.6.449Z" transform="translate(9.23 13.671)"/>
      <path id="Trazado_150228" data-name="Trazado 150228" d="M47.054,37.329h.226a56,56,0,0,0,11.93-1.137c3.981-.911,5.919-2.217,5.924-3.991.015-5.035-16.2-5.23-18.049-5.235A58.381,58.381,0,0,0,34.929,28.1c-3.981.911-5.919,2.217-5.924,3.991-.015,5.036,16.2,5.231,18.049,5.236Zm.023-7.781c8.966.027,14.507,1.649,15.409,2.646-.9.983-6.365,2.554-15.2,2.554h-.225C38.1,34.721,32.555,33.1,31.653,32.1,32.56,31.111,38.139,29.532,47.077,29.548Z" transform="translate(8.13 7.539)"/>
      <path id="Trazado_150229" data-name="Trazado 150229" d="M80.942,60.39,81,39.745c.009-2.992-2.832-5.7-8-7.622A53.278,53.278,0,0,0,55.23,29.345a62.419,62.419,0,0,0-11.3.961c.04-.129.088-.257.125-.387l3.4-.8V19.333l-3.4-.8a20.51,20.51,0,0,0-1.782-4.3l1.84-2.97-6.92-6.92L34.218,6.182a20.453,20.453,0,0,0-4.3-1.782l-.8-3.4H19.333l-.8,3.4a20.522,20.522,0,0,0-4.3,1.782L11.262,4.343l-6.92,6.92,1.84,2.97a20.51,20.51,0,0,0-1.782,4.3l-3.4.8v9.786l3.4.8a20.51,20.51,0,0,0,1.782,4.3l-1.84,2.97,6.92,6.92,2.972-1.839a20.453,20.453,0,0,0,4.3,1.782l.8,3.4H29.368l-.008,2.459v.006L29.3,70.556c-.009,2.992,2.832,5.7,8,7.622a53.309,53.309,0,0,0,17.773,2.779h.2c12.452,0,25.621-3.575,25.641-10.245L80.941,60.4a.012.012,0,0,0,0-.006Zm-2.55-10.33c-.012,3.644-9.465,7.672-23.04,7.672h-.208c-13.684-.041-23.208-4.148-23.2-7.81l.017-5.7a18.383,18.383,0,0,0,5.435,2.988,53.291,53.291,0,0,0,17.774,2.778h.2c9.111,0,18.6-1.916,23.045-5.556ZM55.135,60.312h.2c9.111,0,18.6-1.916,23.045-5.556l-.017,5.628c-.015,3.643-9.468,7.67-23.041,7.67h-.208A50.7,50.7,0,0,1,38.23,65.437c-3.963-1.474-6.325-3.415-6.32-5.195l.017-5.626C36.383,58.308,45.964,60.284,55.135,60.312Zm.085-28.387A50.7,50.7,0,0,1,72.1,34.542c3.963,1.474,6.325,3.415,6.32,5.195-.012,3.644-9.465,7.672-23.04,7.672h-.208a50.709,50.709,0,0,1-16.883-2.617c-3.963-1.474-6.325-3.415-6.32-5.195.012-3.644,9.466-7.672,23.041-7.672Zm-30.995,5.2a12.9,12.9,0,1,1,12.9-12.9A12.918,12.918,0,0,1,24.226,37.129Zm-2.849,7.742-.69-2.932-.768-.188a17.892,17.892,0,0,1-5.037-2.089l-.675-.41-2.563,1.586-4.03-4.03L9.2,34.245l-.41-.676A17.917,17.917,0,0,1,6.7,28.532l-.188-.768-2.934-.689v-5.7l2.933-.69.188-.768a17.932,17.932,0,0,1,2.086-5.037l.41-.676L7.613,11.643l4.03-4.03L14.205,9.2l.675-.41A17.929,17.929,0,0,1,19.917,6.7l.768-.188.692-2.93h5.7l.69,2.932.768.188A17.892,17.892,0,0,1,33.57,8.79l.675.41,2.563-1.586,4.03,4.03-1.586,2.563.41.676a17.917,17.917,0,0,1,2.086,5.037l.188.768,2.934.689v5.7l-2.933.69-.188.769a17.961,17.961,0,0,1-.791,2.41c-1.165.29-2.28.618-3.32.986a15.566,15.566,0,1,0-8.17,6.846,4.834,4.834,0,0,0-.077.813l-.015,5.281ZM55.288,78.377H55.08A50.7,50.7,0,0,1,38.2,75.76c-3.963-1.474-6.325-3.415-6.32-5.195l.017-5.7a18.383,18.383,0,0,0,5.435,2.99A53.309,53.309,0,0,0,55.1,70.636h.2c9.111,0,18.6-1.916,23.046-5.556l-.017,5.626C78.319,74.348,68.865,78.377,55.288,78.377Z"/>
      <path id="Trazado_150230" data-name="Trazado 150230" d="M61,11h2.581v2.581H61Z" transform="translate(17.419 2.903)"/>
      <path id="Trazado_150231" data-name="Trazado 150231" d="M58.889,13.581h5.917V11H57.821L47.5,21.323H39V23.9h9.566Z" transform="translate(11.032 2.903)"/>
      <path id="Trazado_150232" data-name="Trazado 150232" d="M56.308,9.581H69.968V7H55.24L44.917,17.323H39V19.9h6.986Z" transform="translate(11.032 1.742)"/>
      <path id="Trazado_150233" data-name="Trazado 150233" d="M11,61h2.581v2.581H11Z" transform="translate(2.903 17.419)"/>
      <path id="Trazado_150234" data-name="Trazado 150234" d="M21.323,47.5,11,57.821v6.986h2.581V58.889L23.9,48.566V39H21.323Z" transform="translate(2.903 11.032)"/>
      <path id="Trazado_150235" data-name="Trazado 150235" d="M19.9,39H17.323v5.917L7,55.24V69.968H9.581V56.308L19.9,45.986Z" transform="translate(1.742 11.032)"/>
    </g>
  </g>
</svg>
