<svg xmlns="http://www.w3.org/2000/svg" xmlns:xlink="http://www.w3.org/1999/xlink" width="169" height="169" viewBox="0 0 169 169">
  <defs>
    <filter id="Elipse_4593" x="0" y="0" width="169" height="169" filterUnits="userSpaceOnUse">
      <feOffset dx="3" dy="3" input="SourceAlpha"/>
      <feGaussianBlur stdDeviation="3" result="blur"/>
      <feFlood flood-opacity="0.231"/>
      <feComposite operator="in" in2="blur"/>
      <feComposite in="SourceGraphic"/>
    </filter>
  </defs>
  <g id="Grupo_107130" data-name="Grupo 107130" transform="translate(-456 -6226)">
    <g transform="matrix(1, 0, 0, 1, 456, 6226)" filter="url(#Elipse_4593)">
      <g id="Elipse_4593-2" data-name="Elipse 4593" transform="translate(6 6)" fill="#fff" stroke="#e01650" stroke-width="6">
        <circle cx="75.5" cy="75.5" r="75.5" stroke="none"/>
        <circle cx="75.5" cy="75.5" r="72.5" fill="none"/>
      </g>
    </g>
    <g id="cyber" transform="translate(498 6265)">
      <g id="Grupo_107096" data-name="Grupo 107096" transform="translate(1.29 14.194)">
        <g id="Grupo_107088" data-name="Grupo 107088" transform="translate(5.161 7.742)">
          <path id="Trazado_150419" data-name="Trazado 150419" d="M66.935,60.871H5V22.161A5.162,5.162,0,0,1,10.161,17H61.774a5.162,5.162,0,0,1,5.161,5.161Z" transform="translate(-5 -17)" fill="#ccd1d9"/>
        </g>
        <g id="Grupo_107089" data-name="Grupo 107089" transform="translate(0 51.613)">
          <path id="Trazado_150420" data-name="Trazado 150420" d="M50.639,51l-2.89,7.019a4.035,4.035,0,0,0-.3,1.51v.4a3.873,3.873,0,0,0,.258,1.394H8.742A7.748,7.748,0,0,1,1,53.581V51H26.806v2.581a2.588,2.588,0,0,0,2.581,2.581H39.71a2.588,2.588,0,0,0,2.581-2.581V51Z" transform="translate(-1 -51)" fill="#aab2bd"/>
        </g>
        <g id="Grupo_107090" data-name="Grupo 107090" transform="translate(25.806 51.613)">
          <path id="Trazado_150421" data-name="Trazado 150421" d="M36.484,51v2.581A2.588,2.588,0,0,1,33.9,56.161H23.581A2.588,2.588,0,0,1,21,53.581V51Z" transform="translate(-21 -51)" fill="#b734fd"/>
        </g>
        <g id="Grupo_107091" data-name="Grupo 107091" transform="translate(10.323 12.903)">
          <path id="Trazado_150422" data-name="Trazado 150422" d="M60.613,54.548H10.29A1.291,1.291,0,0,1,9,53.258V22.29A1.291,1.291,0,0,1,10.29,21H59.323a1.291,1.291,0,0,1,1.29,1.29Z" transform="translate(-9 -21)" fill="#3d095a"/>
        </g>
        <g id="Grupo_107092" data-name="Grupo 107092" transform="translate(15.484)">
          <path id="Trazado_150423" data-name="Trazado 150423" d="M52.781,23.9a20.339,20.339,0,0,1,1.51,7.742,20.645,20.645,0,0,1-41.29,0A20.339,20.339,0,0,1,14.51,23.9a20.068,20.068,0,0,1,3.019-5.161,20.645,20.645,0,0,1,32.232,0A20.068,20.068,0,0,1,52.781,23.9Z" transform="translate(-13 -11)" fill="#d2b7ff"/>
        </g>
        <g id="Grupo_107093" data-name="Grupo 107093" transform="translate(46.452 28.387)">
          <path id="Trazado_150424" data-name="Trazado 150424" d="M57.645,39.194,67.658,63.232a3.933,3.933,0,0,1,.31,1.535v.387a3.976,3.976,0,0,1-3.974,3.974H40.974a3.955,3.955,0,0,1-3.716-2.581A3.873,3.873,0,0,1,37,65.155v-.4a4.035,4.035,0,0,1,.3-1.51l2.89-7.019L42.3,51.065l6.426-15.6A3.989,3.989,0,0,1,52.394,33h.09a3.991,3.991,0,0,1,3.6,2.439Z" transform="translate(-37 -33)" fill="#ffb206"/>
        </g>
        <g id="Grupo_107094" data-name="Grupo 107094" transform="translate(59.355 54.194)">
          <circle id="Elipse_4595" data-name="Elipse 4595" cx="2.581" cy="2.581" r="2.581" fill="#29063c"/>
        </g>
        <g id="Grupo_107095" data-name="Grupo 107095" transform="translate(59.355 36.129)">
          <path id="Trazado_150425" data-name="Trazado 150425" d="M52.161,41.426a2.487,2.487,0,0,1-.013.31l-1.123,8.89a1.456,1.456,0,0,1-2.89,0l-1.123-8.89a2.487,2.487,0,0,1-.013-.31A2.423,2.423,0,0,1,49.426,39h.31a2.423,2.423,0,0,1,2.426,2.426Z" transform="translate(-47 -39)" fill="#29063c"/>
        </g>
      </g>
      <g id="Grupo_107097" data-name="Grupo 107097">
        <path id="Trazado_150426" data-name="Trazado 150426" d="M79.595,71.737l-9.917-23.8V26.516a6.459,6.459,0,0,0-6.452-6.452H54.114a21.874,21.874,0,0,0-15.4-7.676V5.871A1.292,1.292,0,0,1,40,4.581H67.1V2H40a3.876,3.876,0,0,0-3.871,3.871v6.517a21.879,21.879,0,0,0-15.4,7.676H11.613a6.459,6.459,0,0,0-6.452,6.452V63.935H0v3.871a9.043,9.043,0,0,0,9.032,9.032H47.214a5.255,5.255,0,0,0,4.507,2.581H74.729A5.277,5.277,0,0,0,80,74.15v-.386A5.254,5.254,0,0,0,79.595,71.737ZM63.226,22.645A3.876,3.876,0,0,1,67.1,26.516V42.492a5.236,5.236,0,0,0-2.581-1.6V27.806a2.583,2.583,0,0,0-2.581-2.581h-4.55a22.039,22.039,0,0,0-1.391-2.581ZM52.186,58.774H12.9V27.806h3.552a21.935,21.935,0,1,0,41.928,0h3.552V40.858a5.235,5.235,0,0,0-3.658,3.11ZM20.315,25.226h6.5a39.246,39.246,0,0,0-.97,7.742H18.13A19.2,19.2,0,0,1,20.315,25.226ZM37.419,14.9c2.88,0,5.489,3.08,7.156,7.742H30.263c1.667-4.662,4.276-7.742,7.156-7.742Zm7.947,10.323a36.6,36.6,0,0,1,1.053,7.742h-18a36.6,36.6,0,0,1,1.053-7.742Zm11.342,7.742H49a39.246,39.246,0,0,0-.97-7.742h6.5a19.2,19.2,0,0,1,2.185,7.742ZM25.84,35.548a39.246,39.246,0,0,0,.97,7.742h-6.5a19.2,19.2,0,0,1-2.185-7.742Zm2.578,0h18a36.6,36.6,0,0,1-1.053,7.742H29.472a36.6,36.6,0,0,1-1.054-7.742ZM27.53,45.871a21.49,21.49,0,0,0,3.311,6.566,19.416,19.416,0,0,1-8.87-6.566Zm2.733,0H44.577c-1.667,4.662-4.276,7.742-7.156,7.742s-5.49-3.08-7.157-7.742Zm17.045,0h5.559A19.409,19.409,0,0,1,44,52.437,21.49,21.49,0,0,0,47.308,45.871Zm7.215-2.581h-6.5A39.246,39.246,0,0,0,49,35.548h7.71a19.2,19.2,0,0,1-2.185,7.742ZM52.867,22.645H47.308A21.49,21.49,0,0,0,44,16.079,19.416,19.416,0,0,1,52.867,22.645ZM30.841,16.079a21.49,21.49,0,0,0-3.311,6.566H21.972A19.416,19.416,0,0,1,30.841,16.079ZM7.742,26.516a3.876,3.876,0,0,1,3.871-3.871h7.231a21.849,21.849,0,0,0-1.391,2.581H12.9a2.583,2.583,0,0,0-2.581,2.581V58.774A2.583,2.583,0,0,0,12.9,61.355H51.124l-1.062,2.581H7.742Zm20.645,40h12.9v1.29A1.292,1.292,0,0,1,40,69.1H29.677a1.292,1.292,0,0,1-1.29-1.29ZM9.032,74.258a6.459,6.459,0,0,1-6.452-6.452v-1.29H25.806v1.29a3.876,3.876,0,0,0,3.871,3.871H40a3.876,3.876,0,0,0,3.871-3.871v-1.29H49L46.849,71.75a5.232,5.232,0,0,0-.4,2v.4c0,.037.01.071.01.108Zm68.387-.108a2.692,2.692,0,0,1-2.689,2.689H51.721a2.692,2.692,0,0,1-2.689-2.689v-.4a2.668,2.668,0,0,1,.2-1.022L60.663,44.951a2.68,2.68,0,0,1,2.486-1.667h.006a2.686,2.686,0,0,1,2.477,1.655l11.579,27.79a2.688,2.688,0,0,1,.206,1.035Z" transform="translate(0 0.581)"/>
        <path id="Trazado_150427" data-name="Trazado 150427" d="M50.022,38h-.3A3.724,3.724,0,0,0,46,41.72a3.634,3.634,0,0,0,.028.461l1.111,8.893a2.752,2.752,0,0,0,5.462,0l1.111-8.89a3.476,3.476,0,0,0,.03-.463A3.724,3.724,0,0,0,50.022,38Zm1.13,3.861-1.111,8.893a.177.177,0,0,1-.341,0l-1.111-8.9a.979.979,0,0,1-.009-.138,1.14,1.14,0,0,1,1.139-1.139h.3a1.14,1.14,0,0,1,1.139,1.139,1.042,1.042,0,0,1-.009.141Z" transform="translate(13.355 11.032)"/>
        <path id="Trazado_150428" data-name="Trazado 150428" d="M49.871,52a3.871,3.871,0,1,0,3.871,3.871A3.876,3.876,0,0,0,49.871,52Zm0,5.161a1.29,1.29,0,1,1,1.29-1.29A1.292,1.292,0,0,1,49.871,57.161Z" transform="translate(13.355 15.097)"/>
        <path id="Trazado_150429" data-name="Trazado 150429" d="M52,0h2.581V2.581H52Z" transform="translate(15.097)"/>
        <path id="Trazado_150430" data-name="Trazado 150430" d="M52,4h2.581V6.581H52Z" transform="translate(15.097 1.161)"/>
        <path id="Trazado_150431" data-name="Trazado 150431" d="M54,2h2.581V4.581H54Z" transform="translate(15.677 0.581)"/>
      </g>
    </g>
  </g>
</svg>
