<svg xmlns="http://www.w3.org/2000/svg" width="81.923" height="71.274" viewBox="0 0 81.923 71.274">
  <g id="seguridad-de-datos" transform="translate(0 -33.276)">
    <g id="Grupo_107332" data-name="Grupo 107332" transform="translate(1.2 34.476)">
      <path id="Trazado_151025" data-name="Trazado 151025" d="M195.584,40.777h-51.95a3.147,3.147,0,0,0-3.147,3.147V106.5a3.147,3.147,0,0,0,3.147,3.147h51.949a3.147,3.147,0,0,0,3.147-3.147V43.924a3.147,3.147,0,0,0-3.147-3.147Z" transform="translate(-119.208 -40.777)" fill="#ffb206"/>
      <path id="Trazado_151027" data-name="Trazado 151027" d="M140.48,164.021h58.245v6.08H140.48Z" transform="translate(-119.203 -144.301)" fill="#d2b7ff"/>
      <path id="Trazado_151029" data-name="Trazado 151029" d="M140.48,309.981h58.245v6.08H140.48Z" transform="translate(-119.203 -266.907)" fill="#d2b7ff"/>
      <g id="Grupo_107331" data-name="Grupo 107331" transform="translate(32.907 7.169)">
        <circle id="Elipse_4612" data-name="Elipse 4612" cx="2.806" cy="2.806" r="2.806" transform="translate(14.687)" fill="#d2b7ff"/>
        <circle id="Elipse_4613" data-name="Elipse 4613" cx="2.806" cy="2.806" r="2.806" transform="translate(29.373)" fill="#d2b7ff"/>
        <circle id="Elipse_4614" data-name="Elipse 4614" cx="2.806" cy="2.806" r="2.806" fill="#d2b7ff"/>
        <circle id="Elipse_4615" data-name="Elipse 4615" cx="2.806" cy="2.806" r="2.806" transform="translate(14.687 24.462)" fill="#d2b7ff"/>
        <circle id="Elipse_4616" data-name="Elipse 4616" cx="2.806" cy="2.806" r="2.806" transform="translate(29.373 24.462)" fill="#d2b7ff"/>
        <circle id="Elipse_4617" data-name="Elipse 4617" cx="2.806" cy="2.806" r="2.806" transform="translate(14.687 48.924)" fill="#d2b7ff"/>
        <circle id="Elipse_4618" data-name="Elipse 4618" cx="2.806" cy="2.806" r="2.806" transform="translate(29.373 48.924)" fill="#d2b7ff"/>
        <circle id="Elipse_4619" data-name="Elipse 4619" cx="2.806" cy="2.806" r="2.806" transform="translate(0 48.924)" fill="#d2b7ff"/>
      </g>
      <path id="Trazado_151031" data-name="Trazado 151031" d="M46.848,78.69a3.969,3.969,0,0,1,3.209,3.9v28.029a12.533,12.533,0,0,1-5.631,10.461l-12.213,8.065a6.237,6.237,0,0,1-6.867,0l-12.215-8.065A12.533,12.533,0,0,1,7.5,110.616V82.586a3.97,3.97,0,0,1,3.211-3.9,40.017,40.017,0,0,0,16.052-7.065,3.388,3.388,0,0,1,4.036,0A40.031,40.031,0,0,0,46.848,78.69Z" transform="translate(-7.5 -66.128)" fill="#e01650"/>
      <path id="Trazado_151033" data-name="Trazado 151033" d="M94.145,251.859H79.828a3.033,3.033,0,0,0-3.033,3.033v8.051a3.033,3.033,0,0,0,3.033,3.033H94.145a3.033,3.033,0,0,0,3.033-3.033v-8.051A3.032,3.032,0,0,0,94.145,251.859Z" transform="translate(-65.707 -218.085)" fill="#ffb206"/>
    </g>
    <g id="Grupo_107333" data-name="Grupo 107333" transform="translate(0 33.276)">
      <path id="Trazado_151035" data-name="Trazado 151035" d="M77.575,33.276H48.624a1.2,1.2,0,0,0,0,2.4H77.575a1.949,1.949,0,0,1,1.947,1.947V53H44.957v-2.06a5.252,5.252,0,0,0-4.286-5.1,4.006,4.006,0,1,0-7.642-2.364,38.587,38.587,0,0,1-7.815-4.466,4.619,4.619,0,0,0-1.535-.744,2.155,2.155,0,0,1,1.947-2.587H42.978a1.2,1.2,0,0,0,0-2.4H25.626a4.478,4.478,0,0,0-4.347,4.988,4.607,4.607,0,0,0-1.53.743A38.734,38.734,0,0,1,4.182,45.858,5.18,5.18,0,0,0,0,50.934V78.964A13.7,13.7,0,0,0,6.169,90.427l12.216,8.065a7.427,7.427,0,0,0,2.894,1.132,4.468,4.468,0,0,0,4.347,4.926h51.95a4.352,4.352,0,0,0,4.347-4.347V37.623a4.352,4.352,0,0,0-4.347-4.347Zm1.947,43.074H44.957V61.476H79.522Zm0-20.954v3.68H44.957V55.4ZM36.913,42.845a1.606,1.606,0,0,1,1.373,2.439q-1.5-.4-2.974-.919A1.607,1.607,0,0,1,36.913,42.845ZM7.492,88.424A11.3,11.3,0,0,1,2.4,78.964V50.934a2.776,2.776,0,0,1,2.24-2.72,41.148,41.148,0,0,0,16.537-7.279,2.247,2.247,0,0,1,2.607,0,41.157,41.157,0,0,0,16.534,7.28,2.773,2.773,0,0,1,2.238,2.719V78.964a11.3,11.3,0,0,1-5.092,9.46L25.252,96.488a5.128,5.128,0,0,1-5.545,0Zm29.422,3.345a1.608,1.608,0,1,1-1.4.82l1.227-.81A1.628,1.628,0,0,1,36.913,91.769Zm40.662,10.38H25.626a2.131,2.131,0,0,1-1.947-2.526,7.439,7.439,0,0,0,2.9-1.132L33,94.246a4.005,4.005,0,1,0,6.234-4.131,13.8,13.8,0,0,0,5.719-11.366H79.522v3.68H48.794a1.2,1.2,0,1,0,0,2.4H79.522V100.2a1.949,1.949,0,0,1-1.947,1.947Z" transform="translate(0 -33.276)"/>
      <path id="Trazado_151036" data-name="Trazado 151036" d="M92.078,172.007v-1.026a1.2,1.2,0,1,0-2.4,0v1.026a1.835,1.835,0,0,1-1.833,1.833H73.528a1.835,1.835,0,0,1-1.833-1.833v-8.051a1.835,1.835,0,0,1,1.833-1.833H87.846a1.835,1.835,0,0,1,1.833,1.833V165.3a1.2,1.2,0,1,0,2.4,0v-1.349a4.24,4.24,0,0,0-3.033-4.058v-7.938a8.359,8.359,0,1,0-16.717,0V159.9a4.239,4.239,0,0,0-3.033,4.058v8.051a4.237,4.237,0,0,0,4.233,4.233H87.846A4.237,4.237,0,0,0,92.078,172.007ZM74.728,151.96a5.958,5.958,0,1,1,11.917,0v7.763H74.728V151.96Z" transform="translate(-58.208 -125.948)"/>
      <path id="Trazado_151037" data-name="Trazado 151037" d="M305.465,82.086a4.006,4.006,0,1,0-4.006,4.006A4.01,4.01,0,0,0,305.465,82.086Zm-5.612,0a1.606,1.606,0,1,1,1.606,1.606A1.608,1.608,0,0,1,299.853,82.086Z" transform="translate(-249.859 -70.911)"/>
      <path id="Trazado_151038" data-name="Trazado 151038" d="M397.253,82.086a4.006,4.006,0,1,0-4.006,4.006A4.01,4.01,0,0,0,397.253,82.086Zm-5.612,0a1.606,1.606,0,1,1,1.606,1.606A1.608,1.608,0,0,1,391.641,82.086Z" transform="translate(-326.96 -70.911)"/>
      <path id="Trazado_151039" data-name="Trazado 151039" d="M301.46,238.975a4.006,4.006,0,1,0-4.006-4.006A4.01,4.01,0,0,0,301.46,238.975Zm0-5.612a1.606,1.606,0,1,1-1.606,1.606A1.608,1.608,0,0,1,301.46,233.363Z" transform="translate(-249.86 -199.332)"/>
      <path id="Trazado_151040" data-name="Trazado 151040" d="M393.248,238.975a4.006,4.006,0,1,0-4.006-4.006A4.01,4.01,0,0,0,393.248,238.975Zm0-5.612a1.606,1.606,0,1,1-1.606,1.606A1.608,1.608,0,0,1,393.248,233.363Z" transform="translate(-326.961 -199.332)"/>
      <path id="Trazado_151041" data-name="Trazado 151041" d="M301.459,383.848a4.006,4.006,0,1,0,4.006,4.006A4.01,4.01,0,0,0,301.459,383.848Zm0,5.612a1.606,1.606,0,1,1,1.606-1.606A1.608,1.608,0,0,1,301.459,389.46Z" transform="translate(-249.859 -327.755)"/>
      <path id="Trazado_151042" data-name="Trazado 151042" d="M393.248,383.848a4.006,4.006,0,1,0,4.006,4.006A4.01,4.01,0,0,0,393.248,383.848Zm0,5.612a1.606,1.606,0,1,1,1.606-1.606A1.608,1.608,0,0,1,393.248,389.46Z" transform="translate(-326.961 -327.755)"/>
      <path id="Trazado_151043" data-name="Trazado 151043" d="M132.98,280.451V283.6a1.2,1.2,0,1,0,2.4,0v-3.154a1.2,1.2,0,1,0-2.4,0Z" transform="translate(-111.703 -239.894)"/>
    </g>
  </g>
</svg>
