<svg xmlns="http://www.w3.org/2000/svg" width="350.44" height="290.06" viewBox="0 0 350.44 290.06">
  <g id="Grupo_108546" data-name="Grupo 108546" transform="translate(-310.827 -2316.358)">
    <path id="Trazado_150848" data-name="Trazado 150848" d="M1395.781,2041.745s-72.8-29.911-52.4-68.66,86.436-50.494,59.823-90.414c-23.113-34.67-46.847-59.468-23.055-87.34,36.848-43.165,121.685,18.355,197.822-10.877s138,41.468,92.454,122.364C1608.482,2016.83,1685.1,2040.8,1685.1,2040.8Z" transform="translate(-1028.945 562.906)" fill="#ffde95"/>
    <g id="Grupo_107288" data-name="Grupo 107288" transform="translate(-1039.386 1846.777)">
      <g id="Grupo_107300" data-name="Grupo 107300" transform="translate(1424.274 509.414)">
        <path id="Trazado_150974" data-name="Trazado 150974" d="M1499.68,546.934c-10.092,10.215-18.9,20.272-27.372,38.965-2.345-6.088-1.771-4.751-7.43-18.141-2.6-6.294-19.427-2.736-19.851,2.8,0,0-3.022,38.569,14.79,53.76s68.027-48.233,68.027-48.233C1543.884,554.175,1516.939,533.236,1499.68,546.934Z" transform="translate(-1426.582 -517.606)" fill="#e01650"/>
        <g id="Grupo_107291" data-name="Grupo 107291" transform="translate(18.489 130.497)">
          <path id="Trazado_150975" data-name="Trazado 150975" d="M1628.972,696.353c-18.932,36.942-157.037,23.788-180.808,3.684-17.567-25.787,46.068-38.39,47.479-38.429,31.278-.851,74.375,1.928,90.257,1.928C1622.83,669.21,1633.131,682.291,1628.972,696.353Z" transform="translate(-1445.1 -661.446)" fill="#092e66"/>
          <path id="Trazado_150976" data-name="Trazado 150976" d="M1501.7,683.3c25.689,6.089,48.482,8.084,76.5,3.789,0,0-42.913,18.968-43.146,19.669S1501.7,683.3,1501.7,683.3Z" transform="translate(-1451.454 -663.9)" fill="#051733"/>
          <path id="Trazado_150977" data-name="Trazado 150977" d="M1632.594,702.492c-27.663,30.629-145.719,27.685-123.011-.164,20.608-2.576,77.233-16.344,82.227-19.049C1609.211,669.173,1643.846,685.915,1632.594,702.492Z" transform="translate(-1452.015 -663.303)" fill="#092e66"/>
          <g id="Grupo_107290" data-name="Grupo 107290" transform="translate(1.895 10.978)">
            <g id="Grupo_107288-2" data-name="Grupo 107288" transform="translate(113.575 34.725)">
              <path id="Trazado_150978" data-name="Trazado 150978" d="M1625.384,728.659c-1.37-6.164-8.475-10.09-16.065-12.562-3.691,4.317-8.719,12.83-9.038,25.548C1617.123,745.427,1627.737,739.244,1625.384,728.659Z" transform="translate(-1577.989 -713.284)" fill="#73ccff"/>
              <path id="Trazado_150979" data-name="Trazado 150979" d="M1585.132,712.987s-7.059-1.206-9.125,7.232c-.7,2.863-2.755,8.609,4.132,13.086,6.869,3.783,11.623,6.7,17.324,7.984.32-12.718,5.347-21.231,9.038-25.548C1596.641,712.529,1585.132,712.987,1585.132,712.987Z" transform="translate(-1575.17 -712.928)" fill="#aae0ff"/>
            </g>
            <path id="Trazado_150980" data-name="Trazado 150980" d="M1568.561,709.57c13.472,3.23,6.552,19.838-.387,18.855,7.558,1.071-133.778,1.087-119.991-41.661h.055c5.27-9,21.738-16.783,35.076-10.91C1514.21,692.252,1543.369,703.629,1568.561,709.57Z" transform="translate(-1447.235 -673.812)" fill="#092e66"/>
            <g id="Grupo_107289" data-name="Grupo 107289" transform="translate(117.642 37.447)">
              <path id="Trazado_150981" data-name="Trazado 150981" d="M1588.482,732.24s-12.02-.939-7.853-10.6,12.625-3.994,12.625-3.994S1597.764,727.5,1588.482,732.24Z" transform="translate(-1579.751 -715.993)" fill="#aae0ff"/>
              <path id="Trazado_150982" data-name="Trazado 150982" d="M1590.167,733.271a.55.55,0,0,1-.549-.53,21.519,21.519,0,0,1,5.35-14.789.549.549,0,0,1,.79.762,20.8,20.8,0,0,0-5.043,13.989.549.549,0,0,1-.529.568Z" transform="translate(-1580.857 -716.194)" fill="#fff"/>
              <path id="Trazado_150983" data-name="Trazado 150983" d="M1593.994,734.734a.548.548,0,0,1-.549-.529,21.519,21.519,0,0,1,5.35-14.79.549.549,0,1,1,.79.762,20.8,20.8,0,0,0-5.042,13.99.55.55,0,0,1-.53.567Z" transform="translate(-1581.287 -716.359)" fill="#fff"/>
              <path id="Trazado_150984" data-name="Trazado 150984" d="M1598.046,735.747a.549.549,0,0,1-.549-.529,21.517,21.517,0,0,1,5.35-14.789.549.549,0,1,1,.791.762,20.783,20.783,0,0,0-5.043,13.989.549.549,0,0,1-.529.567Z" transform="translate(-1581.742 -716.472)" fill="#fff"/>
            </g>
          </g>
          <path id="Trazado_150985" data-name="Trazado 150985" d="M1569.783,729.424c-2.881,1.594-75.716,4.981-116.262-21.133-13.2-8.5-6.253-20.694-6.253-20.694S1456.713,722.949,1569.783,729.424Z" transform="translate(-1445.139 -664.382)" fill="#051733"/>
          <path id="Trazado_150986" data-name="Trazado 150986" d="M1566.541,709.5a.823.823,0,0,1-.234-.034c-52.5-15.552-76.686-31.655-76.924-31.816a.823.823,0,0,1,.922-1.365c.236.16,24.247,16.132,76.47,31.6a.823.823,0,0,1-.233,1.613Z" transform="translate(-1450.03 -663.096)" fill="#051733"/>
          <path id="Trazado_150987" data-name="Trazado 150987" d="M1538.782,698.8a.823.823,0,0,1-.144-1.633c.333-.059,33.434-6.015,46.25-11.507a.823.823,0,1,1,.649,1.514c-12.99,5.567-45.243,11.369-46.61,11.614A.822.822,0,0,1,1538.782,698.8Z" transform="translate(-1455.523 -664.157)" fill="#051733"/>
        </g>
        <path id="Trazado_150988" data-name="Trazado 150988" d="M1593.223,649.562c1.151,8.831-61.716,10.938-93.87-1.862-4.808-19.935-21.409-110.671,28.175-110.4C1581.064,537.6,1588.135,625.495,1593.223,649.562Z" transform="translate(-1431.966 -517.015)" fill="#fff"/>
        <path id="Trazado_150989" data-name="Trazado 150989" d="M1447.076,572.047l-.74-11.232,11.809-1.78,4.461,10.1C1463.109,572.122,1447.581,575.034,1447.076,572.047Z" transform="translate(-1426.75 -519.455)" fill="#f7a594"/>
        <g id="Grupo_107293" data-name="Grupo 107293" transform="translate(0 6.206)">
          <path id="Trazado_150990" data-name="Trazado 150990" d="M1459.183,558.686l2.86-18.205s-4.161-1.17-4.551,3.771-8.452,8.062-6.372,12.873S1459.183,558.686,1459.183,558.686Z" transform="translate(-1427.249 -523.564)" fill="#f7a594"/>
          <path id="Trazado_150991" data-name="Trazado 150991" d="M1445.553,558.449s-8.854-13.526-9.622-21.2c-.08-2.809,1.17-3.641,1.17-3.641l20.155,19.765s1.3,4.031-.26,5.722S1449.584,563.259,1445.553,558.449Z" transform="translate(-1425.582 -522.807)" fill="#f7a594"/>
          <path id="Trazado_150992" data-name="Trazado 150992" d="M1459.872,555.308s.2,3.2-1.631,2.543c-5.385-1.578-5.7-9.486-5.7-9.486Z" transform="translate(-1427.446 -524.463)" fill="#cc7767"/>
          <g id="Grupo_107292" data-name="Grupo 107292">
            <path id="Trazado_150993" data-name="Trazado 150993" d="M1464.693,556.271,1427.2,521.447a3.86,3.86,0,0,0-2.145.478l39.54,36.26A4.814,4.814,0,0,0,1464.693,556.271Z" transform="translate(-1424.362 -521.44)" fill="#7f17b7"/>
            <path id="Trazado_150994" data-name="Trazado 150994" d="M1424.969,521.986c-.571.392-.934,1.092-.511,2.383,1.046,3.189,34.142,33.682,37.493,34.822,1.635.557,2.3-.115,2.558-.945Z" transform="translate(-1424.274 -521.502)" fill="#29063c"/>
          </g>
          <path id="Trazado_150995" data-name="Trazado 150995" d="M1436,535.438s.382-3.131,6.025.711c6.854,4.667,11.457,12.99,9.913,15.123C1449.967,553.991,1434.507,541.679,1436,535.438Z" transform="translate(-1425.579 -522.877)" fill="#f7a594"/>
        </g>
        <path id="Trazado_150996" data-name="Trazado 150996" d="M1517.123,538.995c-35.56,7.8-25.974,92.726-23.482,111.129,6.725,2.677,28.44,7.97,36.985,9.419C1513.531,619.1,1504.557,542.854,1517.123,538.995Z" transform="translate(-1431.718 -517.205)" fill="#e01650"/>
        <path id="Trazado_150997" data-name="Trazado 150997" d="M1540.516,537.449c-3.952,19.267-25.141,18.772-25.416,7.96a4.714,4.714,0,0,1-.055-.878l-1.7-23.385-.219-2.853,1.866-.384,16.851-3.348.6-.11.493,1.483,2.141,6.092Z" transform="translate(-1434.247 -514.45)" fill="#f7a594"/>
        <path id="Trazado_150998" data-name="Trazado 150998" d="M1543.122,538.7c-6.7,15.746,2.156,97.968,8.291,122.507,16.587,5.6,41.605-2.591,48.291-11C1594.96,627.769,1587.373,549.375,1543.122,538.7Z" transform="translate(-1437.346 -517.172)" fill="#e01650"/>
        <g id="Grupo_107299" data-name="Grupo 107299" transform="translate(61.551 35.331)">
          <path id="Trazado_150999" data-name="Trazado 150999" d="M1541.454,569.052c-2.584,14.158,2.34,38.712,6.169,51.475,10.16,7.475,25.95,3.616,25.95-7.87a154.006,154.006,0,0,0-2.97-35.143C1568.144,547.933,1542.731,548.207,1541.454,569.052Z" transform="translate(-1498.898 -554.248)" fill="#e01650"/>
          <g id="Grupo_107294" data-name="Grupo 107294" transform="translate(15.173 33.263)">
            <path id="Trazado_151000" data-name="Trazado 151000" d="M1522.514,592.318c-10.467-3.775-15.855,11.256-8.236,16.471,18.119,12.226,46.258,28.668,51.264,18.19C1572.863,611.658,1546.363,599.875,1522.514,592.318Z" transform="translate(-1510.699 -591.717)" fill="#e01650"/>
          </g>
          <g id="Grupo_107298" data-name="Grupo 107298" transform="translate(0 13.448)">
            <path id="Trazado_151001" data-name="Trazado 151001" d="M1511.976,603.876l-7.747-4.1c-4.87-3.774,3.7-11.539,7.183-10.287l6.026,3.781C1520.489,596.166,1516.153,603.556,1511.976,603.876Z" transform="translate(-1494.636 -571.638)" fill="#f7a594"/>
            <g id="Grupo_107297" data-name="Grupo 107297">
              <g id="Grupo_107295" data-name="Grupo 107295" transform="translate(6.056 6.358)">
                <path id="Trazado_151002" data-name="Trazado 151002" d="M1504.706,598.513c-6.341-1.352-4.148-7.754-2.72-15.07C1496.882,561.5,1524.805,599.1,1504.706,598.513Z" transform="translate(-1500.429 -576.559)" fill="#f7a594"/>
              </g>
              <path id="Trazado_151003" data-name="Trazado 151003" d="M1507.294,579.825s-2.07-3.226-6.628-10.428c-2.053.388-3.151,3.995-.391,7.151C1502.7,579.321,1506.211,581.2,1507.294,579.825Z" transform="translate(-1494.171 -569.397)" fill="#f7a594"/>
              <g id="Grupo_107296" data-name="Grupo 107296" transform="translate(0 7.981)">
                <path id="Trazado_151004" data-name="Trazado 151004" d="M1500.5,578.913c-4.58-2.594-7.842,4.957-6.64,10.855,1.84,9.024,8.556,4.567,10.563,2.158C1508.092,587.519,1506.11,582.091,1500.5,578.913Z" transform="translate(-1493.608 -578.387)" fill="#f7a594"/>
              </g>
            </g>
          </g>
          <path id="Trazado_151005" data-name="Trazado 151005" d="M1541.976,595.119a.549.549,0,0,1-.541-.459c-.033-.2-3.28-20.206.733-33.725a.549.549,0,1,1,1.052.312c-3.94,13.275-.735,33.035-.7,33.233a.548.548,0,0,1-.451.631A.531.531,0,0,1,1541.976,595.119Z" transform="translate(-1498.834 -554.954)" fill="#951339"/>
          <path id="Trazado_151006" data-name="Trazado 151006" d="M1561.09,628.743c-9.041,0-19.761-5.682-20.387-6.019a.549.549,0,0,1,.52-.968c.207.111,20.838,11.048,28.382,2.775,6.619-7.26,1.688-38.7,1.638-39.013a.548.548,0,1,1,1.083-.173c.21,1.315,5.063,32.279-1.91,39.926C1568.089,627.825,1564.724,628.743,1561.09,628.743Z" transform="translate(-1498.862 -557.687)" fill="#003331"/>
          <path id="Trazado_151007" data-name="Trazado 151007" d="M1551.58,603.283a.549.549,0,0,1-.223-.047c-13.219-5.875-29.771-11.2-29.936-11.253a.549.549,0,1,1,.335-1.045c.166.053,16.773,5.395,30.047,11.295a.548.548,0,0,1-.223,1.05Z" transform="translate(-1496.687 -558.363)" fill="#fff"/>
        </g>
        <path id="Trazado_151008" data-name="Trazado 151008" d="M1515.077,544.913c-.492-5.167-3.331-24.623-.047-26.991l16.851-3.348C1535.744,535.81,1521.35,546.412,1515.077,544.913Z" transform="translate(-1434.286 -514.464)" fill="#d97661"/>
      </g>
      <g id="Grupo_107302" data-name="Grupo 107302" transform="translate(1461.148 469.581)">
        <path id="Trazado_151009" data-name="Trazado 151009" d="M1534.619,506.17c-.818,17.365-16.281,30.841-27.784,30.2s-25.64-15.315-24.822-32.681,13.257-30.887,27.783-30.2S1535.437,488.805,1534.619,506.17Z" transform="translate(-1467.625 -470.017)" fill="#f7a594"/>
        <path id="Trazado_151010" data-name="Trazado 151010" d="M1517.166,475.508c-14.544-11.934-24.385-3.61-33.468,5.387-6.374,6.314-10.9,10.857-17.888,11.063,11.145,18.272,38.891,10.544,49.262-5.111-.352,9.6,9.871,18.839,17.732,18.887C1536.616,495.478,1531.932,473.216,1517.166,475.508Z" transform="translate(-1465.81 -469.581)" fill="#12263f"/>
        <path id="Trazado_151011" data-name="Trazado 151011" d="M1543.389,511.1a6,6,0,1,1-5.217-6.685A6,6,0,0,1,1543.389,511.1Z" transform="translate(-1473.177 -473.486)" fill="#f7a594"/>
        <g id="Grupo_107301" data-name="Grupo 107301" transform="translate(18.706 31.537)">
          <path id="Trazado_151012" data-name="Trazado 151012" d="M1501.743,528.428a2.056,2.056,0,0,1-1.208-.341c-1.506-1.062-.028-9.97.461-12.675a.351.351,0,0,1,.413-.287.356.356,0,0,1,.286.413c-.963,5.332-1.523,11.424-.75,11.97,1.017.716,3.414-.557,4.251-1.108a.355.355,0,1,1,.391.593A8.564,8.564,0,0,1,1501.743,528.428Z" transform="translate(-1488.34 -506.23)" fill="#bd4a31"/>
          <path id="Trazado_151013" data-name="Trazado 151013" d="M1513.929,512.808c.306,1.388,1.112,2.389,1.8,2.238s1-1.4.691-2.788-1.112-2.39-1.8-2.238S1513.623,511.42,1513.929,512.808Z" transform="translate(-1489.904 -505.655)" fill="#0e0e0e"/>
          <path id="Trazado_151014" data-name="Trazado 151014" d="M1489.153,518.941c.286,1.3,1.038,2.23,1.68,2.088s.931-1.306.645-2.6-1.038-2.23-1.68-2.089S1488.867,517.646,1489.153,518.941Z" transform="translate(-1487.124 -506.365)" fill="#0e0e0e"/>
          <path id="Trazado_151015" data-name="Trazado 151015" d="M1513.337,532.96a7.9,7.9,0,0,1-.974-.052.355.355,0,0,1,.094-.7,8.846,8.846,0,0,0,6.2-1.72c1.643-1.39,2.527-3.552,2.628-6.426a.37.37,0,0,1,.367-.343.356.356,0,0,1,.343.368c-.108,3.086-1.079,5.423-2.884,6.948A9.038,9.038,0,0,1,1513.337,532.96Z" transform="translate(-1489.707 -507.194)" fill="#803221"/>
          <path id="Trazado_151016" data-name="Trazado 151016" d="M1511,508.669h-.017a.355.355,0,0,1-.338-.371,3.313,3.313,0,0,1,2.5-3.019,3.437,3.437,0,0,1,3.85,1.151.356.356,0,1,1-.576.416,2.739,2.739,0,0,0-3.071-.888,2.641,2.641,0,0,0-2,2.373A.354.354,0,0,1,1511,508.669Z" transform="translate(-1489.549 -505.105)" fill="#803221"/>
          <path id="Trazado_151017" data-name="Trazado 151017" d="M1487.236,514.364h-.031a.355.355,0,0,1-.322-.385c.188-2.13,1.45-3.039,2.569-3.178a3,3,0,0,1,3.15,2.119.356.356,0,0,1-.218.453.36.36,0,0,1-.453-.218,2.29,2.29,0,0,0-2.391-1.649c-.843.1-1.8.826-1.949,2.535A.356.356,0,0,1,1487.236,514.364Z" transform="translate(-1486.881 -505.742)" fill="#803221"/>
        </g>
      </g>
    </g>
    <g id="Grupo_107225" data-name="Grupo 107225" transform="translate(339.951 2494.369)">
      <g id="Grupo_107223" data-name="Grupo 107223" transform="translate(0 30.869)">
        <path id="Trazado_150849" data-name="Trazado 150849" d="M1403.853,2178.112a24.99,24.99,0,0,0-2.944,9.255l2.729.31a22.543,22.543,0,0,0,.746,8.786l-2.63.765a25.072,25.072,0,0,0,4.459,8.626l.481-.377,1.668-1.33a22.3,22.3,0,0,0,6.744,5.676l-1.323,2.41a24.809,24.809,0,0,0,9.26,2.935l.31-2.729a22.339,22.339,0,0,0,8.781-.738l.765,2.63a25.136,25.136,0,0,0,8.632-4.467l-.01-.005-.488-.625-1.209-1.52a22.249,22.249,0,0,0,5.671-6.735l2.41,1.324a24.866,24.866,0,0,0,2.94-9.269l-2.729-.31a22.294,22.294,0,0,0-.743-8.772l2.63-.766a25.118,25.118,0,0,0-4.467-8.632l-2.149,1.707a22.245,22.245,0,0,0-6.735-5.671l1.323-2.41a24.843,24.843,0,0,0-9.268-2.94l-.31,2.728a22.308,22.308,0,0,0-8.772.743l-.765-2.63a24.963,24.963,0,0,0-8.631,4.468l.013.019,1.125,1.414.569.716a22.289,22.289,0,0,0-5.671,6.735Zm11.382,6.251a12.148,12.148,0,1,1,4.793,16.5A12.143,12.143,0,0,1,1415.235,2184.363Z" transform="translate(-1400.909 -2165.243)" fill="#8f52f5"/>
      </g>
      <g id="Grupo_107224" data-name="Grupo 107224" transform="translate(39.418)">
        <path id="Trazado_150850" data-name="Trazado 150850" d="M1488.185,2104.111a13.892,13.892,0,0,0-3.2,4.346l1.381.65a12.517,12.517,0,0,0-1.175,4.758l-1.521-.066a13.941,13.941,0,0,0,.807,5.336l.32-.113,1.115-.4a12.412,12.412,0,0,0,2.537,4.191l-1.127,1.032a13.791,13.791,0,0,0,4.35,3.2l.65-1.381a12.423,12.423,0,0,0,4.754,1.179l-.067,1.521a13.969,13.969,0,0,0,5.341-.811l0,0-.146-.416-.365-1.016a12.373,12.373,0,0,0,4.187-2.533l1.032,1.126a13.807,13.807,0,0,0,3.2-4.354l-1.381-.65a12.393,12.393,0,0,0,1.174-4.75l1.521.067a13.957,13.957,0,0,0-.811-5.341l-1.436.515a12.37,12.37,0,0,0-2.533-4.187l1.127-1.032a13.814,13.814,0,0,0-4.354-3.2l-.65,1.381a12.4,12.4,0,0,0-4.75-1.174l.066-1.521a13.873,13.873,0,0,0-5.34.811l0,.012.34.945.172.479a12.388,12.388,0,0,0-4.187,2.533Zm4.876,5.322a6.752,6.752,0,1,1-.421,9.54A6.748,6.748,0,0,1,1493.061,2109.433Z" transform="translate(-1483.655 -2100.444)" fill="#e01650" stroke="#135bcc" stroke-miterlimit="10" stroke-width="0.805"/>
      </g>
    </g>
    <path id="Trazado_150896" data-name="Trazado 150896" d="M1741.746,2331.814H1443.271a1.746,1.746,0,0,1-1.746-1.746h0a1.746,1.746,0,0,1,1.746-1.746h298.474a1.746,1.746,0,0,1,1.746,1.746h0A1.746,1.746,0,0,1,1741.746,2331.814Z" transform="translate(-1082.225 274.604)"/>
    <rect id="Rectángulo_36122" data-name="Rectángulo 36122" width="236.872" height="151.172" rx="11.551" transform="translate(392.594 2443.279)" fill="#b734fd"/>
    <path id="Trazado_151018" data-name="Trazado 151018" d="M9.407,0H139.723a9.407,9.407,0,0,1,9.407,9.407V225.422a9.407,9.407,0,0,1-9.407,9.407H9.407A9.407,9.407,0,0,1,0,225.422V9.407A9.407,9.407,0,0,1,9.407,0Z" transform="translate(628.444 2444.301) rotate(90)" fill="#29063c"/>
    <g id="Grupo_107237" data-name="Grupo 107237" transform="translate(400.595 2449.391)">
      <path id="Trazado_151019" data-name="Trazado 151019" d="M0,0H221.11V138.247H0Z" fill="#d2b7ff"/>
    </g>
    <path id="Trazado_150897" data-name="Trazado 150897" d="M1743.322,2310.535v3.682a4.266,4.266,0,0,1-.033.555,4.788,4.788,0,0,1-4.757,4.237h-262.75a4.787,4.787,0,0,1-4.756-4.237,4.245,4.245,0,0,1-.034-.555v-3.682Z" transform="translate(-1097.654 283.916)" fill="#8f52f5"/>
    <path id="Trazado_150898" data-name="Trazado 150898" d="M1743.326,2319.429a4.788,4.788,0,0,1-4.757,4.237h-262.75a4.787,4.787,0,0,1-4.756-4.237Z" transform="translate(-1097.691 279.26)" fill="#7f17b7"/>
    <g id="Grupo_107243" data-name="Grupo 107243" transform="translate(500.03 2388.271)">
      <g id="Grupo_107241" data-name="Grupo 107241">
        <g id="Grupo_107240" data-name="Grupo 107240">
          <g id="Grupo_107239" data-name="Grupo 107239">
            <g id="Grupo_107238" data-name="Grupo 107238" transform="translate(1.662 2.434)">
              <path id="Trazado_150899" data-name="Trazado 150899" d="M1800.159,1882.942c-.033-.036-.069-.071-.1-.106-13.8,14.787-35.831,26.905-59.4,32.068-.007,1.574-.046,10.3-.226,50.5-.24,53.627,50.8,79.833,58.72,83.854C1775.872,1955.027,1794.107,1898.035,1800.159,1882.942Z" transform="translate(-1740.428 -1882.836)" fill="#ffb206"/>
              <path id="Trazado_150900" data-name="Trazado 150900" d="M1852.053,1883.059c-6.052,15.093-24.286,72.085-1.009,166.313,7.677-3.534,59.357-29.7,59.6-83.325.18-40.2.219-48.922.226-50.5C1887.4,1910.189,1865.73,1897.92,1852.053,1883.059Z" transform="translate(-1792.323 -1882.953)" fill="#ffb206"/>
            </g>
            <path id="Trazado_150901" data-name="Trazado 150901" d="M1797.288,2048.425l-.717-.364a129.364,129.364,0,0,1-32.845-23.633c-17.876-17.925-26.887-38.687-26.785-61.71l.083-18.646c.11-24.438.136-30.557.142-31.851l.006-1.332,1.3-.285c22.875-5.01,44.76-16.815,58.543-31.579l1.214-1.3,1.326,1.415c13.686,14.871,35.354,26.832,57.961,32l1.3.3-.007,1.332c-.008,1.574-.047,10.3-.226,50.5-.248,55.469-54.392,81.986-60.564,84.827Zm-56.8-134.865c-.013,2.905-.048,10.667-.136,30.528l-.083,18.645c-.21,47.1,39.268,72.805,57.09,82,8.6-4.105,57.672-29.806,57.9-81.482.152-34.01.2-45.491.22-49.173-22.168-5.32-43.361-16.986-57.257-31.5C1784.219,1896.936,1762.86,1908.405,1740.484,1913.56Z" transform="translate(-1736.94 -1877.727)" fill="#fff"/>
          </g>
          <path id="Trazado_150902" data-name="Trazado 150902" d="M1807.379,2051.955l-.917-.478a112.652,112.652,0,0,1-26.732-19.549c-15.844-15.768-23.834-33.986-23.743-54.152l.2-44.4,1.491-.386c19.072-4.92,36.47-13.953,48.987-25.437l1.41-1.295,1.352,1.353-1.3,1.512,1.36-1.461c12.41,11.552,29.687,20.708,48.649,25.778l1.488.4-.2,44.4c-.087,20.163-8.239,38.31-24.226,53.939a113.372,113.372,0,0,1-26.149,18.916Zm-47.214-115.488-.185,41.328c-.084,19.056,7.508,36.317,22.568,51.3a108.775,108.775,0,0,0,24.845,18.355,109.352,109.352,0,0,0,25.012-18.131c15.2-14.852,22.941-32.046,23.025-51.1l.183-41.325c-18.379-5.141-35.17-14.018-47.611-25.174C1795.466,1922.76,1778.6,1931.488,1760.165,1936.467Zm47.945-27.336.008-.01Z" transform="translate(-1746.913 -1892.669)" fill="#8f52f5"/>
        </g>
      </g>
      <g id="Grupo_107242" data-name="Grupo 107242" transform="translate(37.303 53.104)">
        <path id="Trazado_150903" data-name="Trazado 150903" d="M1815.245,2040.878v35.2c0,3.919,47.856,3.919,47.856,0v-35.2Zm26.349,18.692v9.977a2.421,2.421,0,1,1-4.842,0v-10a5.887,5.887,0,1,1,4.842.022Z" transform="translate(-1815.245 -2016.261)" fill="#ffde95"/>
        <path id="Trazado_150904" data-name="Trazado 150904" d="M1863.52,2011.31h-4.844v-2.37a14.893,14.893,0,1,0-29.786,0v2.37h-4.844v-2.37a19.738,19.738,0,1,1,39.475,0Z" transform="translate(-1819.853 -1989.202)" fill="#ffde95"/>
      </g>
    </g>
    <g id="Grupo_107252" data-name="Grupo 107252" transform="translate(421.948 2476.91)">
      <g id="Grupo_107248" data-name="Grupo 107248" transform="translate(0 27.831)">
        <g id="Grupo_107245" data-name="Grupo 107245" transform="translate(0 17.252)">
          <rect id="Rectángulo_36125" data-name="Rectángulo 36125" width="65.794" height="13.004" fill="#fff"/>
          <g id="Grupo_107244" data-name="Grupo 107244" transform="translate(10.312 4.109)">
            <circle id="Elipse_4597" data-name="Elipse 4597" cx="2.84" cy="2.84" r="2.84" fill="#b734fd"/>
            <circle id="Elipse_4598" data-name="Elipse 4598" cx="2.84" cy="2.84" r="2.84" transform="translate(9.737)" fill="#b734fd"/>
            <circle id="Elipse_4599" data-name="Elipse 4599" cx="2.84" cy="2.84" r="2.84" transform="translate(19.474)" fill="#b734fd"/>
            <circle id="Elipse_4600" data-name="Elipse 4600" cx="2.84" cy="2.84" r="2.84" transform="translate(29.212)" fill="#b734fd"/>
            <circle id="Elipse_4601" data-name="Elipse 4601" cx="2.84" cy="2.84" r="2.84" transform="translate(38.949)" fill="#b734fd"/>
          </g>
        </g>
        <g id="Grupo_107247" data-name="Grupo 107247">
          <rect id="Rectángulo_36126" data-name="Rectángulo 36126" width="65.794" height="13.004" fill="#fff"/>
          <g id="Grupo_107246" data-name="Grupo 107246" transform="translate(10.312 4.109)">
            <circle id="Elipse_4602" data-name="Elipse 4602" cx="2.84" cy="2.84" r="2.84" fill="#b734fd"/>
            <circle id="Elipse_4603" data-name="Elipse 4603" cx="2.84" cy="2.84" r="2.84" transform="translate(9.737)" fill="#b734fd"/>
            <circle id="Elipse_4604" data-name="Elipse 4604" cx="2.84" cy="2.84" r="2.84" transform="translate(19.474)" fill="#b734fd"/>
            <circle id="Elipse_4605" data-name="Elipse 4605" cx="2.84" cy="2.84" r="2.84" transform="translate(29.212)" fill="#b734fd"/>
            <circle id="Elipse_4606" data-name="Elipse 4606" cx="2.84" cy="2.84" r="2.84" transform="translate(38.949)" fill="#b734fd"/>
          </g>
        </g>
        <path id="Trazado_150905" data-name="Trazado 150905" d="M1635.685,2214.167h-17.61a4.52,4.52,0,0,1-4.52-4.52h0a4.52,4.52,0,0,1,4.52-4.52h17.61a4.52,4.52,0,0,1,4.521,4.52h0A4.52,4.52,0,0,1,1635.685,2214.167Z" transform="translate(-1594.251 -2165.63)" fill="#e01650"/>
      </g>
      <g id="Grupo_107251" data-name="Grupo 107251" transform="translate(20.928 0)">
        <circle id="Elipse_4607" data-name="Elipse 4607" cx="10.583" cy="10.583" r="10.583" transform="translate(0 20.893) rotate(-80.783)" fill="#fff"/>
        <g id="Grupo_107250" data-name="Grupo 107250" transform="translate(6.258 5.039)">
          <g id="Grupo_107249" data-name="Grupo 107249" transform="translate(2.561)">
            <path id="Trazado_150906" data-name="Trazado 150906" d="M1638.814,2081.048a3.343,3.343,0,0,0,2.6-1.272,3.258,3.258,0,0,0,.716-2.067,3.325,3.325,0,1,0-6.65,0,3.255,3.255,0,0,0,.715,2.067A3.356,3.356,0,0,0,1638.814,2081.048Z" transform="translate(-1635.476 -2074.371)" fill="#b734fd"/>
          </g>
          <path id="Trazado_150907" data-name="Trazado 150907" d="M1641.866,2095.35c0,2.106-11.765,2.106-11.765,0l0-2.455c.465-3.356,10.8-3.5,11.763,0Z" transform="translate(-1630.101 -2082.725)" fill="#b734fd"/>
        </g>
      </g>
    </g>
  </g>
</svg>
