<svg xmlns="http://www.w3.org/2000/svg" xmlns:xlink="http://www.w3.org/1999/xlink" width="169" height="169" viewBox="0 0 169 169">
  <defs>
    <filter id="Elipse_4554" x="0" y="0" width="169" height="169" filterUnits="userSpaceOnUse">
      <feOffset dx="3" dy="3" input="SourceAlpha"/>
      <feGaussianBlur stdDeviation="3" result="blur"/>
      <feFlood flood-opacity="0.231"/>
      <feComposite operator="in" in2="blur"/>
      <feComposite in="SourceGraphic"/>
    </filter>
  </defs>
  <g id="Grupo_107128" data-name="Grupo 107128" transform="translate(-981 -1169)">
    <g transform="matrix(1, 0, 0, 1, 981, 1169)" filter="url(#Elipse_4554)">
      <g id="Elipse_4554-2" data-name="Elipse 4554" transform="translate(6 6)" fill="#fff" stroke="#e01650" stroke-width="6">
        <circle cx="75.5" cy="75.5" r="75.5" stroke="none"/>
        <circle cx="75.5" cy="75.5" r="72.5" fill="none"/>
      </g>
    </g>
    <g id="XMLID_2341_" transform="translate(1019.383 1188.32)">
      <g id="XMLID_1325_" transform="translate(1.263 19.769)">
        <g id="XMLID_2619_">
          <path id="XMLID_2783_" d="M20.678,0A20.678,20.678,0,1,1,.7,26.03,20.162,20.162,0,0,1,0,20.678,20.678,20.678,0,0,1,20.678,0Z" transform="translate(2.707)" fill="#ffde95"/>
          <g id="XMLID_1353_" transform="translate(0 23.217)">
            <g id="XMLID_1385_">
              <g id="XMLID_1419_">
                <circle id="XMLID_1420_" cx="2.707" cy="2.707" r="2.707" fill="#8f52f5"/>
              </g>
            </g>
          </g>
          <g id="XMLID_1387_" transform="translate(13.041 10.176)">
            <g id="XMLID_1391_">
              <g id="XMLID_2785_">
                <circle id="XMLID_2786_" cx="2.707" cy="2.707" r="2.707" fill="#8f52f5"/>
              </g>
            </g>
          </g>
          <g id="XMLID_1393_" transform="translate(26.872 24.007)">
            <g id="XMLID_1397_">
              <g id="XMLID_2798_">
                <circle id="XMLID_2799_" cx="2.707" cy="2.707" r="2.707" fill="#8f52f5"/>
              </g>
            </g>
          </g>
          <g id="XMLID_1399_" transform="translate(44.833 6.046)">
            <g id="XMLID_1403_">
              <g id="XMLID_2801_">
                <circle id="XMLID_2802_" cx="2.707" cy="2.707" r="2.707" fill="#8f52f5"/>
              </g>
            </g>
          </g>
          <g id="XMLID_1405_" transform="translate(56.758 17.971)">
            <g id="XMLID_1409_">
              <g id="XMLID_2803_">
                <circle id="XMLID_2804_" cx="2.707" cy="2.707" r="2.707" fill="#8f52f5"/>
              </g>
            </g>
          </g>
        </g>
        <g id="XMLID_1352_" transform="translate(12.122 20.678)">
          <path id="XMLID_2771_" d="M0,0H7.4V20.827H0Z" transform="translate(0 35.968)" fill="#e01650"/>
          <path id="XMLID_2770_" d="M0,0H7.4V20.827H0Z" transform="translate(12.473 35.968)" fill="#e01650"/>
          <path id="XMLID_2769_" d="M0,0H7.4V26.989H0Z" transform="translate(24.945 29.807)" fill="#ffb206"/>
          <path id="XMLID_2768_" d="M0,0H7.4V36.173H0Z" transform="translate(37.418 20.623)" fill="#8f52f5"/>
          <path id="XMLID_2767_" d="M0,0H7.4V45.672H0Z" transform="translate(49.891 11.124)" fill="#8f52f5"/>
          <path id="XMLID_2766_" d="M0,0H7.4V56.8H0Z" transform="translate(62.363)" fill="#8f52f5"/>
        </g>
      </g>
      <g id="XMLID_1496_" transform="translate(0 18.506)">
        <path id="XMLID_1515_" d="M4.7,49.594a21.854,21.854,0,0,0,4.6,6.536,1.263,1.263,0,0,0,1.767-1.806,19.347,19.347,0,0,1-4.159-5.968,3.96,3.96,0,0,0,.61-4.433L15.24,36.2a3.958,3.958,0,0,0,3.443.048l8.489,8.489c.024.024.048.045.073.066a3.97,3.97,0,1,0,7.291.226l9.016-9.016A19.42,19.42,0,0,1,14.965,57.279,1.263,1.263,0,0,0,13.7,59.467,21.946,21.946,0,0,0,45.61,33.958l1.743-1.743A3.961,3.961,0,0,0,50.7,32.01l6.544,6.544a3.976,3.976,0,1,0,1.851-1.722l-6.673-6.673a3.97,3.97,0,1,0-7.006.424l-.789.789A21.94,21.94,0,0,0,2.707,40.447c0,.488.018.978.05,1.466A3.969,3.969,0,0,0,4.7,49.594ZM60.728,39a1.443,1.443,0,1,1-1.443,1.443A1.445,1.445,0,0,1,60.728,39ZM48.8,27.078a1.443,1.443,0,1,1-1.443,1.443A1.445,1.445,0,0,1,48.8,27.078ZM15.567,32.652A1.443,1.443,0,1,1,17.011,34.1,1.445,1.445,0,0,1,15.567,32.652ZM30.842,47.926a1.443,1.443,0,1,1,1.443-1.443A1.445,1.445,0,0,1,30.842,47.926ZM24.648,21.032A19.446,19.446,0,0,1,42.7,33.3L32.9,43.091a3.961,3.961,0,0,0-3.923-.114l-.022-.025-8.441-8.441a3.97,3.97,0,1,0-7.061-.1L5.733,42.137a3.948,3.948,0,0,0-.442-.188c-.038-.5-.057-1-.057-1.5A19.437,19.437,0,0,1,24.648,21.032ZM2.526,45.693A1.443,1.443,0,1,1,3.97,47.136,1.445,1.445,0,0,1,2.526,45.693Z" transform="translate(0 -18.506)"/>
        <path id="XMLID_1506_" d="M90.8,200.6a1.263,1.263,0,1,0,0-2.526h-.555V170.422a1.263,1.263,0,0,0-2.526,0v27.653H82.84V143.805h4.877v21.46a1.263,1.263,0,0,0,2.526,0V142.542a1.263,1.263,0,0,0-1.263-1.263h-7.4a1.263,1.263,0,0,0-1.263,1.263v55.532H77.771V153.667a1.263,1.263,0,0,0-1.263-1.263H69.1a1.263,1.263,0,0,0-1.263,1.263v44.408H65.3v-34.91a1.263,1.263,0,0,0-1.263-1.263h-7.4a1.263,1.263,0,0,0-1.263,1.263v34.91H52.826V172.349a1.263,1.263,0,0,0-1.263-1.263h-7.4a1.263,1.263,0,0,0-1.263,1.263v25.726H40.353V178.51a1.263,1.263,0,0,0-1.263-1.263h-7.4a1.263,1.263,0,0,0-1.263,1.263v7.3a1.263,1.263,0,0,0,2.526,0v-6.039h4.877v18.3H32.95v-7.105a1.263,1.263,0,0,0-2.526,0v7.105H27.881V178.51a1.263,1.263,0,0,0-1.263-1.263h-7.4a1.263,1.263,0,0,0-1.263,1.263v19.564H8.272a1.263,1.263,0,0,0,0,2.526H90.8ZM70.368,154.93h4.877v43.145H70.368Zm-12.473,9.5h4.877v33.646H57.9Zm-12.473,9.184H50.3v24.462H45.422Zm-24.945,6.162h4.877v18.3H20.477Z" transform="translate(-5.829 -120.601)"/>
        <path id="XMLID_1505_" d="M487.468,33.577a1.263,1.263,0,0,0,1.263-1.263v-.278a1.263,1.263,0,0,0-2.526,0v.278A1.263,1.263,0,0,0,487.468,33.577Z" transform="translate(-404.316 -28.707)"/>
        <path id="XMLID_1501_" d="M461.932,33.577a1.263,1.263,0,0,0,1.263-1.263v-.278a1.263,1.263,0,0,0-2.526,0v.278A1.263,1.263,0,0,0,461.932,33.577Z" transform="translate(-383.081 -28.707)"/>
        <path id="XMLID_1500_" d="M461.932,64.865h4.27a1.263,1.263,0,0,0,0-2.526h-4.27a1.263,1.263,0,0,0,0,2.526Z" transform="translate(-383.081 -54.956)"/>
        <path id="XMLID_1497_" d="M419.679,89.068h11.386a1.263,1.263,0,0,0,0-2.526H419.679a1.263,1.263,0,0,0,0,2.526Z" transform="translate(-347.944 -75.083)"/>
      </g>
    </g>
  </g>
</svg>
