<svg xmlns="http://www.w3.org/2000/svg" width="150" height="90" viewBox="0 0 150 90">
  <g id="Grupo_108570" data-name="Grupo 108570" transform="translate(-850 -3481.999)">
    <path id="Trazado_150354" data-name="Trazado 150354" d="M25.929,0h117A7.071,7.071,0,0,1,150,7.071h0A25.929,25.929,0,0,1,124.071,33h-117A7.071,7.071,0,0,1,0,25.929,25.929,25.929,0,0,1,25.929,0Z" transform="translate(850 3511)" fill="#ffb206" opacity="0.999"/>
    <g id="herramientas" transform="translate(880.5 3482)">
      <path id="Trazado_150355" data-name="Trazado 150355" d="M319.339,306.615a8.79,8.79,0,1,1-12.43,12.431L283.4,293.513l10.362-10.36Zm0,0" transform="translate(-233.173 -233.38)" fill="#8f52f5"/>
      <path id="Trazado_150356" data-name="Trazado 150356" d="M266.287,256.133l5.175,4.75L261.1,271.242l-4.756-5.166Zm0,0" transform="translate(-210.871 -211.11)" fill="#7f17b7"/>
      <path id="Trazado_150357" data-name="Trazado 150357" d="M96.158,20.768l-7.8,7.864H83.382L78.525,23.6V18.627l7.688-7.8A15.83,15.83,0,0,0,66.166,30.873L51.231,45.811l-.012-.012L27.9,22.429V17.458L15.473,10,10.5,14.971,17.958,27.4l4.971,0L46.248,50.772l.01.01L31.373,65.667A15.831,15.831,0,0,0,11.324,85.714l7.8-7.864H24.1l5.032,5.032v4.973l-7.864,7.8A15.83,15.83,0,0,0,41.315,75.608L76.108,40.815A15.831,15.831,0,0,0,96.158,20.768Zm0,0" transform="translate(-8.242 -8.243)" fill="#e9eef0"/>
      <path id="Trazado_150358" data-name="Trazado 150358" d="M339.1,155.148a1.757,1.757,0,1,0,1.758,1.757A1.757,1.757,0,0,0,339.1,155.148Zm0,0" transform="translate(-277.63 -127.877)"/>
      <path id="Trazado_150359" data-name="Trazado 150359" d="M157.4,336.84a1.758,1.758,0,1,0,1.758,1.758A1.757,1.757,0,0,0,157.4,336.84Zm0,0" transform="translate(-127.873 -277.63)"/>
      <path id="Trazado_150360" data-name="Trazado 150360" d="M88.313,10.813a1.756,1.756,0,0,0-1.645.474l-7.287,7.345H75.887l-3.846-3.985V11.105l7.183-7.29a1.758,1.758,0,0,0-.691-2.9,17.592,17.592,0,0,0-22.6,21.216L42.989,35.08,21.417,13.459V9.215a1.757,1.757,0,0,0-.854-1.507L8.135.25A1.756,1.756,0,0,0,5.988.514L1.016,5.485A1.759,1.759,0,0,0,.752,7.633L8.209,20.062a1.758,1.758,0,0,0,1.507.854h4.242L35.531,42.538l-12.9,12.9a17.589,17.589,0,0,0-21.216,22.6,1.758,1.758,0,0,0,2.913.677l7.287-7.344H15.13l4,4v3.513l-7.344,7.287a1.758,1.758,0,0,0,.677,2.913,17.582,17.582,0,0,0,19.88-6.4,17.382,17.382,0,0,0,2.716-14.812L45.42,57.505l2.373,2.578L46.7,61.171a1.758,1.758,0,0,0,2.486,2.486l.986-.986L72.442,86.857l.051.052A10.548,10.548,0,0,0,87.41,71.992l-.055-.052L63.132,49.717l.975-.975a1.758,1.758,0,1,0-2.486-2.486l-1.081,1.082-2.582-2.37,10.41-10.41A17.588,17.588,0,0,0,89.581,11.964,1.756,1.756,0,0,0,88.313,10.813Zm-72.382,7.1a1.74,1.74,0,0,0-1.244-.5H10.712L4.473,7,7.5,3.971l10.4,6.24v3.976a1.757,1.757,0,0,0,.514,1.241L40.5,37.566l-2.486,2.486ZM60.643,52.206,84.949,74.5A7.032,7.032,0,0,1,75,84.447L52.665,60.183Zm-2.593-2.379-7.769,7.768-2.373-2.578,7.56-7.561ZM72.92,31.639a14.048,14.048,0,0,1-4.493-.733,1.761,1.761,0,0,0-1.8.423L31.83,66.123a1.757,1.757,0,0,0-.423,1.8,14.076,14.076,0,0,1-13.33,18.555,14.4,14.4,0,0,1-1.533-.082l5.583-5.54a1.757,1.757,0,0,0,.52-1.248V74.639a1.758,1.758,0,0,0-.515-1.243L17.1,68.364a1.758,1.758,0,0,0-1.243-.515H10.885a1.76,1.76,0,0,0-1.248.52L4.1,73.952a14.22,14.22,0,0,1-.082-1.533A14.077,14.077,0,0,1,22.57,59.089a1.757,1.757,0,0,0,1.8-.423L59.167,23.873a1.758,1.758,0,0,0,.423-1.8A14.075,14.075,0,0,1,72.919,3.515,14.365,14.365,0,0,1,74.5,3.6L69.031,9.151a1.757,1.757,0,0,0-.505,1.233v4.973a1.756,1.756,0,0,0,.493,1.221l4.857,5.032a1.756,1.756,0,0,0,1.265.537h4.973a1.757,1.757,0,0,0,1.248-.52L86.9,16.045a14.22,14.22,0,0,1,.082,1.533A14.078,14.078,0,0,1,72.92,31.639Zm0,0" transform="translate(0 0)"/>
      <path id="Trazado_150361" data-name="Trazado 150361" d="M206.436,183.941l-22,22a1.758,1.758,0,1,0,2.486,2.486l22-22a1.758,1.758,0,0,0-2.486-2.486Zm0,0" transform="translate(-151.182 -151.184)"/>
      <path id="Trazado_150362" data-name="Trazado 150362" d="M361.64,363.868a1.758,1.758,0,1,0,2.482-2.49l-15.844-15.794a1.758,1.758,0,0,0-2.482,2.49Zm0,0" transform="translate(-284.173 -284.415)"/>
    </g>
  </g>
</svg>
