<svg xmlns="http://www.w3.org/2000/svg" xmlns:xlink="http://www.w3.org/1999/xlink" width="297.955" height="272.192" viewBox="0 0 297.955 272.192">
  <defs>
    <clipPath id="clip-path">
      <path id="Trazado_149994" data-name="Trazado 149994" d="M-118.79,276.68c0-6.329-.29-13.6-.555-19.145a75.409,75.409,0,0,0-1.433-13.042c-.568-2.521-1.05-5.6-2.214-7.925a7.525,7.525,0,0,0-5.706-4.4,20.548,20.548,0,0,0-5.417-.137c-3.671.257-6.226,1.988-7.368,5.575a79.209,79.209,0,0,0-2.857,15.86c-.594,5.657-1.027,22.586-1.027,22.586S-128.185,276.727-118.79,276.68Z" transform="translate(145.368 -231.918)" fill="#8f52f5"/>
    </clipPath>
    <clipPath id="clip-path-2">
      <path id="Trazado_149998" data-name="Trazado 149998" d="M-137.724,217.021A9.051,9.051,0,0,0-134.382,223a5.586,5.586,0,0,0,6.447.065,11.754,11.754,0,0,0,3.037-4.419,26.065,26.065,0,0,0,1.889-5.282,11.731,11.731,0,0,0,.384-2.827,6.827,6.827,0,0,0-2.779-5.961,8.979,8.979,0,0,0-5.218-1.491,8.7,8.7,0,0,0-5.322,1.7,6.99,6.99,0,0,0-1.988,5.368A41.268,41.268,0,0,0-137.724,217.021Z" transform="translate(137.971 -203.086)" fill="#192d4e"/>
    </clipPath>
  </defs>
  <g id="Grupo_87716" data-name="Grupo 87716" transform="translate(468.56 -39.653)">
    <g id="BACKGROUND" transform="translate(-467.072 41.158)">
      <g id="Grupo_87690" data-name="Grupo 87690">
        <path id="Trazado_149942" data-name="Trazado 149942" d="M-320.122,297.758q-3.152.75-6.282,1.539c-20.066,5.066-38.319,19.553-60.056,14.719-9.635-2.143-18.02-7.92-25.9-13.869-31.66-23.906-69.753-65.284-36.024-104.07,8.683-9.985,25.095-20.914,21.973-35.981-3.278-15.817-19.042-24.843-25.628-38.938-8.194-17.533-.726-40.005,18.5-45.2a65.584,65.584,0,0,1,31.968-.517c10.79,2.541,20.874,7.843,31.909,9.392,16.05,2.253,29.654-10.377,41.741-19.006,8.174-5.835,17.006-11.267,26.9-12.97,27.518-4.734,33.152,23.39,44.848,41.463,13.639,21.075,35.585,23.315,55,36.124a62.717,62.717,0,0,1,20.035,21.508c8.412,14.956,7.123,30.292-7.158,40.455-7.181,5.111-15.051,10.51-16.133,20.029-.877,7.7,2.764,15.163,6.766,21.8,5.016,8.32,12.809,18.322,9.745,28.607-2.647,8.884-11.28,12.078-19.389,14.323-22.443,6.215-45.525,7.9-68.391,11.755C-290.5,291.424-305.475,294.275-320.122,297.758Z" transform="translate(465.516 -44.303)" fill="#ff93b2" opacity="0.2"/>
        <path id="Trazado_149943" data-name="Trazado 149943" d="M-236.52,41.262A44.3,44.3,0,0,1-199.51,57.4c7.151,8.89,10.526,20.183,16.377,29.978a67.9,67.9,0,0,0,32.976,28.056" transform="translate(402.19 -41.158)" fill="none" stroke="#bc1445" stroke-miterlimit="10" stroke-width="3" opacity="0.2"/>
        <path id="Trazado_149944" data-name="Trazado 149944" d="M-460.779,138.843c0,8.578,4.534,16.435,9.194,23.638,6.432,9.942,16.7,19.034,11.142,32.073-2.871,6.73-9,11.387-14.565,16.134s-11.124,10.465-12.063,17.722" transform="translate(467.072 -68.649)" fill="none" stroke="#fff" stroke-miterlimit="10" stroke-width="3" opacity="0.2"/>
        <path id="Trazado_149945" data-name="Trazado 149945" d="M-66,230.988A28.726,28.726,0,0,1-76.522,247.7c-4.226,3.244-9.563,5.517-12.089,10.207-1.751,3.252-1.817,7.166-1.219,10.81.917,5.586,3.259,10.823,5.579,15.986l6.74,15" transform="translate(361.003 -94.581)" fill="none" stroke="#fff" stroke-miterlimit="10" stroke-width="3" opacity="0.2"/>
      </g>
    </g>
    <g id="OBJECTS" transform="translate(-460.219 52.614)">
      <g id="Grupo_87692" data-name="Grupo 87692" transform="translate(1.679 44.213)">
        <rect id="Rectángulo_33656" data-name="Rectángulo 33656" width="74.358" height="79.166" transform="translate(0 19.481) rotate(-15.188)" fill="#fff"/>
        <g id="Grupo_87691" data-name="Grupo 87691" transform="translate(10.243 12.554)">
          <rect id="Rectángulo_33657" data-name="Rectángulo 33657" width="47.662" height="2.395" transform="translate(0 12.487) rotate(-15.188)" fill="#d2b7ff"/>
          <rect id="Rectángulo_33658" data-name="Rectángulo 33658" width="54.013" height="2.395" transform="translate(2.024 19.942) rotate(-15.188)" fill="#d2b7ff"/>
          <rect id="Rectángulo_33659" data-name="Rectángulo 33659" width="57.444" height="2.395" transform="matrix(0.965, -0.262, 0.262, 0.965, 4.048, 27.397)" fill="#d2b7ff"/>
          <rect id="Rectángulo_33660" data-name="Rectángulo 33660" width="47.662" height="2.395" transform="translate(6.072 34.853) rotate(-15.188)" fill="#d2b7ff"/>
          <rect id="Rectángulo_33661" data-name="Rectángulo 33661" width="57.444" height="2.395" transform="translate(8.095 42.308) rotate(-15.188)" fill="#d2b7ff"/>
          <rect id="Rectángulo_33662" data-name="Rectángulo 33662" width="54.013" height="2.395" transform="translate(10.119 49.763) rotate(-15.188)" fill="#d2b7ff"/>
          <rect id="Rectángulo_33663" data-name="Rectángulo 33663" width="57.444" height="2.395" transform="translate(12.143 57.219) rotate(-15.188)" fill="#d2b7ff"/>
          <rect id="Rectángulo_33664" data-name="Rectángulo 33664" width="57.444" height="2.395" transform="translate(14.685 64.967) rotate(-15.188)" fill="#d2b7ff"/>
        </g>
      </g>
      <path id="Trazado_149946" data-name="Trazado 149946" d="M-217.489,220.161c4.564-2.308,9.133-4.618,13.539-7.217,14.709-8.676,22.729-23.564,25.014-40.348.791-5.81.747-11.951-1.755-17.254s-7.939-9.531-13.791-9.177c-5.888.355-11.09,7.685-7.43,12.311,2.71,3.425,8.667,2.8,11.378-.622s2.458-8.537.317-12.343-5.831-6.5-9.669-8.577a52.5,52.5,0,0,0-30.895-5.943c-7.687.9-15.115,3.506-22.826,4.17s-16.288-1.067-21.113-7.12c-4.118-5.166-4.712-12.434-8.639-17.747-6.433-8.7-21.728-8.291-27.684.745-1.989,3.018-2.978,6.621-5.06,9.575-5.323,7.551-16.3,8.775-25.21,6.344s-16.808-7.662-25.533-10.7c-8.05-2.8-16.649-3.67-25.17-3.839-11.689-.231-23.62.878-34.382,5.444-19.4,8.229-26.832,30.812-21.851,50.4,2.673,10.51,8.381,19.984,15.439,28.127,6.916,7.98,16.334,14.287,19.853,24.716,1.75,5.187,2.752,10.742,1.918,16.154s-3.688,10.669-8.333,13.567" transform="translate(455.345 -70.302)" fill="none" stroke="#bc1445" stroke-miterlimit="10" stroke-width="1" stroke-dasharray="5 5"/>
      <g id="Grupo_87696" data-name="Grupo 87696" transform="translate(34.637)">
        <path id="Trazado_149947" data-name="Trazado 149947" d="M-409.327,92.918-378.159,68.3l9.492-7.5a2.229,2.229,0,0,1,2.764,0l40.661,32.11Z" transform="translate(409.331 -58.009)" fill="#be860a"/>
        <path id="Trazado_149948" data-name="Trazado 149948" d="M-409.333,97.637l42.043-33.2,42.043,33.2Z" transform="translate(409.333 -59.165)" fill="#fff"/>
        <rect id="Rectángulo_33665" data-name="Rectángulo 33665" width="84.086" height="55.236" transform="translate(0 34.908)" fill="#be860a"/>
        <path id="Trazado_149949" data-name="Trazado 149949" d="M-409.333,105.681l42.043,33.2,42.043-33.2Z" transform="translate(409.333 -70.772)" fill="#34abcd"/>
        <rect id="Rectángulo_33666" data-name="Rectángulo 33666" width="74.358" height="79.166" transform="translate(4.864)" fill="#fff"/>
        <g id="Grupo_87693" data-name="Grupo 87693" transform="translate(13.292 8.05)">
          <rect id="Rectángulo_33667" data-name="Rectángulo 33667" width="47.662" height="2.395" fill="#d2b7ff"/>
          <rect id="Rectángulo_33668" data-name="Rectángulo 33668" width="54.013" height="2.395" transform="translate(0 7.725)" fill="#d2b7ff"/>
          <rect id="Rectángulo_33669" data-name="Rectángulo 33669" width="57.444" height="2.395" transform="translate(0 15.45)" fill="#d2b7ff"/>
          <rect id="Rectángulo_33670" data-name="Rectángulo 33670" width="47.662" height="2.395" transform="translate(0 23.176)" fill="#d2b7ff"/>
          <rect id="Rectángulo_33671" data-name="Rectángulo 33671" width="57.444" height="2.395" transform="translate(0 30.901)" fill="#d2b7ff"/>
          <rect id="Rectángulo_33672" data-name="Rectángulo 33672" width="54.013" height="2.395" transform="translate(0 38.626)" fill="#d2b7ff"/>
          <rect id="Rectángulo_33673" data-name="Rectángulo 33673" width="57.444" height="2.395" transform="translate(0 46.351)" fill="#d2b7ff"/>
        </g>
        <g id="Grupo_87694" data-name="Grupo 87694" transform="translate(0 34.908)" opacity="0.1">
          <path id="Trazado_149950" data-name="Trazado 149950" d="M-367.282,134.108l-42.051-28.427.016,29.607h84.07V105.681Z" transform="translate(409.333 -105.681)" fill="#272425"/>
        </g>
        <g id="Grupo_87695" data-name="Grupo 87695" transform="translate(0 34.908)">
          <path id="Trazado_149951" data-name="Trazado 149951" d="M-409.333,105.681v55.236h84.085V105.681l-42.043,33.2Z" transform="translate(409.333 -105.681)" fill="#ffb206"/>
        </g>
        <path id="Trazado_149952" data-name="Trazado 149952" d="M-409.333,171.841l40.813-26.975a2.23,2.23,0,0,1,2.46,0l40.813,26.975Z" transform="translate(409.333 -81.696)" fill="#ffca53"/>
      </g>
      <g id="Grupo_87703" data-name="Grupo 87703" transform="translate(54.639 71.17)">
        <rect id="Rectángulo_33674" data-name="Rectángulo 33674" width="163.534" height="110.733" rx="9" transform="translate(0 4.979)" fill="#fffffa"/>
        <path id="Trazado_150008" data-name="Trazado 150008" d="M9,0H154.534a9,9,0,0,1,9,9v91.927H0V9A9,9,0,0,1,9,0Z" fill="#29063c"/>
        <rect id="Rectángulo_33676" data-name="Rectángulo 33676" width="152.672" height="89.371" transform="translate(5.431 5.371)" fill="#e3dcdf"/>
        <g id="Grupo_87697" data-name="Grupo 87697" transform="translate(7.543 7.543)">
          <rect id="Rectángulo_33677" data-name="Rectángulo 33677" width="148.448" height="85.026" fill="#fffffa"/>
        </g>
        <rect id="Rectángulo_33678" data-name="Rectángulo 33678" width="36.81" height="19.914" transform="translate(63.362 115.711)" fill="#e3dcdf"/>
        <rect id="Rectángulo_33679" data-name="Rectángulo 33679" width="65.172" height="5.431" transform="translate(49.181 135.625)" fill="#fffffa"/>
        <path id="Trazado_149953" data-name="Trazado 149953" d="M-265.6,305.105a3.47,3.47,0,0,1-3.47,3.47,3.469,3.469,0,0,1-3.469-3.47,3.469,3.469,0,0,1,3.469-3.47A3.47,3.47,0,0,1-265.6,305.105Z" transform="translate(350.833 -197.088)" fill="#e3dcdf"/>
        <path id="Trazado_149954" data-name="Trazado 149954" d="M-256.51,325.62l-36.81,5.431V317.171h36.81Z" transform="translate(356.682 -201.46)" fill="#000100" opacity="0.1"/>
        <path id="Trazado_150007" data-name="Trazado 150007" d="M0,0H148.448V3.47H0Z" transform="translate(7.543 7.543)" fill="#8f52f5"/>
        <g id="Grupo_87698" data-name="Grupo 87698" transform="translate(146.232 8.324)">
          <path id="Trazado_149955" data-name="Trazado 149955" d="M-176.086,168.681a.954.954,0,0,1-.954.954.954.954,0,0,1-.955-.954.954.954,0,0,1,.955-.954A.954.954,0,0,1-176.086,168.681Z" transform="translate(177.995 -167.727)" fill="#fff"/>
          <path id="Trazado_149956" data-name="Trazado 149956" d="M-171.362,168.681a.954.954,0,0,1-.954.954.954.954,0,0,1-.955-.954.954.954,0,0,1,.955-.954A.954.954,0,0,1-171.362,168.681Z" transform="translate(176.666 -167.727)" fill="#fff"/>
          <path id="Trazado_149957" data-name="Trazado 149957" d="M-166.638,168.681a.954.954,0,0,1-.955.954.954.954,0,0,1-.954-.954.954.954,0,0,1,.954-.954A.954.954,0,0,1-166.638,168.681Z" transform="translate(175.336 -167.727)" fill="#fff"/>
        </g>
        <g id="Grupo_87701" data-name="Grupo 87701" transform="translate(52.556 25.766)">
          <g id="Grupo_87699" data-name="Grupo 87699" transform="translate(0 40.805)">
            <rect id="Rectángulo_33681" data-name="Rectángulo 33681" width="58.422" height="11.225" rx="5.612" fill="none" stroke="#e01650" stroke-miterlimit="10" stroke-width="1"/>
            <circle id="Elipse_4565" data-name="Elipse 4565" cx="2.416" cy="2.416" r="2.416" transform="translate(16.583 3.196)" fill="#8f52f5"/>
            <circle id="Elipse_4566" data-name="Elipse 4566" cx="2.416" cy="2.416" r="2.416" transform="translate(6.372 3.196)" fill="#8f52f5"/>
            <circle id="Elipse_4567" data-name="Elipse 4567" cx="2.416" cy="2.416" r="2.416" transform="translate(26.794 3.196)" fill="#8f52f5"/>
            <circle id="Elipse_4568" data-name="Elipse 4568" cx="2.416" cy="2.416" r="2.416" transform="translate(37.006 3.196)" fill="#8f52f5"/>
            <circle id="Elipse_4569" data-name="Elipse 4569" cx="2.416" cy="2.416" r="2.416" transform="translate(47.217 3.196)" fill="#8f52f5"/>
          </g>
          <g id="Grupo_87700" data-name="Grupo 87700" transform="translate(17.86)">
            <rect id="Rectángulo_33682" data-name="Rectángulo 33682" width="22.701" height="22.701" rx="5" transform="translate(0 12.355)" fill="#e01650"/>
            <path id="Trazado_149958" data-name="Trazado 149958" d="M-265.557,219.182a3.534,3.534,0,0,1-3.535,3.535,3.534,3.534,0,0,1-3.535-3.535,3.534,3.534,0,0,1,3.535-3.535A3.534,3.534,0,0,1-265.557,219.182Z" transform="translate(280.441 -198.655)" fill="#fff"/>
            <path id="Trazado_149959" data-name="Trazado 149959" d="M-266.168,230.843h-5.059l.778-6.486h3.5Z" transform="translate(280.048 -201.106)" fill="#fff"/>
            <path id="Trazado_149960" data-name="Trazado 149960" d="M-263.861,198.322A6.322,6.322,0,0,0-270.183,192a6.322,6.322,0,0,0-6.322,6.322v7.7" transform="translate(281.533 -192)" fill="none" stroke="#e01650" stroke-miterlimit="10" stroke-width="1"/>
          </g>
        </g>
        <g id="Grupo_87702" data-name="Grupo 87702" transform="translate(93.118 24.859)">
          <line id="Línea_318" data-name="Línea 318" y1="7.772" x2="5.763" fill="none" stroke="#e01650" stroke-miterlimit="10" stroke-width="1"/>
          <line id="Línea_319" data-name="Línea 319" y1="2.796" x2="9.263" transform="translate(2.089 8.45)" fill="none" stroke="#e01650" stroke-miterlimit="10" stroke-width="1"/>
          <line id="Línea_320" data-name="Línea 320" x2="9.318" y2="2.608" transform="translate(1.997 15.042)" fill="none" stroke="#e01650" stroke-miterlimit="10" stroke-width="1"/>
        </g>
      </g>
      <g id="Grupo_87704" data-name="Grupo 87704" transform="translate(171.117 28.665)">
        <path id="Trazado_150006" data-name="Trazado 150006" d="M26.1,0A26.1,26.1,0,1,1,0,26.1,26.1,26.1,0,0,1,26.1,0Z" transform="translate(0 48.23) rotate(-67.5)" fill="#e01650"/>
        <path id="Trazado_149961" data-name="Trazado 149961" d="M-161.279,145.174l-14.393-24.929a3.231,3.231,0,0,0-5.6,0l-14.393,24.929a3.232,3.232,0,0,0,2.8,4.848h28.786A3.232,3.232,0,0,0-161.279,145.174Z" transform="translate(212.845 -103.082)" fill="#ffb206"/>
        <path id="Trazado_149962" data-name="Trazado 149962" d="M-173.7,129.367a1.534,1.534,0,0,1,3.065,0v13.795a1.534,1.534,0,0,1-3.065,0Z" transform="translate(206.541 -105.687)" fill="#29063c"/>
        <path id="Trazado_149963" data-name="Trazado 149963" d="M-172.285,157.567a1.834,1.834,0,0,1-1.833-1.834,1.834,1.834,0,0,1,1.833-1.834,1.834,1.834,0,0,1,1.834,1.834A1.834,1.834,0,0,1-172.285,157.567Z" transform="translate(206.658 -113.007)" fill="#29063c"/>
      </g>
      <g id="Grupo_87707" data-name="Grupo 87707" transform="translate(0 149.812)">
        <g id="Grupo_87705" data-name="Grupo 87705" transform="translate(20.646 19.923)">
          <path id="Trazado_150004" data-name="Trazado 150004" d="M4,0H59.042a4,4,0,0,1,4,4V38.491a4,4,0,0,1-4,4H4a4,4,0,0,1-4-4V4A4,4,0,0,1,4,0Z" fill="#e01650"/>
          <path id="Trazado_150005" data-name="Trazado 150005" d="M0,0H63.042V8.429H0Z" transform="translate(0 7.331)" fill="#29063c"/>
          <line id="Línea_321" data-name="Línea 321" x2="22.143" transform="translate(7.107 24.446)" fill="none" stroke="#fff" stroke-miterlimit="10" stroke-width="1"/>
          <line id="Línea_322" data-name="Línea 322" x2="22.143" transform="translate(7.107 32.687)" fill="none" stroke="#fff" stroke-miterlimit="10" stroke-width="1"/>
          <path id="Trazado_149964" data-name="Trazado 149964" d="M-406.645,335.8H-421.2l16.976-42.491h14.551Z" transform="translate(426.662 -293.31)" fill="#fffffa" opacity="0.2"/>
          <path id="Trazado_149965" data-name="Trazado 149965" d="M-380.145,335.8H-394.7l16.976-42.491h14.551Z" transform="translate(419.205 -293.31)" fill="#fffffa" opacity="0.2"/>
        </g>
        <g id="Grupo_87706" data-name="Grupo 87706">
          <line id="Línea_323" data-name="Línea 323" x1="14.597" y1="3.504" transform="translate(0 16.419)" fill="none" stroke="#fff" stroke-miterlimit="10" stroke-width="1"/>
          <line id="Línea_324" data-name="Línea 324" x1="9.621" y1="11.524" transform="translate(7.518 4.994)" fill="none" stroke="#fff" stroke-miterlimit="10" stroke-width="1"/>
          <line id="Línea_325" data-name="Línea 325" x1="1.94" y1="14.886" transform="translate(18.706)" fill="none" stroke="#fff" stroke-miterlimit="10" stroke-width="1"/>
        </g>
      </g>
      <g id="Grupo_87715" data-name="Grupo 87715" transform="translate(184.867 95.938)">
        <path id="Trazado_149966" data-name="Trazado 149966" d="M-113.779,365.2c0,.908-13.8,1.643-30.821,1.643s-30.821-.736-30.821-1.643,13.8-1.643,30.821-1.643S-113.779,364.293-113.779,365.2Z" transform="translate(193.275 -239.283)" fill="#231f20" opacity="0.1"/>
        <g id="Grupo_87714" data-name="Grupo 87714">
          <path id="Trazado_149967" data-name="Trazado 149967" d="M-155.231,361.8a9.027,9.027,0,0,0,1.17-.157,29.5,29.5,0,0,0,5.236-1.481,26.862,26.862,0,0,1,2.761-1,2.094,2.094,0,0,1,.985-.079c1.134.254,1.023,1.955.536,2.705a1.459,1.459,0,0,1-.61.461,16.477,16.477,0,0,1-10.069,1.468,5.664,5.664,0,0,1-1.591-.5,1.14,1.14,0,0,1-.42-1.2.436.436,0,0,1,.143-.315.494.494,0,0,1,.329-.052c.458.035.885.164,1.351.156Z" transform="translate(188.161 -238.013)" fill="#192d4e"/>
          <path id="Trazado_149968" data-name="Trazado 149968" d="M-143.483,356.612a5.427,5.427,0,0,0,1.494-.729,19.746,19.746,0,0,1-.234-3.821,15.524,15.524,0,0,0-3.211-.1.884.884,0,0,0-.538.163.869.869,0,0,0-.211.369,16.4,16.4,0,0,0-.561,2.192c-.037.171-.43,1.395-.8,1.089a4.576,4.576,0,0,0,1.128.69A4.374,4.374,0,0,0-143.483,356.612Z" transform="translate(185.429 -236.007)" fill="#f6f6f6"/>
          <path id="Trazado_149969" data-name="Trazado 149969" d="M-156.86,361.478a5.323,5.323,0,0,0,1.627.537,16.479,16.479,0,0,0,10.07-1.469,1.449,1.449,0,0,0,.609-.461c.471-.726.112-1.783-.1-2.69a5.447,5.447,0,0,1-1.494.728,4.379,4.379,0,0,1-2.932-.152,4.578,4.578,0,0,1-1.128-.69c-.275.144-.574.256-.9.408q-2.1.984-4.151,2.062a6.067,6.067,0,0,0-1.1.688c-.154.13-.78.683-.645.925A.321.321,0,0,0-156.86,361.478Z" transform="translate(188.096 -237.517)" fill="#ffb206"/>
          <path id="Trazado_149970" data-name="Trazado 149970" d="M-123.051,363.157a9,9,0,0,0,1.132-.334,29.581,29.581,0,0,0,4.947-2.267,26.656,26.656,0,0,1,2.574-1.413,2.112,2.112,0,0,1,.961-.23c1.16.078,1.311,1.775.945,2.591a1.455,1.455,0,0,1-.531.548,16.479,16.479,0,0,1-9.725,3,5.666,5.666,0,0,1-1.648-.249c-.443-.146-.584-.68-.6-1.122a.438.438,0,0,1,.093-.333.488.488,0,0,1,.318-.1c.458-.036.9.026,1.358-.054C-123.169,363.18-123.11,363.169-123.051,363.157Z" transform="translate(179.084 -237.975)" fill="#192d4e"/>
          <path id="Trazado_149971" data-name="Trazado 149971" d="M-112.192,356.5a5.433,5.433,0,0,0,1.364-.949c.018-.017-.225-.615-.231-.7a15.238,15.238,0,0,0-.014-2.5,1.01,1.01,0,0,0-.192-.428,1.072,1.072,0,0,0-.341-.241,3.487,3.487,0,0,0-3-.031.811.811,0,0,0-.328.241.9.9,0,0,0-.126.338c-.221.97-.315,1.947-.5,2.907-.03.16-.518,1.307-.772,1.155a4.594,4.594,0,0,0,1.22.509A4.382,4.382,0,0,0-112.192,356.5Z" transform="translate(176.646 -235.839)" fill="#f6f6f6"/>
          <path id="Trazado_149972" data-name="Trazado 149972" d="M-124.655,363.114a5.314,5.314,0,0,0,1.691.281,16.476,16.476,0,0,0,9.725-3,1.456,1.456,0,0,0,.532-.548c.354-.791-.163-1.779-.516-2.643a5.467,5.467,0,0,1-1.365.949,4.38,4.38,0,0,1-2.92.3,4.586,4.586,0,0,1-1.221-.508c-.249.185-.528.341-.826.541q-1.922,1.3-3.785,2.675a6.065,6.065,0,0,0-.977.848c-.133.152-.666.8-.5,1.013A.327.327,0,0,0-124.655,363.114Z" transform="translate(179.042 -237.495)" fill="#ffb206"/>
          <path id="Trazado_149973" data-name="Trazado 149973" d="M-118.075,359.384a2.162,2.162,0,0,1,1.01,1.378" transform="translate(177.136 -238.108)" fill="none" stroke="#192d4e" stroke-miterlimit="10" stroke-width="1"/>
          <path id="Trazado_149974" data-name="Trazado 149974" d="M-119.377,360.254a1.853,1.853,0,0,1,.862,1.3" transform="translate(177.503 -238.353)" fill="none" stroke="#192d4e" stroke-miterlimit="10" stroke-width="1"/>
          <path id="Trazado_149975" data-name="Trazado 149975" d="M-120.8,361.178a1.593,1.593,0,0,1,.741,1.13" transform="translate(177.904 -238.613)" fill="none" stroke="#192d4e" stroke-miterlimit="10" stroke-width="1"/>
          <path id="Trazado_149976" data-name="Trazado 149976" d="M-147.338,330.692c.06-.806.121-1.61.167-2.411.131-2.253.346-4.508.684-6.74.35-2.317,1.171-4.918,3.471-5.986a4.439,4.439,0,0,1,4.452.557c1.492,1.137,1.373,3.05,1.265,4.759-.4,6.312-1.822,12.474-2.744,18.715q-.127.861-.241,1.725a12.225,12.225,0,0,0-.235,1.436c-.1.584-.294,1.646-1.046,1.715a17.958,17.958,0,0,1-3.329-.07c-.663-.063-2.366.045-2.762-.627a12.275,12.275,0,0,1-.132-1.837,59.886,59.886,0,0,1,.234-6.791C-147.555,333.663-147.449,332.175-147.338,330.692Z" transform="translate(185.509 -225.671)" fill="#951339"/>
          <path id="Trazado_149977" data-name="Trazado 149977" d="M-149.441,358.149a2.16,2.16,0,0,1,.786,1.516" transform="translate(185.963 -237.761)" fill="none" stroke="#192d4e" stroke-miterlimit="10" stroke-width="1"/>
          <path id="Trazado_149978" data-name="Trazado 149978" d="M-143.688,247.322q-1.081,1.385-2.24,2.708-2.027,2.316-4.275,4.428c-1.245,1.17-2.487,3.078-4.232,3.466a2.32,2.32,0,0,1-2.59-1.063c-.479-1.006.072-2.177.613-3.152,2.712-4.886,5.062-9.917,8.266-14.54,2.025-2.922,4.816-5.592,8.313-6.227a1.225,1.225,0,0,1,.622,0,1.186,1.186,0,0,1,.529.469c1.585,2.22,1.082,4.6-.2,6.816A62.684,62.684,0,0,1-143.688,247.322Z" transform="translate(188.149 -202.513)" fill="#8f52f5"/>
          <path id="Trazado_149979" data-name="Trazado 149979" d="M-160.18,262.94c1.973.172,2.6-1.635,1.987-3.327a6.063,6.063,0,0,0-1.641-2.281,25.341,25.341,0,0,0-5.781-3.719l-6.343-3.308a2.351,2.351,0,0,0-.834-.308c-.959-.1-1.655,1.055-1.486,2,.247,1.388,1.694,2.548,2.635,3.514q1.8,1.846,3.72,3.57a19.514,19.514,0,0,0,3.055,2.357A11.158,11.158,0,0,0-160.18,262.94Z" transform="translate(192.96 -207.322)" fill="#8f52f5"/>
          <path id="Trazado_149980" data-name="Trazado 149980" d="M-172.147,248.967a8.371,8.371,0,0,1-.6-1.348,5.757,5.757,0,0,0-1.043-1.521c-.095-.1-.193-.192-.3-.285-.58-.524-1.236-1.278-2.089-1.284-.5,0-.492.183-.758.522-.222.283-.61.435-.708.811-.059.225.022.469-.039.693-.116.435-.717.67-.695,1.119.011.223.181.464.054.648a1.241,1.241,0,0,1-.2.176c-.218.206-.128.577.046.821.394.556,1.006.719,1.546,1.074q.422.276.836.566c.252.177.525.275.772.448a18.4,18.4,0,0,1,1.735,2.057c.07.011,2.061-2.434,2.918-3.566-.3-.167-.713-.3-.9-.414A1.909,1.909,0,0,1-172.147,248.967Z" transform="translate(194.185 -205.786)" fill="#29063c"/>
          <g id="Grupo_87708" data-name="Grupo 87708">
            <ellipse id="Elipse_4571" data-name="Elipse 4571" cx="8.951" cy="6.565" rx="8.951" ry="6.565" transform="matrix(0.968, -0.251, 0.251, 0.968, 4.38, 32.359)" fill="none" stroke="#ffb206" stroke-miterlimit="10" stroke-width="5"/>
            <path id="Trazado_149981" data-name="Trazado 149981" d="M-200.267,191.971l5.248-1.359,2.465,9.52,4.546,17.561.806,3.115" transform="translate(200.267 -190.612)" fill="none" stroke="#ffb206" stroke-miterlimit="10" stroke-width="5"/>
            <line id="Línea_326" data-name="Línea 326" x1="5.248" y2="1.359" transform="translate(2.571 9.931)" fill="none" stroke="#ffb206" stroke-miterlimit="10" stroke-width="5"/>
            <line id="Línea_327" data-name="Línea 327" x1="3.539" y2="0.916" transform="translate(3.005 5.007)" fill="none" stroke="#ffb206" stroke-miterlimit="10" stroke-width="5"/>
          </g>
          <path id="Trazado_149982" data-name="Trazado 149982" d="M-171.1,248.422a4.116,4.116,0,0,0-.54-1.474c-.286-.614-.629-1.2-.959-1.794a.759.759,0,0,0-.389-.4.5.5,0,0,0-.551.285,1.194,1.194,0,0,0-.075.661,4.218,4.218,0,0,0,.262,1.081,6.379,6.379,0,0,1,.422.871.682.682,0,0,1-.025.3,4.034,4.034,0,0,0-.252,2.116" transform="translate(192.771 -205.843)" fill="#29063c"/>
          <path id="Trazado_149983" data-name="Trazado 149983" d="M-175.18,246.926a1.093,1.093,0,0,1-.576.264,1.093,1.093,0,0,1-.009.821c-.142.275-.576.453-.727.241-.06.387-.485.675-.857.892a.824.824,0,0,1-.318.131.476.476,0,0,1-.41-.245,3.077,3.077,0,0,1-.558-1.365,1.165,1.165,0,0,1,0-.446,1.622,1.622,0,0,1,.236-.491,8.67,8.67,0,0,1,1.516-1.778c.393-.352.553-.181.933-.121C-175.06,244.967-174.21,246.06-175.18,246.926Z" transform="translate(194.185 -205.843)" fill="#29063c"/>
          <path id="Trazado_149984" data-name="Trazado 149984" d="M-150.861,358.808a1.853,1.853,0,0,1,.652,1.416" transform="translate(186.363 -237.946)" fill="none" stroke="#192d4e" stroke-miterlimit="10" stroke-width="1"/>
          <path id="Trazado_149985" data-name="Trazado 149985" d="M-152.413,359.5a1.593,1.593,0,0,1,.558,1.231" transform="translate(186.8 -238.141)" fill="none" stroke="#192d4e" stroke-miterlimit="10" stroke-width="1"/>
          <path id="Trazado_149986" data-name="Trazado 149986" d="M-116.045,309.077c0,.433.122,2.151-.262,2.37a.848.848,0,0,1-.428.075,14.52,14.52,0,0,0-4.992.571,2.378,2.378,0,0,1-.895.229,1.277,1.277,0,0,1-.943-.585,3.66,3.66,0,0,1-.448-1.053c-.977-3.2-1.667-6.438-2.335-9.712-.661-3.239-1.169-6.508-1.593-9.786-.3-2.3-.552-4.605-.785-6.913a24.5,24.5,0,0,1-.192-6.479,6.588,6.588,0,0,1,2.7-4.6,5.885,5.885,0,0,1,2.118-.773,4.742,4.742,0,0,1,1.72-.029,4.629,4.629,0,0,1,1.793.833c3.108,2.241,3.53,6.8,4.129,10.341a61.633,61.633,0,0,1,.7,6.293c.126,1.929-.165,3.79-.181,5.731Z" transform="translate(180.232 -213.609)" fill="#951339"/>
          <path id="Trazado_149987" data-name="Trazado 149987" d="M-133.055,274.265c2.479,2.833,1.8,7.176,1.533,10.621a79.279,79.279,0,0,1-2.171,12.225,55.873,55.873,0,0,1-1.72,6.108,49.361,49.361,0,0,1-1.932,5.644,4.471,4.471,0,0,1-.9,1.3,4.9,4.9,0,0,1-3.905.815,6.036,6.036,0,0,1-1.88-.438,2.439,2.439,0,0,1-1.324-1.344,3.716,3.716,0,0,1-.134-1.236c.013-3.089.075-6.153.2-9.239.134-3.175.423-6.341.8-9.5.262-2.213.566-4.421.892-6.626a22.659,22.659,0,0,1,1.363-6.081,6.37,6.37,0,0,1,3.719-3.633,6.086,6.086,0,0,1,2.241-.212,4.921,4.921,0,0,1,1.676.385A4.643,4.643,0,0,1-133.055,274.265Z" transform="translate(184.85 -213.7)" fill="#951339"/>
          <path id="Trazado_149988" data-name="Trazado 149988" d="M-117.176,292.757a6.32,6.32,0,0,0,4.8,3.75" transform="translate(176.883 -219.358)" fill="none" stroke="#951339" stroke-miterlimit="10" stroke-width="1" style="mix-blend-mode: multiply;isolation: isolate"/>
          <path id="Trazado_149989" data-name="Trazado 149989" d="M-127.734,297.236l-.813-5.025,3,.393-.444,3.044Z" transform="translate(180.083 -219.204)" fill="#951339" style="mix-blend-mode: multiply;isolation: isolate"/>
          <path id="Trazado_149990" data-name="Trazado 149990" d="M-143.877,295.335a4.721,4.721,0,0,0,2.8-.814,4.724,4.724,0,0,0,1.774-2.31" transform="translate(184.397 -219.204)" fill="none" stroke="#951339" stroke-miterlimit="10" stroke-width="1" style="mix-blend-mode: multiply;isolation: isolate"/>
          <path id="Trazado_149991" data-name="Trazado 149991" d="M-120.668,332.664q-.163-.816-.323-1.633a56.364,56.364,0,0,1-1.426-9.122,9.4,9.4,0,0,1,.8-4.36A4.409,4.409,0,0,1-117.853,315c2.009.04,2.864,2.051,3.321,3.74a120.149,120.149,0,0,1,3.72,26.03c.021.627-7.271.056-7.35.006-.287-.184-.355-1.515-.415-1.819-.17-.853-.353-1.7-.523-2.555C-119.616,337.82-120.153,335.245-120.668,332.664Z" transform="translate(178.359 -225.617)" fill="#951339"/>
          <g id="Grupo_87710" data-name="Grupo 87710" transform="translate(39.449 29.682)">
            <path id="Trazado_149992" data-name="Trazado 149992" d="M-118.79,276.68c0-6.329-.29-13.6-.555-19.145a75.409,75.409,0,0,0-1.433-13.042c-.568-2.521-1.05-5.6-2.214-7.925a7.525,7.525,0,0,0-5.706-4.4,20.548,20.548,0,0,0-5.417-.137c-3.671.257-6.226,1.988-7.368,5.575a79.209,79.209,0,0,0-2.857,15.86c-.594,5.657-1.027,22.586-1.027,22.586S-128.185,276.727-118.79,276.68Z" transform="translate(145.368 -231.918)" fill="#8f52f5"/>
            <g id="Grupo_87709" data-name="Grupo 87709" clip-path="url(#clip-path)">
              <path id="Trazado_149993" data-name="Trazado 149993" d="M-130.529,234.5a3.651,3.651,0,0,0,1.6.816,5.293,5.293,0,0,0,3.826-.4,4.228,4.228,0,0,0,2.2-3.093.347.347,0,0,0-.033-.247.365.365,0,0,0-.236-.113,54.71,54.71,0,0,0-6.169-.87c-.827-.069-2.292-.056-2.38,1.036A4.23,4.23,0,0,0-130.529,234.5Z" transform="translate(141.532 -231.539)" fill="#8f52f5"/>
            </g>
          </g>
          <path id="Trazado_149995" data-name="Trazado 149995" d="M-124.11,230.359a7.013,7.013,0,0,1-.17,1.125c-.338,1.4-1.875,2.042-3.368,2.05a2.775,2.775,0,0,1-2.238-.863,3.681,3.681,0,0,1-.517-2.211,14.226,14.226,0,0,1,.522-4.16.349.349,0,0,1,.073-.155.456.456,0,0,1,.285-.1c.872-.093,5.45-1.069,5.381.566C-124.192,227.857-124.019,229.117-124.11,230.359Z" transform="translate(180.606 -200.479)" fill="#3d095a"/>
          <g id="Grupo_87712" data-name="Grupo 87712" transform="translate(44.764 8.964)">
            <path id="Trazado_149996" data-name="Trazado 149996" d="M-137.724,217.021A9.051,9.051,0,0,0-134.382,223a5.586,5.586,0,0,0,6.447.065,11.754,11.754,0,0,0,3.037-4.419,26.065,26.065,0,0,0,1.889-5.282,11.731,11.731,0,0,0,.384-2.827,6.827,6.827,0,0,0-2.779-5.961,8.979,8.979,0,0,0-5.218-1.491,8.7,8.7,0,0,0-5.322,1.7,6.99,6.99,0,0,0-1.988,5.368A41.268,41.268,0,0,0-137.724,217.021Z" transform="translate(137.971 -203.086)" fill="#29063c"/>
            <g id="Grupo_87711" data-name="Grupo 87711" clip-path="url(#clip-path-2)">
              <path id="Trazado_149997" data-name="Trazado 149997" d="M-129.857,214.242a21.456,21.456,0,0,0-6.934-.538c-1.145.075-2.285.212-3.419.388-.907.14-1.988.19-2.588.99a1.3,1.3,0,0,0-.282.813,1.429,1.429,0,0,0,1.065,1.206,4.458,4.458,0,0,0,1.7.067,46.363,46.363,0,0,1,9.8.22,3.876,3.876,0,0,0,2.268-.144,1.481,1.481,0,0,0,.66-1.9C-127.962,214.7-129.213,214.414-129.857,214.242Z" transform="translate(139.409 -206.056)" fill="#e89f7a"/>
            </g>
          </g>
          <path id="Trazado_149999" data-name="Trazado 149999" d="M-103.117,255.406c1.612,1.194,3.6.385,4.687-1.365,1.247-2-1.477-5.043-2.68-6.475a53.026,53.026,0,0,0-5.438-5.58,53.053,53.053,0,0,0-13.014-8.494,37.87,37.87,0,0,0-.516,3.9,6.1,6.1,0,0,0,.137,2.311c.213.679.641,3.155,1.1,3.7a27.068,27.068,0,0,0,5,4.225l8.8,6.285C-104.572,254.238-103.887,254.835-103.117,255.406Z" transform="translate(177.713 -202.679)" fill="#8f52f5"/>
          <path id="Trazado_150000" data-name="Trazado 150000" d="M-89.024,274.594c0,.744-.014,1.488-.024,2.232a1.441,1.441,0,0,1-.083.557,1.058,1.058,0,0,1-.371.42,1.555,1.555,0,0,1-1.531.2c-1.046-.5-1.39-2.375-1.764-3.351-1.3-3.4-2.273-6.874-3.39-10.336-.355-1.162-.717-2.321-1.076-3.481-.24-.762.775-1.552.86-2.346a2.139,2.139,0,0,1,2.424-1.944c1.8.347,2.413,2.549,2.894,4.025a42.22,42.22,0,0,1,2.05,12.321C-89.024,273.461-89.022,274.028-89.024,274.594Z" transform="translate(171.289 -209.158)" fill="#8f52f5"/>
          <g id="Grupo_87713" data-name="Grupo 87713" transform="translate(78.261 64.725)">
            <path id="Trazado_150001" data-name="Trazado 150001" d="M-85.785,292.07a.115.115,0,0,0,.019-.022c.125-.177-.1-.79-.157-.974a6.88,6.88,0,0,0-.456-1.11l-.532-1.051,1.138,1.795c.241.381.567.936,1.035,1.072.295.086.683-.126.647-.431a.727.727,0,0,0-.195-.356,11,11,0,0,1-1.52-2.477,12.406,12.406,0,0,0,1.112,1.441,2.3,2.3,0,0,0,.853.671.515.515,0,0,0,.387.019.439.439,0,0,0,.2-.5,1.277,1.277,0,0,0-.3-.5l-1.559-1.888a4.841,4.841,0,0,0,1.541,1.349c.231.128.552.224.731.029.216-.235-.014-.6-.236-.831-2.115-2.178-4.546-4.3-4.227-7.617a15.058,15.058,0,0,0-4.057.728,18.374,18.374,0,0,1,1.053,2.86c.152.917.014,1.8.116,2.713a26.058,26.058,0,0,0,.453,2.744.963.963,0,0,0,.149.389.339.339,0,0,0,.367.134c.389-.146.238-.766.24-1.068a14.944,14.944,0,0,1,.107-1.671l1.212,2.22c.259.474.518.949.821,1.4.223.329.385.823.8.963A.261.261,0,0,0-85.785,292.07Z" transform="translate(91.355 -280.686)" fill="#29063c"/>
          </g>
          <path id="Trazado_150002" data-name="Trazado 150002" d="M-126.777,216.253c-.088.66.181,1.242.6,1.3s.834-.433.923-1.094-.181-1.242-.6-1.3S-126.688,215.592-126.777,216.253Z" transform="translate(179.59 -197.519)" fill="#192d4e"/>
          <path id="Trazado_150003" data-name="Trazado 150003" d="M-135.446,215.923c.068.663.466,1.165.888,1.122s.709-.617.641-1.279-.466-1.166-.888-1.122S-135.514,215.26-135.446,215.923Z" transform="translate(182.028 -197.374)" fill="#192d4e"/>
        </g>
      </g>
    </g>
  </g>
</svg>
