<svg xmlns="http://www.w3.org/2000/svg" width="190" height="90" viewBox="0 0 190 90">
  <g id="Grupo_107126" data-name="Grupo 107126" transform="translate(-390 -974)">
    <path id="Rectángulo_33724" data-name="Rectángulo 33724" d="M25.929,0h157A7.071,7.071,0,0,1,190,7.071v0A25.929,25.929,0,0,1,164.071,33h-157A7.071,7.071,0,0,1,0,25.929v0A25.929,25.929,0,0,1,25.929,0Z" transform="translate(390 1015)" fill="#e01650" opacity="0.999"/>
    <g id="riesgo" transform="translate(440 974)">
      <g id="Grupo_87748" data-name="Grupo 87748" transform="translate(1.758 1.758)">
        <path id="Trazado_150146" data-name="Trazado 150146" d="M109.828,136H39.516A3.515,3.515,0,0,0,36,139.516V193.3h77.344V139.516A3.515,3.515,0,0,0,109.828,136Z" transform="translate(-31.43 -113.852)" fill="#fff"/>
        <path id="Trazado_150147" data-name="Trazado 150147" d="M96.484,462a7.032,7.032,0,0,1-7.031,7.031H17.031A7.032,7.032,0,0,1,10,462Z" transform="translate(-10 -382.547)" fill="#3d095a"/>
        <path id="Trazado_150148" data-name="Trazado 150148" d="M363.031,276v25.664H356V283.031Z" transform="translate(-295.18 -229.242)" fill="#ffb206"/>
        <path id="Trazado_150149" data-name="Trazado 150149" d="M177.655,40.834a3.516,3.516,0,0,1-2.983,5.377H139.516a3.516,3.516,0,0,1-2.983-5.377l17.578-29.18a3.517,3.517,0,0,1,5.966,0Z" transform="translate(-113.852 -10)" fill="#ffb206"/>
        <path id="Trazado_150150" data-name="Trazado 150150" d="M323.031,299.516v18.633H316V296Z" transform="translate(-262.211 -245.727)" fill="#e01650"/>
        <path id="Trazado_150151" data-name="Trazado 150151" d="M283.031,279.516v22.148H276V276Z" transform="translate(-229.242 -229.242)" fill="#ffb206"/>
        <path id="Trazado_150152" data-name="Trazado 150152" d="M243.031,276v25.664H236V283.031Z" transform="translate(-196.273 -229.242)" fill="#e01650"/>
        <path id="Trazado_150153" data-name="Trazado 150153" d="M203.031,316v18.633H196v-11.6Z" transform="translate(-163.305 -262.211)" fill="#ffb206"/>
        <path id="Trazado_150154" data-name="Trazado 150154" d="M163.031,339.516v11.6H156V336Z" transform="translate(-130.336 -278.695)" fill="#e01650"/>
        <path id="Trazado_150155" data-name="Trazado 150155" d="M123.031,336v15.117H116v-11.6Z" transform="translate(-97.367 -278.695)" fill="#ffb206"/>
        <path id="Trazado_150156" data-name="Trazado 150156" d="M83.031,356v11.6H76v-8.086Z" transform="translate(-64.398 -295.18)" fill="#e01650"/>
      </g>
      <g id="Grupo_87749" data-name="Grupo 87749" transform="translate(0)">
        <circle id="Elipse_4572" data-name="Elipse 4572" cx="1.286" cy="1.286" r="1.286" transform="translate(43.714 29.572)"/>
        <path id="Trazado_150157" data-name="Trazado 150157" d="M247.758,75.117a1.758,1.758,0,0,0,1.758-1.758v-11.6a1.758,1.758,0,1,0-3.516,0v11.6A1.758,1.758,0,0,0,247.758,75.117Z" transform="translate(-202.758 -49.453)"/>
        <path id="Trazado_150158" data-name="Trazado 150158" d="M131.039,209.516h-7.031a1.758,1.758,0,0,0,0,3.516H126.8L116.63,223.2,103.7,216.732a1.765,1.765,0,0,0-2.029.329L88.5,230.228l-5.9-2.949a1.774,1.774,0,0,0-1.572,0l-11.519,5.759v-5.945h5.273a1.758,1.758,0,0,0,0-3.516H69.516v-3.516h5.273a1.758,1.758,0,0,0,0-3.516H69.516v-3.516h5.273a1.758,1.758,0,0,0,0-3.516H69.516v-1.758a1.758,1.758,0,1,0-3.516,0v36.211a1.758,1.758,0,0,0,1.758,1.758h63.281a1.758,1.758,0,0,0,0-3.516h-5.273V219.033l3.516-3.516V218.3a1.758,1.758,0,0,0,3.516,0v-7.031s0-.005,0-.008a1.761,1.761,0,0,0-1.757-1.75Zm-58.008,32.7H69.516v-5.242l3.516-1.758Zm7.031,0H76.547v-8.757l3.516-1.758Zm7.031,0H83.578V231.7l3.516,1.758Zm7.031,0H90.609V233.1l3.516-3.516Zm7.031,0H97.641V226.064l3.516-3.516Zm7.031,0h-3.516V221.149l3.516,1.758Zm7.031,0H111.7V224.664l3.516,1.758Zm7.031,0h-3.516V226.064l3.516-3.516Z" transform="translate(-54.398 -169.789)"/>
        <ellipse id="Elipse_4573" data-name="Elipse 4573" cx="1.286" cy="1.929" rx="1.286" ry="1.929" transform="translate(43.714 86.143)"/>
        <path id="Trazado_150159" data-name="Trazado 150159" d="M88.242,79.453H85.43V27.422a5.279,5.279,0,0,0-5.273-5.273H61.322L49.474,2.48a5.275,5.275,0,0,0-8.948,0L28.677,22.148H9.844A5.279,5.279,0,0,0,4.57,27.422V79.453H1.758A1.758,1.758,0,0,0,0,81.211,8.8,8.8,0,0,0,8.789,90h28.3a1.758,1.758,0,1,0,0-3.516H8.789a5.282,5.282,0,0,1-4.972-3.517H86.183a5.281,5.281,0,0,1-4.972,3.517H52.91a1.758,1.758,0,1,0,0,3.516h28.3A8.8,8.8,0,0,0,90,81.211,1.758,1.758,0,0,0,88.242,79.453ZM43.514,4.334a1.759,1.759,0,0,1,2.972,0c.876,1.459,17.58,29.182,17.585,29.19a1.759,1.759,0,0,1-1.493,2.687H27.422a1.759,1.759,0,0,1-1.493-2.687Zm38.4,75.12H8.086V27.422a1.76,1.76,0,0,1,1.758-1.758H26.559l-3.62,6.009a5.274,5.274,0,0,0,4.482,8.053H62.578a5.274,5.274,0,0,0,4.482-8.053l-3.62-6.009H80.156a1.76,1.76,0,0,1,1.758,1.758Z" transform="translate(0)"/>
      </g>
    </g>
  </g>
</svg>
