<svg xmlns="http://www.w3.org/2000/svg" xmlns:xlink="http://www.w3.org/1999/xlink" width="416.177" height="262.769" viewBox="0 0 416.177 262.769">
  <defs>
    <linearGradient id="linear-gradient" x1="0.239" y1="0.723" x2="-0.228" y2="1.335" gradientUnits="objectBoundingBox">
      <stop offset="0" stop-color="#4042e2"/>
      <stop offset="1" stop-color="#4f52ff"/>
    </linearGradient>
    <clipPath id="clip-path">
      <path id="Trazado_150647" data-name="Trazado 150647" d="M1048.275,471.124a4.175,4.175,0,0,0-2.377-3.558l-66.266-31.472a4.168,4.168,0,0,0-3.576,0l-66.265,31.472a4.175,4.175,0,0,0-2.377,3.558c-1.96,38.339,6.9,70.328,26.34,95.122A117.553,117.553,0,0,0,976.081,600a4.178,4.178,0,0,0,3.527,0,117.555,117.555,0,0,0,42.327-33.759C1041.379,541.452,1050.234,509.463,1048.275,471.124Z" transform="translate(-907.148 -435.69)" fill="url(#linear-gradient)"/>
    </clipPath>
    <linearGradient id="linear-gradient-2" x1="-5.547" y1="-0.401" x2="-4.444" y2="-3.398" gradientUnits="objectBoundingBox">
      <stop offset="0" stop-color="#53d8ff"/>
      <stop offset="1" stop-color="#3840f7"/>
    </linearGradient>
    <linearGradient id="linear-gradient-3" x1="-7.689" y1="-0.763" x2="-6.935" y2="-1.509" xlink:href="#linear-gradient-2"/>
    <linearGradient id="linear-gradient-4" x1="0.961" y1="0.171" x2="-0.715" y2="1.365" xlink:href="#linear-gradient-2"/>
    <linearGradient id="linear-gradient-5" x1="76.716" y1="0.5" x2="77.716" y2="0.5" gradientUnits="objectBoundingBox">
      <stop offset="0" stop-color="#ff928e"/>
      <stop offset="1" stop-color="#feb3b1"/>
    </linearGradient>
    <linearGradient id="linear-gradient-6" x1="257.442" y1="0.5" x2="258.442" y2="0.5" xlink:href="#linear-gradient-5"/>
    <linearGradient id="linear-gradient-7" x1="269.016" y1="0.5" x2="270.016" y2="0.5" xlink:href="#linear-gradient-5"/>
    <linearGradient id="linear-gradient-8" x1="83.991" y1="-1.615" x2="81.707" y2="1.548" xlink:href="#linear-gradient-5"/>
    <linearGradient id="linear-gradient-9" x1="68.872" y1="-2.795" x2="67.033" y2="5.663" xlink:href="#linear-gradient-5"/>
    <linearGradient id="linear-gradient-10" x1="94.752" y1="-1.142" x2="92.103" y2="2.815" xlink:href="#linear-gradient-5"/>
    <linearGradient id="linear-gradient-11" x1="3.372" y1="1.177" x2="1.399" y2="0.715" xlink:href="#linear-gradient-5"/>
    <linearGradient id="linear-gradient-12" x1="175.554" y1="358.356" x2="178.256" y2="355.818" xlink:href="#linear-gradient-5"/>
    <linearGradient id="linear-gradient-13" x1="0.632" y1="0.253" x2="0.148" y2="1.367" xlink:href="#linear-gradient-5"/>
    <linearGradient id="linear-gradient-14" x1="0.748" y1="-0.748" x2="0.526" y2="0.549" xlink:href="#linear-gradient-5"/>
    <linearGradient id="linear-gradient-15" x1="0.688" y1="-0.048" x2="0.103" y2="2.27" xlink:href="#linear-gradient-5"/>
    <linearGradient id="linear-gradient-16" x1="26.901" y1="-0.126" x2="26.883" y2="1.067" xlink:href="#linear-gradient-5"/>
    <linearGradient id="linear-gradient-17" x1="125.586" y1="-1.231" x2="125.5" y2="2.543" xlink:href="#linear-gradient-5"/>
  </defs>
  <g id="Grupo_107163" data-name="Grupo 107163" transform="translate(-161.081 -152)">
    <path id="Trazado_150612" data-name="Trazado 150612" d="M561.937,326.533c-6.431-2.683-13.789-2.527-20.814-3.33s-14.61-3.1-18.054-8.7c-3.16-5.138-1.835-11.74,1.5-16.785s8.4-8.92,13.16-12.925c10.81-9.1,20.631-19.573,26.026-32.009s5.875-27.105-1.332-38.765-22.985-19.218-37.25-15.782c-7.108,1.712-13.192,5.8-19.886,8.557s-15.027,4.035-21.077.249c-6-3.752-7.612-10.968-11.045-16.79-5.9-10.008-17.777-16.2-29.971-18.822a75.57,75.57,0,0,0-52.641,8.021c-15.419,8.884-26.611,23.573-30.308,39.775l.833-3.922c-16.5,5-32.9-6.336-47.351-15.11-19.178-11.642-41.555-19.9-64.647-19.813s-46.808,9.487-59.4,27.005-11.495,43.171,5.2,57.614c5.944,5.142,13.412,8.708,19.142,14.045s9.527,13.585,5.83,20.233c-5.165,9.289-19.577,8.783-30.65,11.556-16.063,4.023-28.171,18.473-28.12,33.558s12.256,29.468,28.346,33.4c5.8,1.418,12.029,1.626,17.384,4.086s9.559,8.409,6.918,13.29c-1.1,2.039-3.2,3.517-4.382,5.517-2.84,4.787.629,11.033,5.827,13.751s11.5,2.847,17.507,2.9l254.11,2.436c12.568.121,25.485.187,37.223-3.879,15.747-5.455,27.367-17.633,37.2-30.031,7.32-9.23,14.224-19.273,15.777-30.548S573.337,331.288,561.937,326.533Z" transform="translate(0 -14.408)" fill="#e01650" opacity="0.102"/>
    <g id="Grupo_107127" data-name="Grupo 107127" transform="translate(175.787 218.024)">
      <path id="Trazado_150613" data-name="Trazado 150613" d="M328.649,656.12S304.833,555.561,255.475,500.7a6.265,6.265,0,0,0-10.708,2.517C236.006,535.209,219.192,632.257,328.649,656.12Z" transform="translate(-238.283 -498.61)" fill="#e01650"/>
      <path id="Trazado_150614" data-name="Trazado 150614" d="M386.958,777.1a.273.273,0,0,1-.355.414c-10.156-7.554-49.418-44.667-63.911-118.627a.191.191,0,0,1,.37-.1C327.992,675.938,348.142,739.154,386.958,777.1Z" transform="translate(-306.611 -628.172)" fill="#ff93b2"/>
    </g>
    <g id="Grupo_107128" data-name="Grupo 107128" transform="translate(162.573 306.96)">
      <path id="Trazado_150615" data-name="Trazado 150615" d="M169.167,966.467a.522.522,0,0,1,.326-.965,100.342,100.342,0,0,1,65.178,36.121c22.093,27.181,33.14,49.871,36.909,58.477a2.43,2.43,0,0,1-2.465,3.394c-10.957-1.091-41.48-5.751-54.247-24.381C206.25,1026.538,185.179,976.355,169.167,966.467Z" transform="translate(-168.915 -965.499)" fill="#a7f"/>
      <path id="Trazado_150616" data-name="Trazado 150616" d="M306.715,1051.289s28.819,10.875,74.111,78.53C380.826,1129.819,331.706,1064.238,306.715,1051.289Z" transform="translate(-280.466 -1034.947)" fill="#d2b7ff"/>
    </g>
    <g id="Grupo_107129" data-name="Grupo 107129" transform="translate(478.23 152)">
      <path id="Trazado_150617" data-name="Trazado 150617" d="M1829.166,152.448a.707.707,0,0,0-1.357.157c-1.609,11.289-6.019,51.768,10.246,70.156,19,21.486,32.829,26.451,28.389,62.3-4.394,35.477-16.245,98.386-11.15,117.15a.943.943,0,0,0,.746.685h0a.938.938,0,0,0,1.1-.978c-.32-5.534-1.4-29.477,2.321-51.295,4.24-24.861,22.562-86.763,14.04-135.06C1865.516,170.308,1836.035,169.293,1829.166,152.448Z" transform="translate(-1826.036 -152)" fill="#e01650"/>
      <path id="Trazado_150618" data-name="Trazado 150618" d="M1880.969,245.225a60.677,60.677,0,0,1,4.555,4.012c1.461,1.4,2.867,2.856,4.231,4.352s2.672,3.042,3.961,4.606c.641.785,1.248,1.6,1.874,2.392s1.208,1.627,1.813,2.441a108.151,108.151,0,0,1,6.514,10.269l.744,1.327.706,1.348c.46.9.957,1.789,1.381,2.712l1.312,2.747,1.214,2.792c.207.463.394.935.575,1.409l.552,1.419.552,1.419.5,1.438c.323.962.682,1.912.974,2.884l.875,2.916c.153.484.268.979.393,1.47l.371,1.476.37,1.476c.115.494.207.993.312,1.49.2.995.413,1.987.6,2.983l.467,3.007c.173,1,.267,2.01.372,3.018l.159,1.512c.05.5.117,1.007.135,1.514.108,2.024.252,4.046.21,6.072a88.555,88.555,0,0,1-.777,12.1.293.293,0,0,1-.584-.058v-.008a96.159,96.159,0,0,0-.963-23.923l-.526-2.947c-.206-.976-.433-1.948-.648-2.922-.112-.486-.211-.975-.333-1.458l-.391-1.444-.391-1.444c-.131-.481-.253-.965-.413-1.438a104.862,104.862,0,0,0-4.078-11.244,120.16,120.16,0,0,0-11.642-20.884c-.574-.817-1.136-1.643-1.721-2.454s-1.175-1.617-1.781-2.411q-1.8-2.4-3.7-4.722c-2.531-3.1-5.188-6.112-8.02-8.95l-.005-.005a.192.192,0,0,1,.254-.286Z" transform="translate(-1870.254 -227.434)" fill="#ff93b2"/>
    </g>
    <g id="Grupo_107130" data-name="Grupo 107130" transform="translate(214.694 161.636)">
      <path id="Trazado_150619" data-name="Trazado 150619" d="M481.46,326.39s9.494-72.364-9.336-120.964a4.424,4.424,0,0,0-7.7-1.023C450.616,223.329,415.178,283.186,481.46,326.39Z" transform="translate(-442.533 -202.588)" fill="#8f52f5"/>
      <path id="Trazado_150620" data-name="Trazado 150620" d="M555.251,405.2a.193.193,0,0,1-.338.185c-4.811-7.534-21.426-41.883-12.447-94.348a.135.135,0,0,1,.268.03C541.688,323.624,539.139,370.414,555.251,405.2Z" transform="translate(-521.311 -290.289)" fill="#d2b7ff"/>
    </g>
    <g id="Grupo_107131" data-name="Grupo 107131" transform="translate(510.776 234.439)">
      <path id="Trazado_150621" data-name="Trazado 150621" d="M1998.624,751.907a1.115,1.115,0,0,1-.918-.985c-.546-5.341-3.116-34.884,5.026-50.569,8.974-17.287,23.45-33.373,16.378-74.558-4.007-23.332-1.492-36.052-.217-40.463a.75.75,0,0,1,1.4-.113c3.674,7.871,19,41.02,21.394,51.276,2.719,11.668,4.516,34.365-13.868,44.735-18.1,10.207-34.434,36.129-27.9,69.366a1.117,1.117,0,0,1-1.292,1.311Z" transform="translate(-1996.89 -584.786)" fill="#a7f"/>
      <path id="Trazado_150622" data-name="Trazado 150622" d="M2017.319,1179.354a1.338,1.338,0,0,1-1.078-1.038c-1.01-4.739-4.85-27.451,10.695-41.382,16.212-14.528,28.054-15.488,31.22-24.587a.579.579,0,0,1,1.115.052c1.812,8.155,6.287,36.337-15.273,47.2-21.394,10.78-24.76,15.728-25.118,18.62a1.332,1.332,0,0,1-1.561,1.134Z" transform="translate(-2011.617 -1011.532)" fill="#e01650"/>
      <path id="Trazado_150623" data-name="Trazado 150623" d="M2065.494,1153.371a25.13,25.13,0,0,1-1.528,4.337,31.417,31.417,0,0,1-2.207,4.049,30.081,30.081,0,0,1-2.789,3.7,29.513,29.513,0,0,1-7.151,5.938,32.079,32.079,0,0,1-4.209,2.035l-1.1.409-1.043.379c-.348.119-.687.261-1.025.4s-.682.273-1.011.436a26.634,26.634,0,0,0-3.84,2.124,27.393,27.393,0,0,0-10.587,13.7,42.654,42.654,0,0,0-2.177,8.651c-.215,1.482-.367,2.975-.467,4.475-.083,1.5-.135,3.006-.14,4.515v0a.243.243,0,0,1-.486.017c-.112-1.515-.187-3.037-.178-4.561s.08-3.05.213-4.575a41.61,41.61,0,0,1,.664-4.55,35.936,35.936,0,0,1,1.188-4.465,29.935,29.935,0,0,1,4.221-8.267,26.462,26.462,0,0,1,6.731-6.466,28.5,28.5,0,0,1,4.083-2.285c.349-.175.713-.315,1.071-.468s.717-.3,1.085-.432l2.123-.773a29.778,29.778,0,0,0,7.638-4.308,32.936,32.936,0,0,0,3.286-2.951,35.92,35.92,0,0,0,2.873-3.387,34.74,34.74,0,0,0,4.378-7.785l0-.012a.2.2,0,0,1,.377.119Z" transform="translate(-2020.099 -1044.866)" fill="#ff93b2"/>
    </g>
    <g id="Grupo_107134" data-name="Grupo 107134" transform="translate(208.94 219.731)">
      <g id="Grupo_107133" data-name="Grupo 107133" transform="translate(14.872 0)">
        <path id="Trazado_150624" data-name="Trazado 150624" d="M786.338,685.5a5.248,5.248,0,0,1-5.235,5.23H497.991a5.248,5.248,0,0,1-5.235-5.23l-2.356-162.7c0-2.877,3.389-8.493,9.6-8.071l276.688-7.159a13.193,13.193,0,0,1,13.538,13.494Z" transform="translate(-490.4 -507.572)" fill="#29063c"/>
        <path id="Trazado_150625" data-name="Trazado 150625" d="M811.948,706.85a4.968,4.968,0,0,1-4.953,4.953H535.6a4.968,4.968,0,0,1-4.953-4.953l-2.223-147.7c.262-8.888,8.054-12.082,12.778-11.894l265.18-7.114a9.272,9.272,0,0,1,9.513,9.488Z" transform="translate(-521.179 -533.938)" fill="#a7f"/>
        <g id="Grupo_107132" data-name="Grupo 107132" transform="translate(10.921 14.22)" opacity="0.52">
          <path id="Trazado_150626" data-name="Trazado 150626" d="M553.156,991.035a.374.374,0,0,1-.373-.368l-.176-11.978a.373.373,0,1,1,.746-.011l.176,11.978a.374.374,0,0,1-.368.379Z" transform="translate(-551.678 -902.862)" fill="#fff"/>
          <path id="Trazado_150627" data-name="Trazado 150627" d="M548.778,641.044a.373.373,0,0,1-.373-.368l-.674-45.876a9.686,9.686,0,0,1,2.8-7.262c3.354-3.213,8.6-3.049,8.825-3.043l84.686-2.273a.378.378,0,0,1,.383.363.374.374,0,0,1-.363.383l-84.707,2.273c-.236-.011-5.18-.161-8.307,2.836a8.964,8.964,0,0,0-2.567,6.719l.674,45.868a.374.374,0,0,1-.368.379Z" transform="translate(-547.731 -582.223)" fill="#fff"/>
        </g>
        <path id="Trazado_150628" data-name="Trazado 150628" d="M600.54,745.819c.284-12.208.178-120.307-.522-129.643s13.84-11.087,36.163-12.138,210.675-5.21,215.525-5.6c10.9-.884,13.157,15.41,12.067,50.782-.819,26.575-2.177,70.352-2.8,90.484a11.109,11.109,0,0,1-11.083,10.767c-45.325.125-219.043.623-230.608.967C605.972,751.831,600.427,750.659,600.54,745.819Z" transform="translate(-579.118 -581.099)" fill="#d2b7ff"/>
      </g>
      <path id="Trazado_150847" data-name="Trazado 150847" d="M7.148,0H326.63a7.148,7.148,0,0,1,0,14.3H7.148a7.148,7.148,0,0,1,0-14.3Z" transform="translate(0 177.17)" fill="#29063c"/>
    </g>
    <g id="Grupo_107138" data-name="Grupo 107138" transform="translate(285.852 188.181)">
      <path id="Trazado_150629" data-name="Trazado 150629" d="M991.708,391.22a16.7,16.7,0,0,0-9.513-14L911.31,343.556a16.722,16.722,0,0,0-14.348,0l-70.885,33.666a16.7,16.7,0,0,0-9.512,14C809.916,494,875.816,531.445,897.419,540.9a16.741,16.741,0,0,0,13.436,0C932.457,531.445,998.357,494,991.708,391.22Z" transform="translate(-816.096 -341.94)" fill="#500c75"/>
      <path id="Trazado_150630" data-name="Trazado 150630" d="M1161.754,382.767a.933.933,0,0,1-.4-1.776l16.749-7.955a.933.933,0,1,1,.8,1.685l-16.749,7.955A.928.928,0,0,1,1161.754,382.767Z" transform="translate(-1095.155 -367.039)" fill="#8f52f5"/>
      <path id="Trazado_150631" data-name="Trazado 150631" d="M842.586,485.067a.933.933,0,0,1-.932-.9c-.224-6.683-.107-13.65.35-20.707a11.855,11.855,0,0,1,6.754-9.93l47.685-22.648a.933.933,0,1,1,.8,1.685l-47.685,22.648a9.99,9.99,0,0,0-5.692,8.365c-.453,7-.57,13.9-.347,20.524a.934.934,0,0,1-.9.964Z" transform="translate(-836.696 -413.865)" fill="#8f52f5"/>
      <g id="Grupo_107137" data-name="Grupo 107137" transform="translate(17.344 17.858)">
        <path id="Trazado_150632" data-name="Trazado 150632" d="M1048.275,471.124a4.175,4.175,0,0,0-2.377-3.558l-66.266-31.472a4.168,4.168,0,0,0-3.576,0l-66.265,31.472a4.175,4.175,0,0,0-2.377,3.558c-1.96,38.339,6.9,70.328,26.34,95.122A117.553,117.553,0,0,0,976.081,600a4.178,4.178,0,0,0,3.527,0,117.555,117.555,0,0,0,42.327-33.759C1041.379,541.452,1050.234,509.463,1048.275,471.124Z" transform="translate(-907.148 -435.69)" fill="#8f52f5"/>
        <g id="Grupo_107136" data-name="Grupo 107136" clip-path="url(#clip-path)">
          <g id="Grupo_107135" data-name="Grupo 107135" transform="translate(-20.413 -20.385)">
            <path id="Trazado_150633" data-name="Trazado 150633" d="M1577.555,1129.948a10.581,10.581,0,0,1-6.452,1.915c-4.357-.463-6.325-7.133-3.934-13,1.708-4.19,7.395-2.425,10.5-1.075a1.484,1.484,0,0,0,2.064-1.376l-.073-15.077,16.982-.082a1.971,1.971,0,0,1,1.764,2.875,19.583,19.583,0,0,0-2.01,5.836c-.7,4.6,4.4,9.172,9.236,8.665a9.527,9.527,0,0,0,8.177-9.959,7.246,7.246,0,0,0-1.683-4.164,1.967,1.967,0,0,1,1.563-3.165l14.843-.072.077,15.949a1.038,1.038,0,0,0,1.705.791c9.1-7.741,18.049,7.67,12.145,11.571-4.524,2.99-9.7.856-12.236-.565a1.04,1.04,0,0,0-1.553.911l.075,15.447-15.354.074a1.968,1.968,0,0,1-1.593-3.152,9.738,9.738,0,0,0,2.148-5.077c.459-5.083-4.393-7.963-8.269-8.94s-9.419,3.461-8.671,8.055a48.142,48.142,0,0,0,1.73,6.842,1.971,1.971,0,0,1-1.882,2.577l-16.981-.022-.07-14.524A1.479,1.479,0,0,0,1577.555,1129.948Z" transform="translate(-1420.199 -954.089)" fill="url(#linear-gradient-2)"/>
            <path id="Trazado_150634" data-name="Trazado 150634" d="M1895.4,1054.724c2.534,1.42,7.712,3.554,12.236.565,5.9-3.9-3.047-19.312-12.145-11.571a1.038,1.038,0,0,1-1.706-.791l-.077-15.949,17.178-.083a1.972,1.972,0,0,0,1.767-2.833,25.135,25.135,0,0,1-2.3-7.012c-.751-5.077,5.041-8.123,9.883-7.484s7.774,6.431,7.3,9.336a12.585,12.585,0,0,1-2.579,4.686,1.974,1.974,0,0,0,1.566,3.186l16.776-.081.075,15.409a1.526,1.526,0,0,0,2.458,1.2c4.217-3.243,9.483-1.848,11.108,2.555,1.962,5.313.533,10.159-5.028,10.912a9.209,9.209,0,0,1-8.484-3.274s.047,9.68.082,16.9l-16.854-.527a1.972,1.972,0,0,0-1.7,3.066,16.16,16.16,0,0,1,2.632,6.453c.751,5.319-3.58,10.179-8.177,10.2s-10.181-4.064-9-10.6a27.175,27.175,0,0,1,1.431-5.287,1.969,1.969,0,0,0-1.846-2.7l-16.075.078-.075-15.447A1.04,1.04,0,0,1,1895.4,1054.724Z" transform="translate(-1685.368 -879.797)" fill="url(#linear-gradient-3)"/>
            <path id="Trazado_150635" data-name="Trazado 150635" d="M1396.752,1059.5c2.648,1.468,6.434,1.691,9.714-5.227,4.732-9.982-4.272-11.962-10.018-9.395a2.21,2.21,0,0,1-3.1-2.017l-.064-13.2,14.222-.069a1.979,1.979,0,0,0,1.827-2.74,16.742,16.742,0,0,1-1.332-5.769c-.268-5.283,4.068-9.328,10.12-8.555s7.529,5.91,6.815,8.422a25.2,25.2,0,0,1-3.108,5.474,1.973,1.973,0,0,0,1.637,3.09l16.27-.079.073,15.077a1.483,1.483,0,0,1-2.064,1.376c-3.11-1.35-8.8-3.115-10.5,1.075-2.391,5.866-.423,12.536,3.934,13a10.582,10.582,0,0,0,6.452-1.915,1.479,1.479,0,0,1,2.255,1.258l.071,14.524-14.78-.019a2.21,2.21,0,0,1-1.812-3.458,9.85,9.85,0,0,0,1.793-4.8c.221-4.356-3.187-8.694-7.544-8.929s-9.905,2.966-9.64,7.8a13.574,13.574,0,0,0,2.57,6.449,2.2,2.2,0,0,1-1.826,3.439l-15.212-.017-.062-12.866A2.219,2.219,0,0,1,1396.752,1059.5Z" transform="translate(-1280.267 -882.185)" fill="#8f52f5"/>
            <path id="Trazado_150636" data-name="Trazado 150636" d="M1370.187,591.677c2.981-2.075,8.289-4.115,12.389,3.345,2.136,3.887-1.161,8.716-6.965,9.288a11.413,11.413,0,0,1-6.405-1.076,1.473,1.473,0,0,0-2.122,1.338l.07,14.343-15.816.077a2.039,2.039,0,0,0-1.748,3.069c5.478,9.373-3.267,13.4-5.462,13.25-2.42-.169-9.927-1.464-9.954-7.029a13.6,13.6,0,0,1,1.529-6.24,2.045,2.045,0,0,0-1.812-3l-13.628.066L1320.2,605.4a2.212,2.212,0,0,0-3.006-2.059,18.7,18.7,0,0,1-8.052,1.353c-5.809-.456-7.3-8.584-3.933-12.759,2.487-3.083,7.128-.887,10.648.834a2.207,2.207,0,0,0,3.155-2.013l-.08-16.594,17.038-.083a1.828,1.828,0,0,0,1.547-2.793,19.392,19.392,0,0,1-2.433-5.429c-.988-4.108,4.321-7.058,8.674-7.311s7.514,2.877,7.781,7.957a7.306,7.306,0,0,1-1.341,4.634A1.826,1.826,0,0,0,1351.71,574l16.087-.078.08,16.539A1.476,1.476,0,0,0,1370.187,591.677Z" transform="translate(-1207.534 -514.748)" fill="#8f52f5"/>
            <path id="Trazado_150637" data-name="Trazado 150637" d="M1639.046,829.7a9.449,9.449,0,0,0,7.781.94c6.765-1.847,6.373-8.015,5.027-11.033-1.133-2.542-7.762-5.486-12.405-2.074a1.479,1.479,0,0,1-2.369-1.169l-.071-14.6,17.122-.083a2.035,2.035,0,0,0,1.817-2.945,16.434,16.434,0,0,1-1.684-5.994c-.512-5.8,4.555-8.581,9.637-8.318,4.407.228,9.937,6.6,5.2,13.531a2.036,2.036,0,0,0,1.7,3.175l15.115-.073.087,17.9c-4.709-5.542-11.547-4.057-14.182,1.52s-.432,10.648,5.619,11.1a8.484,8.484,0,0,0,6.486-2.018,1.039,1.039,0,0,1,1.734.767l.07,14.446-14.843.072a1.967,1.967,0,0,0-1.563,3.165,7.248,7.248,0,0,1,1.683,4.164,9.528,9.528,0,0,1-8.178,9.959c-4.836.507-9.939-4.065-9.236-8.665a19.577,19.577,0,0,1,2.01-5.836,1.971,1.971,0,0,0-1.764-2.875l-16.982.082-.067-13.881A1.475,1.475,0,0,1,1639.046,829.7Z" transform="translate(-1477.389 -697.596)" fill="url(#linear-gradient-4)"/>
            <path id="Trazado_150638" data-name="Trazado 150638" d="M1176.456,593.8c-3.519-1.72-8.161-3.916-10.648-.834-3.367,4.175-1.876,12.3,3.933,12.759a18.7,18.7,0,0,0,8.052-1.353,2.212,2.212,0,0,1,3.006,2.059l.067,13.712-16.828.082a2.04,2.04,0,0,0-1.753,3.06c3.58,6.294,3.084,14.015-7.878,13.241-9.244-.653-7.215-8.522-5.359-12.867a2.036,2.036,0,0,0-1.894-2.823l-15.693.076-.069-14.256a1.906,1.906,0,0,1,2.8-1.694c2.115,1.119,5.054,2.209,7.489,1.384,4.348-1.473,4.306-10.092,1.387-13.268-1.878-2.044-6.2-.551-9.042.774a1.905,1.905,0,0,1-2.711-1.72l-.081-16.7,15.345-.074a1.833,1.833,0,0,0,1.56-2.771,13.124,13.124,0,0,1-1.813-5.937c-.268-5.321,7.709-6.832,11.1-6.838,3.05-.006,9.848,4.278,4.143,12.583a1.833,1.833,0,0,0,1.5,2.884l16.463-.08.08,16.594A2.207,2.207,0,0,1,1176.456,593.8Z" transform="translate(-1068.135 -515.777)" fill="#7f17b7"/>
            <path id="Trazado_150639" data-name="Trazado 150639" d="M1430.368,430.794c-2.617-1.634-6.947-3.429-10.023-.083-4.693,5.1-1.935,12.53,3.513,13.411a8.868,8.868,0,0,0,6.509-1.542,1.481,1.481,0,0,1,2.333,1.2l.063,13.062-16.087.078a1.826,1.826,0,0,1-1.514-2.865,7.306,7.306,0,0,0,1.341-4.634c-.267-5.079-3.427-8.209-7.781-7.957s-9.662,3.2-8.675,7.311a19.4,19.4,0,0,0,2.433,5.429,1.828,1.828,0,0,1-1.547,2.793l-17.038.083-.06-12.339a2.212,2.212,0,0,1,3.321-1.929,8.089,8.089,0,0,0,6.575.671c6.765-1.969,5.759-9.706,1.386-13.556-2.422-2.132-5.638-1.067-8.026.309a2.217,2.217,0,0,1-3.335-1.9l-.069-14.2,16.893-.082a1.572,1.572,0,0,1,1.425,2.259,22.782,22.782,0,0,0-2.32,7.783c-.458,5.325,6.321,6.271,10.677,6.486,3.936.194,10.011-6.331,4.156-14.072a1.575,1.575,0,0,1,1.239-2.532l16.8-.082.076,15.637A1.478,1.478,0,0,1,1430.368,430.794Z" transform="translate(-1272.501 -397.665)" fill="#7f17b7"/>
            <path id="Trazado_150640" data-name="Trazado 150640" d="M860.23,436.311c-3.435-1.6-8.975-1.486-10.693.6-2.405,2.915-3.735,14.645,3.941,14.5a12.186,12.186,0,0,0,6.588-1.816,1.9,1.9,0,0,1,2.954,1.581l.062,12.769-16.51.08a1.829,1.829,0,0,1-1.5-2.9,12.324,12.324,0,0,0,2.376-5.092c.466-3.631-3.909-7.723-8.5-7.459s-9.909,2.225-9.4,7.062a12.46,12.46,0,0,0,2.19,5.583,1.834,1.834,0,0,1-1.49,2.882l-16.283.079-.066-13.548s-12.65,6.747-13.66-1.914c-.92-7.891.256-13,10.383-10.421a2.567,2.567,0,0,0,3.205-2.493l-.065-13.479,16.289-.079a1.571,1.571,0,0,1,1.468,2.162,22.925,22.925,0,0,0-1.61,6.065c-.463,4.357,3.179,7,8.987,7.215,5.263.194,8.31-5.96,4.664-13.218a1.568,1.568,0,0,1,1.371-2.3l17.949-.087.06,12.429A1.934,1.934,0,0,1,860.23,436.311Z" transform="translate(-799.984 -404.291)" fill="#7f17b7"/>
            <path id="Trazado_150641" data-name="Trazado 150641" d="M1117.189,361.246c2.389-1.375,5.605-2.44,8.026-.309,4.374,3.85,5.379,11.587-1.386,13.555a8.088,8.088,0,0,1-6.575-.671,2.212,2.212,0,0,0-3.321,1.929l.06,12.339-16.463.08a1.833,1.833,0,0,1-1.5-2.884c5.7-8.305-1.093-12.589-4.143-12.583-3.387.006-11.364,1.517-11.1,6.838a13.125,13.125,0,0,0,1.813,5.937,1.833,1.833,0,0,1-1.561,2.771l-15.344.074-.062-12.769a1.9,1.9,0,0,0-2.954-1.581,12.186,12.186,0,0,1-6.588,1.816c-7.677.147-6.347-11.582-3.942-14.5,1.718-2.082,7.259-2.194,10.693-.6a1.934,1.934,0,0,0,2.709-1.8l-.06-12.429,16.792-.082a1.574,1.574,0,0,0,1.34-2.388,19.94,19.94,0,0,1-3.051-8.733c-.269-5.563,6.018-6.32,10.856-6.585,4.272-.234,9.339,7.647,5.153,14.1a1.575,1.575,0,0,0,1.314,2.446l15.889-.077.069,14.2A2.217,2.217,0,0,0,1117.189,361.246Z" transform="translate(-1002.598 -328.676)" fill="#8f52f5"/>
            <path id="Trazado_150642" data-name="Trazado 150642" d="M893.154,806.821a17.794,17.794,0,0,1-2.562-6.334c-.5-4.111,4.558-8.006,10.61-7.31a8.5,8.5,0,0,1,5.447,13.492,2.036,2.036,0,0,0,1.716,3.167l15.29-.074.068,14.1a1.91,1.91,0,0,1-3.082,1.511c-5.324-4.031-13.651-4.906-13.21,5.278.395,9.11,7.844,7.384,11.922,5.74a1.908,1.908,0,0,1,2.631,1.755l.069,14.209-15.133.073a1.972,1.972,0,0,1-1.644-3.079,13.88,13.88,0,0,0,2.461-5.393c.466-3.631-2.461-8.456-7.3-8.432s-9.428,1.5-8.916,7.543a18.1,18.1,0,0,0,1.817,6.564,1.975,1.975,0,0,1-1.747,2.872l-16.857.082-.063-12.928a2.558,2.558,0,0,1,3.549-2.38,16.121,16.121,0,0,0,4.324,1.254c3.873.465,6.486-5.128,6.1-9.723-.3-3.618-5.793-7.8-10.587-5.843a2.551,2.551,0,0,1-3.477-2.382L874.531,810l16.889-.082A2.041,2.041,0,0,0,893.154,806.821Z" transform="translate(-860.331 -704.631)" fill="#7f17b7"/>
            <path id="Trazado_150643" data-name="Trazado 150643" d="M894.219,1029.923a18.1,18.1,0,0,1-1.817-6.563c-.513-6.046,4.077-7.52,8.916-7.543s7.765,4.8,7.3,8.432a13.883,13.883,0,0,1-2.461,5.393,1.972,1.972,0,0,0,1.644,3.079l15.133-.073.07,14.479a1.9,1.9,0,0,0,2.873,1.634,12.9,12.9,0,0,1,6.8-1.644c8.226-.04,11.66,9.621,4.9,12.387-4.483,1.834-9.4,1.267-12.21.676a1.9,1.9,0,0,0-2.294,1.877l.074,15.349-14.675.071a2.2,2.2,0,0,1-1.88-3.374,21.65,21.65,0,0,0,2.721-5.469c.711-3.035-2.7-8.569-8.51-8.782s-8.213,2.7-8.669,8.51a10.112,10.112,0,0,0,1.37,5.922,2.206,2.206,0,0,1-1.932,3.275l-15.744.076-.068-14.036a2.561,2.561,0,0,1,3.311-2.464c3.917,1.194,9.967,1.726,10.578-6.068.75-9.557-4.739-9.2-10.36-6.621a2.56,2.56,0,0,1-3.614-2.324l-.064-13.245,16.857-.082A1.975,1.975,0,0,0,894.219,1029.923Z" transform="translate(-861.208 -884.926)" fill="#8f52f5"/>
            <path id="Trazado_150644" data-name="Trazado 150644" d="M891.146,573.731a12.461,12.461,0,0,1-2.19-5.583c-.507-4.836,4.806-6.8,9.4-7.062s8.97,3.827,8.5,7.459a12.322,12.322,0,0,1-2.376,5.092,1.829,1.829,0,0,0,1.5,2.9l16.51-.08.081,16.7a1.905,1.905,0,0,0,2.711,1.72c2.842-1.324,7.163-2.818,9.041-.773,2.919,3.177,2.961,11.8-1.387,13.268-2.435.825-5.374-.265-7.489-1.384a1.906,1.906,0,0,0-2.8,1.694l.069,14.256-15.29.074a2.036,2.036,0,0,1-1.716-3.167,8.5,8.5,0,0,0-5.447-13.492c-6.052-.7-11.114,3.2-10.61,7.31A17.793,17.793,0,0,0,892.217,619a2.041,2.041,0,0,1-1.735,3.1l-16.889.082-.08-16.42a2.559,2.559,0,0,1,3.642-2.339c2.022.961,4.519,4.926,6.429,4.678,3.869-.5,4.785-9.126,4.041-13.765-.567-3.541-6.1-1.752-10.533.283a2.564,2.564,0,0,1-3.644-2.309l-.076-15.612,16.283-.079A1.834,1.834,0,0,0,891.146,573.731Z" transform="translate(-859.393 -516.806)" fill="#8f52f5"/>
            <path id="Trazado_150645" data-name="Trazado 150645" d="M1126.456,1058.87c2.806.59,7.727,1.158,12.21-.676,6.761-2.766,3.327-12.427-4.9-12.387a12.9,12.9,0,0,0-6.8,1.644,1.9,1.9,0,0,1-2.873-1.634l-.07-14.479,16.617-.081a1.979,1.979,0,0,0,1.684-2.989,11.313,11.313,0,0,1-1.648-5.48c-.022-4.6,5.52-9.221,10.6-8.519s8.732,4.479,7.783,8.392a15.321,15.321,0,0,1-2.933,5.31,1.975,1.975,0,0,0,1.553,3.2l17.63-.086.064,13.2a2.21,2.21,0,0,0,3.1,2.017c5.746-2.568,14.75-.588,10.018,9.395-3.279,6.918-7.066,6.695-9.714,5.227a2.219,2.219,0,0,0-3.317,1.932l.062,12.866-16.143-.019a2.2,2.2,0,0,0-1.922,3.283,14.372,14.372,0,0,1,1.911,8.062c-.45,6.944-5.034,9.7-10.113,9.969s-10.427-4.788-9-10.844a21.249,21.249,0,0,1,3.006-6.771,2.2,2.2,0,0,0-1.865-3.4l-17.158.083-.074-15.349A1.9,1.9,0,0,1,1126.456,1058.87Z" transform="translate(-1062.296 -883.617)" fill="#7f17b7"/>
            <path id="Trazado_150646" data-name="Trazado 150646" d="M1395.256,903.918a13.211,13.211,0,0,0,3.96,1.331c8.455,1.354,7.264-9.1,2.889-13.254-2.227-2.117-4.837-1.393-6.862-.172a2.219,2.219,0,0,1-3.385-1.871l-.069-14.228,13.628-.066a2.045,2.045,0,0,1,1.812,3,13.6,13.6,0,0,0-1.529,6.24c.027,5.565,7.533,6.86,9.954,7.029,2.2.153,10.939-3.877,5.462-13.25a2.039,2.039,0,0,1,1.748-3.07l15.816-.077.071,14.6a1.479,1.479,0,0,0,2.369,1.169c4.644-3.413,11.272-.468,12.405,2.074,1.345,3.018,1.738,9.185-5.027,11.033a9.449,9.449,0,0,1-7.781-.94,1.475,1.475,0,0,0-2.258,1.261l.067,13.881-16.27.079a1.973,1.973,0,0,1-1.637-3.09,25.2,25.2,0,0,0,3.108-5.474c.714-2.512-.763-7.649-6.815-8.422s-10.387,3.272-10.12,8.555a16.745,16.745,0,0,0,1.331,5.769,1.979,1.979,0,0,1-1.826,2.74l-14.222.069-.063-12.943A2.216,2.216,0,0,1,1395.256,903.918Z" transform="translate(-1279.06 -771.36)" fill="#7f17b7"/>
          </g>
        </g>
      </g>
    </g>
    <g id="Grupo_107143" data-name="Grupo 107143" transform="translate(395.488 205.03)">
      <g id="Grupo_107139" data-name="Grupo 107139" transform="translate(59.532 108.527)">
        <path id="Trazado_150648" data-name="Trazado 150648" d="M1705.354,1097.929a1.133,1.133,0,0,0,1.145-.866l18.083-95.721a1.057,1.057,0,0,0-.953-1.2,1.156,1.156,0,0,0-1.34.851l-18.083,95.721a1.057,1.057,0,0,0,.953,1.2A1.341,1.341,0,0,0,1705.354,1097.929Z" transform="translate(-1704.19 -1000.131)" fill="#5c379b"/>
        <path id="Trazado_150649" data-name="Trazado 150649" d="M1935.032,1103.218a1.306,1.306,0,0,0,.231-.021,1.048,1.048,0,0,0,.91-1.223l-21.316-94.476a1.162,1.162,0,0,0-1.369-.813,1.048,1.048,0,0,0-.91,1.223l21.316,94.476A1.139,1.139,0,0,0,1935.032,1103.218Z" transform="translate(-1872.864 -1005.419)" fill="#5c379b"/>
        <path id="Trazado_150650" data-name="Trazado 150650" d="M1777.794,1121.848h30.9a1.045,1.045,0,1,0,0-2.077h-30.9a1.045,1.045,0,1,0,0,2.077Z" transform="translate(-1762.833 -1096.981)" fill="#bdd0fb"/>
        <path id="Trazado_150651" data-name="Trazado 150651" d="M1780.915,1121.848h29.78a1.042,1.042,0,1,0,0-2.077h-29.78a1.042,1.042,0,1,0,0,2.077Z" transform="translate(-1765.393 -1096.981)" fill="#5c379b"/>
        <path id="Trazado_150652" data-name="Trazado 150652" d="M1777.794,1212.71h30.9a1.045,1.045,0,1,0,0-2.077h-30.9a1.045,1.045,0,1,0,0,2.077Z" transform="translate(-1762.833 -1170.536)" fill="#bdd0fb"/>
        <path id="Trazado_150653" data-name="Trazado 150653" d="M1763.065,1212.71h37.463a1.045,1.045,0,1,0,0-2.077h-37.463a1.045,1.045,0,1,0,0,2.077Z" transform="translate(-1750.909 -1170.536)" fill="#5c379b"/>
        <path id="Trazado_150654" data-name="Trazado 150654" d="M1777.794,1303.571h30.9a1.045,1.045,0,1,0,0-2.077h-30.9a1.045,1.045,0,1,0,0,2.077Z" transform="translate(-1762.833 -1244.089)" fill="#bdd0fb"/>
        <path id="Trazado_150655" data-name="Trazado 150655" d="M1744.28,1303.571h44.844a1.045,1.045,0,1,0,0-2.077H1744.28a1.045,1.045,0,1,0,0,2.077Z" transform="translate(-1735.702 -1244.089)" fill="#5c379b"/>
        <path id="Trazado_150656" data-name="Trazado 150656" d="M1777.794,1394.432h42.064a1.045,1.045,0,1,0,0-2.077h-42.064a1.045,1.045,0,1,0,0,2.077Z" transform="translate(-1762.833 -1317.642)" fill="#bdd0fb"/>
        <path id="Trazado_150657" data-name="Trazado 150657" d="M1729.084,1394.432h51.343a1.045,1.045,0,1,0,0-2.077h-51.343a1.045,1.045,0,1,0,0,2.077Z" transform="translate(-1723.401 -1317.642)" fill="#5c379b"/>
      </g>
      <g id="Grupo_107141" data-name="Grupo 107141" transform="translate(0 0)">
        <path id="Trazado_150658" data-name="Trazado 150658" d="M1754.9,694.772c10.415-.865,13.137,1.291,13.137,1.291l-5.005,7.9s-10.234-.2-17.567-5.854a17.9,17.9,0,0,0,2.937-4.383A13.788,13.788,0,0,0,1754.9,694.772Z" transform="translate(-1678.069 -643.566)" fill="#e01650"/>
        <path id="Trazado_150659" data-name="Trazado 150659" d="M1707.836,617.654a.319.319,0,0,1,.608-.122l1.329,2.836a2.954,2.954,0,0,1,.236,1.758l-.466,1.651a2.849,2.849,0,0,0,.581,2.267,19.824,19.824,0,0,0,7.524,5.853,17.9,17.9,0,0,1-2.937,4.383,17.962,17.962,0,0,1-6.252-8.681,1.394,1.394,0,0,1-.983-1.385Z" transform="translate(-1647.317 -581.736)" fill="url(#linear-gradient-5)"/>
        <path id="Trazado_150660" data-name="Trazado 150660" d="M1458.414,463.537c2.981-2.074,8.289-4.115,12.389,3.345,2.136,3.887-1.161,8.715-6.965,9.288a11.412,11.412,0,0,1-6.406-1.076,1.473,1.473,0,0,0-2.122,1.338l.07,14.343-15.816.077a2.039,2.039,0,0,0-1.748,3.07c5.478,9.373-3.267,13.4-5.462,13.25-2.42-.169-9.927-1.465-9.954-7.029a13.6,13.6,0,0,1,1.529-6.24,2.045,2.045,0,0,0-1.812-3l-13.627.066-.067-13.712a2.212,2.212,0,0,0-3.006-2.059,18.7,18.7,0,0,1-8.052,1.353c-5.809-.456-7.3-8.584-3.933-12.759,2.487-3.082,7.128-.887,10.648.834a2.206,2.206,0,0,0,3.155-2.012l-.08-16.595,17.038-.083a1.828,1.828,0,0,0,1.547-2.793,19.389,19.389,0,0,1-2.433-5.429c-.988-4.108,4.321-7.058,8.674-7.311s7.514,2.877,7.781,7.957a7.306,7.306,0,0,1-1.341,4.634,1.826,1.826,0,0,0,1.514,2.865l16.087-.078.08,16.539A1.476,1.476,0,0,0,1458.414,463.537Z" transform="translate(-1391.661 -430.392)" fill="#ffb206"/>
        <path id="Trazado_150661" data-name="Trazado 150661" d="M1903.853,1096.914s.754,1.189.944,4.517a.542.542,0,0,1-.538.574h-5.9a.348.348,0,0,1-.331-.458,9.439,9.439,0,0,1,3.722-4.942Z" transform="translate(-1801.559 -969.702)" fill="#29063c"/>
        <path id="Trazado_150662" data-name="Trazado 150662" d="M1918.327,1085.068l-.333,2.8a.526.526,0,0,1-.459.462,4.655,4.655,0,0,1-1.247-.012.864.864,0,0,1-.712-.857v-2.7Z" transform="translate(-1815.777 -960.111)" fill="url(#linear-gradient-6)"/>
        <path id="Trazado_150663" data-name="Trazado 150663" d="M1811.514,1096.606a8.235,8.235,0,0,1,1.1,4.163,1.042,1.042,0,0,1-1.048,1.019h-9.16a.439.439,0,0,1-.252-.8,39.87,39.87,0,0,1,7.6-4.385Z" transform="translate(-1723.813 -969.702)" fill="#29063c"/>
        <path id="Trazado_150664" data-name="Trazado 150664" d="M1845.39,1075.045l-.711,3.455a.713.713,0,0,1-.843.56,2.572,2.572,0,0,1-.805-.337.818.818,0,0,1-.365-.835l.736-4.185Z" transform="translate(-1756.746 -951.162)" fill="url(#linear-gradient-7)"/>
        <path id="Trazado_150665" data-name="Trazado 150665" d="M1856.682,828.6a9.919,9.919,0,0,1,2.94,4.805c.465,2.624-1.319,45.277-1.319,45.277s-2.474.412-3.749-.361c0,0-1.513-27.681-2.662-34.078,0,0-6.03,28.674-7.7,33.855,0,0-2.384.29-3.152-.164,0,0,1.579-37.17,3.564-43.778Z" transform="translate(-1755.439 -752.744)" fill="#5c379b"/>
        <path id="Trazado_150666" data-name="Trazado 150666" d="M1897.2,880.355a.28.28,0,0,1-.271-.351l1.051-4.031a.28.28,0,0,1,.12-.165l2.271-1.456a.28.28,0,1,1,.3.471l-2.178,1.4-1.023,3.926A.28.28,0,0,1,1897.2,880.355Z" transform="translate(-1800.675 -789.748)" fill="#3d095a"/>
        <path id="Trazado_150667" data-name="Trazado 150667" d="M1735.7,695.514c3.667-3.951,10.65-5.736,14.694-6.469a3.709,3.709,0,0,1,4.145,2.352c1.82,4.891,6.768,17.617,7.728,19.8.787,1.794,1.609,3.547,2.131,4.642a1.315,1.315,0,0,1-.614,1.753,96.149,96.149,0,0,1-12,4.219.851.851,0,0,1-1.089-.819,2.661,2.661,0,0,0-.379-1.369l-9.4-15.662c-5.858,6.5-10.988,7.089-14.929,5.667a29.638,29.638,0,0,0,1.3-6.155C1733.1,702.479,1735.7,695.514,1735.7,695.514Z" transform="translate(-1662.296 -639.727)" fill="#e01650"/>
        <path id="Trazado_150668" data-name="Trazado 150668" d="M1682.306,753.388l1.051-1.4c3.4,2.336,6.245,2.89,8.572,2.491a29.638,29.638,0,0,1-1.3,6.155C1685.433,758.76,1682.306,753.388,1682.306,753.388Z" transform="translate(-1626.943 -690.728)" fill="url(#linear-gradient-8)"/>
        <path id="Trazado_150669" data-name="Trazado 150669" d="M1637.878,746.715l-5.919.231-5.45-3.044c.782-.49,5.206.512,5.206.512s4.625-.7,5.876-.7c1.04,0,.891,1.494.811,2-.016.1-.03.166-.03.166Z" transform="translate(-1581.773 -684.03)" fill="url(#linear-gradient-9)"/>
        <path id="Trazado_150670" data-name="Trazado 150670" d="M1804.064,651.21l3.123,7.621s-3.588,2.484-6.476,2.248l-1.559-6.853Z" transform="translate(-1721.532 -609.147)" fill="url(#linear-gradient-10)"/>
        <g id="Grupo_107140" data-name="Grupo 107140" transform="translate(74.258 33.345)">
          <path id="Trazado_150671" data-name="Trazado 150671" d="M1787.637,622.032c-.072.1-2.26,8.005-2.26,8.005l4.54,1.153,3.187-7.183S1788.834,620.336,1787.637,622.032Z" transform="translate(-1784.638 -618.511)" fill="url(#linear-gradient-11)"/>
          <path id="Trazado_150672" data-name="Trazado 150672" d="M1788.254,612.036l-1.381,3.913a.571.571,0,0,1-.072.14c-.187.267-.9,1.135-1.745.353a5.212,5.212,0,0,0-2.132-1.463.579.579,0,0,0-.659.416,25.061,25.061,0,0,0-.763,3.813.578.578,0,0,0,.47.623,18.674,18.674,0,0,0,4.336.361.58.58,0,0,0,.488-.336c.433-.945,1.758-3.813,2.251-4.555.463-.7,1.6-.677,2.072-.635a.569.569,0,0,0,.427-.14,1.5,1.5,0,0,0,.094-2.411.58.58,0,0,1,.013-.836,1.505,1.505,0,0,0,.193-2.237,2.124,2.124,0,0,0-2.535-.607.58.58,0,0,1-.7-.258.459.459,0,0,0-.473-.221.571.571,0,0,1-.609-.585,1.731,1.731,0,0,0-1.337-1.806c-1.983-.617-3.219,1.3-3.342,2.728s2.066,1.977,3.352,1.88c.978-.073,1.7.9,2,1.365A.576.576,0,0,1,1788.254,612.036Z" transform="translate(-1781.498 -605.447)" fill="#12263f"/>
          <path id="Trazado_150673" data-name="Trazado 150673" d="M1818.409,653.514s.32-2.482,1.353-2.6,2.038.727,1.011,2.12C1819.5,654.763,1818.409,653.514,1818.409,653.514Z" transform="translate(-1811.378 -642.241)" fill="url(#linear-gradient-12)"/>
        </g>
      </g>
      <g id="Grupo_107142" data-name="Grupo 107142" transform="translate(29.095 21.199)">
        <path id="Trazado_150674" data-name="Trazado 150674" d="M1556.665,558.332h-2.177v-9.047a6.947,6.947,0,0,1,5.934-6.985l4.451-.564a6.57,6.57,0,0,1,5.288,1.718,7.176,7.176,0,0,1,2.274,5.267v7.9h-2.177v-7.9a4.861,4.861,0,0,0-1.54-3.568,4.45,4.45,0,0,0-3.582-1.164l-4.451.564a4.706,4.706,0,0,0-4.02,4.732Z" transform="translate(-1552.567 -541.684)" fill="#ffde95"/>
        <path id="Trazado_150675" data-name="Trazado 150675" d="M1545.68,613.723l19.085-1.1a1.378,1.378,0,0,1,1.427,1.408v15.766a1.383,1.383,0,0,1-1.353,1.41h-18.626a1.38,1.38,0,0,1-1.352-1.364l-.458-14.664A1.388,1.388,0,0,1,1545.68,613.723Z" transform="translate(-1544.402 -599.107)" fill="#ffde95"/>
        <path id="Trazado_150676" data-name="Trazado 150676" d="M1591.218,642.963l-1.155-3.463a1.2,1.2,0,0,1,.252-1.2,3.348,3.348,0,0,0,.9-2.456,3.145,3.145,0,1,0-6.286.153,3.326,3.326,0,0,0,1.165,2.547,1.2,1.2,0,0,1,.364,1.292l-1.042,3.122a1.162,1.162,0,0,0,1.058,1.552h3.681A1.162,1.162,0,0,0,1591.218,642.963Z" transform="translate(-1577.211 -615.381)" fill="#8f52f5"/>
      </g>
    </g>
    <g id="Grupo_107145" data-name="Grupo 107145" transform="translate(178.422 336.873)">
      <path id="Trazado_150677" data-name="Trazado 150677" d="M260.919,1189.258s-7.978,4.419-8.638,11.9-.055,38.524,15.942,46.165,37.172,5.88,45.278,5.045,12.6-6.344,13.6-10.137,2.625-17.921-5.9-22.479-17.482-11.539-26.431-18.338S270.487,1183.515,260.919,1189.258Z" transform="translate(-252.117 -1175.257)" fill="#e01650"/>
      <path id="Trazado_150678" data-name="Trazado 150678" d="M591.332,1369.652s-2.153.114-2.417,4.544a25.584,25.584,0,0,0,11.737,5.541c.506.08-.708-3.456-.89-3.935C598.893,1373.522,596.158,1372.054,591.332,1369.652Z" transform="translate(-524.76 -1322.58)" fill="#3d095a"/>
      <path id="Trazado_150679" data-name="Trazado 150679" d="M472.552,1270.25H477.1s13.946-15.4,23.093-16.956c0,0,6.367,8.127-.339,23.313a2.217,2.217,0,0,1-3.174,1.046,1.817,1.817,0,0,1-.725-.864l.539-12.966s-11.9,10.4-13.964,12.412S469.948,1277.018,472.552,1270.25Z" transform="translate(-430.229 -1228.387)" fill="#7142c1"/>
      <path id="Trazado_150680" data-name="Trazado 150680" d="M659.023,1494.741a17.081,17.081,0,0,0-9.318-4.078l-1.481.906a16.145,16.145,0,0,0,2.67,2.865,18.645,18.645,0,0,0,6.064,2.439C658.932,1497.135,659.223,1495.943,659.023,1494.741Z" transform="translate(-572.771 -1420.54)" fill="#3d095a"/>
      <path id="Trazado_150681" data-name="Trazado 150681" d="M599.762,1392.235c-1.173.38-1.689,2.042-4.666.943a26.347,26.347,0,0,1-6.122-3.225c-.025.214-.045.438-.06.677,0,0,5.264,5.007,12.009,6.073a.671.671,0,0,0,.725-.9A16.938,16.938,0,0,0,599.762,1392.235Z" transform="translate(-524.76 -1339.013)" fill="#29063c"/>
      <path id="Trazado_150682" data-name="Trazado 150682" d="M671.8,1512.19a15.662,15.662,0,0,0-1.434-1.425c.2,1.2-.09,2.395-2.064,2.132a18.645,18.645,0,0,1-6.064-2.439,13.111,13.111,0,0,0,8.828,3.389A1,1,0,0,0,671.8,1512.19Z" transform="translate(-584.118 -1436.566)" fill="#29063c"/>
      <path id="Trazado_150683" data-name="Trazado 150683" d="M436.332,1359.567l21.278.23s12.151,10.053,14.355,25.383c0,0,.366,1.127-1.831,1.32A42.181,42.181,0,0,1,458,1373.219c-5.874-10.4-17.51-5.719-17.51-5.719-3.823-2.756-9.226-3.318-13.3-4.236Z" transform="translate(-393.843 -1314.416)" fill="#5c379b"/>
      <path id="Trazado_150684" data-name="Trazado 150684" d="M461.837,1269.584s2.291,11.48,13.514,16.021l3.992-.47.942,1.5-9.364.3a25.613,25.613,0,0,1-12.246-11.809C458.535,1274.84,456.2,1270.018,461.837,1269.584Z" transform="translate(-418.845 -1241.574)" fill="url(#linear-gradient-13)"/>
      <path id="Trazado_150685" data-name="Trazado 150685" d="M380.54,1239.726a61.317,61.317,0,0,1-3.164-13.961,30.081,30.081,0,0,1,3.1-2.344.862.862,0,0,0,.336-1.117c-.876-1.814-6.172-8.937-6.568-9.036-2.156-.538-11-4.743-17.227,3.776-2.673,3.656.53,14.911,12.657,26.566l2.5.479Z" transform="translate(-336.32 -1194.763)" fill="#ffb206"/>
      <path id="Trazado_150686" data-name="Trazado 150686" d="M415.2,1293.437s7.237,8.569,16.489,9.822c0,0,2.391-2.18,4.169-1.4s4.216,4.214,4.216,4.214h-11.88s-11.233-.4-16.846-7.208C411.8,1296.48,413.15,1295.056,415.2,1293.437Z" transform="translate(-381.015 -1260.883)" fill="url(#linear-gradient-14)"/>
      <path id="Trazado_150687" data-name="Trazado 150687" d="M402.567,1188.134l-1.583,5.281a.581.581,0,0,0,.226.647,5.9,5.9,0,0,0,5.488.551.861.861,0,0,0,.554-.739l.375-4.6Z" transform="translate(-372.606 -1175.639)" fill="url(#linear-gradient-15)"/>
      <g id="Grupo_107144" data-name="Grupo 107144" transform="translate(25.675 0)">
        <path id="Trazado_150688" data-name="Trazado 150688" d="M413.6,1150.34s-.779,5.475-2.882,7.158-6.2.416-7.584-3.711l2.757-7.057Z" transform="translate(-400.044 -1142.121)" fill="url(#linear-gradient-16)"/>
        <path id="Trazado_150689" data-name="Trazado 150689" d="M392.442,1131.712a.271.271,0,0,0,.352-.217,7.072,7.072,0,0,1,.649-2.187s-.2-.718,1.815.367,5.044,2.679,6.826,1.73c1.738-.926,3.5-5.583-1.095-4.72a.271.271,0,0,1-.323-.284,2.794,2.794,0,0,0-1.8-3.092,2.564,2.564,0,0,0-2.959.679.27.27,0,0,1-.422-.007,3.126,3.126,0,0,0-3.856-1.161c-1.646.725-1.9,1.739-1.875,2.371a.27.27,0,0,1-.385.258,1.626,1.626,0,0,0-2.092.62c-1.074,1.345.461,2.512.921,2.818a.272.272,0,0,1,.123.224c0,.7.113,3.752,1.643,5.474a.273.273,0,0,0,.454-.079l1.178-2.806a.272.272,0,0,1,.334-.154Z" transform="translate(-386.903 -1122.537)" fill="#12263f"/>
        <path id="Trazado_150690" data-name="Trazado 150690" d="M406.724,1164.479s-.719-2.93-1.812-1.978.285,3.044,1.537,3.443Z" transform="translate(-401.16 -1154.734)" fill="url(#linear-gradient-17)"/>
      </g>
      <path id="Trazado_150691" data-name="Trazado 150691" d="M559.013,1280.057l5.334-17.789a1.82,1.82,0,0,1,1.618-1.292l7.2-.492a1.021,1.021,0,0,1,1.033,1.357l-5.963,16.988a1.5,1.5,0,0,1-1.261.992l-7.092.787Z" transform="translate(-500.554 -1234.205)" fill="#500c75"/>
      <path id="Trazado_150692" data-name="Trazado 150692" d="M602.57,1293.379c-.4.8-1.086,1.275-1.536,1.052s-.492-1.056-.094-1.859,1.086-1.275,1.536-1.052S602.968,1292.576,602.57,1293.379Z" transform="translate(-534.273 -1259.287)" fill="#bdd0fb"/>
      <path id="Trazado_150693" data-name="Trazado 150693" d="M496.491,1357.142h-.035l-15.111-.764a.677.677,0,0,1,.068-1.353l15.111.764a.677.677,0,0,1-.034,1.354Z" transform="translate(-437.16 -1310.738)" fill="#500c75"/>
      <path id="Trazado_150694" data-name="Trazado 150694" d="M461.644,1253.138h0a.187.187,0,0,1-.186-.187,31.982,31.982,0,0,0-1.218-7.371.187.187,0,0,1,.358-.1,32.4,32.4,0,0,1,1.232,7.477A.186.186,0,0,1,461.644,1253.138Z" transform="translate(-420.589 -1221.949)" fill="#be860a"/>
      <path id="Trazado_150695" data-name="Trazado 150695" d="M411.831,1262.688a.187.187,0,0,1-.147-.071,37.457,37.457,0,0,1-4.484-7.14.187.187,0,1,1,.347-.137,37.917,37.917,0,0,0,4.43,7.045.187.187,0,0,1-.146.3Z" transform="translate(-377.648 -1229.948)" fill="#be860a"/>
      <path id="Trazado_150696" data-name="Trazado 150696" d="M373.459,1293.481l-.139-.059c-4.8-2.057-7.768-7.787-7.8-7.844a.187.187,0,0,1,.332-.17c.029.056,2.877,5.558,7.474,7.611l.461-.652a.187.187,0,1,1,.3.216Z" transform="translate(-343.904 -1254.3)" fill="#be860a"/>
    </g>
    <g id="Grupo_107148" data-name="Grupo 107148" transform="translate(235.165 286.129)">
      <g id="Grupo_107146" data-name="Grupo 107146">
        <path id="Trazado_150697" data-name="Trazado 150697" d="M550.394,858.171a1.161,1.161,0,0,1,.894-2.02c11.359,1.175,41.456,7.678,62.28,43.244,26.127,44.623,45.982,53.043,63.492,54.067a57.377,57.377,0,0,1-38.46-1.349C587.865,932.1,565.43,871.352,550.394,858.171Z" transform="translate(-550 -856.145)" fill="#e01650"/>
        <path id="Trazado_150698" data-name="Trazado 150698" d="M629.236,910.608a45.551,45.551,0,0,1,6.179,3.838l.741.525.722.548,1.445,1.1q1.413,1.135,2.813,2.291a121.449,121.449,0,0,1,10.394,10.107c3.319,3.522,6.31,7.325,9.286,11.134l2.142,2.923,1.071,1.463.536.731.51.748,4.071,5.974a146.259,146.259,0,0,0,18.084,22.021q5.007,5.087,10.466,9.707c.9.777,1.827,1.524,2.739,2.288s1.858,1.485,2.793,2.22c.946.718,1.887,1.445,2.849,2.139s1.93,1.4,2.88,2.038l.032.021a1.292,1.292,0,0,1-1.418,2.159c-2.093-1.337-4.043-2.738-5.991-4.2-.963-.736-1.925-1.474-2.876-2.225s-1.893-1.514-2.82-2.293c-3.718-3.108-7.268-6.413-10.675-9.857-1.727-1.7-3.356-3.5-4.993-5.282-.809-.9-1.582-1.836-2.375-2.752l-1.182-1.381c-.4-.459-.759-.945-1.14-1.416l-2.261-2.848c-.744-.956-1.439-1.952-2.16-2.926-1.466-1.932-2.777-3.975-4.125-5.991-.682-1.013-1.32-2.009-1.972-3.011l-1.948-3-.487-.751-.512-.733-1.025-1.467-2.05-2.935-2.146-2.863c-.72-.951-1.418-1.92-2.181-2.837l-2.246-2.786c-.742-.935-1.54-1.821-2.308-2.734a119.952,119.952,0,0,0-9.9-10.327q-1.323-1.2-2.664-2.388l-1.372-1.147-.686-.574-.7-.55c-.472-.364-.936-.74-1.415-1.094l-1.446-1.051c-.977-.671-1.967-1.363-2.984-1.929l-.016-.009a.346.346,0,0,1,.323-.612Z" transform="translate(-613.737 -900.204)" fill="#ff93b2"/>
      </g>
      <g id="Grupo_107147" data-name="Grupo 107147" transform="translate(36.261 83.41)">
        <path id="Trazado_150699" data-name="Trazado 150699" d="M740.835,1298.178a.61.61,0,0,1-.1-1.157c5.527-2.345,21.032-7,39.651,4.083,23.361,13.9,34.639,12.734,42.959,8.757a30.165,30.165,0,0,1-18.045,9.149C776.863,1322.688,751.1,1300.425,740.835,1298.178Z" transform="translate(-740.362 -1294.026)" fill="#8f52f5"/>
        <path id="Trazado_150700" data-name="Trazado 150700" d="M789.066,1314.987a45.524,45.524,0,0,1,15.095,2.543c2.451.743,4.819,1.714,7.185,2.685,1.16.534,2.334,1.043,3.482,1.6l3.415,1.7a80.763,80.763,0,0,0,13.819,5.441q3.567,1.064,7.222,1.8,1.821.383,3.656.686c.612.093,1.224.191,1.834.27s1.233.164,1.807.223l.04,0a1.292,1.292,0,0,1-.2,2.575c-1.343-.072-2.6-.211-3.881-.385s-2.542-.383-3.8-.617c-2.522-.484-5.015-1.109-7.478-1.833a71.823,71.823,0,0,1-14.232-5.868c-1.138-.6-2.2-1.193-3.309-1.792s-2.226-1.124-3.338-1.691l-1.694-.791c-.566-.261-1.127-.536-1.7-.771-1.147-.488-2.293-.982-3.457-1.427a62.8,62.8,0,0,0-7.1-2.342l-1.813-.459c-.609-.125-1.217-.28-1.83-.381a28.18,28.18,0,0,0-3.683-.478l-.036,0a.345.345,0,0,1,.006-.69Z" transform="translate(-779.518 -1310.98)" fill="#d2b7ff"/>
      </g>
    </g>
    <g id="Grupo_107149" data-name="Grupo 107149" transform="translate(234.044 287.195)">
      <path id="Trazado_150701" data-name="Trazado 150701" d="M550.89,1268.96l-.352-1.086a.565.565,0,1,1,1.075-.348l0,.005.007.021.328,1.047.007.021a.56.56,0,0,1-1.066.34Z" transform="translate(-549.293 -1189.913)" fill="#ffde95"/>
      <path id="Trazado_150702" data-name="Trazado 150702" d="M546.308,1249.754l-.207-1.123a.583.583,0,0,1,1.146-.211v.005l0,.022.189,1.081,0,.022a.577.577,0,0,1-1.137.2Z" transform="translate(-545.715 -1174.376)" fill="#ffde95"/>
      <path id="Trazado_150703" data-name="Trazado 150703" d="M544.184,1230.134l-.066-1.139a.6.6,0,0,1,1.2-.07v.027l.054,1.1v.022a.6.6,0,0,1-1.188.064Z" transform="translate(-544.117 -1158.523)" fill="#ffde95"/>
      <path id="Trazado_150704" data-name="Trazado 150704" d="M544.128,1210.409l.067-1.138a.618.618,0,0,1,1.234.072v.027l-.074,1.1v.021a.613.613,0,0,1-1.223-.077Z" transform="translate(-544.125 -1142.6)" fill="#ffde95"/>
      <path id="Trazado_150705" data-name="Trazado 150705" d="M546.028,1190.841l.19-1.124a.636.636,0,0,1,1.254.212v.006l0,.02-.194,1.082,0,.02a.63.63,0,0,1-1.242-.216Z" transform="translate(-545.657 -1126.814)" fill="#ffde95"/>
      <path id="Trazado_150706" data-name="Trazado 150706" d="M550.007,1171.646l.3-1.1a.654.654,0,0,1,1.259.349l0,.006-.005.019-.3,1.057-.006.019a.648.648,0,0,1-1.247-.353Z" transform="translate(-548.865 -1111.337)" fill="#ffde95"/>
      <path id="Trazado_150707" data-name="Trazado 150707" d="M555.907,1153l.411-1.062a.671.671,0,1,1,1.252.484l0,.006-.007.018-.406,1.023-.007.018a.666.666,0,0,1-1.24-.485Z" transform="translate(-553.625 -1096.311)" fill="#ffde95"/>
      <path id="Trazado_150708" data-name="Trazado 150708" d="M563.589,1135.054l.509-1.019a.689.689,0,1,1,1.232.616l0,.006-.009.017-.5.979-.009.017a.683.683,0,0,1-1.22-.617Z" transform="translate(-559.822 -1081.858)" fill="#ffde95"/>
      <path id="Trazado_150709" data-name="Trazado 150709" d="M572.939,1117.953l.6-.967a.706.706,0,0,1,1.2.747l0,.006-.01.017-.591.928-.01.017a.7.7,0,0,1-1.187-.747Z" transform="translate(-567.363 -1068.095)" fill="#ffde95"/>
      <path id="Trazado_150710" data-name="Trazado 150710" d="M583.858,1101.839l.692-.908a.724.724,0,1,1,1.152.878l0,.006-.013.016-.675.869-.013.016a.719.719,0,0,1-1.139-.877Z" transform="translate(-576.169 -1055.138)" fill="#ffde95"/>
      <path id="Trazado_150711" data-name="Trazado 150711" d="M596.267,1086.872l.77-.839a.741.741,0,0,1,1.092,1l0,0-.013.014-.751.8-.013.014a.737.737,0,0,1-1.081-1Z" transform="translate(-586.176 -1043.115)" fill="#ffde95"/>
      <path id="Trazado_150712" data-name="Trazado 150712" d="M609.965,1073.075l.836-.771a.751.751,0,0,1,1.019,1.1l0,0-.013.012-.814.743-.013.012a.748.748,0,0,1-1.011-1.1Z" transform="translate(-597.227 -1032.033)" fill="#ffde95"/>
      <path id="Trazado_150713" data-name="Trazado 150713" d="M624.751,1060.423l.892-.7a.761.761,0,1,1,.943,1.195l0,0-.013.011-.869.678-.013.01a.758.758,0,0,1-.936-1.193Z" transform="translate(-609.158 -1021.874)" fill="#ffde95"/>
      <path id="Trazado_150714" data-name="Trazado 150714" d="M640.46,1048.918l.939-.638a.771.771,0,1,1,.866,1.275l0,0-.013.009-.916.615-.013.009a.768.768,0,0,1-.859-1.273Z" transform="translate(-621.836 -1012.639)" fill="#ffde95"/>
      <path id="Trazado_150715" data-name="Trazado 150715" d="M656.947,1038.532l.979-.574a.781.781,0,0,1,.79,1.348l0,0-.013.007-.956.554-.013.008a.778.778,0,0,1-.783-1.344Z" transform="translate(-635.143 -1004.305)" fill="#ffde95"/>
      <path id="Trazado_150716" data-name="Trazado 150716" d="M674.083,1029.228l1.011-.512a.791.791,0,0,1,.715,1.411l0,0-.012.006-.989.494-.013.006a.788.788,0,0,1-.708-1.408Z" transform="translate(-648.977 -996.84)" fill="#ffde95"/>
      <path id="Trazado_150717" data-name="Trazado 150717" d="M691.756,1020.955l1.038-.454a.8.8,0,1,1,.641,1.468l0,0-.012,0-1.017.438-.012.005a.8.8,0,0,1-.635-1.464Z" transform="translate(-663.246 -990.205)" fill="#ffde95"/>
      <path id="Trazado_150718" data-name="Trazado 150718" d="M709.87,1013.665l1.06-.4a.811.811,0,1,1,.57,1.518l0,0-.012,0-1.039.384-.012,0a.808.808,0,0,1-.564-1.514Z" transform="translate(-677.872 -984.361)" fill="#ffde95"/>
      <path id="Trazado_150719" data-name="Trazado 150719" d="M728.341,1007.307l1.077-.345a.821.821,0,1,1,.5,1.563h0l-.011,0-1.057.332-.011,0a.818.818,0,0,1-.495-1.559Z" transform="translate(-692.789 -979.267)" fill="#ffde95"/>
      <path id="Trazado_150720" data-name="Trazado 150720" d="M747.1,1001.834l1.092-.3a.831.831,0,1,1,.433,1.6h0l-.011,0-1.072.284-.011,0a.828.828,0,0,1-.427-1.6Z" transform="translate(-707.943 -974.885)" fill="#ffde95"/>
      <path id="Trazado_150721" data-name="Trazado 150721" d="M766.092,997.194l1.1-.249a.841.841,0,0,1,.371,1.64h0l-.01,0-1.084.239-.01,0a.838.838,0,0,1-.365-1.635Z" transform="translate(-723.28 -971.173)" fill="#ffde95"/>
      <path id="Trazado_150722" data-name="Trazado 150722" d="M785.261,993.321l1.111-.205a.851.851,0,0,1,.309,1.673h0l-.01,0-1.092.2h-.01a.847.847,0,0,1-.3-1.667Z" transform="translate(-738.765 -968.079)" fill="#ffde95"/>
      <path id="Trazado_150723" data-name="Trazado 150723" d="M804.572,990.2l1.117-.162a.86.86,0,1,1,.248,1.7h-.014l-1.1.154h-.01a.857.857,0,0,1-.242-1.7Z" transform="translate(-754.365 -965.589)" fill="#ffde95"/>
      <path id="Trazado_150724" data-name="Trazado 150724" d="M823.992,987.818l1.123-.119a.866.866,0,1,1,.183,1.723h-.011l-1.1.115h-.009a.866.866,0,0,1-.182-1.722Z" transform="translate(-770.053 -963.701)" fill="#ffde95"/>
      <path id="Trazado_150725" data-name="Trazado 150725" d="M843.518,986.153l1.126-.08a.87.87,0,1,1,.123,1.735h-.01l-1.108.077h-.009a.869.869,0,0,1-.122-1.733Z" transform="translate(-785.833 -962.388)" fill="#ffde95"/>
      <path id="Trazado_150726" data-name="Trazado 150726" d="M863.094,985.158l1.128-.042a.873.873,0,1,1,.065,1.745h-.01l-1.11.039h-.009a.872.872,0,0,1-.063-1.743Z" transform="translate(-801.654 -961.614)" fill="#ffde95"/>
      <path id="Trazado_150727" data-name="Trazado 150727" d="M882.695,984.8l1.128-.006a.876.876,0,1,1,.009,1.753h-.01l-1.111,0H882.7a.875.875,0,0,1-.008-1.751Z" transform="translate(-817.496 -961.356)" fill="#ffde95"/>
      <path id="Trazado_150728" data-name="Trazado 150728" d="M902.3,984.935l1.127.029a.88.88,0,1,1-.044,1.759h-.009l-1.112-.03h-.008a.879.879,0,0,1,.046-1.757Z" transform="translate(-833.344 -961.467)" fill="#ffde95"/>
      <path id="Trazado_150729" data-name="Trazado 150729" d="M921.894,985.627l1.125.061a.883.883,0,0,1-.1,1.763h-.009l-1.111-.062H921.8a.882.882,0,0,1,.1-1.761Z" transform="translate(-849.181 -962.027)" fill="#ffde95"/>
      <path id="Trazado_150730" data-name="Trazado 150730" d="M941.458,986.872l1.123.091a.886.886,0,1,1-.144,1.767h-.009l-1.109-.092h-.007a.885.885,0,0,1,.145-1.765Z" transform="translate(-864.996 -963.033)" fill="#ffde95"/>
      <path id="Trazado_150731" data-name="Trazado 150731" d="M960.981,988.639l1.118.12a.89.89,0,0,1-.19,1.769H961.9l-1.1-.121h-.007a.889.889,0,0,1,.191-1.767Z" transform="translate(-880.778 -964.462)" fill="#ffde95"/>
      <path id="Trazado_150732" data-name="Trazado 150732" d="M980.435,990.9l1.116.147a.893.893,0,0,1-.233,1.77h-.008l-1.1-.147H980.2a.892.892,0,0,1,.235-1.768Z" transform="translate(-896.506 -966.287)" fill="#ffde95"/>
      <path id="Trazado_150733" data-name="Trazado 150733" d="M999.848,993.618l1.113.173a.9.9,0,0,1-.275,1.771h-.007l-1.1-.173h-.006a.9.9,0,0,1,.276-1.769Z" transform="translate(-912.202 -968.488)" fill="#ffde95"/>
      <path id="Trazado_150734" data-name="Trazado 150734" d="M1019.195,996.774l1.11.2a.9.9,0,1,1-.314,1.771h-.007l-1.1-.2h-.006a.9.9,0,0,1,.315-1.769Z" transform="translate(-927.845 -971.04)" fill="#ffde95"/>
      <path id="Trazado_150735" data-name="Trazado 150735" d="M1038.474,1000.338l1.1.219a.9.9,0,1,1-.351,1.771h-.007l-1.093-.219h-.005a.9.9,0,0,1,.352-1.769Z" transform="translate(-943.434 -973.922)" fill="#ffde95"/>
      <path id="Trazado_150736" data-name="Trazado 150736" d="M1057.668,1004.28l1.1.24a.906.906,0,1,1-.386,1.77h-.007l-1.089-.239h-.005a.9.9,0,0,1,.387-1.768Z" transform="translate(-958.955 -977.111)" fill="#ffde95"/>
      <path id="Trazado_150737" data-name="Trazado 150737" d="M1076.785,1008.578l1.1.259a.909.909,0,0,1-.419,1.77h-.006l-1.086-.259h0a.908.908,0,0,1,.42-1.767Z" transform="translate(-974.415 -980.587)" fill="#ffde95"/>
      <path id="Trazado_150738" data-name="Trazado 150738" d="M1095.832,1013.209l1.09.278a.913.913,0,1,1-.45,1.769h-.006l-1.081-.277h0a.912.912,0,0,1,.451-1.767Z" transform="translate(-989.818 -984.333)" fill="#ffde95"/>
      <path id="Trazado_150739" data-name="Trazado 150739" d="M1114.8,1018.148l1.085.293a.916.916,0,1,1-.478,1.768h0l-1.078-.293h0a.915.915,0,0,1,.479-1.766Z" transform="translate(-1005.156 -988.328)" fill="#ffde95"/>
      <path id="Trazado_150740" data-name="Trazado 150740" d="M1133.689,1023.334l1.082.3a.919.919,0,0,1-.5,1.77h0l-1.077-.3h0a.918.918,0,0,1,.5-1.768Z" transform="translate(-1020.44 -992.524)" fill="#ffde95"/>
      <path id="Trazado_150741" data-name="Trazado 150741" d="M1152.536,1028.678l1.076.31a.919.919,0,0,1-.508,1.767l-1.076-.307a.921.921,0,1,1,.5-1.771Z" transform="translate(-1035.689 -996.849)" fill="#ffde95"/>
      <path id="Trazado_150742" data-name="Trazado 150742" d="M1171.386,1034.111l1.075.31a.915.915,0,0,1-.5,1.759l-1.078-.307a.916.916,0,0,1,.5-1.762Z" transform="translate(-1050.953 -1001.247)" fill="#ffde95"/>
      <path id="Trazado_150743" data-name="Trazado 150743" d="M1190.239,1039.508l1.076.3h0a.91.91,0,0,1-.493,1.753l-1.08-.3a.912.912,0,1,1,.492-1.756h0Z" transform="translate(-1066.221 -1005.617)" fill="#ffde95"/>
      <path id="Trazado_150744" data-name="Trazado 150744" d="M1209.124,1044.776l1.077.293h0a.906.906,0,0,1-.473,1.75l-1.085-.292a.908.908,0,0,1,.472-1.753h.005Z" transform="translate(-1081.52 -1009.883)" fill="#ffde95"/>
      <path id="Trazado_150745" data-name="Trazado 150745" d="M1228.065,1049.818l1.082.276h0a.9.9,0,0,1-.445,1.748l-1.091-.276a.9.9,0,0,1,.443-1.751h.007Z" transform="translate(-1096.867 -1013.968)" fill="#ffde95"/>
      <path id="Trazado_150746" data-name="Trazado 150746" d="M1247.1,1054.545l1.084.254h.006a.9.9,0,0,1-.407,1.748l-1.1-.254a.9.9,0,0,1,.406-1.751h.008Z" transform="translate(-1112.292 -1017.798)" fill="#ffde95"/>
      <path id="Trazado_150747" data-name="Trazado 150747" d="M1266.211,1058.85l1.089.226h.007a.893.893,0,0,1-.361,1.749l-1.1-.227a.894.894,0,1,1,.36-1.752h.009Z" transform="translate(-1127.785 -1021.287)" fill="#ffde95"/>
      <path id="Trazado_150748" data-name="Trazado 150748" d="M1285.419,1062.636l1.093.193h.009a.889.889,0,0,1-.307,1.751l-1.111-.193a.89.89,0,1,1,.305-1.753h.011Z" transform="translate(-1143.359 -1024.356)" fill="#ffde95"/>
      <path id="Trazado_150749" data-name="Trazado 150749" d="M1304.734,1065.8l1.1.154h.01a.884.884,0,0,1-.244,1.752l-1.119-.154a.886.886,0,0,1,.242-1.755h.012Z" transform="translate(-1159.023 -1026.925)" fill="#ffde95"/>
      <path id="Trazado_150750" data-name="Trazado 150750" d="M1324.153,1068.25l1.1.107h.012a.88.88,0,0,1-.168,1.752l-1.126-.107a.881.881,0,0,1,.167-1.755h.014Z" transform="translate(-1174.775 -1028.908)" fill="#ffde95"/>
      <path id="Trazado_150751" data-name="Trazado 150751" d="M1343.659,1069.831l1.106.056h.013a.876.876,0,0,1-.086,1.749l-1.131-.054a.877.877,0,1,1,.084-1.752h.015Z" transform="translate(-1190.602 -1030.191)" fill="#ffde95"/>
      <path id="Trazado_150752" data-name="Trazado 150752" d="M1363.216,1070.48h1.12a.871.871,0,0,1,0,1.742l-1.133,0a.873.873,0,0,1,0-1.745h.016Z" transform="translate(-1206.472 -1030.718)" fill="#ffde95"/>
      <path id="Trazado_150753" data-name="Trazado 150753" d="M1382.775,1069.87l1.1-.059h.015a.867.867,0,0,1,.094,1.731l-1.132.063a.868.868,0,1,1-.1-1.734h.016Z" transform="translate(-1222.346 -1030.174)" fill="#ffde95"/>
      <path id="Trazado_150754" data-name="Trazado 150754" d="M1402.279,1068.179l1.1-.12.016,0a.858.858,0,0,1,.193,1.705l-1.128.132a.862.862,0,1,1-.2-1.713h.006Z" transform="translate(-1238.177 -1028.752)" fill="#ffde95"/>
      <path id="Trazado_150755" data-name="Trazado 150755" d="M1421.7,1065.324l1.087-.189.016,0a.845.845,0,0,1,.3,1.664l-1.118.2a.849.849,0,0,1-.3-1.67h.006Z" transform="translate(-1253.949 -1026.378)" fill="#ffde95"/>
      <path id="Trazado_150756" data-name="Trazado 150756" d="M1440.9,1061.189l1.07-.264.018,0a.832.832,0,0,1,.4,1.613l-1.1.281a.836.836,0,0,1-.412-1.62h.006Z" transform="translate(-1269.547 -1022.96)" fill="#ffde95"/>
      <path id="Trazado_150757" data-name="Trazado 150757" d="M1459.779,1055.681l1.045-.343.018-.006a.819.819,0,0,1,.516,1.554l-1.079.362a.822.822,0,1,1-.523-1.559l.005,0Z" transform="translate(-1284.886 -1018.422)" fill="#ffde95"/>
      <path id="Trazado_150758" data-name="Trazado 150758" d="M1478.187,1048.721l1.013-.426.019-.008a.805.805,0,0,1,.629,1.482l-1.048.449a.809.809,0,0,1-.638-1.488l.005,0Z" transform="translate(-1299.844 -1012.702)" fill="#ffde95"/>
      <path id="Trazado_150759" data-name="Trazado 150759" d="M1495.982,1040.251l.972-.512.019-.01a.792.792,0,0,1,.743,1.4l-1.006.539a.8.8,0,1,1-.751-1.4l0,0Z" transform="translate(-1314.306 -1005.751)" fill="#ffde95"/>
      <path id="Trazado_150760" data-name="Trazado 150760" d="M1512.993,1030.264c.307-.2.618-.395.92-.6a.779.779,0,0,1,.874,1.29c-.316.217-.636.422-.955.63a.783.783,0,1,1-.858-1.309l0,0Z" transform="translate(-1328.135 -997.57)" fill="#ffde95"/>
      <path id="Trazado_150761" data-name="Trazado 150761" d="M1528.953,1018.584l.848-.693.019-.016a.765.765,0,0,1,.973,1.182l-.881.73a.769.769,0,1,1-.982-1.185l0,0Z" transform="translate(-1341.112 -987.994)" fill="#ffde95"/>
      <path id="Trazado_150762" data-name="Trazado 150762" d="M1543.614,1005.328l.771-.779.017-.017a.752.752,0,0,1,1.073,1.054l-.8.818a.756.756,0,1,1-1.083-1.056l0,0Z" transform="translate(-1353.034 -977.152)" fill="#ffde95"/>
      <path id="Trazado_150763" data-name="Trazado 150763" d="M1556.841,990.665l.688-.855.015-.018a.738.738,0,0,1,1.154.92l-.708.9a.743.743,0,0,1-1.166-.921l0-.005Z" transform="translate(-1363.788 -965.177)" fill="#ffde95"/>
      <path id="Trazado_150764" data-name="Trazado 150764" d="M1568.553,974.8l.6-.92.012-.019a.715.715,0,0,1,1.2.77l-.609.966a.722.722,0,1,1-1.221-.77l0,0Z" transform="translate(-1373.309 -952.241)" fill="#ffde95"/>
      <path id="Trazado_150765" data-name="Trazado 150765" d="M1578.575,957.843l.5-.979.01-.02a.691.691,0,0,1,1.237.616l-.5,1.026a.7.7,0,0,1-1.254-.615l0,0Z" transform="translate(-1381.456 -938.421)" fill="#ffde95"/>
      <path id="Trazado_150766" data-name="Trazado 150766" d="M1586.718,939.948l.382-1.028.008-.022a.668.668,0,0,1,1.254.458l-.385,1.076a.675.675,0,0,1-1.271-.454l0,0Z" transform="translate(-1388.077 -923.849)" fill="#ffde95"/>
      <path id="Trazado_150767" data-name="Trazado 150767" d="M1592.772,921.3l.257-1.065.006-.024a.644.644,0,0,1,1.254.294l-.254,1.115a.651.651,0,1,1-1.27-.289v0Z" transform="translate(-1392.999 -908.676)" fill="#ffde95"/>
      <path id="Trazado_150768" data-name="Trazado 150768" d="M1596.5,902.141l.117-1.088,0-.025a.62.62,0,0,1,1.234.125l-.108,1.14a.628.628,0,0,1-1.25-.118v0Z" transform="translate(-1396.03 -893.095)" fill="#ffde95"/>
      <path id="Trazado_150769" data-name="Trazado 150769" d="M1597.5,882.751l-.036-1.093v-.026a.6.6,0,0,1,1.193-.046l.052,1.144a.6.6,0,0,1-1.207.054v-.033Z" transform="translate(-1396.816 -877.344)" fill="#ffde95"/>
      <path id="Trazado_150770" data-name="Trazado 150770" d="M1595.163,863.516l-.2-1.076,0-.026a.573.573,0,0,1,1.127-.213l.22,1.125a.581.581,0,0,1-1.14.223v0Z" transform="translate(-1394.784 -861.738)" fill="#ffde95"/>
    </g>
    <g id="Grupo_107150" data-name="Grupo 107150" transform="translate(247.638 325.489)">
      <path id="Trazado_150771" data-name="Trazado 150771" d="M615.6,1149.086l.686-.906a.563.563,0,1,1,.9.68l0,0-.011.014-.671.874-.011.014a.56.56,0,0,1-.891-.679Z" transform="translate(-615.482 -1131.73)" fill="#ffde95"/>
      <path id="Trazado_150772" data-name="Trazado 150772" d="M628,1134.159l.775-.832a.576.576,0,0,1,.842.785l0,0-.012.013-.757.8-.012.013a.572.572,0,0,1-.834-.783Z" transform="translate(-625.487 -1119.74)" fill="#ffde95"/>
      <path id="Trazado_150773" data-name="Trazado 150773" d="M641.867,1120.592l.853-.751a.588.588,0,0,1,.777.882l0,0-.013.011-.832.723-.013.011a.584.584,0,0,1-.769-.879Z" transform="translate(-636.681 -1108.852)" fill="#ffde95"/>
      <path id="Trazado_150774" data-name="Trazado 150774" d="M657.013,1108.45l.919-.667a.6.6,0,0,1,.7.971l0,0-.013.01-.9.642-.013.01a.6.6,0,0,1-.7-.967Z" transform="translate(-648.903 -1099.116)" fill="#ffde95"/>
      <path id="Trazado_150775" data-name="Trazado 150775" d="M673.236,1097.757l.974-.583a.612.612,0,1,1,.629,1.05l0,0-.014.008-.951.561-.014.008a.608.608,0,0,1-.622-1.046Z" transform="translate(-661.995 -1090.551)" fill="#ffde95"/>
      <path id="Trazado_150776" data-name="Trazado 150776" d="M690.351,1088.517l1.019-.5a.624.624,0,0,1,.549,1.121l0,0-.014.006-.995.48-.014.007a.62.62,0,0,1-.543-1.116Z" transform="translate(-675.808 -1083.157)" fill="#ffde95"/>
      <path id="Trazado_150777" data-name="Trazado 150777" d="M708.191,1080.713l1.055-.417a.636.636,0,0,1,.468,1.183l0,0-.014.005-1.03.4-.014.005a.632.632,0,0,1-.461-1.178Z" transform="translate(-690.207 -1076.923)" fill="#ffde95"/>
      <path id="Trazado_150778" data-name="Trazado 150778" d="M726.608,1074.33l1.083-.335a.648.648,0,0,1,.382,1.237h0l-.014,0-1.057.321-.014,0a.645.645,0,0,1-.378-1.233Z" transform="translate(-705.072 -1071.834)" fill="#ffde95"/>
      <path id="Trazado_150779" data-name="Trazado 150779" d="M745.494,1069.379l1.105-.253a.652.652,0,1,1,.291,1.27h0l-.014,0-1.078.245-.014,0a.65.65,0,0,1-.289-1.268Z" transform="translate(-720.319 -1067.902)" fill="#ffde95"/>
      <path id="Trazado_150780" data-name="Trazado 150780" d="M764.725,1065.807l1.12-.174a.656.656,0,1,1,.2,1.3h0l-.014,0-1.093.167-.014,0a.655.655,0,0,1-.2-1.294Z" transform="translate(-735.848 -1065.083)" fill="#ffde95"/>
      <path id="Trazado_150781" data-name="Trazado 150781" d="M784.184,1063.61l1.13-.095a.66.66,0,0,1,.11,1.315h-.015l-1.1.09h-.014a.659.659,0,0,1-.109-1.313Z" transform="translate(-751.56 -1063.372)" fill="#ffde95"/>
      <path id="Trazado_150782" data-name="Trazado 150782" d="M803.771,1062.79l1.134-.015a.664.664,0,1,1,.017,1.328h-.016l-1.106.012h-.014a.663.663,0,0,1-.016-1.326Z" transform="translate(-767.375 -1062.775)" fill="#ffde95"/>
      <path id="Trazado_150783" data-name="Trazado 150783" d="M823.392,1063.048l1.131.058a.668.668,0,0,1-.068,1.335h-.014l-1.106-.059h-.012a.667.667,0,0,1,.069-1.332Z" transform="translate(-783.221 -1062.995)" fill="#ffde95"/>
      <path id="Trazado_150784" data-name="Trazado 150784" d="M842.955,1064.46l1.124.125a.672.672,0,1,1-.148,1.337h-.013l-1.1-.124h-.012a.671.671,0,0,1,.149-1.334Z" transform="translate(-799.021 -1064.135)" fill="#ffde95"/>
      <path id="Trazado_150785" data-name="Trazado 150785" d="M862.4,1067.008l1.115.187a.677.677,0,1,1-.224,1.335h0l-.011,0-1.093-.186-.011,0a.675.675,0,0,1,.225-1.332Z" transform="translate(-814.728 -1066.193)" fill="#ffde95"/>
      <path id="Trazado_150786" data-name="Trazado 150786" d="M881.673,1070.615l1.1.245a.681.681,0,1,1-.3,1.329h0l-.01,0-1.082-.243-.01,0a.679.679,0,0,1,.3-1.326Z" transform="translate(-830.298 -1069.108)" fill="#ffde95"/>
      <path id="Trazado_150787" data-name="Trazado 150787" d="M900.735,1075.2l1.089.3a.685.685,0,0,1-.362,1.322h0l-.009,0-1.07-.3-.009,0a.684.684,0,0,1,.363-1.319Z" transform="translate(-845.699 -1072.814)" fill="#ffde95"/>
      <path id="Trazado_150788" data-name="Trazado 150788" d="M919.556,1080.683l1.074.346a.689.689,0,0,1-.423,1.312h0l-.008,0-1.057-.344-.008,0a.688.688,0,0,1,.424-1.309Z" transform="translate(-860.906 -1077.244)" fill="#ffde95"/>
      <path id="Trazado_150789" data-name="Trazado 150789" d="M938.117,1086.981l1.057.39a.693.693,0,1,1-.48,1.3h0l-.008,0-1.041-.387-.008,0a.692.692,0,0,1,.48-1.3Z" transform="translate(-875.906 -1082.335)" fill="#ffde95"/>
      <path id="Trazado_150790" data-name="Trazado 150790" d="M956.4,1094.017l1.043.43a.7.7,0,0,1-.532,1.29h0l-.007,0-1.028-.427-.007,0a.7.7,0,0,1,.533-1.286Z" transform="translate(-890.683 -1088.023)" fill="#ffde95"/>
      <path id="Trazado_150791" data-name="Trazado 150791" d="M974.421,1101.727l1.027.467a.7.7,0,0,1-.58,1.278h0l-.006,0-1.014-.463-.006,0a.7.7,0,0,1,.581-1.275Z" transform="translate(-905.247 -1094.256)" fill="#ffde95"/>
      <path id="Trazado_150792" data-name="Trazado 150792" d="M992.172,1110.043l1.01.5a.706.706,0,0,1-.625,1.266h0l-.006,0-1-.495-.006,0a.7.7,0,0,1,.625-1.263Z" transform="translate(-919.596 -1100.98)" fill="#ffde95"/>
      <path id="Trazado_150793" data-name="Trazado 150793" d="M1009.648,1118.9l1,.528a.71.71,0,0,1-.665,1.255h0l-.005,0-.984-.524-.005,0a.709.709,0,0,1,.665-1.252Z" transform="translate(-933.722 -1108.142)" fill="#ffde95"/>
      <path id="Trazado_150794" data-name="Trazado 150794" d="M1026.869,1128.249l.979.552a.714.714,0,0,1-.7,1.245h0l0,0-.97-.549,0,0a.713.713,0,0,1,.7-1.241Z" transform="translate(-947.645 -1115.702)" fill="#ffde95"/>
      <path id="Trazado_150795" data-name="Trazado 150795" d="M1043.841,1138l.966.573a.718.718,0,0,1-.732,1.236h0l0,0-.958-.57,0,0a.717.717,0,0,1,.733-1.233Z" transform="translate(-961.368 -1123.592)" fill="#ffde95"/>
      <path id="Trazado_150796" data-name="Trazado 150796" d="M1060.612,1148.108l.955.59a.723.723,0,0,1-.759,1.23h0l0,0-.947-.588,0,0a.721.721,0,0,1,.76-1.227Z" transform="translate(-974.93 -1131.766)" fill="#ffde95"/>
      <path id="Trazado_150797" data-name="Trazado 150797" d="M1077.2,1158.5l.945.6a.727.727,0,1,1-.782,1.225h0l0,0-.939-.6,0,0a.725.725,0,0,1,.782-1.222Z" transform="translate(-988.349 -1140.173)" fill="#ffde95"/>
      <path id="Trazado_150798" data-name="Trazado 150798" d="M1093.641,1169.115l.938.615a.731.731,0,1,1-.8,1.223h0l-.933-.614h0a.73.73,0,0,1,.8-1.22Z" transform="translate(-1001.644 -1148.761)" fill="#ffde95"/>
      <path id="Trazado_150799" data-name="Trazado 150799" d="M1109.966,1179.9l.932.623a.734.734,0,1,1-.817,1.219l-.93-.621a.734.734,0,0,1,.813-1.222Z" transform="translate(-1014.85 -1157.491)" fill="#ffde95"/>
      <path id="Trazado_150800" data-name="Trazado 150800" d="M1126.244,1190.84l.928.628a.73.73,0,0,1-.818,1.209l-.928-.625a.731.731,0,1,1,.816-1.213Z" transform="translate(-1028.028 -1166.344)" fill="#ffde95"/>
      <path id="Trazado_150801" data-name="Trazado 150801" d="M1142.49,1201.847l.926.629a.726.726,0,0,1-.814,1.2l-.928-.627a.727.727,0,1,1,.815-1.2Z" transform="translate(-1041.184 -1175.254)" fill="#ffde95"/>
      <path id="Trazado_150802" data-name="Trazado 150802" d="M1158.731,1212.856l.927.627a.722.722,0,0,1-.807,1.2l-.93-.626a.723.723,0,0,1,.808-1.2Z" transform="translate(-1054.336 -1184.167)" fill="#ffde95"/>
      <path id="Trazado_150803" data-name="Trazado 150803" d="M1175,1223.815l.929.622a.718.718,0,0,1-.8,1.195l-.933-.622a.719.719,0,1,1,.8-1.2Z" transform="translate(-1067.515 -1193.04)" fill="#ffde95"/>
      <path id="Trazado_150804" data-name="Trazado 150804" d="M1191.341,1234.667l.934.613h0a.714.714,0,0,1-.782,1.194l-.939-.614a.715.715,0,0,1,.782-1.2h0Z" transform="translate(-1080.751 -1201.828)" fill="#ffde95"/>
      <path id="Trazado_150805" data-name="Trazado 150805" d="M1207.78,1245.354l.941.6,0,0a.71.71,0,0,1-.763,1.2l-.948-.6a.711.711,0,1,1,.763-1.2h0Z" transform="translate(-1094.068 -1210.484)" fill="#ffde95"/>
      <path id="Trazado_150806" data-name="Trazado 150806" d="M1224.376,1255.789l.951.58,0,0a.706.706,0,0,1-.734,1.206l-.961-.584a.707.707,0,0,1,.733-1.208h0Z" transform="translate(-1107.517 -1218.937)" fill="#ffde95"/>
      <path id="Trazado_150807" data-name="Trazado 150807" d="M1241.2,1265.829l.966.553.006,0a.7.7,0,0,1-.7,1.218l-.979-.558a.7.7,0,1,1,.7-1.221h0Z" transform="translate(-1121.158 -1227.072)" fill="#ffde95"/>
      <path id="Trazado_150808" data-name="Trazado 150808" d="M1258.322,1275.357l.983.519.007,0a.7.7,0,0,1-.65,1.234l-1-.524a.7.7,0,0,1,.649-1.237h0Z" transform="translate(-1135.035 -1234.795)" fill="#ffde95"/>
      <path id="Trazado_150809" data-name="Trazado 150809" d="M1275.773,1284.246l1,.477.009,0a.693.693,0,0,1-.594,1.253l-1.021-.483a.695.695,0,1,1,.594-1.256h0Z" transform="translate(-1149.186 -1242.001)" fill="#ffde95"/>
      <path id="Trazado_150810" data-name="Trazado 150810" d="M1293.6,1292.349l1.023.426.01,0a.689.689,0,0,1-.528,1.274l-1.045-.432a.691.691,0,1,1,.528-1.276h0Z" transform="translate(-1163.643 -1248.573)" fill="#ffde95"/>
      <path id="Trazado_150811" data-name="Trazado 150811" d="M1311.815,1299.5l1.045.364.012,0a.685.685,0,0,1-.45,1.295l-1.07-.371a.687.687,0,0,1,.45-1.3h0Z" transform="translate(-1178.425 -1254.374)" fill="#ffde95"/>
      <path id="Trazado_150812" data-name="Trazado 150812" d="M1330.432,1305.514l1.065.292.015,0a.681.681,0,0,1-.359,1.315l-1.095-.3a.683.683,0,1,1,.358-1.317h0Z" transform="translate(-1193.535 -1259.252)" fill="#ffde95"/>
      <path id="Trazado_150813" data-name="Trazado 150813" d="M1349.425,1310.181l1.083.208.016,0a.677.677,0,0,1-.254,1.33l-1.117-.211a.679.679,0,0,1,.253-1.333h0Z" transform="translate(-1208.953 -1263.041)" fill="#ffde95"/>
      <path id="Trazado_150814" data-name="Trazado 150814" d="M1368.724,1313.286l1.1.112.019,0a.673.673,0,0,1-.135,1.34l-1.133-.113a.675.675,0,0,1,.134-1.342h0Z" transform="translate(-1224.626 -1265.563)" fill="#ffde95"/>
      <path id="Trazado_150815" data-name="Trazado 150815" d="M1388.218,1314.625l1.1.005h.02a.669.669,0,0,1-.005,1.338l-1.14,0a.67.67,0,0,1,0-1.341h.022Z" transform="translate(-1240.462 -1266.651)" fill="#ffde95"/>
      <path id="Trazado_150816" data-name="Trazado 150816" d="M1407.77,1313.551l1.091-.109.024,0a.665.665,0,0,1,.133,1.323c-.379.039-.758.082-1.137.116a.666.666,0,0,1-.126-1.327Z" transform="translate(-1256.353 -1265.689)" fill="#ffde95"/>
      <path id="Trazado_150817" data-name="Trazado 150817" d="M1427.075,1310.265l1.071-.235.022-.005a.661.661,0,0,1,.285,1.291l-1.114.247a.662.662,0,0,1-.287-1.293h0Z" transform="translate(-1272.039 -1262.915)" fill="#ffde95"/>
      <path id="Trazado_150818" data-name="Trazado 150818" d="M1445.965,1304.819l1.04-.354.021-.007a.657.657,0,0,1,.424,1.244l-1.08.37a.658.658,0,1,1-.427-1.246h0Z" transform="translate(-1287.392 -1258.393)" fill="#ffde95"/>
      <path id="Trazado_150819" data-name="Trazado 150819" d="M1464.206,1297.366l1-.463.019-.009a.653.653,0,0,1,.552,1.184l-1.032.482a.654.654,0,1,1-.554-1.186h0Z" transform="translate(-1302.215 -1252.249)" fill="#ffde95"/>
      <path id="Trazado_150820" data-name="Trazado 150820" d="M1481.6,1288.061l.944-.564.017-.01a.649.649,0,0,1,.667,1.113l-.977.587a.65.65,0,1,1-.67-1.115h0Z" transform="translate(-1316.349 -1244.608)" fill="#ffde95"/>
      <path id="Trazado_150821" data-name="Trazado 150821" d="M1498.017,1277.068l.885-.656.015-.012a.641.641,0,0,1,.766,1.028l-.912.685a.644.644,0,1,1-.774-1.031l0,0Z" transform="translate(-1329.684 -1235.606)" fill="#ffde95"/>
      <path id="Trazado_150822" data-name="Trazado 150822" d="M1513.318,1264.545l.815-.74.014-.013a.629.629,0,0,1,.849.929l-.838.771a.633.633,0,1,1-.857-.931l0,0Z" transform="translate(-1342.115 -1225.369)" fill="#ffde95"/>
      <path id="Trazado_150823" data-name="Trazado 150823" d="M1527.325,1250.6l.737-.818.012-.014a.618.618,0,0,1,.92.824l-.757.85a.621.621,0,1,1-.928-.826l0,0Z" transform="translate(-1353.493 -1213.983)" fill="#ffde95"/>
      <path id="Trazado_150824" data-name="Trazado 150824" d="M1539.9,1235.352l.652-.889.011-.015a.606.606,0,0,1,.979.713l-.668.923a.609.609,0,0,1-.987-.714l0,0Z" transform="translate(-1363.705 -1201.547)" fill="#ffde95"/>
      <path id="Trazado_150825" data-name="Trazado 150825" d="M1550.886,1218.944l.555-.95.01-.016a.594.594,0,0,1,1.028.6l-.568.987a.6.6,0,0,1-1.036-.6l0,0Z" transform="translate(-1372.631 -1188.176)" fill="#ffde95"/>
      <path id="Trazado_150826" data-name="Trazado 150826" d="M1560.111,1201.529l.449-1,.008-.018a.582.582,0,0,1,1.064.473l-.458,1.041a.586.586,0,1,1-1.072-.473v0Z" transform="translate(-1380.125 -1173.994)" fill="#ffde95"/>
      <path id="Trazado_150827" data-name="Trazado 150827" d="M1567.4,1183.266l.334-1.046.006-.018a.571.571,0,0,1,1.088.344l-.34,1.086a.574.574,0,1,1-1.1-.343v0Z" transform="translate(-1386.05 -1159.131)" fill="#ffde95"/>
      <path id="Trazado_150828" data-name="Trazado 150828" d="M1572.6,1165.4l.167-.84,0-.015a.56.56,0,0,1,1.1.216l-.168.871a.563.563,0,0,1-1.1-.214v0Z" transform="translate(-1390.269 -1144.795)" fill="#ffde95"/>
    </g>
    <g id="Grupo_107156" data-name="Grupo 107156" transform="translate(258.375 154.035)">
      <path id="Trazado_150829" data-name="Trazado 150829" d="M727.56,207.2l-3.109-1.62a15.271,15.271,0,0,0-1.2-4.8l1.984-2.888a.288.288,0,0,0-.006-.334l-2.5-3.381a.289.289,0,0,0-.318-.1l-3.342,1.052a15.27,15.27,0,0,0-4.242-2.547l-.64-3.447a.288.288,0,0,0-.241-.232l-4.159-.622a.288.288,0,0,0-.3.152l-1.62,3.109a15.274,15.274,0,0,0-4.8,1.2l-2.888-1.983a.288.288,0,0,0-.334.006l-3.381,2.5a.288.288,0,0,0-.1.318l1.052,3.342a15.273,15.273,0,0,0-2.547,4.242l-3.447.64a.288.288,0,0,0-.232.241l-.622,4.159a.288.288,0,0,0,.152.3l3.109,1.62a15.271,15.271,0,0,0,1.2,4.8l-1.984,2.888a.288.288,0,0,0,.006.334l2.5,3.381a.288.288,0,0,0,.318.1l3.342-1.052a15.269,15.269,0,0,0,4.242,2.547l.64,3.447a.288.288,0,0,0,.241.232l4.159.622a.288.288,0,0,0,.3-.152l1.62-3.109a15.275,15.275,0,0,0,4.8-1.2l2.888,1.983a.288.288,0,0,0,.334-.006l3.381-2.5a.288.288,0,0,0,.1-.318l-1.052-3.342a15.275,15.275,0,0,0,2.547-4.242l3.447-.64a.288.288,0,0,0,.232-.241l.622-4.159A.288.288,0,0,0,727.56,207.2Z" transform="translate(-686.999 -183.4)" fill="#ffb206"/>
      <g id="Grupo_107151" data-name="Grupo 107151" transform="translate(18.034 19.344)">
        <path id="Trazado_150830" data-name="Trazado 150830" d="M770.628,272.447a4.107,4.107,0,1,1,2.607-7.282h0a4.106,4.106,0,0,1-2.607,7.282Zm.007-7.465a3.359,3.359,0,1,0,2.127.76A3.356,3.356,0,0,0,770.635,264.982Z" transform="translate(-766.527 -264.236)" fill="#be860a"/>
      </g>
      <g id="Grupo_107154" data-name="Grupo 107154" transform="translate(0 0)">
        <g id="Grupo_107152" data-name="Grupo 107152" transform="translate(0 29.867)" opacity="0.64">
          <path id="Trazado_150831" data-name="Trazado 150831" d="M893.229,322.74a.934.934,0,0,1-.859-1.3c.184-.437.356-.886.511-1.336a.933.933,0,0,1,1.764.608c-.168.489-.355.978-.555,1.452A.934.934,0,0,1,893.229,322.74Z" transform="translate(-850.305 -319.479)" fill="#8f52f5"/>
          <path id="Trazado_150832" data-name="Trazado 150832" d="M704.484,360.558a.935.935,0,0,1-.095,0,23.482,23.482,0,0,1-3.1-.525.933.933,0,0,1,.435-1.815,21.617,21.617,0,0,0,2.855.483.933.933,0,0,1-.092,1.861Zm4.9-.039a.933.933,0,0,1-.107-1.86,21.836,21.836,0,0,0,2.848-.527.933.933,0,1,1,.462,1.808,23.708,23.708,0,0,1-3.093.573A1.029,1.029,0,0,1,709.385,360.519Zm-12.5-2.119a.929.929,0,0,1-.409-.095,23.43,23.43,0,0,1-2.728-1.568.933.933,0,0,1,1.037-1.552,21.531,21.531,0,0,0,2.51,1.442.933.933,0,0,1-.41,1.772Zm20.059-.153a.933.933,0,0,1-.422-1.766,21.456,21.456,0,0,0,2.49-1.477.933.933,0,1,1,1.059,1.537,23.344,23.344,0,0,1-2.707,1.606A.93.93,0,0,1,716.948,358.247Zm-26.439-4.5a.929.929,0,0,1-.672-.286,23.406,23.406,0,0,1-2.026-2.408.933.933,0,0,1,1.505-1.1,21.583,21.583,0,0,0,1.864,2.215.933.933,0,0,1-.672,1.581Zm32.747-.25a.933.933,0,0,1-.683-1.569c.31-.333.615-.682.906-1.037.32-.391.631-.8.923-1.209a.933.933,0,1,1,1.522,1.08c-.317.447-.654.888-1,1.312-.316.386-.647.765-.984,1.127A.931.931,0,0,1,723.255,353.5Z" transform="translate(-684.624 -343.612)" fill="#8f52f5"/>
          <path id="Trazado_150833" data-name="Trazado 150833" d="M673.336,324.35a.934.934,0,0,1-.856-.56c-.207-.473-.4-.959-.574-1.444a.933.933,0,1,1,1.756-.632c.161.446.339.893.529,1.328a.934.934,0,0,1-.855,1.307Z" transform="translate(-671.851 -320.789)" fill="#8f52f5"/>
        </g>
        <g id="Grupo_107153" data-name="Grupo 107153" transform="translate(0.586)" opacity="0.64">
          <path id="Trazado_150834" data-name="Trazado 150834" d="M675.861,229.14a.934.934,0,0,1-.852-1.311c.209-.472.437-.943.677-1.4a.933.933,0,1,1,1.652.868c-.221.42-.43.854-.623,1.288A.934.934,0,0,1,675.861,229.14Z" transform="translate(-674.928 -213.882)" fill="#8f52f5"/>
          <path id="Trazado_150835" data-name="Trazado 150835" d="M729.512,174.684a.932.932,0,0,1-.78-.421,21.569,21.569,0,0,0-1.719-2.27.933.933,0,1,1,1.41-1.223,23.315,23.315,0,0,1,1.869,2.468.933.933,0,0,1-.779,1.446Zm-36.129-2.09a.933.933,0,0,1-.715-1.532,23.661,23.661,0,0,1,2.137-2.238.933.933,0,1,1,1.262,1.375,21.85,21.85,0,0,0-1.968,2.061A.931.931,0,0,1,693.383,172.593Zm30.8-3.565a.93.93,0,0,1-.56-.187,21.736,21.736,0,0,0-2.385-1.558.933.933,0,0,1,.915-1.626,23.616,23.616,0,0,1,2.591,1.692.933.933,0,0,1-.561,1.679Zm-24.866-1.447a.933.933,0,0,1-.47-1.74,23.383,23.383,0,0,1,2.773-1.377.933.933,0,0,1,.717,1.723,21.613,21.613,0,0,0-2.551,1.266A.93.93,0,0,1,699.319,167.582Zm17.946-2.075a.94.94,0,0,1-.273-.041,21.57,21.57,0,0,0-2.773-.65.933.933,0,0,1,.306-1.841,23.509,23.509,0,0,1,3.013.707.933.933,0,0,1-.273,1.826Zm-10.661-.613a.933.933,0,0,1-.167-1.851,23.643,23.643,0,0,1,3.074-.355.933.933,0,1,1,.092,1.864,21.832,21.832,0,0,0-2.83.327A.912.912,0,0,1,706.6,164.893Z" transform="translate(-689.112 -162.685)" fill="#8f52f5"/>
          <path id="Trazado_150836" data-name="Trazado 150836" d="M895.112,241.762a.933.933,0,0,1-.891-.658c-.141-.456-.3-.911-.467-1.352a.933.933,0,1,1,1.743-.667c.183.48.354.974.507,1.469a.933.933,0,0,1-.616,1.167A.923.923,0,0,1,895.112,241.762Z" transform="translate(-852.021 -224.046)" fill="#8f52f5"/>
        </g>
      </g>
      <g id="Grupo_107155" data-name="Grupo 107155" transform="translate(11.617 12.927)">
        <path id="Trazado_150837" data-name="Trazado 150837" d="M743.374,251.587a10.52,10.52,0,0,1-10.536-10.492,10.67,10.67,0,0,1,.118-1.58,10.521,10.521,0,0,1,18.863-4.7,10.588,10.588,0,0,1,1.135,1.931.373.373,0,1,1-.68.308,9.838,9.838,0,0,0-1.055-1.794h0a9.774,9.774,0,0,0-17.524,4.368,9.91,9.91,0,0,0-.109,1.467,9.777,9.777,0,0,0,18.8,3.737.373.373,0,1,1,.689.286,10.515,10.515,0,0,1-9.7,6.471Z" transform="translate(-732.838 -230.548)" fill="#be860a"/>
      </g>
    </g>
    <g id="Grupo_107162" data-name="Grupo 107162" transform="translate(297.047 185.168)">
      <g id="Grupo_107157" data-name="Grupo 107157" transform="translate(0 14.223)" opacity="0.64">
        <path id="Trazado_150838" data-name="Trazado 150838" d="M1000.641,440.243a.373.373,0,0,1-.286-.612c.193-.231.38-.472.557-.716a.373.373,0,0,1,.6.438c-.187.259-.385.513-.589.756A.372.372,0,0,1,1000.641,440.243Z" transform="translate(-976.381 -431.527)" fill="#8f52f5"/>
        <path id="Trazado_150839" data-name="Trazado 150839" d="M891.311,426.059a.373.373,0,0,1-.02-.746,13.072,13.072,0,0,0,1.783-.219.373.373,0,1,1,.142.733,13.855,13.855,0,0,1-1.885.232Zm-1.846-.027-.031,0a13.99,13.99,0,0,1-1.876-.285.373.373,0,0,1,.162-.729,13.246,13.246,0,0,0,1.776.27.373.373,0,0,1-.03.745Zm5.466-.674a.373.373,0,0,1-.121-.727,13.143,13.143,0,0,0,1.657-.7.373.373,0,1,1,.335.667,13.925,13.925,0,0,1-1.751.735A.366.366,0,0,1,894.93,425.359Zm-9.064-.126a.369.369,0,0,1-.13-.023,13.923,13.923,0,0,1-1.731-.779.373.373,0,0,1,.352-.658,13.1,13.1,0,0,0,1.638.737.373.373,0,0,1-.13.723Zm12.359-1.53a.373.373,0,0,1-.211-.681,13.314,13.314,0,0,0,1.41-1.114.373.373,0,0,1,.5.553,14.051,14.051,0,0,1-1.489,1.177A.37.37,0,0,1,898.225,423.7Zm-15.609-.209a.372.372,0,0,1-.219-.071,13.745,13.745,0,0,1-1.455-1.219.373.373,0,1,1,.518-.537,13.05,13.05,0,0,0,1.375,1.153.373.373,0,0,1-.22.675Zm-2.654-2.555a.373.373,0,0,1-.293-.142c-.226-.286-.443-.585-.646-.889q-.224-.335-.426-.677a.373.373,0,0,1,.643-.38q.191.324.4.642c.192.288.4.571.612.842a.373.373,0,0,1-.293.6Zm-1.872-3.177a.373.373,0,0,1-.344-.229,13.772,13.772,0,0,1-.611-1.8.373.373,0,1,1,.721-.191,13.123,13.123,0,0,0,.578,1.7.373.373,0,0,1-.344.517Z" transform="translate(-876.693 -412.509)" fill="#8f52f5"/>
        <path id="Trazado_150840" data-name="Trazado 150840" d="M875.319,402.466a.373.373,0,0,1-.37-.328c-.038-.315-.066-.636-.082-.955a.373.373,0,0,1,.354-.392.368.368,0,0,1,.392.354c.016.3.042.606.078.9a.373.373,0,0,1-.326.416Z" transform="translate(-874.867 -400.789)" fill="#8f52f5"/>
      </g>
      <g id="Grupo_107158" data-name="Grupo 107158" transform="translate(3.261 0)" opacity="0.64">
        <path id="Trazado_150841" data-name="Trazado 150841" d="M892.359,348.6a.373.373,0,0,1-.282-.618c.212-.245.431-.481.651-.7a.373.373,0,0,1,.53.526c-.208.21-.416.434-.616.666A.373.373,0,0,1,892.359,348.6Z" transform="translate(-891.986 -343.156)" fill="#8f52f5"/>
        <path id="Trazado_150842" data-name="Trazado 150842" d="M924.322,337.574a.373.373,0,0,1-.365-.3,13.119,13.119,0,0,0-.484-1.7.373.373,0,1,1,.7-.252,13.793,13.793,0,0,1,.511,1.8.373.373,0,0,1-.287.443A.379.379,0,0,1,924.322,337.574Zm-1.225-3.412a.373.373,0,0,1-.331-.2,13.371,13.371,0,0,0-.743-1.253q-.087-.13-.176-.257a.373.373,0,1,1,.61-.43q.095.135.186.272a14.068,14.068,0,0,1,.784,1.324.373.373,0,0,1-.331.545Zm-2.086-2.966a.371.371,0,0,1-.274-.12,13.19,13.19,0,0,0-1.284-1.213.373.373,0,1,1,.474-.576,13.833,13.833,0,0,1,1.358,1.282.373.373,0,0,1-.274.627Zm-18.164-1.521a.373.373,0,0,1-.228-.669c.248-.19.5-.371.749-.538s.528-.341.8-.5a.373.373,0,0,1,.373.647c-.26.15-.516.309-.761.473s-.474.329-.709.509A.372.372,0,0,1,902.848,329.675Zm15.365-.783a.37.37,0,0,1-.2-.056,13.234,13.234,0,0,0-1.562-.826.373.373,0,1,1,.3-.682,13.9,13.9,0,0,1,1.651.872.373.373,0,0,1-.2.691Zm-12.222-1.025a.373.373,0,0,1-.141-.719,13.853,13.853,0,0,1,1.773-.588.373.373,0,0,1,.186.723,13.084,13.084,0,0,0-1.677.556A.37.37,0,0,1,905.991,327.867Zm8.91-.449a.374.374,0,0,1-.105-.015,13.242,13.242,0,0,0-1.725-.383.373.373,0,1,1,.113-.738,13.983,13.983,0,0,1,1.822.4.373.373,0,0,1-.1.732Zm-5.4-.456a.373.373,0,0,1-.043-.744,13.86,13.86,0,0,1,1.866-.093.373.373,0,0,1-.014.747,12.789,12.789,0,0,0-1.764.088A.35.35,0,0,1,909.5,326.962Z" transform="translate(-900.476 -326.122)" fill="#8f52f5"/>
        <path id="Trazado_150843" data-name="Trazado 150843" d="M1016.979,393.509a.373.373,0,0,1-.373-.371c0-.3-.013-.607-.035-.906a.373.373,0,1,1,.744-.055c.024.316.036.638.038.957a.373.373,0,0,1-.371.375Z" transform="translate(-992.838 -379.314)" fill="#8f52f5"/>
      </g>
      <g id="Grupo_107161" data-name="Grupo 107161" transform="translate(3.383 3.548)">
        <path id="Trazado_150844" data-name="Trazado 150844" d="M913.435,356.351a.162.162,0,0,0-.072-.174l-1.674-1.049a8.607,8.607,0,0,0-.457-2.75l1.243-1.533a.163.163,0,0,0,.012-.188l-1.254-2.01a.163.163,0,0,0-.174-.072l-1.924.442a8.609,8.609,0,0,0-2.269-1.62l-.206-1.964a.162.162,0,0,0-.125-.141l-2.308-.535a.162.162,0,0,0-.174.072l-1.049,1.674a8.6,8.6,0,0,0-2.75.457l-1.534-1.243a.162.162,0,0,0-.188-.012l-2.011,1.254a.162.162,0,0,0-.072.174l.442,1.924a8.6,8.6,0,0,0-1.62,2.269l-1.964.206a.162.162,0,0,0-.141.125l-.535,2.308a.162.162,0,0,0,.072.174l1.674,1.049a8.607,8.607,0,0,0,.457,2.75l-1.243,1.534a.162.162,0,0,0-.012.188l1.254,2.01a.162.162,0,0,0,.174.072l1.924-.441a8.6,8.6,0,0,0,2.269,1.62l.206,1.964a.162.162,0,0,0,.125.141l2.308.535a.162.162,0,0,0,.174-.072l1.049-1.674a8.6,8.6,0,0,0,2.75-.457l1.534,1.243a.162.162,0,0,0,.188.011l2.01-1.254a.162.162,0,0,0,.072-.174l-.442-1.924a8.606,8.606,0,0,0,1.62-2.269l1.965-.206a.162.162,0,0,0,.141-.125Z" transform="translate(-892.628 -344.75)" fill="#ffb206"/>
        <g id="Grupo_107159" data-name="Grupo 107159" transform="translate(7.929 7.929)">
          <path id="Trazado_150845" data-name="Trazado 150845" d="M936.728,391.327a2.461,2.461,0,1,1,.05,0Zm0-4.208h-.035a1.731,1.731,0,0,0-1.166,2.977,1.688,1.688,0,0,0,1.233.483,1.73,1.73,0,0,0,1.166-2.977h0A1.719,1.719,0,0,0,936.73,387.12Z" transform="translate(-934.251 -386.373)" fill="#be860a"/>
        </g>
        <g id="Grupo_107160" data-name="Grupo 107160" transform="translate(4.267 4.31)">
          <path id="Trazado_150846" data-name="Trazado 150846" d="M921.129,379.553a6.09,6.09,0,1,1,5.157-9.312h0l0,.007a6.157,6.157,0,0,1,.531,1.076h0l.006.016.024.066a.373.373,0,0,1-.7.253,5.4,5.4,0,0,0-.5-1.024l-.031-.05a5.356,5.356,0,0,0-5.5-2.373h0a5.344,5.344,0,1,0,5.753,7.69.373.373,0,0,1,.665.34,6.088,6.088,0,0,1-5.41,3.309Z" transform="translate(-915.03 -367.375)" fill="#be860a"/>
        </g>
      </g>
    </g>
  </g>
</svg>
