<svg xmlns="http://www.w3.org/2000/svg" width="66.602" height="51.643" viewBox="0 0 66.602 51.643">
  <g id="mesa" transform="translate(0 -56.375)">
    <path id="Trazado_150239" data-name="Trazado 150239" d="M0,0H63.948V9.8H0Z" transform="translate(1.327 57.702)" fill="#ffb206"/>
    <path id="Trazado_150240" data-name="Trazado 150240" d="M0,0H63.948V39.216H0Z" transform="translate(1.327 67.475)" fill="#d2b7ff"/>
    <g id="Grupo_87757" data-name="Grupo 87757" transform="translate(0 56.375)">
      <path id="Trazado_150236" data-name="Trazado 150236" d="M65.275,108.018a1.327,1.327,0,0,0,1.327-1.327V57.7a1.327,1.327,0,0,0-1.327-1.327H1.327A1.327,1.327,0,0,0,0,57.7v48.989a1.327,1.327,0,0,0,1.327,1.327ZM63.948,85.756H50.615V78.606H63.948ZM2.653,78.606H15.987v7.151H2.653Zm45.308-9.773v7.12H34.628v-7.12Zm-15.987,0v7.12H18.641v-7.12ZM18.641,78.606H31.974v7.151H18.641Zm15.987,0H47.961v7.151H34.628Zm15.987-2.653v-7.12H63.948v7.12Zm-34.628-7.12v7.12H2.653v-7.12ZM2.653,88.41H15.987V95.56H2.653Zm15.987,0H31.974V95.56H18.641Zm15.987,0H47.961V95.56H34.628Zm15.987,0H63.948V95.56H50.615ZM2.653,66.148v-7.12H63.948v7.12Zm0,32.066H15.987v7.151H2.653Zm15.987,0H31.974v7.151H18.641Zm15.987,0H47.961v7.151H34.628Zm29.321,7.151H50.615V98.214H63.948Z" transform="translate(0 -56.375)"/>
      <path id="Trazado_150237" data-name="Trazado 150237" d="M200.327,90.278H225.8a1.327,1.327,0,0,0,0-2.653H200.327a1.327,1.327,0,0,0,0,2.653Z" transform="translate(-172.598 -83.479)"/>
      <path id="Trazado_150238" data-name="Trazado 150238" d="M427.327,90.278h2.919a1.327,1.327,0,0,0,0-2.653h-2.919a1.327,1.327,0,0,0,0,2.653Z" transform="translate(-369.481 -83.479)"/>
    </g>
  </g>
</svg>
