<svg xmlns="http://www.w3.org/2000/svg" width="67.605" height="77.632" viewBox="0 0 67.605 77.632">
  <g id="cyber-security" transform="translate(-5 -0.991)">
    <g id="Grupo_87734" data-name="Grupo 87734" transform="translate(6.252 2.492)">
      <g id="Grupo_87727" data-name="Grupo 87727" transform="translate(43.255 16.651)">
        <path id="Trazado_150135" data-name="Trazado 150135" d="M47.373,18.82V16.779h.013L50.2,15.49l5.321,5.321-1.29,2.817A29.872,29.872,0,0,1,59.5,36.322L62.4,37.411v7.512L59.5,46.012a29.872,29.872,0,0,1-5.271,12.695l1.29,2.817L50.2,66.845l-2.817-1.29a29.9,29.9,0,0,1-5.02,2.93V66.206a2.5,2.5,0,0,0-1.815-2.4,25.038,25.038,0,0,0,6.435-40.888A22.136,22.136,0,0,0,47.373,18.82Z" transform="translate(-40.55 -15.49)" fill="#e01650"/>
      </g>
      <g id="Grupo_87728" data-name="Grupo 87728" transform="translate(0 16.651)">
        <path id="Trazado_150136" data-name="Trazado 150136" d="M26.031,66.206v2.279a29.9,29.9,0,0,1-5.02-2.93l-2.817,1.29-5.321-5.321,1.289-2.817A29.872,29.872,0,0,1,8.892,46.012L6,44.923V37.411l2.892-1.089a29.872,29.872,0,0,1,5.271-12.695l-1.289-2.817,5.321-5.321,2.817,1.289h.013V18.82a22.136,22.136,0,0,0,.388,4.094A25.044,25.044,0,0,0,27.834,63.8a2.528,2.528,0,0,0-1.8,2.4Z" transform="translate(-6 -15.49)" fill="#e01650"/>
      </g>
      <g id="Grupo_87729" data-name="Grupo 87729" transform="translate(20.031 64.863)">
        <path id="Trazado_150137" data-name="Trazado 150137" d="M23.8,54.1a2.564,2.564,0,0,1,.7-.1H44.535a2.474,2.474,0,0,1,.689.1,2.5,2.5,0,0,1,1.815,2.4v7.512H22V56.5A2.528,2.528,0,0,1,23.8,54.1Z" transform="translate(-22 -54)" fill="#8f52f5"/>
      </g>
      <g id="Grupo_87730" data-name="Grupo 87730" transform="translate(20.031 33.965)">
        <path id="Trazado_150138" data-name="Trazado 150138" d="M42.031,33.814a20.867,20.867,0,0,1-3.08,1.678,10.591,10.591,0,0,1-1.928.651,11.03,11.03,0,0,1-5.008,0,10.591,10.591,0,0,1-1.928-.651,20.867,20.867,0,0,1-3.08-1.678v6.372a3.761,3.761,0,0,0-3.756-3.756A1.256,1.256,0,0,0,22,37.683V50.841a7.5,7.5,0,0,0,2.2,5.321l.3.3v3.756H44.535V55.21l1.715-3.418a7.647,7.647,0,0,0,.789-3.368V29.32a21.758,21.758,0,0,1-5.008,4.494Z" transform="translate(-22 -29.32)" fill="#f0d0b4"/>
      </g>
      <g id="Grupo_87731" data-name="Grupo 87731" transform="translate(15.023)">
        <path id="Trazado_150139" data-name="Trazado 150139" d="M53.054,20.13v2.041a22.117,22.117,0,0,1-5.008,13.984,21.758,21.758,0,0,1-5.008,4.494,20.867,20.867,0,0,1-3.08,1.678,10.591,10.591,0,0,1-1.928.651,11.03,11.03,0,0,1-5.008,0,10.591,10.591,0,0,1-1.928-.651,20.866,20.866,0,0,1-3.08-1.678A22.111,22.111,0,0,1,18,22.171V5.708h9.252a9.853,9.853,0,0,0,5.5-1.665L35.527,2.19l2.779,1.853a9.853,9.853,0,0,0,5.5,1.665h9.252Z" transform="translate(-18 -2.19)" fill="#ffb206"/>
      </g>
      <g id="Grupo_87732" data-name="Grupo 87732" transform="translate(20.031 6.022)">
        <path id="Trazado_150140" data-name="Trazado 150140" d="M47.039,9.5V20.959A17.035,17.035,0,0,1,36.911,36.533a5.826,5.826,0,0,1-4.782,0A17.035,17.035,0,0,1,22,20.959V9.5h4.244A14.952,14.952,0,0,0,34.519,7a14.952,14.952,0,0,0,8.275,2.5Z" transform="translate(-22 -7)" fill="#d2b7ff"/>
      </g>
      <g id="Grupo_87733" data-name="Grupo 87733" transform="translate(27.543 13.533)">
        <path id="Trazado_150141" data-name="Trazado 150141" d="M33.008,13a5,5,0,0,1,2.5,9.327v5.7H30.5v-5.7A5,5,0,0,1,33.008,13Z" transform="translate(-28 -13)" fill="#500c75"/>
      </g>
    </g>
    <g id="Grupo_87735" data-name="Grupo 87735" transform="translate(5 0.991)">
      <path id="Trazado_150142" data-name="Trazado 150142" d="M29.5,23.241v6.286h7.512V23.241a6.26,6.26,0,1,0-7.512,0ZM33.26,14.5a3.76,3.76,0,0,1,3.756,3.756,3.716,3.716,0,0,1-1.882,3.231l-.622.362v5.171h-2.5V21.853l-.622-.362A3.716,3.716,0,0,1,29.5,18.26,3.76,3.76,0,0,1,33.26,14.5Z" transform="translate(0.543 1.783)"/>
      <path id="Trazado_150143" data-name="Trazado 150143" d="M31.867,37.985a7.156,7.156,0,0,0,5.809,0A18.316,18.316,0,0,0,48.543,21.263V8.555h-5.5a13.625,13.625,0,0,1-7.576-2.294L34.771,5.8l-.695.463A13.618,13.618,0,0,1,26.5,8.555H21V21.263A18.316,18.316,0,0,0,31.867,37.985ZM23.5,11.059h3a16.107,16.107,0,0,0,8.269-2.276,16.107,16.107,0,0,0,8.269,2.276h3v10.2A15.806,15.806,0,0,1,36.658,35.7a4.652,4.652,0,0,1-3.775,0A15.806,15.806,0,0,1,23.5,21.263Z" transform="translate(-0.969 0.22)"/>
      <path id="Trazado_150144" data-name="Trazado 150144" d="M69.565,39.056a31.357,31.357,0,0,0-4.936-11.908l1.345-2.962-6.538-6.538-1.854.844V4.758H47.071a8.628,8.628,0,0,1-4.8-1.452L38.8.991,35.331,3.306a8.624,8.624,0,0,1-4.8,1.452H20.023V18.492l-1.854-.843L11.63,24.188l1.346,2.961A31.341,31.341,0,0,0,8.04,39.058L5,40.2v9.247l3.04,1.142a31.391,31.391,0,0,0,4.936,11.907L11.63,65.453l6.539,6.539,2.962-1.346a31.3,31.3,0,0,0,3.9,2.253v5.723H52.574V72.9a31.3,31.3,0,0,0,3.9-2.253l2.961,1.346,6.538-6.538L64.627,62.49a31.351,31.351,0,0,0,4.936-11.907L72.6,49.442V40.2ZM30.039,43.012a4.956,4.956,0,0,0-2.5-.7,2.506,2.506,0,0,0-2.5,2.5V57.984a8.707,8.707,0,0,0,2.5,6.133v1.644A23.912,23.912,0,0,1,15.016,44.82a23.525,23.525,0,0,1,5.967-15.744A23.344,23.344,0,0,0,30.039,41.6Zm-.67,19.4a6.222,6.222,0,0,1-1.834-4.427V44.82a2.506,2.506,0,0,1,2.5,2.5v9.283l.67.669A6.222,6.222,0,0,1,32.543,61.7v1.9h2.5V61.7a8.707,8.707,0,0,0-2.5-6.133V43.125c.433.227.871.447,1.322.647a12.207,12.207,0,0,0,1.182.453v4.663a5.486,5.486,0,0,0-2.138,1.306l1.771,1.77a3,3,0,0,1,2.137-.885H45.8a3,3,0,0,1,2.137.885l1.771-1.77a5.486,5.486,0,0,0-2.138-1.306V41.6a23.2,23.2,0,0,0,2.5-2.012V55.566a6.294,6.294,0,0,1-.661,2.8l-1.843,3.688V66.1H30.039V63.08ZM45.062,48.576h-2.5v-4.35a12.541,12.541,0,0,0,1.182-.453c.451-.2.889-.421,1.322-.646Zm-5.008,0h-2.5V44.755a12.071,12.071,0,0,0,2.5,0ZM50.07,65.76V62.643l1.579-3.157a8.8,8.8,0,0,0,.925-3.919V36.884a23.344,23.344,0,0,0,4.049-7.808A23.522,23.522,0,0,1,62.589,44.82,23.908,23.908,0,0,1,50.07,65.76ZM22.527,7.262h8.006A11.132,11.132,0,0,0,36.72,5.389L38.8,4l2.083,1.387a11.124,11.124,0,0,0,6.186,1.873h8.006V22.474A20.821,20.821,0,0,1,42.723,41.484a9.687,9.687,0,0,1-7.842,0A20.821,20.821,0,0,1,22.527,22.474ZM22,68.194l-.588-.424-2.694,1.224L14.629,64.91l1.224-2.694-.424-.588a28.844,28.844,0,0,1-5.043-12.164l-.116-.716L7.5,47.71V41.933L10.268,40.9l.116-.716a28.817,28.817,0,0,1,5.043-12.165l.424-.588-1.224-2.694,4.085-4.084,1.311.593v1.233a23.168,23.168,0,0,0,.3,3.682,26.251,26.251,0,0,0,5.44,41.493,3.724,3.724,0,0,0-.734,2.21v.215A28.868,28.868,0,0,1,22,68.194ZM50.07,76.119H27.535v-6.26a1.253,1.253,0,0,1,1.252-1.252H48.818a1.253,1.253,0,0,1,1.252,1.252ZM70.1,47.71l-2.766,1.038-.116.716a28.832,28.832,0,0,1-5.042,12.164l-.423.588,1.223,2.693-4.085,4.085L56.2,67.77l-.588.424a28.87,28.87,0,0,1-3.035,1.88v-.215a3.724,3.724,0,0,0-.734-2.21A26.252,26.252,0,0,0,57.28,26.156a23.168,23.168,0,0,0,.3-3.682V21.241l1.31-.595,4.085,4.085-1.223,2.693.423.588a28.808,28.808,0,0,1,5.042,12.165l.116.716L70.1,41.932Z" transform="translate(-5 -0.991)"/>
    </g>
  </g>
</svg>
