<svg xmlns="http://www.w3.org/2000/svg" xmlns:xlink="http://www.w3.org/1999/xlink" width="260.088" height="245.587" viewBox="0 0 260.088 245.587">
  <defs>
    <linearGradient id="linear-gradient" x1="0.152" y1="0.008" x2="0.761" y2="0.911" gradientUnits="objectBoundingBox">
      <stop offset="0" stop-color="#ff9085"/>
      <stop offset="1" stop-color="#fb6fbb"/>
    </linearGradient>
    <linearGradient id="linear-gradient-2" x1="1.168" y1="3.805" x2="1.074" y2="3.347" xlink:href="#linear-gradient"/>
    <clipPath id="clip-path">
      <path id="Trazado_150507" data-name="Trazado 150507" d="M736.848,643.563c3.269-9.962,6.6-25.17,2.7-42.055-4.473-19.388-14.381-23.267-23.276-43.992-12.7-29.584,1.673-51.013-11.473-60.055-6.411-4.409-16.492-4.413-22.707.014-17.732,12.63-12.871,67.643,15.263,89.111,12.724,9.709,23.828,8.557,33.376,21.121C739.17,618.809,738.508,633.455,736.848,643.563Z" transform="translate(-671.696 -494.154)" fill="url(#linear-gradient)"/>
    </clipPath>
    <clipPath id="clip-path-2">
      <path id="Trazado_150513" data-name="Trazado 150513" d="M458.177,1116.047c1.037-6.272,1.633-16.067-3.472-24.826-8.906-15.282-25.14-10.213-40.678-26.585-12.533-13.2-8.583-23.468-22.47-32.244-2.324-1.469-14.606-9.552-23.74-4.684-5.147,2.744-7.012,8.376-7.362,9.433-5.291,15.98,10.986,41,32.2,52.443,12.189,6.575,16.122,4.426,37.573,12.094A120.7,120.7,0,0,1,458.177,1116.047Z" transform="translate(-359.448 -1026.167)" fill="url(#linear-gradient-2)"/>
    </clipPath>
    <linearGradient id="linear-gradient-3" x1="-3.74" y1="0.18" x2="-4.943" y2="1.752" xlink:href="#linear-gradient"/>
    <linearGradient id="linear-gradient-4" x1="0.422" y1="0.514" x2="0.352" y2="0.835" gradientUnits="objectBoundingBox">
      <stop offset="0" stop-color="#40447e"/>
      <stop offset="0.996" stop-color="#3c3b6b"/>
    </linearGradient>
    <linearGradient id="linear-gradient-5" x1="0.479" y1="0.466" x2="0.369" y2="0.525" xlink:href="#linear-gradient-4"/>
    <linearGradient id="linear-gradient-6" x1="0" y1="0.5" x2="1" y2="0.5" xlink:href="#linear-gradient-4"/>
    <linearGradient id="linear-gradient-9" x1="0.835" y1="-0.203" x2="-0.138" y2="1.782" gradientUnits="objectBoundingBox">
      <stop offset="0.004" stop-color="#e38ddd"/>
      <stop offset="1" stop-color="#9571f6"/>
    </linearGradient>
    <linearGradient id="linear-gradient-10" x1="6.715" y1="-2.317" x2="6.895" y2="2.72" gradientUnits="objectBoundingBox">
      <stop offset="0" stop-color="#311944"/>
      <stop offset="1" stop-color="#a03976"/>
    </linearGradient>
    <linearGradient id="linear-gradient-11" x1="24.095" y1="1.249" x2="23.973" y2="-4.967" gradientUnits="objectBoundingBox">
      <stop offset="0" stop-color="#ffc444"/>
      <stop offset="0.996" stop-color="#f36f56"/>
    </linearGradient>
    <linearGradient id="linear-gradient-12" x1="10.334" y1="-1.424" x2="10.619" y2="1.528" xlink:href="#linear-gradient-10"/>
    <linearGradient id="linear-gradient-13" x1="17.207" y1="1.436" x2="17.121" y2="-2.947" xlink:href="#linear-gradient-11"/>
    <linearGradient id="linear-gradient-14" x1="3.812" y1="0.505" x2="4.886" y2="0.505" gradientUnits="objectBoundingBox">
      <stop offset="0" stop-color="#444b8c"/>
      <stop offset="0.996" stop-color="#3e4177"/>
    </linearGradient>
    <linearGradient id="linear-gradient-15" x1="0" y1="0.5" x2="1" y2="0.5" xlink:href="#linear-gradient-11"/>
    <linearGradient id="linear-gradient-16" x1="0.577" y1="-0.006" x2="-0.84" y2="6.781" xlink:href="#linear-gradient-11"/>
    <linearGradient id="linear-gradient-18" x1="1.087" y1="-0.027" x2="0.798" y2="0.192" xlink:href="#linear-gradient-11"/>
    <linearGradient id="linear-gradient-19" x1="0.201" y1="0.023" x2="1.193" y2="1.294" xlink:href="#linear-gradient-11"/>
    <linearGradient id="linear-gradient-20" y1="0.5" x2="1" y2="0.5" gradientUnits="objectBoundingBox">
      <stop offset="0" stop-color="#311944"/>
      <stop offset="1" stop-color="#893976"/>
    </linearGradient>
  </defs>
  <g id="Grupo_107124" data-name="Grupo 107124" transform="translate(-359.448 -461.342)">
    <path id="Trazado_150501" data-name="Trazado 150501" d="M633.986,493.971a203.544,203.544,0,0,0-54.954-4.49c-16.2,1.036-34.564,3.863-47.6,13.99-6.213,4.826-13.622,13.5-15.654,21.148,0,0-10.7,40.269-32.091,48.9s-36.251,155.9,125.986,141.515c0,0,95.289-3.769,101.026-112.318,1.386-26.222.612-55.05-15.992-76.976-12.724-16.8-30.551-24.273-51.036-29.5Q638.869,495.012,633.986,493.971Z" transform="translate(-101.356 -25.308)" fill="#e01650" opacity="0.101"/>
    <g id="Grupo_107111" data-name="Grupo 107111" transform="translate(359.448 464.273)">
      <g id="Grupo_107105" data-name="Grupo 107105" transform="translate(27.886 0)">
        <g id="Grupo_107104" data-name="Grupo 107104">
          <path id="Trazado_150502" data-name="Trazado 150502" d="M736.848,643.563c3.269-9.962,6.6-25.17,2.7-42.055-4.473-19.388-14.381-23.267-23.276-43.992-12.7-29.584,1.673-51.013-11.473-60.055-6.411-4.409-16.492-4.413-22.707.014-17.732,12.63-12.871,67.643,15.263,89.111,12.724,9.709,23.828,8.557,33.376,21.121C739.17,618.809,738.508,633.455,736.848,643.563Z" transform="translate(-671.696 -494.154)" fill="#8f52f5"/>
          <g id="Grupo_107103" data-name="Grupo 107103" clip-path="url(#clip-path)">
            <g id="Grupo_107102" data-name="Grupo 107102" transform="translate(1.652 -5.303)" style="mix-blend-mode: soft-light;isolation: isolate">
              <path id="Trazado_150503" data-name="Trazado 150503" d="M919.148,564.424a75.649,75.649,0,0,0-4.26-12.237c-4.047-9.032-8.512-14-14.167-20.289a176.2,176.2,0,0,1-12.706-15.43c-9.044-12.481-11.85-16.866-14.365-23.935a69.817,69.817,0,0,1-3.314-32.757,68.075,68.075,0,0,1,8.814-25l.275.163a67.754,67.754,0,0,0-8.773,24.881,69.5,69.5,0,0,0,3.3,32.6c2.5,7.03,5.3,11.4,14.322,23.854a175.891,175.891,0,0,0,12.686,15.4c5.673,6.311,10.153,11.3,14.22,20.372a75.947,75.947,0,0,1,4.278,12.288Z" transform="translate(-853.649 -434.779)" fill="#fff"/>
              <path id="Trazado_150504" data-name="Trazado 150504" d="M707.768,600.679l-.231-.125a36.946,36.946,0,0,1-9.97-8.79,33.768,33.768,0,0,1-6.825-27.386l.315.053a33.454,33.454,0,0,0,6.753,27.124,37.286,37.286,0,0,0,9.65,8.586c.293-10.232,6.852-16.862,12.33-20.632a45.219,45.219,0,0,1,12.05-5.817l.085.308a44.883,44.883,0,0,0-11.962,5.777c-5.461,3.76-12.009,10.394-12.19,20.639Z" transform="translate(-690.195 -552.804)" fill="#fff"/>
              <path id="Trazado_150505" data-name="Trazado 150505" d="M727.136,1010.843a27.656,27.656,0,0,1-17.316-5.791l.2-.252c12.939,10.071,28.316,3.93,29.844,3.28-2.613-10.1-.3-17.555,2.1-22.035a24.37,24.37,0,0,1,5.954-7.411l.192.255a24.047,24.047,0,0,0-5.871,7.321c-2.385,4.447-4.674,11.86-2.035,21.922l.034.13-.122.056A34.659,34.659,0,0,1,727.136,1010.843Z" transform="translate(-708.067 -930.062)" fill="#fff"/>
              <path id="Trazado_150506" data-name="Trazado 150506" d="M890.572,1229.469a41.62,41.62,0,0,1-14.3-2.75l.11-.3c18.164,6.636,27.878-.8,28.881-1.629-4.423-10.348,1.806-27.083,1.87-27.252l.3.113c-.064.168-6.291,16.9-1.829,27.12l.046.1-.085.077C905.5,1225.016,900.452,1229.469,890.572,1229.469Z" transform="translate(-859.655 -1129.417)" fill="#fff"/>
            </g>
          </g>
        </g>
      </g>
      <g id="Grupo_107109" data-name="Grupo 107109" transform="translate(0 47.513)">
        <g id="Grupo_107108" data-name="Grupo 107108">
          <path id="Trazado_150508" data-name="Trazado 150508" d="M458.177,1116.047c1.037-6.272,1.633-16.067-3.472-24.826-8.906-15.282-25.14-10.213-40.678-26.585-12.533-13.2-8.583-23.468-22.47-32.244-2.324-1.469-14.606-9.552-23.74-4.684-5.147,2.744-7.012,8.376-7.362,9.433-5.291,15.98,10.986,41,32.2,52.443,12.189,6.575,16.122,4.426,37.573,12.094A120.7,120.7,0,0,1,458.177,1116.047Z" transform="translate(-359.448 -1026.167)" fill="#e01650"/>
          <g id="Grupo_107107" data-name="Grupo 107107" clip-path="url(#clip-path-2)">
            <g id="Grupo_107106" data-name="Grupo 107106" transform="translate(-4.686 -5.784)" style="mix-blend-mode: soft-light;isolation: isolate">
              <path id="Trazado_150509" data-name="Trazado 150509" d="M561.4,1064.621c-3.1-14.91-8.979-24.92-17.461-29.753-4.138-2.357-7.445-2.732-10.946-3.128-3.825-.433-7.781-.881-13.013-4.045-5.092-3.079-6.913-6.036-9.217-9.779a58.846,58.846,0,0,0-10.314-12.975,62.718,62.718,0,0,0-11.886-9.089c-3.527-2.185-6.312-3.91-9.547-8.149-5.269-6.9-8.023-15.751-8.184-26.294l.319,0c.16,10.473,2.892,19.256,8.119,26.105,3.2,4.191,5.962,5.9,9.461,8.071a63,63,0,0,1,11.94,9.131,59.118,59.118,0,0,1,10.364,13.037c2.283,3.707,4.085,6.635,9.111,9.674,5.172,3.128,9.093,3.572,12.884,4,3.534.4,6.872.778,11.068,3.168,8.565,4.88,14.492,14.962,17.616,29.966Z" transform="translate(-456.201 -961.404)" fill="#fff"/>
              <path id="Trazado_150510" data-name="Trazado 150510" d="M339.524,1051.354a40.834,40.834,0,0,1-24.009-7.761,38.61,38.61,0,0,1-8.542-8.26l.263-.181a38.3,38.3,0,0,0,8.476,8.19,40.518,40.518,0,0,0,24.9,7.68c-.683-2.2-6.371-21.426.987-29.682l.239.212c-7.649,8.583-.927,29.365-.858,29.574l.067.2-.214.007Q340.173,1051.354,339.524,1051.354Z" transform="translate(-306.973 -1015.985)" fill="#fff"/>
              <path id="Trazado_150511" data-name="Trazado 150511" d="M409.356,1249.234a47.844,47.844,0,0,1-24.784-6.783l.164-.274a49.5,49.5,0,0,0,42.694,3.407c-2.955-10.9-.322-26.272-.295-26.427l.314.055c-.027.155-2.669,15.583.325,26.422l.036.132-.125.056a47.636,47.636,0,0,1-13.45,3.178C412.752,1249.143,411.115,1249.234,409.356,1249.234Z" transform="translate(-377.642 -1196.138)" fill="#fff"/>
              <path id="Trazado_150512" data-name="Trazado 150512" d="M751.514,1475.876q-.8,0-1.611-.017l.007-.319a66.6,66.6,0,0,0,24.964-4.062,42.137,42.137,0,0,0,8.643-4.315c-8.184-10.168-4.977-26.764-4.943-26.932l.313.063c-.033.167-3.237,16.762,4.985,26.8l.107.13-.135.1C783.725,1467.411,771.97,1475.876,751.514,1475.876Z" transform="translate(-710.346 -1397.468)" fill="#fff"/>
            </g>
          </g>
        </g>
      </g>
      <g id="Grupo_107110" data-name="Grupo 107110" transform="translate(22.639 91.389)">
        <path id="Trazado_150514" data-name="Trazado 150514" d="M689.247,1558.137a67.714,67.714,0,0,0-16.876-8.857c-13.659-4.842-19.918-1.986-25.7-7.76-5.985-5.977-2.108-11.864-9.274-18.539-.6-.561-8.3-7.543-15.257-4.943-4.869,1.819-6.765,7.35-7.655,9.945-3.453,10.073-1.445,25.421,9.3,32.991,10.188,7.177,23.087,3.757,27.182,2.642,7.184-1.956,8.887-4.757,16.191-6.527A41.672,41.672,0,0,1,689.247,1558.137Z" transform="translate(-612.938 -1517.46)" fill="url(#linear-gradient-3)"/>
      </g>
    </g>
    <g id="Grupo_107118" data-name="Grupo 107118" transform="translate(365.153 488.738)">
      <path id="Trazado_150515" data-name="Trazado 150515" d="M703.376,2927.2l-251.866-2.214v6.55a3.47,3.47,0,0,0,2.586,3.559l71.22,12.9a9.718,9.718,0,0,0,2.555.121l172.767-14.706a3.3,3.3,0,0,0,2.737-3.474Z" transform="translate(-448.993 -2732.361)" fill="url(#linear-gradient-4)"/>
      <g id="Grupo_107112" data-name="Grupo 107112" transform="translate(0 64.422)">
        <path id="Trazado_150516" data-name="Trazado 150516" d="M586.308,1609.249l-157.86,11.983a4.853,4.853,0,0,1-5.122-5.089V1494.926a5.311,5.311,0,0,1,5.122-5.478h157.86c2.327,0,4.209,2.217,4.209,4.952v109.577C590.517,1606.712,588.635,1609.072,586.308,1609.249Z" transform="translate(-423.326 -1489.448)" fill="url(#linear-gradient-5)"/>
        <path id="Trazado_150517" data-name="Trazado 150517" d="M614.492,1609.249l-157.86,11.983a4.853,4.853,0,0,1-5.122-5.089V1494.926a5.311,5.311,0,0,1,5.122-5.478h157.86c2.327,0,4.209,2.217,4.209,4.952v109.577C618.7,1606.712,616.819,1609.072,614.492,1609.249Z" transform="translate(-448.993 -1489.448)" fill="url(#linear-gradient-6)"/>
        <path id="Trazado_150518" data-name="Trazado 150518" d="M679.6,1673.289,532.568,1683.7a3.98,3.98,0,0,1-4.167-4.177V1573.4a4.352,4.352,0,0,1,4.167-4.491l147.03-.654c1.92-.009,3.473,1.808,3.473,4.058v96.66C683.071,1671.219,681.518,1673.153,679.6,1673.289Z" transform="translate(-519.017 -1561.214)" fill="#ff5082"/>
        <path id="Trazado_150519" data-name="Trazado 150519" d="M1418.01,1505.79a1.83,1.83,0,1,1-1.816-2.038A1.945,1.945,0,0,1,1418.01,1505.79Z" transform="translate(-1325.866 -1502.474)" fill="#fff"/>
        <path id="Trazado_150520" data-name="Trazado 150520" d="M576.458,1576c-12.17-7.033-21.739,1.879-30.973-6.914-5.6-5.331-2.85-9.306-9.739-17.272-7.63-8.823-12.6-5.857-20.266-13.8-9.7-10.041-4.847-17.853-13.2-25.062-10.132-8.745-21.059-.651-30.7-9.038-4.16-3.618-6.442-8.877-7.634-14.47h-9.437a3.113,3.113,0,0,0-3,3.215v125.651a2.843,2.843,0,0,0,3,2.987l160.886-12.267a2.572,2.572,0,0,0,1.939-1.273c-11.777-.461-19.013-4.7-23.638-9.086C584.646,1590.1,586.215,1581.642,576.458,1576Z" transform="translate(-448.993 -1489.448)" fill="#3d095a" opacity="0.48" style="mix-blend-mode: soft-light;isolation: isolate"/>
      </g>
      <path id="Trazado_150521" data-name="Trazado 150521" d="M620.784,2824.44,451.51,2837.053l73.807,13.366a9.708,9.708,0,0,0,2.555.121l175.5-14.939-79.9-11.076A12.706,12.706,0,0,0,620.784,2824.44Z" transform="translate(-448.993 -2640.761)" fill="url(#linear-gradient-6)"/>
      <path id="Trazado_150522" data-name="Trazado 150522" d="M728.079,2860.907,869,2850.25l43.615,6-139.711,11.392Z" transform="translate(-700.862 -2664.297)" opacity="0.3" fill="url(#linear-gradient-6)" style="mix-blend-mode: multiply;isolation: isolate"/>
      <g id="Grupo_107113" data-name="Grupo 107113" transform="translate(23.191 75.264)" opacity="0.75">
        <path id="Trazado_150523" data-name="Trazado 150523" d="M699.194,1616.027l-16.19.056v-5.239h16.19Z" transform="translate(-683.003 -1610.844)" fill="#fff"/>
        <path id="Trazado_150524" data-name="Trazado 150524" d="M1053.991,1615.731l-74.547.26v-5.147h74.547Z" transform="translate(-952.97 -1610.844)" fill="#fff"/>
        <path id="Trazado_150525" data-name="Trazado 150525" d="M995.072,1713.34l-15.627.148v-5.147l15.627-.093Z" transform="translate(-952.97 -1699.548)" fill="#fff"/>
        <path id="Trazado_150526" data-name="Trazado 150526" d="M1337.656,1707.579l-72.048.681V1703.2l72.048-.429Z" transform="translate(-1213.576 -1694.563)" fill="#fff"/>
        <path id="Trazado_150527" data-name="Trazado 150527" d="M995.072,1810.742l-15.627.241v-5.147l15.627-.186Z" transform="translate(-952.97 -1788.252)" fill="#fff"/>
        <path id="Trazado_150528" data-name="Trazado 150528" d="M1337.656,1799.507l-72.048,1.111v-5.058l72.048-.859Z" transform="translate(-1213.576 -1778.281)" fill="#fff"/>
        <path id="Trazado_150529" data-name="Trazado 150529" d="M699.194,1913.426l-16.19.346v-5.24l16.19-.289Z" transform="translate(-683.003 -1881.683)" fill="#fff"/>
        <path id="Trazado_150530" data-name="Trazado 150530" d="M1053.991,1896.135l-74.547,1.594v-5.147l74.547-1.334Z" transform="translate(-952.97 -1866.206)" fill="#fff"/>
        <path id="Trazado_150531" data-name="Trazado 150531" d="M995.072,2005.547l-15.627.427v-5.147l15.627-.373Z" transform="translate(-952.97 -1965.66)" fill="#fff"/>
        <path id="Trazado_150532" data-name="Trazado 150532" d="M1337.656,1983.364l-72.048,1.97v-5.058l72.048-1.719Z" transform="translate(-1213.576 -1945.718)" fill="#fff"/>
        <path id="Trazado_150533" data-name="Trazado 150533" d="M995.072,2102.95l-15.627.521v-5.147l15.627-.466Z" transform="translate(-952.97 -2054.363)" fill="#fff"/>
        <path id="Trazado_150534" data-name="Trazado 150534" d="M1337.656,2075.292l-72.048,2.4v-5.058l72.048-2.148Z" transform="translate(-1213.576 -2029.436)" fill="#fff"/>
        <path id="Trazado_150535" data-name="Trazado 150535" d="M995.072,2200.352l-15.627.614v-5.147l15.627-.559Z" transform="translate(-952.97 -2143.067)" fill="#fff"/>
        <path id="Trazado_150536" data-name="Trazado 150536" d="M1337.656,2167.22l-72.048,2.83v-5.058l72.048-2.578Z" transform="translate(-1213.576 -2113.155)" fill="#fff"/>
        <path id="Trazado_150537" data-name="Trazado 150537" d="M1283.371,2285.861l-15.088.682v-5.057l15.088-.63Z" transform="translate(-1216.012 -2221.019)" fill="#fff"/>
        <path id="Trazado_150538" data-name="Trazado 150538" d="M1602.736,2253.968l-58.133,2.63v-4.971l58.133-2.427Z" transform="translate(-1467.655 -2192.19)" fill="#fff"/>
        <path id="Trazado_150539" data-name="Trazado 150539" d="M699.194,2409.091l-16.19.829v-5.24l16.19-.773Z" transform="translate(-683.003 -2333.081)" fill="#fff"/>
        <path id="Trazado_150540" data-name="Trazado 150540" d="M1053.991,2363.476l-74.547,3.817v-5.147l74.547-3.557Z" transform="translate(-952.97 -2291.81)" fill="#fff"/>
        <path id="Trazado_150541" data-name="Trazado 150541" d="M995.072,2492.56l-15.627.894v-5.147l15.627-.839Z" transform="translate(-952.97 -2409.178)" fill="#fff"/>
        <path id="Trazado_150542" data-name="Trazado 150542" d="M1337.656,2443.005l-72.048,4.119v-5.058l72.048-3.867Z" transform="translate(-1213.576 -2364.31)" fill="#fff"/>
        <path id="Trazado_150543" data-name="Trazado 150543" d="M995.072,2589.963l-15.627.987V2585.8l15.627-.932Z" transform="translate(-952.97 -2497.882)" fill="#fff"/>
        <path id="Trazado_150544" data-name="Trazado 150544" d="M1337.656,2534.933l-72.048,4.549v-5.058l72.048-4.3Z" transform="translate(-1213.576 -2448.028)" fill="#fff"/>
        <path id="Trazado_150545" data-name="Trazado 150545" d="M699.194,2706.489,683,2707.608v-5.24l16.19-1.062Z" transform="translate(-683.003 -2603.919)" fill="#fff"/>
        <path id="Trazado_150546" data-name="Trazado 150546" d="M1053.991,2643.88l-74.547,5.151v-5.147l74.547-4.89Z" transform="translate(-952.97 -2547.171)" fill="#fff"/>
      </g>
      <g id="Grupo_107117" data-name="Grupo 107117" transform="translate(34.549 0)">
        <path id="Trazado_150547" data-name="Trazado 150547" d="M956.374,772.632,818.568,768.1a8.082,8.082,0,0,0-8.383,8.143V910.559a7.988,7.988,0,0,0,8.383,8.06l137.806-5.884c3.986-.17,7.2-3.788,7.2-8.08V780.641C963.579,776.349,960.36,772.763,956.374,772.632Z" transform="translate(-810.185 -768.099)" fill="url(#linear-gradient-9)"/>
        <path id="Trazado_150548" data-name="Trazado 150548" d="M845.941,943.255a5.437,5.437,0,0,1-5.7-5.487V803.637a5.5,5.5,0,0,1,5.7-5.543l137.806,4.343a5.312,5.312,0,0,1,4.91,5.452V932.056a5.376,5.376,0,0,1-4.91,5.5Z" transform="translate(-837.558 -795.412)" fill="#d2b7ff" opacity="0.74" style="mix-blend-mode: soft-light;isolation: isolate"/>
        <path id="Trazado_150549" data-name="Trazado 150549" d="M956.373,772.632,818.567,768.1a8.082,8.082,0,0,0-8.383,8.143v6.039l153.394,3.932v-5.576C963.578,776.349,960.359,772.763,956.373,772.632Z" transform="translate(-810.184 -768.099)" fill="#500c75"/>
        <path id="Trazado_150550" data-name="Trazado 150550" d="M921.571,826.3a2.637,2.637,0,0,1-2.718,2.659,2.828,2.828,0,0,1-2.725-2.818,2.637,2.637,0,0,1,2.725-2.659A2.829,2.829,0,0,1,921.571,826.3Z" transform="translate(-906.666 -818.537)" fill="#fff"/>
        <path id="Trazado_150551" data-name="Trazado 150551" d="M1028.335,829.531a2.618,2.618,0,0,1-2.692,2.647,2.808,2.808,0,0,1-2.7-2.8,2.618,2.618,0,0,1,2.7-2.647A2.808,2.808,0,0,1,1028.335,829.531Z" transform="translate(-1003.943 -821.49)" fill="#fff"/>
        <path id="Trazado_150552" data-name="Trazado 150552" d="M1134.08,832.729a2.6,2.6,0,0,1-2.667,2.635,2.788,2.788,0,0,1-2.674-2.79,2.6,2.6,0,0,1,2.674-2.635A2.788,2.788,0,0,1,1134.08,832.729Z" transform="translate(-1100.29 -824.415)" fill="#fff"/>
        <g id="Grupo_107114" data-name="Grupo 107114" transform="translate(9.772 29.683)">
          <path id="Trazado_150553" data-name="Trazado 150553" d="M992.387,1101.777l-72.788-1.308v4.28l72.788,1.152Z" transform="translate(-919.598 -1100.469)" fill="#fff"/>
          <path id="Trazado_150554" data-name="Trazado 150554" d="M2347.378,1126.132v4.005l7.7.122v-3.989Z" transform="translate(-2219.866 -1123.84)" fill="#fff"/>
        </g>
        <g id="Grupo_107115" data-name="Grupo 107115" transform="translate(9.772 39.855)" style="mix-blend-mode: soft-light;isolation: isolate">
          <path id="Trazado_150555" data-name="Trazado 150555" d="M934.987,1218.937l-15.388-.164v-4.413l15.388.2Z" transform="translate(-919.598 -1214.36)" fill="#fff"/>
          <path id="Trazado_150556" data-name="Trazado 150556" d="M1274.291,1223.12l-72.385-.771v-4.357l72.385.931Z" transform="translate(-1176.694 -1217.667)" fill="#fff"/>
          <path id="Trazado_150557" data-name="Trazado 150557" d="M1216.909,1305.794l-15-.1v-4.357l15,.136Z" transform="translate(-1176.694 -1293.566)" fill="#fff"/>
          <path id="Trazado_150558" data-name="Trazado 150558" d="M1547.771,1308.619l-70.618-.484v-4.3l70.618.641Z" transform="translate(-1427.359 -1295.841)" fill="#fff"/>
          <path id="Trazado_150559" data-name="Trazado 150559" d="M1216.909,1389.079l-15-.046v-4.357l15,.079Z" transform="translate(-1176.694 -1369.465)" fill="#fff"/>
          <path id="Trazado_150560" data-name="Trazado 150560" d="M1547.771,1390.652l-70.618-.217v-4.3l70.618.374Z" transform="translate(-1427.359 -1370.791)" fill="#fff"/>
          <path id="Trazado_150561" data-name="Trazado 150561" d="M934.987,1472l-15.388.011v-4.413l15.388.023Z" transform="translate(-919.598 -1444.978)" fill="#fff"/>
          <path id="Trazado_150562" data-name="Trazado 150562" d="M1274.291,1472.323l-72.385.052v-4.358l72.385.109Z" transform="translate(-1176.694 -1445.364)" fill="#fff"/>
          <path id="Trazado_150563" data-name="Trazado 150563" d="M1216.909,1555.3l-15,.068v-4.357l15-.034Z" transform="translate(-1176.694 -1520.914)" fill="#fff"/>
          <path id="Trazado_150564" data-name="Trazado 150564" d="M1547.771,1553.071l-70.618.318v-4.3l70.618-.161Z" transform="translate(-1427.359 -1519.045)" fill="#fff"/>
          <path id="Trazado_150565" data-name="Trazado 150565" d="M1216.909,1638.006l-15,.125v-4.358l15-.091Z" transform="translate(-1176.694 -1596.233)" fill="#fff"/>
          <path id="Trazado_150566" data-name="Trazado 150566" d="M1547.771,1632.376l-70.618.585v-4.3l70.618-.429Z" transform="translate(-1427.359 -1591.268)" fill="#fff"/>
          <path id="Trazado_150567" data-name="Trazado 150567" d="M1216.909,1720.712l-15,.181v-4.357l15-.148Z" transform="translate(-1176.694 -1671.552)" fill="#fff"/>
          <path id="Trazado_150568" data-name="Trazado 150568" d="M1547.771,1711.681l-70.618.853v-4.3l70.618-.7Z" transform="translate(-1427.359 -1663.49)" fill="#fff"/>
          <path id="Trazado_150569" data-name="Trazado 150569" d="M1494.366,1799.629l-14.627.232v-4.3l14.627-.2Z" transform="translate(-1429.714 -1743.472)" fill="#fff"/>
          <path id="Trazado_150570" data-name="Trazado 150570" d="M1805.5,1789.288l-57.377.91v-4.249l57.377-.783Z" transform="translate(-1674.127 -1734.188)" fill="#fff"/>
          <path id="Trazado_150571" data-name="Trazado 150571" d="M934.987,1891.025l-15.388.3v-4.413l15.388-.268Z" transform="translate(-919.598 -1826.605)" fill="#fff"/>
          <path id="Trazado_150572" data-name="Trazado 150572" d="M1274.291,1874.8l-72.385,1.422v-4.357l72.385-1.262Z" transform="translate(-1176.694 -1811.991)" fill="#fff"/>
          <path id="Trazado_150573" data-name="Trazado 150573" d="M1216.909,1968.829l-15,.351v-4.357l15-.318Z" transform="translate(-1176.694 -1897.511)" fill="#fff"/>
          <path id="Trazado_150574" data-name="Trazado 150574" d="M1547.771,1949.6l-70.618,1.655v-4.3l70.618-1.5Z" transform="translate(-1427.359 -1880.158)" fill="#fff"/>
          <path id="Trazado_150575" data-name="Trazado 150575" d="M1216.909,2051.535l-15,.409v-4.357l15-.375Z" transform="translate(-1176.694 -1972.831)" fill="#fff"/>
          <path id="Trazado_150576" data-name="Trazado 150576" d="M1547.771,2028.9l-70.618,1.923v-4.3l70.618-1.766Z" transform="translate(-1427.359 -1952.38)" fill="#fff"/>
          <path id="Trazado_150577" data-name="Trazado 150577" d="M934.987,2142.3l-15.388.477v-4.414l15.388-.443Z" transform="translate(-919.598 -2055.44)" fill="#fff"/>
          <path id="Trazado_150578" data-name="Trazado 150578" d="M1274.291,2115.613l-72.385,2.245V2113.5l72.385-2.084Z" transform="translate(-1176.694 -2031.302)" fill="#fff"/>
          <path id="Trazado_150579" data-name="Trazado 150579" d="M1216.909,2216.947l-15,.522v-4.357l15-.489Z" transform="translate(-1176.694 -2123.47)" fill="#fff"/>
          <path id="Trazado_150580" data-name="Trazado 150580" d="M1547.771,2187.511l-70.618,2.458v-4.3l70.618-2.3Z" transform="translate(-1427.359 -2096.825)" fill="#fff"/>
        </g>
        <g id="Grupo_107116" data-name="Grupo 107116" transform="translate(0 0)" opacity="0.5" style="mix-blend-mode: soft-light;isolation: isolate">
          <path id="Trazado_150581" data-name="Trazado 150581" d="M902.808,824.266c-16.1-23.421-43.955-15.969-61.579-41.846a56.645,56.645,0,0,1-6.814-13.795l-15.847-.521a8.082,8.082,0,0,0-8.383,8.143V910.559a7.988,7.988,0,0,0,8.383,8.06l132.759-5.669c-3.041-4.386-29.53-20.633-36.373-45.578C908.7,844.561,912.519,838.4,902.808,824.266Z" transform="translate(-810.185 -768.1)" fill="#fff"/>
        </g>
      </g>
    </g>
    <g id="Grupo_107121" data-name="Grupo 107121" transform="translate(438.467 553.311)">
      <path id="Trazado_150582" data-name="Trazado 150582" d="M2457.764,3142.151s-8.037,3.676-8.167,4.26,5.173-.208,7.34-.129,3.946-.566,3.748-1.483-.962-3.223-.962-3.223Z" transform="translate(-2341.947 -2994.179)" fill="url(#linear-gradient-10)"/>
      <path id="Trazado_150583" data-name="Trazado 150583" d="M2537.691,3110.292l.5,3.621a2.838,2.838,0,0,0,2.129-.088l.355-3.974Z" transform="translate(-2422.176 -2965.288)" fill="url(#linear-gradient-11)"/>
      <path id="Trazado_150584" data-name="Trazado 150584" d="M2902.915,3114.738l.939,1.5a1.792,1.792,0,0,1,.218,1.4c-.324,1.25-.972,3.686-1.255,4.322-.386.866-5.592,1.392-5.592,1.392s-.466-.652.613-1.444,1.774-.918,2.153-2.083a30.472,30.472,0,0,0,.625-4.46Z" transform="translate(-2749.509 -2969.737)" fill="url(#linear-gradient-12)"/>
      <path id="Trazado_150585" data-name="Trazado 150585" d="M2918.236,3067.6a48.623,48.623,0,0,1,2.027,5.344s.543.691,1.568-.333.464-.459.464-.459l-.2-4.992Z" transform="translate(-2768.735 -2926.405)" fill="url(#linear-gradient-13)"/>
      <path id="Trazado_150586" data-name="Trazado 150586" d="M2483.427,2248.33c-.4,10.806-.388,22.546.264,35.086.734,14.122,2.172,27.171,3.973,39,.659.019,1.352.021,2.075,0q.733-.022,1.42-.072a89.818,89.818,0,0,0,2.958-9.541,91.8,91.8,0,0,0,2.055-11.168c1.52-12.243-.3-13.306.937-22.379,1.094-8.036,2.677-8.354,4.509-19.763,1.987-12.38.481-14.233-.25-14.9C2498.252,2241.741,2490.955,2243.7,2483.427,2248.33Z" transform="translate(-2372.514 -2176.092)" fill="#3d095a"/>
      <path id="Trazado_150587" data-name="Trazado 150587" d="M2514.72,2244.606c-2.971-2.716-9.748-1.051-16.9,3.122,8.26,8.882,9.172,14.654,8.194,18.4-1.106,4.237-4.5,5.465-4.473,10.1.03,5.69,5.168,7.185,5.074,13.206-.062,3.982-2.319,3.946-2.841,8.865-.616,5.82,2.336,7.818,1.392,12.125-.406,1.853-1.573,4.276-4.906,6.777.245,1.767.5,3.516.758,5.233.659.02,1.352.021,2.075,0,.488-.014.962-.04,1.419-.072a89.73,89.73,0,0,0,2.958-9.541,91.755,91.755,0,0,0,2.055-11.168c1.52-12.243-.3-13.306.937-22.379,1.094-8.036,2.677-8.354,4.509-19.763C2516.957,2247.128,2515.451,2245.275,2514.72,2244.606Z" transform="translate(-2385.865 -2176.108)" opacity="0.3" fill="url(#linear-gradient-14)" style="mix-blend-mode: multiply;isolation: isolate"/>
      <path id="Trazado_150588" data-name="Trazado 150588" d="M2543.3,2236.185a242.635,242.635,0,0,1,33.434,71.115,4.334,4.334,0,0,0,2.375.362,4.415,4.415,0,0,0,2.687-1.46,69.891,69.891,0,0,0,.576-17.231,59.415,59.415,0,0,0-2.455-12.945c-1.974-6.312-3.321-6.664-5.892-13.341-2.668-6.93-2.03-8.663-4.591-17.338a114.48,114.48,0,0,0-5.708-15.207Z" transform="translate(-2427.287 -2164.141)" fill="#3d095a"/>
      <path id="Trazado_150589" data-name="Trazado 150589" d="M2219.493,1747.789c.067,2.522,4.212,4.743,7.549,5.424,7.8,1.593,16.847-4.077,21.141-10.348.843-1.231,1.78-2.724,2.006-2.609.51.261-4.18,7.968-6.214,16.733-1.041,4.484-.769,6.584-2.713,9.569-.441.676-.984,1.38-.793,2.181.478,2,5.06,2.524,8.239,2.885a73.352,73.352,0,0,0,9.579.3c4.952-.072,5.343-.33,6.473.225,3.445,1.691,3.211,5.741,5.8,6.281,2.177.454,4.385-1.977,5.085-2.748,3.639-4.006,3.445-8.836,4.09-13.708,1.5-11.327,7.654-23.736,13.674-31.591,1.826-2.382,3.1-3.635,3.175-5.85.233-6.5-10.064-13.675-18.638-14.5a64.371,64.371,0,0,0-10.5.217c-1.577.149-3.255.367-5.059.683-4.375.766-7.421,1.3-10.525,2.718-12.517,5.727-9.786,18.476-23.333,27.29C2223.87,1743.973,2219.423,1745.149,2219.493,1747.789Z" transform="translate(-2132.395 -1690.367)" fill="#ffb206"/>
      <path id="Trazado_150590" data-name="Trazado 150590" d="M2716.712,1635.845a18.626,18.626,0,0,0,1.775,5.136c1.119,1.93,5.743,2.622,6.706,2.958s-1.453,2.014-4.024,2.622-10.088,1.006-11.56.2.956-1.057,2.725-1.986,2.36-4.709,1.812-6.316S2716.712,1635.845,2716.712,1635.845Z" transform="translate(-2578.326 -1622.921)" fill="#ffde95"/>
      <g id="Grupo_107119" data-name="Grupo 107119" transform="translate(131.627 6.218)">
        <path id="Trazado_150591" data-name="Trazado 150591" d="M2719.97,1566.6c-1.865-1.333-2.382-4.937-1.346-5.747.3-.231.579-.125,4.788,1.563,2.091.839,3.119,1.285,3.457,2.208a2.929,2.929,0,0,1-.055,1.925,7.394,7.394,0,0,1-.856,1.426c-.452.651-.422.629-.561.818a10.256,10.256,0,0,1-2.152,2.106,7.17,7.17,0,0,0-.342-1.193,6.331,6.331,0,0,0-.762-1.417A7.132,7.132,0,0,0,2719.97,1566.6Z" transform="translate(-2718.098 -1560.759)" fill="#12263f"/>
        <path id="Trazado_150592" data-name="Trazado 150592" d="M2740.014,1619.434a3.873,3.873,0,0,1-3.48,1.571c-2.024-.221-2.122-4.785-.783-5.694a2.564,2.564,0,0,1,2.014-.171c.411.135.544.314,1.22.521.623.191.8.129.988.3.229.211.382.709-.074,2.023a1.105,1.105,0,0,1,1.2-.336.694.694,0,0,1,.259.275C2741.617,1618.453,2741.113,1619.1,2740.014,1619.434Z" transform="translate(-2733.363 -1610.168)" fill="#ffca53"/>
      </g>
      <path id="Trazado_150593" data-name="Trazado 150593" d="M2242.947,1998.407c5.657-1.274,7.911-1.233,10.709-3.487,4.657-3.753,5.357-9.464,8.063-9.395,1.279.033,2.318,1.339,3.058,2.618l-2.044,3.2c0-.04-.012-.072-.035-.084-.226-.116-1.163,1.377-2.005,2.609-4.294,6.271-13.339,11.94-21.141,10.348a13.563,13.563,0,0,1-6.323-3.075A96.549,96.549,0,0,1,2242.947,1998.407Z" transform="translate(-2144.905 -1941.372)" opacity="0.3" fill="url(#linear-gradient-15)" style="mix-blend-mode: multiply;isolation: isolate"/>
      <path id="Trazado_150594" data-name="Trazado 150594" d="M2156.628,2186.031a21.808,21.808,0,0,1-5.094-1.132c-1.9-.814-3.131.355-2.956,1.164s3.3,1.935,4.554,1.976S2156.628,2186.031,2156.628,2186.031Z" transform="translate(-2067.798 -2122.69)" fill="url(#linear-gradient-16)"/>
      <path id="Trazado_150595" data-name="Trazado 150595" d="M2844.132,1803.941c3.427.306,11.142.445,16.6-4.6,9.083-8.4,4.577-24.4,1.415-31.278-3.625-7.887-9.4-12.3-12.9-14.985-4.35-3.328-7.005-5.36-10.2-4.905-8.262,1.176-13.983,18.109-9.448,22.957,1.485,1.587,2.955.688,7.252,2.057,1.4.446,11.844,3.772,13.662,11.464,1.272,5.384-1.968,11.688-7.735,15.922Z" transform="translate(-2686.555 -1725.158)" fill="#ffb206"/>
      <path id="Trazado_150596" data-name="Trazado 150596" d="M2468.617,1966.5c3.88-2.452,4.454-4.937,8.8-6.616,5.644-2.182,8.356.59,11.155-1.648,3.33-2.663.382-7.3,2.874-15.351.423-1.366,3.636-11.744,11.008-13.066,3.438-.617,7.978.7,9.727,3.613,1.369,2.28.094,3.979,1.758,6.5s3.654,1.9,5.774,4c3.367,3.331,3.884,10.355.843,14.327-1.418,1.853-3.26,2.585-6.728,3.964a32.644,32.644,0,0,1-5.782,1.7c4.246-4.075,6.449-9.33,5.364-13.92-1.133-4.795-5.618-7.893-9.175-9.655a67.065,67.065,0,0,0-7.437,21.771c-.646,4.872-.451,9.7-4.091,13.708-.7.771-2.908,3.2-5.085,2.748-2.592-.54-2.359-4.591-5.8-6.281-1.13-.555-1.52-.3-6.473-.225a73.335,73.335,0,0,1-9.579-.3c-2.826-.321-6.756-.771-7.929-2.275A20.661,20.661,0,0,0,2468.617,1966.5Z" transform="translate(-2349.454 -1890.508)" opacity="0.3" fill="url(#linear-gradient-15)" style="mix-blend-mode: multiply;isolation: isolate"/>
      <g id="Grupo_107120" data-name="Grupo 107120" transform="translate(0 0)">
        <path id="Trazado_150597" data-name="Trazado 150597" d="M2170.124,2111.434l.4-1.174a3.481,3.481,0,0,0-2.336-4.456l-75.524-23.006-2.3,7.8,75.142,23.145A3.728,3.728,0,0,0,2170.124,2111.434Z" transform="translate(-2014.797 -2029.957)" fill="#29063c"/>
        <path id="Trazado_150598" data-name="Trazado 150598" d="M1261.976,1522.843c5.774-22.813,28.4-36.56,50.78-30.117,22.789,6.561,35.835,31.253,28.912,54.528-6.761,22.729-29.948,34.99-51.585,27.978C1268.821,1568.34,1256.333,1545.137,1261.976,1522.843Zm73.118,22.4c5.722-19.479-5.2-40.11-24.226-45.646-18.743-5.452-37.784,5.992-42.7,25.146-4.819,18.786,5.7,38.368,23.658,44.137C1310.049,1574.731,1329.485,1564.335,1335.094,1545.24Z" transform="translate(-1259.159 -1491.135)" fill="#29063c"/>
        <path id="Trazado_150599" data-name="Trazado 150599" d="M2092.663,2082.8l9.629,2.933a10.008,10.008,0,0,0,3.238,5.9c4.864,4.032,11.359-.366,20.421,4.362,4.547,2.373,3.683,3.882,7.945,5.538,7.046,2.737,10.271-1.054,16.508,1.437,6.307,2.52,6.929,7.965,10.506,7.769,1.53-.083,3.5-1.2,5.7-5.417l1.58.481a3.481,3.481,0,0,1,2.336,4.456l-.4,1.174a3.728,3.728,0,0,1-4.62,2.308l-75.142-23.145Z" transform="translate(-2014.797 -2029.957)" fill="#d8dee8" opacity="0.3" style="mix-blend-mode: multiply;isolation: isolate"/>
        <path id="Trazado_150600" data-name="Trazado 150600" d="M1245.6,1544.75c5.774-22.813,28.4-36.561,50.78-30.117,22.788,6.562,35.835,31.253,28.911,54.528-6.761,22.729-29.948,34.99-51.585,27.978C1252.441,1590.247,1239.953,1567.043,1245.6,1544.75Zm73.118,22.4c5.722-19.479-5.2-40.11-24.226-45.646-18.742-5.453-37.784,5.992-42.7,25.146-4.819,18.786,5.7,38.368,23.659,44.137C1293.669,1596.638,1313.1,1586.242,1318.715,1567.147Z" transform="translate(-1244.242 -1511.085)" fill="#7f17b7"/>
        <path id="Trazado_150601" data-name="Trazado 150601" d="M1270.749,1571.063c5.472-21.518,26.833-34.447,47.923-28.353,21.454,6.2,33.747,29.45,27.252,51.38-6.351,21.444-28.209,33.05-48.64,26.449C1277.189,1614.046,1265.394,1592.119,1270.749,1571.063Zm70.931,21.727c5.722-19.479-5.2-40.11-24.226-45.646-18.742-5.453-37.784,5.992-42.7,25.146-4.819,18.786,5.7,38.368,23.659,44.137C1316.635,1622.281,1336.07,1611.885,1341.68,1592.79Z" transform="translate(-1267.207 -1536.728)" fill="#29063c"/>
      </g>
      <path id="Trazado_150602" data-name="Trazado 150602" d="M2927.107,2334.435l-.763-1.9a3.9,3.9,0,0,1-2.268-.657,2.953,2.953,0,0,0-1.833-.439c-.287.08-1.373.032-.135.622s1.227,1.029.711,1.513a8.967,8.967,0,0,1-3.183,1.577c-.707.05.57,1.142,1.283,1.282a4.394,4.394,0,0,0,3.325-.535C2924.77,2335.59,2927.107,2334.435,2927.107,2334.435Z" transform="translate(-2769.821 -2256.374)" fill="#ffde95"/>
    </g>
    <g id="Grupo_107123" data-name="Grupo 107123" transform="translate(528.004 461.342)">
      <path id="Trazado_150603" data-name="Trazado 150603" d="M2282.431,549.156a9.178,9.178,0,0,1-4.995-1.292,96.544,96.544,0,0,1-17.354-13.153c-7.69-7.5-12.108-15.116-13.075-22.6l-.015-.117-.187-31.927c0-6.31,4.115-11.432,11.842-14.8,6.384-2.781,14.845-4.158,23.784-3.9,8.834.256,17.009,2.079,23.06,5.116,7.193,3.611,10.967,8.685,10.967,14.7l-.171,30.506-.014.112c-.883,7.165-4.948,14.571-12.133,22.061a100.175,100.175,0,0,1-16.747,13.717A9.5,9.5,0,0,1,2282.431,549.156Z" transform="translate(-2246.805 -461.342)" fill="url(#linear-gradient-18)"/>
      <path id="Trazado_150604" data-name="Trazado 150604" d="M2306.861,549.156a8.967,8.967,0,0,1-4.929-1.292,95.415,95.415,0,0,1-17.125-13.153c-7.588-7.5-11.948-15.116-12.9-22.6l-.015-.117-.185-31.927c0-6.31,4.061-11.432,11.686-14.8,6.3-2.781,14.648-4.158,23.469-3.9,8.718.256,16.785,2.079,22.756,5.116,7.1,3.611,10.822,8.685,10.822,14.7l-.169,30.506-.014.112c-.872,7.165-4.883,14.571-11.972,22.061a99.158,99.158,0,0,1-16.526,13.717A9.3,9.3,0,0,1,2306.861,549.156Z" transform="translate(-2269.482 -461.342)" fill="url(#linear-gradient-19)"/>
      <path id="Trazado_150605" data-name="Trazado 150605" d="M2295.31,500.091l.186,31.765c2.091,16.208,21.138,29.33,29.434,34.315a7.324,7.324,0,0,0,7.775-.209c8.123-5.345,26.127-18.8,28.051-34.384l.171-30.422C2360.927,478.586,2295.31,476.522,2295.31,500.091Z" transform="translate(-2290.978 -481.34)" fill="#ffb206"/>
      <path id="Trazado_150606" data-name="Trazado 150606" d="M2392.964,621.756a1.133,1.133,0,0,1-.615-.163,90.15,90.15,0,0,1-15.8-12.059c-6.222-6.112-9.81-12.054-10.634-17.635l-.183-31.239c.008-3,2.381-5.563,7.031-7.615,5.192-2.291,12.566-3.494,20.2-3.313,7.555.179,14.714,1.7,19.673,4.161,4.387,2.177,6.6,4.743,6.612,7.636l-.17,30.158c-.768,5.4-4.136,11.223-10.049,17.343a93.676,93.676,0,0,1-15.451,12.535A1.174,1.174,0,0,1,2392.964,621.756Z" transform="translate(-2355.114 -541.821)" fill="url(#linear-gradient-20)"/>
      <path id="Trazado_150607" data-name="Trazado 150607" d="M2405.5,639.73a87.6,87.6,0,0,1-14.935-11.494c-5.847-5.755-9.231-11.277-10.027-16.386l-.181-31.058c.005-2.143,1.975-4.109,5.84-5.82,4.918-2.178,11.966-3.325,19.3-3.161,7.267.163,14.116,1.6,18.823,3.927,3.657,1.81,5.508,3.783,5.513,5.874l-.17,30.047c-.746,4.957-3.938,10.379-9.519,16.145A90.952,90.952,0,0,1,2405.5,639.73Z" transform="translate(-2368.429 -561.931)" fill="#b734fd"/>
      <g id="Grupo_107122" data-name="Grupo 107122" transform="translate(22.944 22.579)" style="mix-blend-mode: soft-light;isolation: isolate">
        <path id="Trazado_150608" data-name="Trazado 150608" d="M2530.18,877.16l-23.229.207a3.2,3.2,0,0,0-3.24,3.108v14.883a3,3,0,0,0,3.229,2.928l23.147-.948a3.117,3.117,0,0,0,2.99-3.045l.073-14.218A2.911,2.911,0,0,0,2530.18,877.16Z" transform="translate(-2503.711 -862.603)" fill="#fff"/>
        <path id="Trazado_150609" data-name="Trazado 150609" d="M2552.731,727.244a1.239,1.239,0,0,1-1.259-1.238l.014-3.242a6.024,6.024,0,0,0-6.033-5.968l-7.582-.075a6.163,6.163,0,0,0-6.33,6.032l0,3.344a1.331,1.331,0,0,1-1.352,1.295,1.314,1.314,0,0,1-1.356-1.282v-3.358a8.77,8.77,0,0,1,9.044-8.587l7.585.106a8.572,8.572,0,0,1,8.55,8.5l-.015,3.229A1.267,1.267,0,0,1,2552.731,727.244Z" transform="translate(-2526.587 -714.163)" fill="#fff"/>
        <path id="Trazado_150610" data-name="Trazado 150610" d="M2644.358,943.757a2.876,2.876,0,0,0-3.128-2.834,3.073,3.073,0,0,0-2.876,2.806,2.8,2.8,0,0,0,1.5,2.644,1.037,1.037,0,0,1,.521,1.107l-.671,3.76a.756.756,0,0,0,.794.882l1.7-.06a.818.818,0,0,0,.793-.933l-.649-3.724a1.108,1.108,0,0,1,.554-1.128A2.969,2.969,0,0,0,2644.358,943.757Z" transform="translate(-2626.325 -920.666)" fill="url(#linear-gradient-20)"/>
      </g>
    </g>
  </g>
</svg>
