<svg xmlns="http://www.w3.org/2000/svg" width="150" height="90" viewBox="0 0 150 90">
  <g id="Grupo_108569" data-name="Grupo 108569" transform="translate(-220 -3482)">
    <path id="Trazado_150353" data-name="Trazado 150353" d="M25.929,0h117A7.071,7.071,0,0,1,150,7.071h0A25.929,25.929,0,0,1,124.071,33h-117A7.071,7.071,0,0,1,0,25.929,25.929,25.929,0,0,1,25.929,0Z" transform="translate(220 3511)" fill="#ffb206" opacity="0.999"/>
    <g id="notas" transform="translate(252.594 3482)">
      <path id="Trazado_150345" data-name="Trazado 150345" d="M68.139,48.686V78.939a24.838,24.838,0,0,0-3.744-.3,26.153,26.153,0,0,0-19.656,43.468v3.332H6.362a5.608,5.608,0,0,1-5.616-5.616V48.686A5.609,5.609,0,0,1,6.362,43.07H62.523A5.609,5.609,0,0,1,68.139,48.686Zm0,0" transform="translate(-0.28 -35.511)" fill="#fff"/>
      <path id="Trazado_150346" data-name="Trazado 150346" d="M117.9,4.15h-6.642a7.449,7.449,0,0,0-12.924,0H91.694a5.623,5.623,0,0,0-5.616,5.616V13.51a1.873,1.873,0,0,0,1.872,1.872h33.7a1.873,1.873,0,0,0,1.872-1.872V9.766A5.623,5.623,0,0,0,117.9,4.15Zm0,0" transform="translate(-70.636 -0.335)" fill="#e01650"/>
      <path id="Trazado_150347" data-name="Trazado 150347" d="M287.263,298.33a20.592,20.592,0,1,1-20.592-20.592A20.592,20.592,0,0,1,287.263,298.33Zm0,0" transform="translate(-202.556 -228.994)" fill="#8f52f5"/>
      <path id="Trazado_150348" data-name="Trazado 150348" d="M267.014,319.329a20.592,20.592,0,1,1,20.593-20.593A20.615,20.615,0,0,1,267.014,319.329Zm0-37.441a16.848,16.848,0,1,0,16.848,16.848A16.869,16.869,0,0,0,267.014,281.888Zm0,0" transform="translate(-202.839 -229.329)"/>
      <path id="Trazado_150349" data-name="Trazado 150349" d="M298.444,360.879a1.879,1.879,0,0,1-1.325-.547l-7.488-7.488a1.872,1.872,0,0,1,2.647-2.648l6.162,6.163,13.651-13.651a1.872,1.872,0,0,1,2.648,2.647l-14.977,14.976A1.849,1.849,0,0,1,298.444,360.879Zm0,0" transform="translate(-238.013 -282.111)"/>
      <path id="Trazado_150350" data-name="Trazado 150350" d="M294.587,80.108a1.873,1.873,0,0,1-1.872-1.872V48.284a1.872,1.872,0,0,0-1.872-1.872H279.611a1.872,1.872,0,1,1,0-3.744h11.232a5.623,5.623,0,0,1,5.616,5.616V78.236A1.873,1.873,0,0,1,294.587,80.108Zm0,0" transform="translate(-228.66 -35.18)"/>
      <path id="Trazado_150351" data-name="Trazado 150351" d="M45.335,125.037H6.022a5.623,5.623,0,0,1-5.616-5.616V48.284a5.623,5.623,0,0,1,5.616-5.616H17.255a1.872,1.872,0,0,1,0,3.744H6.022A1.873,1.873,0,0,0,4.15,48.284v71.137a1.873,1.873,0,0,0,1.872,1.872H45.335a1.872,1.872,0,0,1,0,3.744Zm0,0" transform="translate(0 -35.18)"/>
      <path id="Trazado_150352" data-name="Trazado 150352" d="M121.307,14.976h-33.7A1.872,1.872,0,0,1,85.738,13.1V9.36a5.623,5.623,0,0,1,5.616-5.616H98a7.449,7.449,0,0,1,12.924,0h6.642a5.623,5.623,0,0,1,5.616,5.616V13.1A1.872,1.872,0,0,1,121.307,14.976ZM89.482,11.232h29.953V9.36a1.872,1.872,0,0,0-1.872-1.872H109.73a1.873,1.873,0,0,1-1.763-1.247,3.713,3.713,0,0,0-7.017,0,1.876,1.876,0,0,1-1.763,1.247H91.354A1.873,1.873,0,0,0,89.482,9.36Zm0,0" transform="translate(-70.356)"/>
    </g>
  </g>
</svg>
