<svg xmlns="http://www.w3.org/2000/svg" width="81.68" height="77.631" viewBox="0 0 81.68 77.631">
  <g id="threat" transform="translate(0 -12.688)">
    <g id="Grupo_87655" data-name="Grupo 87655" transform="translate(1.196 28.04)">
      <path id="Trazado_149809" data-name="Trazado 149809" d="M35.4,108.923H75.5a2.729,2.729,0,0,1,2.718,2.718v43.112a2.725,2.725,0,0,1-2.718,2.713H10.209A2.721,2.721,0,0,1,7.5,154.752V111.641a2.725,2.725,0,0,1,2.713-2.718Z" transform="translate(-7.496 -108.923)" fill="#fff" fill-rule="evenodd"/>
    </g>
    <g id="Grupo_87656" data-name="Grupo 87656" transform="translate(28.361 73.834)">
      <path id="Trazado_149810" data-name="Trazado 149810" d="M195.15,398.723l-9.18-2.75-8.194,2.75V405l8.687,2.51L195.15,405Z" transform="translate(-177.776 -395.973)" fill="#d2b7ff" fill-rule="evenodd"/>
    </g>
    <g id="Grupo_87657" data-name="Grupo 87657" transform="translate(7.531 57.115)">
      <path id="Trazado_149811" data-name="Trazado 149811" d="M53.2,291.221a6.006,6.006,0,0,0-5.987,5.988v5.96l46.6-.027v-5.983a6,6,0,0,0-5.983-5.988C81.7,291.171,59.732,291.221,53.2,291.221Z" transform="translate(-47.21 -291.171)" fill="#3d095a" fill-rule="evenodd"/>
    </g>
    <g id="Grupo_87658" data-name="Grupo 87658" transform="translate(1.196 69.112)">
      <path id="Trazado_149812" data-name="Trazado 149812" d="M13.831,366.378H7.495v4.758a2.721,2.721,0,0,0,2.713,2.713H75.5a2.725,2.725,0,0,0,2.718-2.713v-4.758H37.129l-23.3.027Z" transform="translate(-7.495 -366.378)" fill="#d2b7ff" fill-rule="evenodd"/>
    </g>
    <g id="Grupo_87659" data-name="Grupo 87659" transform="translate(17.901 82.856)">
      <path id="Trazado_149813" data-name="Trazado 149813" d="M140.043,452.527h-24.7a3.145,3.145,0,0,0-3.138,3.134v2.306a.831.831,0,0,0,.828.828h36.634a.832.832,0,0,0,.832-.828v-2.306a3.145,3.145,0,0,0-3.138-3.134Z" transform="translate(-112.209 -452.527)" fill="#d2b7ff" fill-rule="evenodd"/>
    </g>
    <g id="Grupo_87660" data-name="Grupo 87660" transform="translate(53.561 13.884)">
      <path id="Trazado_149814" data-name="Trazado 149814" d="M339.606,34.34,336.052,40.5a2.456,2.456,0,0,0,2.1,3.636h22.1a2.456,2.456,0,0,0,2.1-3.636l-5.526-9.569L351.3,21.365a2.457,2.457,0,0,0-4.2,0l-5.526,9.569Z" transform="translate(-335.743 -20.183)" fill="#ffb206" fill-rule="evenodd"/>
    </g>
    <g id="Grupo_87661" data-name="Grupo 87661" transform="translate(42.8 57.115)">
      <path id="Trazado_149815" data-name="Trazado 149815" d="M273.632,291.171H271.67c-.977,0-2.121,0-3.383,0a5.924,5.924,0,0,1,3.242.963,5.994,5.994,0,0,1,2.74,5.024v5.983l5.345,0v-5.983A6,6,0,0,0,273.632,291.171Z" transform="translate(-268.287 -291.171)" fill="#29063c" fill-rule="evenodd"/>
    </g>
    <g id="Grupo_87662" data-name="Grupo 87662" transform="translate(12.985 36.493)">
      <path id="Trazado_149816" data-name="Trazado 149816" d="M83.8,161.9c-3.473,0-3.152,7.041.787,7.041H85.8c1.972-2.75,1.411-4.866-.547-7.041Z" transform="translate(-81.394 -161.905)" fill="#f5a96c" fill-rule="evenodd"/>
    </g>
    <g id="Grupo_87663" data-name="Grupo 87663" transform="translate(43.556 36.493)">
      <path id="Trazado_149817" data-name="Trazado 149817" d="M274.042,168.946h1.366c3.939,0,4.26-7.041.787-7.041h-1.574C272.767,163.963,272.469,166.115,274.042,168.946Z" transform="translate(-273.025 -161.905)" fill="#f5a96c" fill-rule="evenodd"/>
    </g>
    <g id="Grupo_87664" data-name="Grupo 87664" transform="translate(15.612 48.955)">
      <path id="Trazado_149818" data-name="Trazado 149818" d="M103.048,240.375a8.118,8.118,0,0,0-5.183,7.2,7.8,7.8,0,0,0,7.774,7.778l6.449,0C114.208,249.727,109.035,237.842,103.048,240.375Z" transform="translate(-97.865 -240.025)" fill="#ffde95" fill-rule="evenodd"/>
    </g>
    <g id="Grupo_87665" data-name="Grupo 87665" transform="translate(32.076 49.264)">
      <path id="Trazado_149819" data-name="Trazado 149819" d="M203.718,244.018c-3.885.4-2.225,8.262-2.645,12.956l6.349,0A7.8,7.8,0,0,0,215.2,249.2c0-.208-.009-.416-.027-.62A8.169,8.169,0,0,0,210.086,242C207.671,241.653,207.209,243.656,203.718,244.018Z" transform="translate(-201.067 -241.96)" fill="#ffde95" fill-rule="evenodd"/>
    </g>
    <g id="Grupo_87666" data-name="Grupo 87666" transform="translate(24.169 49.9)">
      <path id="Trazado_149820" data-name="Trazado 149820" d="M151.5,253.078c0,3.921,2.532,7.136,5.666,7.245h2.247c3.12-.127,5.639-3.338,5.639-7.245v-4.771c-5-3.283-8.931-3.026-13.553.036Z" transform="translate(-151.498 -245.945)" fill="#ffbc85" fill-rule="evenodd"/>
    </g>
    <g id="Grupo_87667" data-name="Grupo 87667" transform="translate(17.39 38.809)">
      <path id="Trazado_149821" data-name="Trazado 149821" d="M112.411,186.922a18.36,18.36,0,0,0,3.374,2.994,15.533,15.533,0,0,0,3.482,1.8,11.071,11.071,0,0,0,3.256.715,11.041,11.041,0,0,0,3.256-.715,16.017,16.017,0,0,0,3.559-1.841,18.981,18.981,0,0,0,3.374-2.958,16.711,16.711,0,0,0,3.478-5.771l-7.864-2.9c-1.94-.715-3.79-1.958-5.8-1.809-1.506.113-2.9,1.334-4.4,1.809l-9.121,2.9a16.792,16.792,0,0,0,3.405,5.771Z" transform="translate(-109.006 -176.427)" fill="#7f17b7" fill-rule="evenodd"/>
    </g>
    <g id="Grupo_87668" data-name="Grupo 87668" transform="translate(16.843 19.078)">
      <path id="Trazado_149822" data-name="Trazado 149822" d="M133.885,66.8c-.52-18.813-28.314-18.713-28.309.068v.85l14.837,2.433,13.472-2.433Z" transform="translate(-105.576 -52.74)" fill="#3d095a" fill-rule="evenodd"/>
    </g>
    <g id="Grupo_87669" data-name="Grupo 87669" transform="translate(16.843 34.06)">
      <path id="Trazado_149823" data-name="Trazado 149823" d="M119.64,154.319c2.012-.149,3.735,1.809,5.8,1.809h7.864c.118-.344.212-.687.294-1.027a10.754,10.754,0,0,0,.285-2.419v-6.028H105.576v6.322a9.231,9.231,0,0,0,.258,2.13c.081.339.176.683.289,1.022h9.121C116.814,156.128,118.134,154.432,119.64,154.319Z" transform="translate(-105.576 -146.654)" fill="#fed1a3" fill-rule="evenodd"/>
    </g>
    <g id="Grupo_87670" data-name="Grupo 87670" transform="translate(30.622 19.076)">
      <path id="Trazado_149824" data-name="Trazado 149824" d="M191.95,52.73c5.571,1.384,10.347,5.915,10.559,13.612v1.37h3.971v-.918C206.218,57.306,199.023,52.63,191.95,52.73Z" transform="translate(-191.95 -52.728)" fill="#29063c" fill-rule="evenodd"/>
    </g>
    <g id="Grupo_87671" data-name="Grupo 87671" transform="translate(40.449 34.06)">
      <path id="Trazado_149825" data-name="Trazado 149825" d="M254.281,148.63v3.6a10.759,10.759,0,0,1-.28,2.424c-.009.036-.018.077-.027.113-.077.3-.163.606-.267.913-.05.149-.1.3-.158.452h4.124c.118-.344.213-.687.294-1.027a10.754,10.754,0,0,0,.285-2.419v-6.028h-3.971v1.976Z" transform="translate(-253.548 -146.654)" fill="#ffbc85" fill-rule="evenodd"/>
    </g>
    <g id="Grupo_87672" data-name="Grupo 87672" transform="translate(28.044 43.534)">
      <path id="Trazado_149826" data-name="Trazado 149826" d="M188.2,206.043a17.113,17.113,0,0,1-3.319,5.318,19.571,19.571,0,0,1-2.049,1.963c-.24.194-.488.389-.737.574-.194.145-.389.285-.588.421-.217.145-.434.289-.66.425a15.347,15.347,0,0,1-2.9,1.416,13.372,13.372,0,0,1-1.632.488c-.176.036-.348.072-.52.1q.339.109.665.2a10.071,10.071,0,0,0,2.2.371,9.181,9.181,0,0,0,1.339-.167,12.7,12.7,0,0,0,1.917-.547,16.017,16.017,0,0,0,3.559-1.841,18.979,18.979,0,0,0,3.374-2.958,16.711,16.711,0,0,0,3.478-5.771H188.2Z" transform="translate(-175.792 -206.043)" fill="#3d095a" fill-rule="evenodd"/>
    </g>
    <g id="Grupo_87673" data-name="Grupo 87673" transform="translate(37.943 49.305)">
      <path id="Trazado_149827" data-name="Trazado 149827" d="M239.385,243.8a8.007,8.007,0,0,1,3.211,4.988c.032.185.059.38.072.57a5.621,5.621,0,0,1,.032.62,7.8,7.8,0,0,1-4.857,7.2h.488a7.8,7.8,0,0,0,7.774-7.774c0-.208-.009-.416-.027-.62a8.169,8.169,0,0,0-5.083-6.576A19.065,19.065,0,0,1,239.385,243.8Z" transform="translate(-237.843 -242.215)" fill="#ffca53" fill-rule="evenodd"/>
    </g>
    <g id="Grupo_87674" data-name="Grupo 87674" transform="translate(24.169 52.262)">
      <path id="Trazado_149828" data-name="Trazado 149828" d="M151.5,260.789v4.156c0,1.687,7.778,3.3,10.749,1.352.244-.158.475-.027.461.538v2.121a8.7,8.7,0,0,1-.434,2.736,7.783,7.783,0,0,0,2.777-6.168v-4.771a16.028,16.028,0,0,1-3.559,1.841,12.693,12.693,0,0,1-1.917.547,9.185,9.185,0,0,1-1.339.167,10.061,10.061,0,0,1-2.2-.371q-.326-.095-.665-.2c-.131-.045-.262-.09-.393-.14a15.528,15.528,0,0,1-3.482-1.8Z" transform="translate(-151.498 -260.753)" fill="#f5a96c" fill-rule="evenodd"/>
    </g>
    <g id="Grupo_87675" data-name="Grupo 87675" transform="translate(65.615 37.84)">
      <path id="Trazado_149829" data-name="Trazado 149829" d="M411.3,170.353v31.272h6.3V170.353h-6.3Z" transform="translate(-411.299 -170.353)" fill="#f6f6f6" fill-rule="evenodd"/>
    </g>
    <g id="Grupo_87676" data-name="Grupo 87676" transform="translate(62.901 69.112)">
      <path id="Trazado_149830" data-name="Trazado 149830" d="M403.308,366.378H397v4.758a2.721,2.721,0,0,1-2.713,2.713h6.3a2.725,2.725,0,0,0,2.718-2.713Z" transform="translate(-394.291 -366.378)" fill="#a7f" fill-rule="evenodd"/>
    </g>
    <g id="Grupo_87677" data-name="Grupo 87677" transform="translate(65.461 13.883)">
      <path id="Trazado_149831" data-name="Trazado 149831" d="M410.335,20.721a20.076,20.076,0,0,1,4.87,13.526v.339a21.345,21.345,0,0,1-2.343,9.551h10.08a2.456,2.456,0,0,0,2.1-3.636l-5.526-9.569-5.522-9.569A2.476,2.476,0,0,0,410.335,20.721Z" transform="translate(-410.335 -20.18)" fill="#e3a009" fill-rule="evenodd"/>
    </g>
    <g id="Grupo_87678" data-name="Grupo 87678" transform="translate(28.361 76.583)">
      <path id="Trazado_149832" data-name="Trazado 149832" d="M177.776,413.209v3.256h12.7c1.352.181,1.515.669,1.515,1.113v1.9h3.161v-6.272Z" transform="translate(-177.776 -413.209)" fill="#a7f" fill-rule="evenodd"/>
    </g>
    <g id="Grupo_87679" data-name="Grupo 87679" transform="translate(47.309 82.856)">
      <path id="Trazado_149833" data-name="Trazado 149833" d="M305.436,455.661a3.145,3.145,0,0,0-3.138-3.134H296.55a3.141,3.141,0,0,1,3.134,3.134v2.306a.828.828,0,0,1-.828.828H304.6a.832.832,0,0,0,.832-.828Z" transform="translate(-296.55 -452.527)" fill="#a7f" fill-rule="evenodd"/>
    </g>
    <g id="Grupo_87680" data-name="Grupo 87680" transform="translate(0 12.688)">
      <path id="Trazado_149834" data-name="Trazado 149834" d="M223.062,168.039a1.2,1.2,0,0,0,.257-.028l2.664-.583a1.2,1.2,0,0,0-.512-2.338l-2.664.583a1.2,1.2,0,0,0,.255,2.366Z" transform="translate(-186.472 -140.754)"/>
      <path id="Trazado_149835" data-name="Trazado 149835" d="M139.412,167.429l2.664.583a1.2,1.2,0,1,0,.512-2.337l-2.664-.583a1.2,1.2,0,0,0-.512,2.337Z" transform="translate(-116.381 -140.755)"/>
      <path id="Trazado_149836" data-name="Trazado 149836" d="M81.2,33.606l-5.526-9.569-5.521-9.569h0a3.63,3.63,0,0,0-3.147-1.779h0a3.561,3.561,0,0,0-3.123,1.78l-5.526,9.569-1.62,2.807h-11.7a14.222,14.222,0,0,0-3.815-5.232,15.836,15.836,0,0,0-10.612-3.729A15.5,15.5,0,0,0,20.32,21.805a13.824,13.824,0,0,0-3.5,5.039H3.91A3.916,3.916,0,0,0,0,30.759V73.869a3.914,3.914,0,0,0,3.91,3.91H27.165v3.879H21.04a4.337,4.337,0,0,0-4.335,4.33V88.3a2.026,2.026,0,0,0,2.024,2.024H55.363A2.028,2.028,0,0,0,57.391,88.3V85.989a4.338,4.338,0,0,0-4.335-4.33H46.932V77.779H69.2a3.916,3.916,0,0,0,3.914-3.91V39.037h4.954A3.624,3.624,0,0,0,81.182,37.2a3.56,3.56,0,0,0,.021-3.6ZM18.04,35.256H28.4a1.2,1.2,0,0,0,0-2.393H18.044c.168-8.527,6.61-12.5,12.6-12.587h.2c4.938,0,10.2,2.559,12.237,8.119,0,.009.007.018.01.027a14.872,14.872,0,0,1,.853,4.442h-10.4a1.2,1.2,0,0,0,0,2.393H43.955v4.832a9.483,9.483,0,0,1-.253,2.146c-.008.034-.018.069-.026.1H36.709a5.619,5.619,0,0,1-2.307-.794,6.857,6.857,0,0,0-3.585-1.011A5.934,5.934,0,0,0,28.2,41.6a3.876,3.876,0,0,1-1.687.741h-8.22c-.008-.034-.018-.068-.026-.1a8.052,8.052,0,0,1-.225-1.854V35.256ZM33.756,52.977a9.944,9.944,0,0,1-2.849.642,9.95,9.95,0,0,1-2.849-.641,14.491,14.491,0,0,1-3.212-1.666l-.017-.011a17.241,17.241,0,0,1-3.036-2.656,1.19,1.19,0,0,0-.22-.249,16.142,16.142,0,0,1-2.423-3.665h7.362a5.637,5.637,0,0,0,2.94-1.1A4.194,4.194,0,0,1,31,42.918a4.988,4.988,0,0,1,2.335.764,7.544,7.544,0,0,0,3.379,1.048H42.8A17.213,17.213,0,0,1,33.756,52.977ZM45.009,56.5a6.585,6.585,0,0,1-6.578,6.577H36.792a9.32,9.32,0,0,0,2.126-6.045V52.879a20.274,20.274,0,0,0,2.45-2.116,6.719,6.719,0,0,1,3.64,5.737Zm-8.484-2.132v2.666c0,3.215-2.037,5.939-4.481,6.047H29.88c-2.459-.082-4.515-2.817-4.515-6.049V54.4a15.588,15.588,0,0,0,1.879.828,12.162,12.162,0,0,0,3.605.784h.115a12.157,12.157,0,0,0,3.605-.784,16.244,16.244,0,0,0,1.956-.861ZM25.1,63.085H23.387A6.587,6.587,0,0,1,16.809,56.5a6.835,6.835,0,0,1,3.713-5.747,19.948,19.948,0,0,0,2.45,2.146v4.131A9.322,9.322,0,0,0,25.1,63.085ZM2.393,30.759A1.521,1.521,0,0,1,3.91,29.237H16.074a17.984,17.984,0,0,0-.428,3.972h0V35.3h-.26A3.305,3.305,0,0,0,12.6,36.77a5.056,5.056,0,0,0-.81,2.85c0,2.477,1.537,5.111,4.385,5.111h.375a17.74,17.74,0,0,0,2.385,4.18,9.169,9.169,0,0,0-4.5,7.058h-.917a7.192,7.192,0,0,0-7.184,7.184v4.764H2.393ZM15.834,42.305c-1.2-.231-1.652-1.682-1.652-2.685a2.7,2.7,0,0,1,.387-1.492.916.916,0,0,1,.818-.439h.26v2.693a10.274,10.274,0,0,0,.188,1.923ZM53.056,84.052A1.942,1.942,0,0,1,55,85.989v1.938H19.1V85.989a1.942,1.942,0,0,1,1.942-1.937H53.056Zm-23.5-2.393V77.779H44.538v3.879Zm41.164-7.789A1.521,1.521,0,0,1,69.2,75.386H3.91a1.519,1.519,0,0,1-1.517-1.517V70.308H7.28a1.185,1.185,0,0,0,.5,0H26.127a1.2,1.2,0,1,0,0-2.393H8.728V63.152a4.8,4.8,0,0,1,4.791-4.791h1.092a8.986,8.986,0,0,0,8.777,7.118l6.479,0c.043,0,.085,0,.127,0h1.9c.057,0,.114,0,.171-.005l6.368,0a8.985,8.985,0,0,0,8.786-7.159h.928A4.794,4.794,0,0,1,52.932,63.1v4.816l-21.4,0a1.2,1.2,0,0,0,0,2.393l39.191,0Zm0-5.954-15.4,0V63.1a7.19,7.19,0,0,0-7.179-7.184h-.766a9.161,9.161,0,0,0-4.4-6.99,17.59,17.59,0,0,0,2.436-4.2h.526c2.848,0,4.385-2.633,4.385-5.111a5.056,5.056,0,0,0-.81-2.85A3.3,3.3,0,0,0,46.725,35.3h-.377V33.142c0-.006,0-.011,0-.017s0-.011,0-.016a18.223,18.223,0,0,0-.512-3.872h9.519l-2.521,4.369a3.625,3.625,0,0,0,.032,3.614,3.558,3.558,0,0,0,3.1,1.816H70.721V67.916ZM46.127,42.327a11.754,11.754,0,0,0,.221-2.239v-2.4h.377a.916.916,0,0,1,.818.439,2.7,2.7,0,0,1,.387,1.492C47.93,40.664,47.445,42.193,46.127,42.327Zm32.982-6.321a1.211,1.211,0,0,1-1.041.638h-22.1a1.19,1.19,0,0,1-1.03-.62,1.211,1.211,0,0,1-.032-1.222l5.521-9.569,5.526-9.569a1.192,1.192,0,0,1,1.053-.584h0a1.216,1.216,0,0,1,1.075.584L73.6,25.234,79.131,34.8A1.191,1.191,0,0,1,79.109,36.006Z" transform="translate(0 -12.688)"/>
      <path id="Trazado_149837" data-name="Trazado 149837" d="M413.808,61.683a1.2,1.2,0,0,0-1.2,1.2v6.969a1.2,1.2,0,0,0,2.393,0V62.879A1.2,1.2,0,0,0,413.808,61.683Z" transform="translate(-346.788 -53.867)"/>
      <path id="Trazado_149838" data-name="Trazado 149838" d="M413.808,136.406a1.2,1.2,0,0,0-1.2,1.2v.059a1.2,1.2,0,0,0,2.393,0V137.6A1.2,1.2,0,0,0,413.808,136.406Z" transform="translate(-346.788 -116.669)"/>
    </g>
  </g>
</svg>
